<svg width="140" height="164" viewBox="0 0 140 164" fill="none" xmlns="http://www.w3.org/2000/svg">
<path fill-rule="evenodd" clip-rule="evenodd" d="M58.6036 51.1216C60.2333 55.6161 61.5666 60.2604 63.4925 64.4553C67.7889 62.6575 73.7149 59.9607 79.9372 61.3091C82.7521 61.9083 85.4188 63.5564 87.6411 64.7549C89.1226 62.8073 88.9744 60.2604 90.4559 58.4626C92.8263 55.6161 96.5301 54.5674 100.234 52.7696C103.049 52.7696 106.901 52.6198 109.567 53.2191C110.308 52.9194 111.049 52.6198 112.234 52.7696C112.382 53.0693 112.53 53.2191 112.827 53.2191C113.271 57.1143 112.382 62.5076 111.938 65.8036C112.234 66.5526 112.53 67.3018 112.086 68.2007C111.049 68.5003 109.864 68.5003 108.678 68.3505C107.641 66.4028 105.123 66.4028 103.345 66.8523C99.4931 69.8486 101.567 77.3395 104.975 79.4369C106.752 78.6878 106.456 76.5904 106.901 74.6428C109.123 72.9948 113.419 74.0435 115.197 75.5416C117.419 75.9911 118.604 75.242 120.086 75.6915C120.53 76.7402 120.827 78.6878 119.641 79.1372C118.456 83.9314 117.419 87.8266 115.493 91.7218C113.419 93.3698 111.345 95.4672 108.086 95.9167C102.604 96.6658 96.5301 94.4185 92.3819 92.6207C93.4189 94.7181 95.7893 96.2163 95.9374 98.6134C96.2337 102.658 95.6412 105.954 93.8634 109.1C93.1226 110.449 91.493 111.048 91.3448 113.146C89.1226 115.543 86.3077 117.49 83.641 119.438C80.5298 120.337 76.6779 122.134 73.1223 123.033C71.1964 123.483 69.7149 124.082 67.9371 123.782C66.3074 123.633 64.9741 122.584 63.6407 124.082C63.0481 123.932 62.7518 123.633 62.1592 123.483C60.3814 114.943 60.6777 105.655 60.0851 96.3661C58.6036 96.5159 57.8628 97.4148 56.8258 98.1639C55.4924 98.3137 55.1962 97.4148 54.3073 97.1152C53.4184 93.3698 51.4924 90.6731 50.159 87.3771C47.9368 87.3771 45.8627 87.3771 44.3812 88.276C44.0849 92.4709 44.6775 96.2163 43.9367 99.5122C40.5293 99.5122 35.6403 98.6134 31.4921 98.913C30.7513 99.6621 29.7143 99.3625 28.6772 99.6621C27.9365 99.2126 26.8994 98.7631 26.455 98.0141C27.0476 96.5159 26.6031 95.3174 25.7142 94.5683C28.5291 82.1336 27.6402 68.2007 31.0477 56.6648C38.7515 54.2677 48.9739 53.2191 56.5295 50.5224C56.974 50.3726 58.1592 50.9718 58.6036 51.1216ZM60.0851 64.6051C59.1962 63.1069 58.4555 61.3091 57.7147 59.5114C57.1221 57.7136 56.8258 55.3165 55.1961 54.4176C48.5294 55.9157 40.8256 57.5637 34.0107 59.3615C30.3069 69.0995 31.7884 82.583 29.2698 92.9204C29.8624 93.3698 29.5662 94.868 29.8625 95.617C33.5662 96.2163 37.4181 96.0665 40.5293 96.0665C40.6774 92.6207 41.1219 89.6244 40.5293 86.3284C41.4182 84.5306 43.6404 85.4295 45.2701 85.2797C47.9368 85.1299 50.4553 83.9313 52.6776 84.0812C52.8258 84.5306 52.9739 84.98 53.2702 85.2797C52.9739 87.5269 54.1591 88.5756 55.1961 90.8229C55.6406 91.8716 56.2332 94.1189 57.2703 94.4185C57.5666 94.5683 59.4925 93.8193 60.2333 93.6694C63.1963 92.7705 66.3074 91.572 68.826 90.6731C66.1593 81.6841 63.0481 72.6951 60.0851 64.6051ZM91.0485 68.0508C93.1226 70.7475 94.9004 74.6427 94.6041 78.8376C94.456 81.9837 92.6781 84.5306 91.4929 86.7778C92.0855 88.1262 93.2708 89.0251 94.1597 90.0738C96.5301 90.9727 98.7523 91.8716 101.271 92.7705C105.419 93.2199 109.271 93.3698 111.79 90.8229C112.827 89.7742 113.864 87.3772 114.604 85.4295C115.345 83.3321 115.79 80.9351 115.938 78.6878C114.012 78.0886 112.382 77.3395 110.308 76.89C109.567 78.538 109.419 79.5867 108.382 80.7852C106.901 82.7328 105.419 82.8827 102.308 82.1336C99.6412 79.8863 96.6782 74.0435 97.5671 70.298C98.6042 65.5039 100.678 63.7061 105.567 63.5563C106.308 63.856 107.197 64.1557 108.382 64.0058C109.271 61.6088 109.271 59.0619 109.271 56.3652C99.9375 53.6685 90.7522 58.7622 91.0485 68.0508ZM86.7522 87.3771C89.1226 84.3808 92.0856 80.0361 90.9004 75.0922C90.7522 74.7926 90.4559 73.594 90.1596 72.8449C89.4188 71.197 88.53 70.4479 87.4929 69.2494C82.7521 63.856 72.5297 62.3578 66.0111 67.1519C65.7148 67.0021 65.2703 66.8524 64.8259 67.0022C66.3074 72.5454 68.9741 78.2383 70.4556 83.3321C71.0482 85.4295 71.4927 87.527 72.3816 89.4746C72.826 90.5233 73.5668 91.2724 73.2705 92.4709C70.6038 93.6695 66.6037 93.5196 63.937 94.868C63.1963 101.759 64.0852 110.149 64.3815 116.442C65.5667 116.292 66.6037 116.741 67.6408 116.741C71.9371 117.041 75.789 114.943 79.3446 114.344C80.9743 114.044 82.9002 114.044 84.3817 113.295C86.9003 112.097 90.0115 109.55 90.6041 106.554C90.7522 106.254 91.3448 106.554 91.1967 105.954C95.0486 98.6134 88.6781 93.5196 83.4928 91.1225C83.3447 90.8229 83.4929 90.0738 83.1966 89.7742C84.2336 88.7254 85.567 88.1262 86.7522 87.3771ZM88.6781 89.924C89.1225 90.9727 90.1596 91.2724 91.0485 91.8716C90.4559 90.9727 89.8633 90.2237 89.1226 89.4746C88.9744 89.6244 88.8262 89.7742 88.6781 89.924ZM73.2705 119.438C73.7149 119.438 74.6038 119.588 74.6038 119.138C74.0112 119.138 73.5668 119.138 73.2705 119.438ZM64.6778 120.037C66.7519 121.086 69.7149 120.936 71.789 119.887C69.7149 119.887 66.9 119.887 64.6778 119.438C64.6778 119.588 64.6778 119.887 64.6778 120.037Z" fill="#1A1A1A"/>
<path d="M69.9975 164L140 123V40.9999L69.9975 0L0 40.9999V123L69.9975 164Z" fill="#FCAA23" fill-opacity="0.95"/>
<path d="M35.6983 66.5439H37.6583L41.3123 76.4839H39.3243L38.4003 74.0059H34.9283L34.0183 76.4839H32.0303L35.6983 66.5439ZM38.0503 72.6479L36.6783 68.5459L35.2503 72.6479H38.0503ZM42.2206 76.4839V69.1479H44.0966V71.9479H47.0646V69.1479H48.9406V76.4839H47.0646V73.5159H44.0966V76.4839H42.2206ZM50.6561 76.4839V69.1479H55.5141V70.7859H52.5321V76.4839H50.6561ZM56.0577 76.5819V74.9159C56.2817 74.9066 56.4824 74.8506 56.6597 74.7479C56.8371 74.6452 56.9911 74.4726 57.1217 74.2299C57.2617 73.9779 57.3691 73.6279 57.4437 73.1799C57.5277 72.7319 57.5837 72.1579 57.6117 71.4579L57.7097 69.1479H63.2117V76.4839H61.3357V70.7859H59.3617L59.3337 71.6399C59.2964 72.6012 59.2031 73.3992 59.0537 74.0339C58.9044 74.6686 58.6944 75.1726 58.4237 75.5459C58.1624 75.9099 57.8357 76.1712 57.4437 76.3299C57.0517 76.4886 56.5897 76.5726 56.0577 76.5819ZM64.9159 76.4839V69.1479H66.7919V76.4839H64.9159ZM64.9159 68.1259V66.2639H66.7919V68.1259H64.9159ZM68.4843 76.4839V69.1619H70.3603V73.9779L73.6503 69.1479H75.3583V76.4839H73.4823V71.7799L70.2343 76.4839H68.4843ZM71.9283 68.4619C71.2096 68.4619 70.6449 68.2799 70.2343 67.9159C69.8236 67.5426 69.6183 67.0666 69.6183 66.4879H70.7803C70.7803 66.7679 70.8736 67.0012 71.0603 67.1879C71.2469 67.3746 71.5363 67.4679 71.9283 67.4679C72.3203 67.4679 72.6003 67.3792 72.7683 67.2019C72.9456 67.0246 73.0529 66.7866 73.0903 66.4879H74.2523C74.2523 67.0666 74.0469 67.5426 73.6363 67.9159C73.2256 68.2799 72.6563 68.4619 71.9283 68.4619ZM80.4862 76.6239C79.8889 76.6239 79.3522 76.5259 78.8762 76.3299C78.4002 76.1246 77.9942 75.8446 77.6582 75.4899C77.3222 75.1259 77.0609 74.7152 76.8742 74.2579C76.6969 73.8006 76.6082 73.3199 76.6082 72.8159C76.6082 72.1252 76.7622 71.4952 77.0702 70.9259C77.3875 70.3472 77.8355 69.8852 78.4142 69.5399C78.9929 69.1946 79.6789 69.0219 80.4722 69.0219C81.2655 69.0219 81.9469 69.1946 82.5162 69.5399C83.0855 69.8852 83.5102 70.3379 83.7902 70.8979L81.9562 71.4579C81.7975 71.1872 81.5875 70.9819 81.3262 70.8419C81.0649 70.6926 80.7755 70.6179 80.4582 70.6179C80.1035 70.6179 79.7769 70.7112 79.4782 70.8979C79.1889 71.0752 78.9602 71.3319 78.7922 71.6679C78.6242 71.9946 78.5402 72.3772 78.5402 72.8159C78.5402 73.2452 78.6242 73.6279 78.7922 73.9639C78.9695 74.2906 79.2029 74.5519 79.4922 74.7479C79.7815 74.9346 80.1035 75.0279 80.4582 75.0279C80.6822 75.0279 80.8922 74.9906 81.0882 74.9159C81.2935 74.8412 81.4755 74.7386 81.6342 74.6079C81.7929 74.4772 81.9095 74.3279 81.9842 74.1599L83.8182 74.7199C83.6502 75.0839 83.4029 75.4106 83.0762 75.6999C82.7589 75.9892 82.3809 76.2179 81.9422 76.3859C81.5129 76.5446 81.0275 76.6239 80.4862 76.6239ZM84.9725 76.4839V69.1479H86.8485V71.4579H88.5145C89.3919 71.4579 90.0639 71.6819 90.5305 72.1299C90.9972 72.5779 91.2305 73.1706 91.2305 73.9079C91.2305 74.4026 91.1325 74.8459 90.9365 75.2379C90.7405 75.6299 90.4512 75.9379 90.0685 76.1619C89.6859 76.3766 89.2099 76.4839 88.6405 76.4839H84.9725ZM86.8485 75.0559H88.3465C88.5985 75.0559 88.8039 75.0046 88.9625 74.9019C89.1305 74.7992 89.2519 74.6639 89.3265 74.4959C89.4105 74.3279 89.4525 74.1366 89.4525 73.9219C89.4525 73.7166 89.4152 73.5346 89.3405 73.3759C89.2659 73.2079 89.1445 73.0772 88.9765 72.9839C88.8179 72.8812 88.6032 72.8299 88.3325 72.8299H86.8485V75.0559ZM92.41 76.4839V69.1479H94.286V71.9199H94.916L96.904 69.1479H98.948L96.344 72.6899L99.228 76.4839H97.086L94.888 73.5719H94.286V76.4839H92.41ZM99.822 74.3139C99.822 73.8379 99.9527 73.4226 100.214 73.0679C100.485 72.7039 100.858 72.4239 101.334 72.2279C101.81 72.0319 102.356 71.9339 102.972 71.9339C103.28 71.9339 103.593 71.9572 103.91 72.0039C104.227 72.0506 104.503 72.1252 104.736 72.2279V71.8359C104.736 71.3692 104.596 71.0099 104.316 70.7579C104.045 70.5059 103.639 70.3799 103.098 70.3799C102.697 70.3799 102.314 70.4499 101.95 70.5899C101.586 70.7299 101.203 70.9352 100.802 71.2059L100.2 69.9739C100.685 69.6566 101.18 69.4186 101.684 69.2599C102.197 69.1012 102.734 69.0219 103.294 69.0219C104.339 69.0219 105.151 69.2832 105.73 69.8059C106.318 70.3286 106.612 71.0752 106.612 72.0459V74.3839C106.612 74.5799 106.645 74.7199 106.71 74.8039C106.785 74.8879 106.901 74.9392 107.06 74.9579V76.4839C106.892 76.5119 106.738 76.5352 106.598 76.5539C106.467 76.5726 106.355 76.5819 106.262 76.5819C105.889 76.5819 105.604 76.4979 105.408 76.3299C105.221 76.1619 105.105 75.9566 105.058 75.7139L105.016 75.3359C104.699 75.7466 104.302 76.0639 103.826 76.2879C103.35 76.5119 102.865 76.6239 102.37 76.6239C101.885 76.6239 101.446 76.5259 101.054 76.3299C100.671 76.1246 100.368 75.8492 100.144 75.5039C99.9294 75.1492 99.822 74.7526 99.822 74.3139ZM104.386 74.6919C104.489 74.5799 104.573 74.4679 104.638 74.3559C104.703 74.2439 104.736 74.1412 104.736 74.0479V73.3059C104.512 73.2126 104.269 73.1426 104.008 73.0959C103.747 73.0399 103.499 73.0119 103.266 73.0119C102.781 73.0119 102.379 73.1192 102.062 73.3339C101.754 73.5392 101.6 73.8146 101.6 74.1599C101.6 74.3466 101.651 74.5239 101.754 74.6919C101.857 74.8599 102.006 74.9952 102.202 75.0979C102.398 75.2006 102.631 75.2519 102.902 75.2519C103.182 75.2519 103.457 75.2006 103.728 75.0979C103.999 74.9859 104.218 74.8506 104.386 74.6919ZM53.2469 92.4839V85.1479H55.2069L57.5029 89.3899L59.8129 85.1479H61.7449V92.4839H59.9669V87.7379L58.0909 91.1819H56.9149L55.0249 87.7379V92.4839H53.2469ZM66.8615 92.6239C66.2642 92.6239 65.7275 92.5259 65.2515 92.3299C64.7755 92.1246 64.3695 91.8446 64.0335 91.4899C63.7068 91.1352 63.4548 90.7292 63.2775 90.2719C63.1002 89.8146 63.0115 89.3339 63.0115 88.8299C63.0115 88.3166 63.1002 87.8312 63.2775 87.3739C63.4548 86.9166 63.7068 86.5106 64.0335 86.1559C64.3695 85.8012 64.7755 85.5259 65.2515 85.3299C65.7275 85.1246 66.2642 85.0219 66.8615 85.0219C67.4588 85.0219 67.9908 85.1246 68.4575 85.3299C68.9335 85.5259 69.3395 85.8012 69.6755 86.1559C70.0115 86.5106 70.2635 86.9166 70.4315 87.3739C70.6088 87.8312 70.6975 88.3166 70.6975 88.8299C70.6975 89.3339 70.6088 89.8146 70.4315 90.2719C70.2635 90.7292 70.0115 91.1352 69.6755 91.4899C69.3488 91.8446 68.9475 92.1246 68.4715 92.3299C67.9955 92.5259 67.4588 92.6239 66.8615 92.6239ZM64.9435 88.8299C64.9435 89.2592 65.0275 89.6419 65.1955 89.9779C65.3635 90.3046 65.5922 90.5612 65.8815 90.7479C66.1708 90.9346 66.4975 91.0279 66.8615 91.0279C67.2162 91.0279 67.5382 90.9346 67.8275 90.7479C68.1168 90.5519 68.3455 90.2906 68.5135 89.9639C68.6908 89.6279 68.7795 89.2452 68.7795 88.8159C68.7795 88.3959 68.6908 88.0179 68.5135 87.6819C68.3455 87.3459 68.1168 87.0846 67.8275 86.8979C67.5382 86.7112 67.2162 86.6179 66.8615 86.6179C66.4975 86.6179 66.1708 86.7159 65.8815 86.9119C65.5922 87.0986 65.3635 87.3599 65.1955 87.6959C65.0275 88.0226 64.9435 88.4006 64.9435 88.8299ZM71.9637 92.4839V85.1479H76.0517C76.5557 85.1479 76.9617 85.2319 77.2697 85.3999C77.5871 85.5679 77.8204 85.7872 77.9697 86.0579C78.1191 86.3286 78.1937 86.6179 78.1937 86.9259C78.1937 87.3366 78.1004 87.6959 77.9137 88.0039C77.7364 88.3119 77.4564 88.5499 77.0737 88.7179C77.5031 88.8392 77.8531 89.0492 78.1237 89.3479C78.3944 89.6372 78.5297 90.0199 78.5297 90.4959C78.5297 90.9532 78.4224 91.3312 78.2077 91.6299C77.9931 91.9192 77.6851 92.1339 77.2837 92.2739C76.8824 92.4139 76.4064 92.4839 75.8557 92.4839H71.9637ZM73.7417 91.2099H75.7997C75.9677 91.2099 76.1217 91.1679 76.2617 91.0839C76.4017 90.9999 76.5091 90.8879 76.5837 90.7479C76.6677 90.6079 76.7097 90.4539 76.7097 90.2859C76.7097 90.1086 76.6724 89.9546 76.5977 89.8239C76.5231 89.6839 76.4157 89.5766 76.2757 89.5019C76.1451 89.4179 75.9911 89.3759 75.8137 89.3759H73.7417V91.2099ZM73.7417 88.1999H75.5757C75.7437 88.1999 75.8931 88.1579 76.0237 88.0739C76.1544 87.9899 76.2524 87.8779 76.3177 87.7379C76.3924 87.5979 76.4297 87.4439 76.4297 87.2759C76.4297 87.0332 76.3504 86.8326 76.1917 86.6739C76.0424 86.5059 75.8417 86.4219 75.5897 86.4219H73.7417V88.1999ZM79.3894 90.3139C79.3894 89.8379 79.5201 89.4226 79.7814 89.0679C80.0521 88.7039 80.4254 88.4239 80.9014 88.2279C81.3774 88.0319 81.9234 87.9339 82.5394 87.9339C82.8474 87.9339 83.1601 87.9572 83.4774 88.0039C83.7948 88.0506 84.0701 88.1252 84.3034 88.2279V87.8359C84.3034 87.3692 84.1634 87.0099 83.8834 86.7579C83.6128 86.5059 83.2068 86.3799 82.6654 86.3799C82.2641 86.3799 81.8814 86.4499 81.5174 86.5899C81.1534 86.7299 80.7708 86.9352 80.3694 87.2059L79.7674 85.9739C80.2528 85.6566 80.7474 85.4186 81.2514 85.2599C81.7648 85.1012 82.3014 85.0219 82.8614 85.0219C83.9068 85.0219 84.7188 85.2832 85.2974 85.8059C85.8854 86.3286 86.1794 87.0752 86.1794 88.0459V90.3839C86.1794 90.5799 86.2121 90.7199 86.2774 90.8039C86.3521 90.8879 86.4688 90.9392 86.6274 90.9579V92.4839C86.4594 92.5119 86.3054 92.5352 86.1654 92.5539C86.0348 92.5726 85.9228 92.5819 85.8294 92.5819C85.4561 92.5819 85.1714 92.4979 84.9754 92.3299C84.7888 92.1619 84.6721 91.9566 84.6254 91.7139L84.5834 91.3359C84.2661 91.7466 83.8694 92.0639 83.3934 92.2879C82.9174 92.5119 82.4321 92.6239 81.9374 92.6239C81.4521 92.6239 81.0134 92.5259 80.6214 92.3299C80.2388 92.1246 79.9354 91.8492 79.7114 91.5039C79.4968 91.1492 79.3894 90.7526 79.3894 90.3139ZM83.9534 90.6919C84.0561 90.5799 84.1401 90.4679 84.2054 90.3559C84.2708 90.2439 84.3034 90.1412 84.3034 90.0479V89.3059C84.0794 89.2126 83.8368 89.1426 83.5754 89.0959C83.3141 89.0399 83.0668 89.0119 82.8334 89.0119C82.3481 89.0119 81.9468 89.1192 81.6294 89.3339C81.3214 89.5392 81.1674 89.8146 81.1674 90.1599C81.1674 90.3466 81.2188 90.5239 81.3214 90.6919C81.4241 90.8599 81.5734 90.9952 81.7694 91.0979C81.9654 91.2006 82.1988 91.2519 82.4694 91.2519C82.7494 91.2519 83.0248 91.2006 83.2954 91.0979C83.5661 90.9859 83.7854 90.8506 83.9534 90.6919Z" fill="white"/>
</svg>
