<svg width="140" height="164" viewBox="0 0 140 164" fill="none" xmlns="http://www.w3.org/2000/svg">
<path d="M69.9975 164L140 123V40.9999L69.9975 0L0 40.9999V123L69.9975 164Z" fill="#5856D6" fill-opacity="0.85"/>
<path d="M33.4336 79.07V77.474H34.2176C34.4603 77.474 34.6423 77.4227 34.7636 77.32C34.885 77.2173 34.9923 77.054 35.0856 76.83L35.3096 76.34L31.3616 69.06H33.4896L36.1636 74.38L38.4876 69.06H40.5176L36.5556 77.74C36.313 78.2347 36.0376 78.58 35.7296 78.776C35.4216 78.972 35.011 79.07 34.4976 79.07H33.4336ZM41.227 79V71.664H43.103V74.436H43.733L45.721 71.664H47.765L45.161 75.206L48.045 79H45.903L43.705 76.088H43.103V79H41.227ZM53.6074 79.14C53.0381 79.14 52.5341 79.014 52.0954 78.762C51.6661 78.5007 51.3301 78.1507 51.0874 77.712V81.982H49.2114V71.664H50.8494V72.924C51.1294 72.4947 51.4841 72.1587 51.9134 71.916C52.3428 71.664 52.8328 71.538 53.3834 71.538C53.8781 71.538 54.3308 71.636 54.7414 71.832C55.1614 72.028 55.5254 72.3033 55.8334 72.658C56.1414 73.0033 56.3794 73.4047 56.5474 73.862C56.7248 74.31 56.8134 74.7953 56.8134 75.318C56.8134 76.0273 56.6734 76.6713 56.3934 77.25C56.1228 77.8287 55.7448 78.2907 55.2594 78.636C54.7834 78.972 54.2328 79.14 53.6074 79.14ZM52.9774 77.544C53.2668 77.544 53.5281 77.4833 53.7614 77.362C53.9948 77.2407 54.1954 77.0773 54.3634 76.872C54.5408 76.6573 54.6714 76.4193 54.7554 76.158C54.8488 75.8873 54.8954 75.6073 54.8954 75.318C54.8954 75.01 54.8441 74.7253 54.7414 74.464C54.6481 74.2027 54.5081 73.974 54.3214 73.778C54.1348 73.5727 53.9154 73.414 53.6634 73.302C53.4208 73.19 53.1548 73.134 52.8654 73.134C52.6881 73.134 52.5061 73.1667 52.3194 73.232C52.1421 73.288 51.9694 73.372 51.8014 73.484C51.6334 73.596 51.4841 73.7267 51.3534 73.876C51.2321 74.0253 51.1434 74.1887 51.0874 74.366V76.088C51.1994 76.3587 51.3488 76.606 51.5354 76.83C51.7314 77.054 51.9554 77.2313 52.2074 77.362C52.4594 77.4833 52.7161 77.544 52.9774 77.544ZM57.5805 76.83C57.5805 76.354 57.7111 75.9387 57.9725 75.584C58.2431 75.22 58.6165 74.94 59.0925 74.744C59.5685 74.548 60.1145 74.45 60.7305 74.45C61.0385 74.45 61.3511 74.4733 61.6685 74.52C61.9858 74.5667 62.2611 74.6413 62.4945 74.744V74.352C62.4945 73.8853 62.3545 73.526 62.0745 73.274C61.8038 73.022 61.3978 72.896 60.8565 72.896C60.4551 72.896 60.0725 72.966 59.7085 73.106C59.3445 73.246 58.9618 73.4513 58.5605 73.722L57.9585 72.49C58.4438 72.1727 58.9385 71.9347 59.4425 71.776C59.9558 71.6173 60.4925 71.538 61.0525 71.538C62.0978 71.538 62.9098 71.7993 63.4885 72.322C64.0765 72.8447 64.3705 73.5913 64.3705 74.562V76.9C64.3705 77.096 64.4031 77.236 64.4685 77.32C64.5431 77.404 64.6598 77.4553 64.8185 77.474V79C64.6505 79.028 64.4965 79.0513 64.3565 79.07C64.2258 79.0887 64.1138 79.098 64.0205 79.098C63.6471 79.098 63.3625 79.014 63.1665 78.846C62.9798 78.678 62.8631 78.4727 62.8165 78.23L62.7745 77.852C62.4571 78.2627 62.0605 78.58 61.5845 78.804C61.1085 79.028 60.6231 79.14 60.1285 79.14C59.6431 79.14 59.2045 79.042 58.8125 78.846C58.4298 78.6407 58.1265 78.3653 57.9025 78.02C57.6878 77.6653 57.5805 77.2687 57.5805 76.83ZM62.1445 77.208C62.2471 77.096 62.3311 76.984 62.3965 76.872C62.4618 76.76 62.4945 76.6573 62.4945 76.564V75.822C62.2705 75.7287 62.0278 75.6587 61.7665 75.612C61.5051 75.556 61.2578 75.528 61.0245 75.528C60.5391 75.528 60.1378 75.6353 59.8205 75.85C59.5125 76.0553 59.3585 76.3307 59.3585 76.676C59.3585 76.8627 59.4098 77.04 59.5125 77.208C59.6151 77.376 59.7645 77.5113 59.9605 77.614C60.1565 77.7167 60.3898 77.768 60.6605 77.768C60.9405 77.768 61.2158 77.7167 61.4865 77.614C61.7571 77.502 61.9765 77.3667 62.1445 77.208ZM66.1235 79V71.664H67.9995V79H66.1235ZM64.9335 70.53V68.864H66.4875V70.53H64.9335ZM67.6215 70.53V68.864H69.1755V70.53H67.6215ZM69.6919 79V71.664H71.5679V74.464H74.5359V71.664H76.4119V79H74.5359V76.032H71.5679V79H69.6919ZM81.5434 79.14C80.9461 79.14 80.4094 79.042 79.9334 78.846C79.4574 78.6407 79.0514 78.3607 78.7154 78.006C78.3794 77.642 78.1181 77.2313 77.9314 76.774C77.7541 76.3167 77.6654 75.836 77.6654 75.332C77.6654 74.6413 77.8194 74.0113 78.1274 73.442C78.4448 72.8633 78.8928 72.4013 79.4714 72.056C80.0501 71.7107 80.7361 71.538 81.5294 71.538C82.3228 71.538 83.0041 71.7107 83.5734 72.056C84.1428 72.4013 84.5674 72.854 84.8474 73.414L83.0134 73.974C82.8548 73.7033 82.6448 73.498 82.3834 73.358C82.1221 73.2087 81.8328 73.134 81.5154 73.134C81.1608 73.134 80.8341 73.2273 80.5354 73.414C80.2461 73.5913 80.0174 73.848 79.8494 74.184C79.6814 74.5107 79.5974 74.8933 79.5974 75.332C79.5974 75.7613 79.6814 76.144 79.8494 76.48C80.0268 76.8067 80.2601 77.068 80.5494 77.264C80.8388 77.4507 81.1608 77.544 81.5154 77.544C81.7394 77.544 81.9494 77.5067 82.1454 77.432C82.3508 77.3573 82.5328 77.2547 82.6914 77.124C82.8501 76.9933 82.9668 76.844 83.0414 76.676L84.8754 77.236C84.7074 77.6 84.4601 77.9267 84.1334 78.216C83.8161 78.5053 83.4381 78.734 82.9994 78.902C82.5701 79.0607 82.0848 79.14 81.5434 79.14ZM86.0298 79V71.664H87.9058V73.974H89.5718C90.4491 73.974 91.1211 74.198 91.5878 74.646C92.0544 75.094 92.2878 75.6867 92.2878 76.424C92.2878 76.9187 92.1898 77.362 91.9938 77.754C91.7978 78.146 91.5084 78.454 91.1258 78.678C90.7431 78.8927 90.2671 79 89.6978 79H86.0298ZM87.9058 77.572H89.4038C89.6558 77.572 89.8611 77.5207 90.0198 77.418C90.1878 77.3153 90.3091 77.18 90.3838 77.012C90.4678 76.844 90.5098 76.6527 90.5098 76.438C90.5098 76.2327 90.4724 76.0507 90.3978 75.892C90.3231 75.724 90.2018 75.5933 90.0338 75.5C89.8751 75.3973 89.6604 75.346 89.3898 75.346H87.9058V77.572ZM93.4673 79V71.664H95.3433V74.436H95.9733L97.9613 71.664H100.005L97.4013 75.206L100.285 79H98.1433L95.9453 76.088H95.3433V79H93.4673ZM100.879 76.83C100.879 76.354 101.01 75.9387 101.271 75.584C101.542 75.22 101.915 74.94 102.391 74.744C102.867 74.548 103.413 74.45 104.029 74.45C104.337 74.45 104.65 74.4733 104.967 74.52C105.285 74.5667 105.56 74.6413 105.793 74.744V74.352C105.793 73.8853 105.653 73.526 105.373 73.274C105.103 73.022 104.697 72.896 104.155 72.896C103.754 72.896 103.371 72.966 103.007 73.106C102.643 73.246 102.261 73.4513 101.859 73.722L101.257 72.49C101.743 72.1727 102.237 71.9347 102.741 71.776C103.255 71.6173 103.791 71.538 104.351 71.538C105.397 71.538 106.209 71.7993 106.787 72.322C107.375 72.8447 107.669 73.5913 107.669 74.562V76.9C107.669 77.096 107.702 77.236 107.767 77.32C107.842 77.404 107.959 77.4553 108.117 77.474V79C107.949 79.028 107.795 79.0513 107.655 79.07C107.525 79.0887 107.413 79.098 107.319 79.098C106.946 79.098 106.661 79.014 106.465 78.846C106.279 78.678 106.162 78.4727 106.115 78.23L106.073 77.852C105.756 78.2627 105.359 78.58 104.883 78.804C104.407 79.028 103.922 79.14 103.427 79.14C102.942 79.14 102.503 79.042 102.111 78.846C101.729 78.6407 101.425 78.3653 101.201 78.02C100.987 77.6653 100.879 77.2687 100.879 76.83ZM105.443 77.208C105.546 77.096 105.63 76.984 105.695 76.872C105.761 76.76 105.793 76.6573 105.793 76.564V75.822C105.569 75.7287 105.327 75.6587 105.065 75.612C104.804 75.556 104.557 75.528 104.323 75.528C103.838 75.528 103.437 75.6353 103.119 75.85C102.811 76.0553 102.657 76.3307 102.657 76.676C102.657 76.8627 102.709 77.04 102.811 77.208C102.914 77.376 103.063 77.5113 103.259 77.614C103.455 77.7167 103.689 77.768 103.959 77.768C104.239 77.768 104.515 77.7167 104.785 77.614C105.056 77.502 105.275 77.3667 105.443 77.208ZM27.1177 95V87.664H29.0777L31.3737 91.906L33.6837 87.664H35.6157V95H33.8377V90.254L31.9617 93.698H30.7857L28.8957 90.254V95H27.1177ZM40.7322 95.14C40.1349 95.14 39.5982 95.042 39.1222 94.846C38.6462 94.6407 38.2402 94.3607 37.9042 94.006C37.5776 93.6513 37.3256 93.2453 37.1482 92.788C36.9709 92.3307 36.8822 91.85 36.8822 91.346C36.8822 90.8327 36.9709 90.3473 37.1482 89.89C37.3256 89.4327 37.5776 89.0267 37.9042 88.672C38.2402 88.3173 38.6462 88.042 39.1222 87.846C39.5982 87.6407 40.1349 87.538 40.7322 87.538C41.3296 87.538 41.8616 87.6407 42.3282 87.846C42.8042 88.042 43.2102 88.3173 43.5462 88.672C43.8822 89.0267 44.1342 89.4327 44.3022 89.89C44.4796 90.3473 44.5682 90.8327 44.5682 91.346C44.5682 91.85 44.4796 92.3307 44.3022 92.788C44.1342 93.2453 43.8822 93.6513 43.5462 94.006C43.2196 94.3607 42.8182 94.6407 42.3422 94.846C41.8662 95.042 41.3296 95.14 40.7322 95.14ZM38.8142 91.346C38.8142 91.7753 38.8982 92.158 39.0662 92.494C39.2342 92.8207 39.4629 93.0773 39.7522 93.264C40.0416 93.4507 40.3682 93.544 40.7322 93.544C41.0869 93.544 41.4089 93.4507 41.6982 93.264C41.9876 93.068 42.2162 92.8067 42.3842 92.48C42.5616 92.144 42.6502 91.7613 42.6502 91.332C42.6502 90.912 42.5616 90.534 42.3842 90.198C42.2162 89.862 41.9876 89.6007 41.6982 89.414C41.4089 89.2273 41.0869 89.134 40.7322 89.134C40.3682 89.134 40.0416 89.232 39.7522 89.428C39.4629 89.6147 39.2342 89.876 39.0662 90.212C38.8982 90.5387 38.8142 90.9167 38.8142 91.346ZM45.8345 95V87.664H49.9225C50.4265 87.664 50.8325 87.748 51.1405 87.916C51.4578 88.084 51.6911 88.3033 51.8405 88.574C51.9898 88.8447 52.0645 89.134 52.0645 89.442C52.0645 89.8527 51.9711 90.212 51.7845 90.52C51.6071 90.828 51.3271 91.066 50.9445 91.234C51.3738 91.3553 51.7238 91.5653 51.9945 91.864C52.2651 92.1533 52.4005 92.536 52.4005 93.012C52.4005 93.4693 52.2931 93.8473 52.0785 94.146C51.8638 94.4353 51.5558 94.65 51.1545 94.79C50.7531 94.93 50.2771 95 49.7265 95H45.8345ZM47.6125 93.726H49.6705C49.8385 93.726 49.9925 93.684 50.1325 93.6C50.2725 93.516 50.3798 93.404 50.4545 93.264C50.5385 93.124 50.5805 92.97 50.5805 92.802C50.5805 92.6247 50.5431 92.4707 50.4685 92.34C50.3938 92.2 50.2865 92.0927 50.1465 92.018C50.0158 91.934 49.8618 91.892 49.6845 91.892H47.6125V93.726ZM47.6125 90.716H49.4465C49.6145 90.716 49.7638 90.674 49.8945 90.59C50.0251 90.506 50.1231 90.394 50.1885 90.254C50.2631 90.114 50.3005 89.96 50.3005 89.792C50.3005 89.5493 50.2211 89.3487 50.0625 89.19C49.9131 89.022 49.7125 88.938 49.4605 88.938H47.6125V90.716ZM53.2602 92.83C53.2602 92.354 53.3908 91.9387 53.6522 91.584C53.9228 91.22 54.2962 90.94 54.7722 90.744C55.2482 90.548 55.7942 90.45 56.4102 90.45C56.7182 90.45 57.0308 90.4733 57.3482 90.52C57.6655 90.5667 57.9408 90.6413 58.1742 90.744V90.352C58.1742 89.8853 58.0342 89.526 57.7542 89.274C57.4835 89.022 57.0775 88.896 56.5362 88.896C56.1348 88.896 55.7522 88.966 55.3882 89.106C55.0242 89.246 54.6415 89.4513 54.2402 89.722L53.6382 88.49C54.1235 88.1727 54.6182 87.9347 55.1222 87.776C55.6355 87.6173 56.1722 87.538 56.7322 87.538C57.7775 87.538 58.5895 87.7993 59.1682 88.322C59.7562 88.8447 60.0502 89.5913 60.0502 90.562V92.9C60.0502 93.096 60.0828 93.236 60.1482 93.32C60.2228 93.404 60.3395 93.4553 60.4982 93.474V95C60.3302 95.028 60.1762 95.0513 60.0362 95.07C59.9055 95.0887 59.7935 95.098 59.7002 95.098C59.3268 95.098 59.0422 95.014 58.8462 94.846C58.6595 94.678 58.5428 94.4727 58.4962 94.23L58.4542 93.852C58.1368 94.2627 57.7402 94.58 57.2642 94.804C56.7882 95.028 56.3028 95.14 55.8082 95.14C55.3228 95.14 54.8842 95.042 54.4922 94.846C54.1095 94.6407 53.8062 94.3653 53.5822 94.02C53.3675 93.6653 53.2602 93.2687 53.2602 92.83ZM57.8242 93.208C57.9268 93.096 58.0108 92.984 58.0762 92.872C58.1415 92.76 58.1742 92.6573 58.1742 92.564V91.822C57.9502 91.7287 57.7075 91.6587 57.4462 91.612C57.1848 91.556 56.9375 91.528 56.7042 91.528C56.2188 91.528 55.8175 91.6353 55.5002 91.85C55.1922 92.0553 55.0382 92.3307 55.0382 92.676C55.0382 92.8627 55.0895 93.04 55.1922 93.208C55.2948 93.376 55.4442 93.5113 55.6402 93.614C55.8362 93.7167 56.0695 93.768 56.3402 93.768C56.6202 93.768 56.8955 93.7167 57.1662 93.614C57.4368 93.502 57.6562 93.3667 57.8242 93.208ZM66.8605 95V89.302H64.5365V87.664H71.0745V89.302H68.7365V95H66.8605ZM71.5941 92.83C71.5941 92.354 71.7248 91.9387 71.9861 91.584C72.2568 91.22 72.6301 90.94 73.1061 90.744C73.5821 90.548 74.1281 90.45 74.7441 90.45C75.0521 90.45 75.3648 90.4733 75.6821 90.52C75.9995 90.5667 76.2748 90.6413 76.5081 90.744V90.352C76.5081 89.8853 76.3681 89.526 76.0881 89.274C75.8175 89.022 75.4115 88.896 74.8701 88.896C74.4688 88.896 74.0861 88.966 73.7221 89.106C73.3581 89.246 72.9755 89.4513 72.5741 89.722L71.9721 88.49C72.4575 88.1727 72.9521 87.9347 73.4561 87.776C73.9695 87.6173 74.5061 87.538 75.0661 87.538C76.1115 87.538 76.9235 87.7993 77.5021 88.322C78.0901 88.8447 78.3841 89.5913 78.3841 90.562V92.9C78.3841 93.096 78.4168 93.236 78.4821 93.32C78.5568 93.404 78.6735 93.4553 78.8321 93.474V95C78.6641 95.028 78.5101 95.0513 78.3701 95.07C78.2395 95.0887 78.1275 95.098 78.0341 95.098C77.6608 95.098 77.3761 95.014 77.1801 94.846C76.9935 94.678 76.8768 94.4727 76.8301 94.23L76.7881 93.852C76.4708 94.2627 76.0741 94.58 75.5981 94.804C75.1221 95.028 74.6368 95.14 74.1421 95.14C73.6568 95.14 73.2181 95.042 72.8261 94.846C72.4435 94.6407 72.1401 94.3653 71.9161 94.02C71.7015 93.6653 71.5941 93.2687 71.5941 92.83ZM76.1581 93.208C76.2608 93.096 76.3448 92.984 76.4101 92.872C76.4755 92.76 76.5081 92.6573 76.5081 92.564V91.822C76.2841 91.7287 76.0415 91.6587 75.7801 91.612C75.5188 91.556 75.2715 91.528 75.0381 91.528C74.5528 91.528 74.1515 91.6353 73.8341 91.85C73.5261 92.0553 73.3721 92.3307 73.3721 92.676C73.3721 92.8627 73.4235 93.04 73.5261 93.208C73.6288 93.376 73.7781 93.5113 73.9741 93.614C74.1701 93.7167 74.4035 93.768 74.6741 93.768C74.9541 93.768 75.2295 93.7167 75.5001 93.614C75.7708 93.502 75.9901 93.3667 76.1581 93.208ZM82.9685 95.098V93.432C83.1925 93.4227 83.3932 93.3667 83.5705 93.264C83.7478 93.1613 83.9018 92.9887 84.0325 92.746C84.1725 92.494 84.2798 92.144 84.3545 91.696C84.4385 91.248 84.4945 90.674 84.5225 89.974L84.6205 87.664H90.1225V95H88.2465V89.302H86.2725L86.2445 90.156C86.2072 91.1173 86.1138 91.9153 85.9645 92.55C85.8152 93.1847 85.6052 93.6887 85.3345 94.062C85.0732 94.426 84.7465 94.6873 84.3545 94.846C83.9625 95.0047 83.5005 95.0887 82.9685 95.098ZM91.7847 92.004V90.31H96.0267V92.004H91.7847ZM102.074 95.14C101.505 95.14 101.001 95.014 100.562 94.762C100.133 94.5007 99.7969 94.1507 99.5542 93.712V97.982H97.6782V87.664H99.3162V88.924C99.5962 88.4947 99.9509 88.1587 100.38 87.916C100.81 87.664 101.3 87.538 101.85 87.538C102.345 87.538 102.798 87.636 103.208 87.832C103.628 88.028 103.992 88.3033 104.3 88.658C104.608 89.0033 104.846 89.4047 105.014 89.862C105.192 90.31 105.28 90.7953 105.28 91.318C105.28 92.0273 105.14 92.6713 104.86 93.25C104.59 93.8287 104.212 94.2907 103.726 94.636C103.25 94.972 102.7 95.14 102.074 95.14ZM101.444 93.544C101.734 93.544 101.995 93.4833 102.228 93.362C102.462 93.2407 102.662 93.0773 102.83 92.872C103.008 92.6573 103.138 92.4193 103.222 92.158C103.316 91.8873 103.362 91.6073 103.362 91.318C103.362 91.01 103.311 90.7253 103.208 90.464C103.115 90.2027 102.975 89.974 102.788 89.778C102.602 89.5727 102.382 89.414 102.13 89.302C101.888 89.19 101.622 89.134 101.332 89.134C101.155 89.134 100.973 89.1667 100.786 89.232C100.609 89.288 100.436 89.372 100.268 89.484C100.1 89.596 99.9509 89.7267 99.8202 89.876C99.6989 90.0253 99.6102 90.1887 99.5542 90.366V92.088C99.6662 92.3587 99.8156 92.606 100.002 92.83C100.198 93.054 100.422 93.2313 100.674 93.362C100.926 93.4833 101.183 93.544 101.444 93.544ZM106.047 92.83C106.047 92.354 106.178 91.9387 106.439 91.584C106.71 91.22 107.083 90.94 107.559 90.744C108.035 90.548 108.581 90.45 109.197 90.45C109.505 90.45 109.818 90.4733 110.135 90.52C110.453 90.5667 110.728 90.6413 110.961 90.744V90.352C110.961 89.8853 110.821 89.526 110.541 89.274C110.271 89.022 109.865 88.896 109.323 88.896C108.922 88.896 108.539 88.966 108.175 89.106C107.811 89.246 107.429 89.4513 107.027 89.722L106.425 88.49C106.911 88.1727 107.405 87.9347 107.909 87.776C108.423 87.6173 108.959 87.538 109.519 87.538C110.565 87.538 111.377 87.7993 111.955 88.322C112.543 88.8447 112.837 89.5913 112.837 90.562V92.9C112.837 93.096 112.87 93.236 112.935 93.32C113.01 93.404 113.127 93.4553 113.285 93.474V95C113.117 95.028 112.963 95.0513 112.823 95.07C112.693 95.0887 112.581 95.098 112.487 95.098C112.114 95.098 111.829 95.014 111.633 94.846C111.447 94.678 111.33 94.4727 111.283 94.23L111.241 93.852C110.924 94.2627 110.527 94.58 110.051 94.804C109.575 95.028 109.09 95.14 108.595 95.14C108.11 95.14 107.671 95.042 107.279 94.846C106.897 94.6407 106.593 94.3653 106.369 94.02C106.155 93.6653 106.047 93.2687 106.047 92.83ZM110.611 93.208C110.714 93.096 110.798 92.984 110.863 92.872C110.929 92.76 110.961 92.6573 110.961 92.564V91.822C110.737 91.7287 110.495 91.6587 110.233 91.612C109.972 91.556 109.725 91.528 109.491 91.528C109.006 91.528 108.605 91.6353 108.287 91.85C107.979 92.0553 107.825 92.3307 107.825 92.676C107.825 92.8627 107.877 93.04 107.979 93.208C108.082 93.376 108.231 93.5113 108.427 93.614C108.623 93.7167 108.857 93.768 109.127 93.768C109.407 93.768 109.683 93.7167 109.953 93.614C110.224 93.502 110.443 93.3667 110.611 93.208Z" fill="white"/>
</svg>
