<svg width="140" height="164" viewBox="0 0 140 164" fill="none" xmlns="http://www.w3.org/2000/svg">
<path fill-rule="evenodd" clip-rule="evenodd" d="M72.0974 38.4882C72.5518 40.3887 72.5518 43.0811 73.0061 44.9816C73.6119 45.1399 73.7634 44.9816 74.5207 45.1399C74.3692 45.9318 73.6119 45.9318 73.309 46.4069C73.309 48.149 73.9148 49.5744 74.2178 50.9997C74.0663 51.6332 73.4605 51.7916 73.309 52.2667C71.4916 52.1084 70.5829 50.3662 69.2198 49.5744C68.4625 49.0992 67.4024 49.0993 66.948 48.149C67.8567 46.882 69.5227 46.4069 71.1887 45.7734C71.0372 43.7146 71.0372 41.3389 70.1285 39.9136C68.3111 42.4476 66.7966 45.2983 64.8277 47.8323C64.3733 48.7825 64.3733 50.2079 63.3131 50.5246C62.1015 49.5744 63.4646 48.149 63.919 47.1988C65.5849 44.0313 68.0082 41.0222 69.5227 37.8548C69.5227 37.6964 69.8256 37.6964 69.8256 37.538C70.8858 37.3796 71.1887 38.0131 72.0974 38.4882ZM71.1887 47.1988C70.7343 47.5155 69.9771 47.6739 69.9771 48.3074C70.5829 48.9409 71.1887 49.416 72.0974 49.5744C71.7945 48.7825 71.946 47.5155 71.1887 47.1988Z" fill="#1A1A1A"/>
<path fill-rule="evenodd" clip-rule="evenodd" d="M116.776 53.2169C116.776 54.0088 116.322 54.1672 116.17 54.6423C112.687 54.959 111.627 58.1265 111.021 61.4523C112.99 61.7691 116.625 59.7102 118.291 61.4523C116.019 62.7193 112.687 62.7193 110.566 64.1447C110.112 66.837 112.838 69.8461 109.809 70.4796C107.689 65.7284 109.355 58.6016 111.475 55.1174C109.961 54.4839 107.386 54.959 106.326 54.0088C106.326 53.6921 106.477 53.3753 106.629 53.0586C110.415 52.9002 113.596 53.3753 116.776 53.2169Z" fill="#1A1A1A"/>
<path fill-rule="evenodd" clip-rule="evenodd" d="M28.1762 66.3619C28.6305 67.9457 30.448 68.1041 30.9023 69.5294C30.448 70.1629 29.8422 70.4797 29.5393 71.2715C27.2675 71.7466 24.6928 73.4888 22.2695 73.0136C22.2695 71.905 23.4812 72.0634 24.2384 71.7466C23.6326 68.104 25.7529 64.9366 26.5102 61.6107C26.9646 61.6107 27.116 61.4524 27.4189 61.6107C27.8733 63.0361 26.9646 63.828 26.9646 65.2533C28.9334 64.7782 30.448 63.6696 31.2052 61.7691C30.7509 60.5021 29.0849 60.5021 28.4791 59.5519C28.782 57.0179 33.1741 60.1854 33.1741 61.1356C33.1741 61.7691 32.4169 62.8777 32.114 63.3529C31.2052 64.6198 29.3878 65.7285 28.1762 66.3619ZM25.6015 71.1131C26.9646 70.9548 28.0247 70.638 28.4791 69.6878C27.8733 69.0543 27.2675 68.2624 26.3587 67.7873C26.0558 68.7375 25.2986 69.8462 25.6015 71.1131Z" fill="#1A1A1A"/>
<path fill-rule="evenodd" clip-rule="evenodd" d="M63.3132 62.561C63.7676 63.1945 63.3132 64.1448 63.1618 65.095C62.8589 66.5204 63.3132 68.4208 61.7987 68.5792C61.7987 67.1538 61.9502 65.5701 61.9502 63.3529C62.2531 63.0362 62.556 62.561 63.3132 62.561Z" fill="#1A1A1A"/>
<path fill-rule="evenodd" clip-rule="evenodd" d="M60.1326 84.8916C60.7384 86.1586 60.4355 88.6926 59.3754 89.1677C58.4667 88.851 59.2239 86.1586 58.921 85.2084C59.3754 84.8916 59.6783 84.8916 60.1326 84.8916Z" fill="#1A1A1A"/>
<path fill-rule="evenodd" clip-rule="evenodd" d="M61.0413 90.4347C62.8587 91.3849 63.3131 92.9687 62.8588 95.5027C61.7986 96.928 60.4355 95.3443 59.0724 95.9778C58.1637 95.1859 57.255 95.5026 56.3463 95.1859C56.1948 94.0773 57.1036 94.0772 57.5579 93.7605C57.8608 91.7016 59.3753 90.5931 61.0413 90.4347Z" fill="#1A1A1A"/>
<path fill-rule="evenodd" clip-rule="evenodd" d="M67.4025 95.1859C66.0394 95.1859 64.6763 95.5026 63.7676 94.7108C63.7676 94.394 63.7676 94.0772 63.7676 93.7605C64.5248 93.127 67.5539 94.0773 67.4025 95.1859Z" fill="#1A1A1A"/>
<path fill-rule="evenodd" clip-rule="evenodd" d="M79.5186 97.4031C78.1555 97.8782 76.0352 97.2447 74.2178 96.7696C74.2178 94.8691 76.641 95.8194 77.3983 96.2945C78.307 96.6113 79.5186 96.4528 79.5186 97.4031Z" fill="#1A1A1A"/>
<path fill-rule="evenodd" clip-rule="evenodd" d="M53.6203 96.928C53.7717 97.4031 53.4688 97.5615 53.4688 97.8783C52.1057 97.8783 51.0456 99.6203 49.6825 98.8285C50.2883 97.4031 51.9543 97.2447 53.6203 96.928Z" fill="#1A1A1A"/>
<path fill-rule="evenodd" clip-rule="evenodd" d="M86.4854 99.3035C85.4253 99.1451 83.9107 99.3035 83.7593 98.3533C84.3651 97.4031 86.4854 98.1949 86.4854 99.3035Z" fill="#1A1A1A"/>
<path fill-rule="evenodd" clip-rule="evenodd" d="M46.199 100.412C46.0476 101.521 43.7758 103.105 42.2612 102.313C42.5641 100.729 44.6845 100.254 46.199 100.412Z" fill="#1A1A1A"/>
<path fill-rule="evenodd" clip-rule="evenodd" d="M110.112 101.362C109.052 103.58 105.871 102.313 104.66 104.688C104.357 105.322 104.205 106.114 103.751 106.905C102.691 109.281 101.025 113.557 104.508 114.349C107.083 114.824 109.203 113.399 110.264 112.765C109.961 116.883 101.328 117.358 100.571 113.24C99.9648 109.598 102.994 106.905 103.297 103.738C103.145 103.263 102.842 102.788 102.842 102.154C104.205 101.046 107.689 102.313 109.052 101.046C109.506 101.046 110.112 100.887 110.112 101.362Z" fill="#1A1A1A"/>
<path fill-rule="evenodd" clip-rule="evenodd" d="M112.232 106.272C112.384 106.272 112.535 106.43 112.535 106.589C111.324 109.123 107.689 110.073 104.963 109.598C104.811 109.281 104.66 108.964 104.66 108.489C105.114 107.856 105.871 108.172 106.629 108.172C108.749 108.172 110.869 107.381 112.232 106.272Z" fill="#1A1A1A"/>
<path fill-rule="evenodd" clip-rule="evenodd" d="M28.6305 107.064C28.4791 108.331 27.2675 107.856 26.5102 108.014C24.9957 108.489 23.1782 110.548 23.1782 111.973C23.1782 114.983 28.0247 114.824 31.2052 115.141C28.3276 116.408 22.2695 116.566 21.5123 113.24C20.755 109.915 25.2986 104.847 28.6305 107.064Z" fill="#1A1A1A"/>
<path fill-rule="evenodd" clip-rule="evenodd" d="M69.0684 126.385C68.614 126.861 69.3713 127.494 69.0684 127.811C68.7655 127.969 67.8568 127.969 67.7053 127.811C67.251 125.277 68.3111 121.793 68.614 118.942C69.5228 118.784 69.9771 117.992 70.8858 117.675C72.8547 118.467 76.4896 121.634 77.0954 123.376C78.307 128.128 72.2489 127.494 69.0684 126.385ZM69.0684 125.118C70.7344 125.91 74.6722 126.544 75.5809 124.643C74.2178 122.426 72.7033 120.05 69.8257 119.417C69.6742 121.317 69.5228 123.376 69.0684 125.118Z" fill="#1A1A1A"/>
<path fill-rule="evenodd" clip-rule="evenodd" d="M102.085 61.1355C102.539 60.502 102.842 59.3934 103.902 59.8685C103.902 61.769 103.145 64.1446 102.691 66.045C102.691 66.6785 103.6 66.3618 103.6 66.9953C102.539 70.6379 101.782 75.5475 101.025 80.457C100.268 85.2082 99.5104 90.2762 99.8133 94.3939C99.9647 95.8193 100.116 98.9867 98.4502 99.1451C97.5415 99.3035 97.6929 98.67 97.0871 98.3532C96.7842 98.9867 96.7842 99.4619 97.5415 99.4619C97.6929 100.095 97.2386 100.254 97.2386 100.887C92.2406 102.471 87.3941 104.371 82.8506 106.43C78.7613 108.806 75.1265 111.657 70.7343 113.715C69.9771 113.399 69.9771 112.607 69.2198 112.607C68.4626 112.448 68.1596 113.082 67.5538 113.24C66.0393 113.399 63.7675 112.765 61.7986 112.29C54.3774 110.865 48.0164 108.489 40.4438 107.222C38.4749 106.905 36.506 107.064 34.6886 105.955C34.6886 104.847 35.5973 104.53 36.2031 104.213C35.7488 102.946 34.9915 104.055 33.9313 104.055C33.3255 102.154 33.3255 100.095 33.477 98.1948C33.9313 89.9594 36.2031 82.3575 36.506 74.5972C36.506 72.8551 36.2031 71.2714 36.9604 69.846C37.5662 69.846 37.8691 70.1628 38.3234 70.3211C46.3504 65.4116 53.1658 59.0766 62.4044 55.4341C62.7073 55.1173 62.7073 54.4838 63.0102 54.167C64.9791 53.0584 66.7966 54.4838 68.9169 54.6422C74.6721 54.9589 80.5788 56.2259 85.5767 57.968C89.363 58.1264 94.0581 59.235 97.8444 59.7101C99.6618 59.7101 101.176 59.7102 102.085 61.1355ZM89.5145 60.0269C87.2427 59.7101 84.9709 59.3934 82.6991 59.0766C80.1244 58.6015 77.5497 58.7599 75.1265 58.1264C71.6431 57.3345 68.3111 55.9092 64.9791 55.9092C64.0704 57.6513 64.5248 60.8188 62.8588 61.9274C62.5559 61.1355 63.0103 59.5518 62.8588 57.8097C57.2551 61.4522 51.1969 64.9364 45.7446 68.579C44.9874 69.0542 43.9272 69.5293 43.4729 70.4795C46.0475 70.7963 49.0766 71.7465 51.8028 71.4298C53.4687 71.2714 54.9832 71.5881 56.9521 71.7465C63.0102 72.2216 68.614 72.8551 73.7634 73.8054C74.0663 74.2805 73.4605 74.914 74.0663 75.2307C78.0041 74.4389 81.4875 72.2216 84.0622 70.4795C88.6058 67.4704 93.4522 65.0948 97.39 61.4522C95.1182 60.6604 92.2406 60.3436 89.5145 60.0269ZM98.7531 64.303C99.5104 63.9862 100.268 64.303 100.722 64.6197C100.873 63.9862 101.176 63.5111 101.176 62.7192C99.8133 62.7192 99.3589 63.5111 98.7531 64.303ZM95.1182 66.2034C94.5124 66.5202 93.4522 66.5202 93.3008 67.1537C95.1182 66.2034 97.2386 65.7283 98.4502 64.303C97.2386 64.1446 96.0269 65.4116 95.1182 66.2034ZM100.268 66.6786C100.268 66.5202 100.116 66.5202 99.9647 66.5202C99.3589 66.9953 98.1473 66.9953 97.39 67.3121C91.4834 69.5293 85.5767 72.5384 80.5788 75.8642C78.307 77.4479 76.3381 79.5068 73.6119 79.1901C73.4605 79.9819 73.0061 80.6154 73.0061 81.724C73.4605 82.0408 74.0663 81.4073 74.2178 82.1991C73.9149 84.8915 72.7032 87.7422 72.4003 91.068C72.0974 94.5522 71.6431 98.5116 71.4916 101.996C71.1887 105.322 71.6431 108.964 69.6742 110.39C70.1285 111.023 70.5829 111.34 70.5829 112.29C71.946 111.973 73.0061 111.498 73.7634 110.548C72.5518 110.548 71.1887 111.498 70.8858 110.073C71.4916 108.964 72.8547 108.647 74.2178 108.331C80.7302 105.163 88.4543 103.263 94.0581 99.1451C93.7551 98.5116 92.2406 98.9868 92.3921 97.8781C93.7552 96.7695 95.724 98.5116 97.39 98.1948C98.4502 87.7422 98.4502 76.6561 100.268 66.6786ZM40.5952 73.0135C40.4438 73.1719 40.1409 73.1719 40.1409 73.647C40.4438 74.914 40.2923 76.4977 39.9894 78.2398C39.6865 79.9819 39.2322 81.8824 39.0807 83.7829C38.7778 85.8417 38.9293 88.059 38.6264 90.1178C38.172 94.7106 36.9604 101.362 38.7778 104.847C39.3836 104.688 39.5351 104.371 40.2923 104.371C48.1679 107.064 57.7094 107.381 67.0995 108.648C67.4024 104.055 68.0082 98.9867 69.0684 94.0771C70.1285 89.1676 70.4314 83.4661 71.1887 78.3982C69.3713 76.0226 65.1306 76.3393 61.6472 75.5474C61.1928 77.1312 61.7986 79.5068 60.4356 80.2986C59.9812 79.0317 60.4355 76.4977 59.9812 75.2307C53.3173 74.2805 47.5621 73.3303 40.5952 73.0135ZM36.8089 82.991C37.1118 82.991 37.4147 82.0408 36.9604 82.0408C37.1118 82.5159 36.8089 82.5159 36.8089 82.991ZM34.9915 97.8781C36.3546 94.2356 36.506 89.1675 37.1118 84.7331C37.1118 84.5747 36.9604 84.5748 36.8089 84.4164C35.7487 88.5341 34.9915 93.4437 34.9915 97.8781ZM34.9915 99.1451C35.1429 98.8284 35.4458 98.3532 34.9915 98.1948C34.84 98.1948 34.6886 98.9867 34.9915 99.1451ZM69.0684 104.213C69.2198 102.788 69.6742 100.887 69.5227 99.4619C69.3713 100.887 68.4625 102.788 69.0684 104.213ZM62.5559 109.756C62.253 109.756 60.7384 109.281 61.0414 109.598C61.4957 109.598 62.253 110.073 62.5559 109.756ZM65.282 110.231C64.8277 110.231 64.3733 109.756 64.2219 110.073C64.3733 110.231 64.9791 110.548 65.282 110.231ZM66.4937 110.39C66.1908 110.39 65.5849 110.073 65.4335 110.39C65.5849 110.39 66.3422 110.706 66.4937 110.39ZM67.5538 110.548C67.2509 110.548 66.7966 110.231 66.6451 110.548C66.7966 110.548 67.4024 110.865 67.5538 110.548Z" fill="#1A1A1A"/>
<path d="M69.9975 164L140 123V40.9999L69.9975 0L0 40.9999V123L69.9975 164Z" fill="#FCAA23" fill-opacity="0.95"/>
<path d="M36.6361 87V80.476L34.0881 85.334H33.0101L30.4621 80.476V87H28.5301V77.06H30.6021L33.5421 82.716L36.5101 77.06H38.5681V87H36.6361ZM39.8754 84.83C39.8754 84.354 40.0061 83.9387 40.2674 83.584C40.5381 83.22 40.9114 82.94 41.3874 82.744C41.8634 82.548 42.4094 82.45 43.0254 82.45C43.3334 82.45 43.6461 82.4733 43.9634 82.52C44.2807 82.5667 44.5561 82.6413 44.7894 82.744V82.352C44.7894 81.8853 44.6494 81.526 44.3694 81.274C44.0987 81.022 43.6927 80.896 43.1514 80.896C42.7501 80.896 42.3674 80.966 42.0034 81.106C41.6394 81.246 41.2567 81.4513 40.8554 81.722L40.2534 80.49C40.7387 80.1727 41.2334 79.9347 41.7374 79.776C42.2507 79.6173 42.7874 79.538 43.3474 79.538C44.3927 79.538 45.2047 79.7993 45.7834 80.322C46.3714 80.8447 46.6654 81.5913 46.6654 82.562V84.9C46.6654 85.096 46.6981 85.236 46.7634 85.32C46.8381 85.404 46.9547 85.4553 47.1134 85.474V87C46.9454 87.028 46.7914 87.0513 46.6514 87.07C46.5207 87.0887 46.4087 87.098 46.3154 87.098C45.9421 87.098 45.6574 87.014 45.4614 86.846C45.2747 86.678 45.1581 86.4727 45.1114 86.23L45.0694 85.852C44.7521 86.2627 44.3554 86.58 43.8794 86.804C43.4034 87.028 42.9181 87.14 42.4234 87.14C41.9381 87.14 41.4994 87.042 41.1074 86.846C40.7247 86.6407 40.4214 86.3653 40.1974 86.02C39.9827 85.6653 39.8754 85.2687 39.8754 84.83ZM44.4394 85.208C44.5421 85.096 44.6261 84.984 44.6914 84.872C44.7567 84.76 44.7894 84.6573 44.7894 84.564V83.822C44.5654 83.7287 44.3227 83.6587 44.0614 83.612C43.8001 83.556 43.5527 83.528 43.3194 83.528C42.8341 83.528 42.4327 83.6353 42.1154 83.85C41.8074 84.0553 41.6534 84.3307 41.6534 84.676C41.6534 84.8627 41.7047 85.04 41.8074 85.208C41.9101 85.376 42.0594 85.5113 42.2554 85.614C42.4514 85.7167 42.6847 85.768 42.9554 85.768C43.2354 85.768 43.5107 85.7167 43.7814 85.614C44.0521 85.502 44.2714 85.3667 44.4394 85.208ZM50.0304 87V81.302H47.7064V79.664H54.2444V81.302H51.9064V87H50.0304ZM58.6974 87.14C58.1094 87.14 57.5774 87.042 57.1014 86.846C56.6254 86.6407 56.2194 86.3653 55.8834 86.02C55.5474 85.6653 55.2861 85.264 55.0994 84.816C54.9221 84.3587 54.8334 83.878 54.8334 83.374C54.8334 82.674 54.9874 82.0347 55.2954 81.456C55.6127 80.8773 56.0607 80.4153 56.6394 80.07C57.2274 79.7153 57.9181 79.538 58.7114 79.538C59.5141 79.538 60.2001 79.7153 60.7694 80.07C61.3387 80.4153 61.7727 80.8773 62.0714 81.456C62.3794 82.0253 62.5334 82.6413 62.5334 83.304C62.5334 83.416 62.5287 83.5327 62.5194 83.654C62.5101 83.766 62.5007 83.8593 62.4914 83.934H56.8214C56.8587 84.3073 56.9661 84.634 57.1434 84.914C57.3301 85.194 57.5634 85.4087 57.8434 85.558C58.1327 85.698 58.4407 85.768 58.7674 85.768C59.1407 85.768 59.4907 85.6793 59.8174 85.502C60.1534 85.3153 60.3821 85.0727 60.5034 84.774L62.1134 85.222C61.9361 85.5953 61.6794 85.9267 61.3434 86.216C61.0167 86.5053 60.6294 86.734 60.1814 86.902C59.7334 87.0607 59.2387 87.14 58.6974 87.14ZM56.7794 82.744H60.6154C60.5781 82.3707 60.4707 82.0487 60.2934 81.778C60.1254 81.498 59.9014 81.2833 59.6214 81.134C59.3414 80.9753 59.0287 80.896 58.6834 80.896C58.3474 80.896 58.0394 80.9753 57.7594 81.134C57.4887 81.2833 57.2647 81.498 57.0874 81.778C56.9194 82.0487 56.8167 82.3707 56.7794 82.744ZM63.6763 87V79.664H65.6363L67.9323 83.906L70.2423 79.664H72.1743V87H70.3963V82.254L68.5203 85.698H67.3443L65.4543 82.254V87H63.6763ZM73.3988 84.83C73.3988 84.354 73.5295 83.9387 73.7908 83.584C74.0615 83.22 74.4348 82.94 74.9108 82.744C75.3868 82.548 75.9328 82.45 76.5488 82.45C76.8568 82.45 77.1695 82.4733 77.4868 82.52C77.8042 82.5667 78.0795 82.6413 78.3128 82.744V82.352C78.3128 81.8853 78.1728 81.526 77.8928 81.274C77.6222 81.022 77.2162 80.896 76.6748 80.896C76.2735 80.896 75.8908 80.966 75.5268 81.106C75.1628 81.246 74.7802 81.4513 74.3788 81.722L73.7768 80.49C74.2622 80.1727 74.7568 79.9347 75.2608 79.776C75.7742 79.6173 76.3108 79.538 76.8708 79.538C77.9162 79.538 78.7282 79.7993 79.3068 80.322C79.8948 80.8447 80.1888 81.5913 80.1888 82.562V84.9C80.1888 85.096 80.2215 85.236 80.2868 85.32C80.3615 85.404 80.4782 85.4553 80.6368 85.474V87C80.4688 87.028 80.3148 87.0513 80.1748 87.07C80.0442 87.0887 79.9322 87.098 79.8388 87.098C79.4655 87.098 79.1808 87.014 78.9848 86.846C78.7982 86.678 78.6815 86.4727 78.6348 86.23L78.5928 85.852C78.2755 86.2627 77.8788 86.58 77.4028 86.804C76.9268 87.028 76.4415 87.14 75.9468 87.14C75.4615 87.14 75.0228 87.042 74.6308 86.846C74.2482 86.6407 73.9448 86.3653 73.7208 86.02C73.5062 85.6653 73.3988 85.2687 73.3988 84.83ZM77.9628 85.208C78.0655 85.096 78.1495 84.984 78.2148 84.872C78.2802 84.76 78.3128 84.6573 78.3128 84.564V83.822C78.0888 83.7287 77.8462 83.6587 77.5848 83.612C77.3235 83.556 77.0762 83.528 76.8428 83.528C76.3575 83.528 75.9562 83.6353 75.6388 83.85C75.3308 84.0553 75.1768 84.3307 75.1768 84.676C75.1768 84.8627 75.2282 85.04 75.3308 85.208C75.4335 85.376 75.5828 85.5113 75.7788 85.614C75.9748 85.7167 76.2082 85.768 76.4788 85.768C76.7588 85.768 77.0342 85.7167 77.3048 85.614C77.5755 85.502 77.7948 85.3667 77.9628 85.208ZM83.5539 87V81.302H81.2299V79.664H87.7679V81.302H85.4299V87H83.5539ZM88.8188 87V79.678H90.6948V84.494L93.9848 79.664H95.6928V87H93.8168V82.296L90.5688 87H88.8188ZM97.4048 87V79.664H99.2808V82.436H99.9108L101.899 79.664H103.943L101.339 83.206L104.223 87H102.081L99.8828 84.088H99.2808V87H97.4048ZM104.817 84.83C104.817 84.354 104.947 83.9387 105.209 83.584C105.479 83.22 105.853 82.94 106.329 82.744C106.805 82.548 107.351 82.45 107.967 82.45C108.275 82.45 108.587 82.4733 108.905 82.52C109.222 82.5667 109.497 82.6413 109.731 82.744V82.352C109.731 81.8853 109.591 81.526 109.311 81.274C109.04 81.022 108.634 80.896 108.093 80.896C107.691 80.896 107.309 80.966 106.945 81.106C106.581 81.246 106.198 81.4513 105.797 81.722L105.195 80.49C105.68 80.1727 106.175 79.9347 106.679 79.776C107.192 79.6173 107.729 79.538 108.289 79.538C109.334 79.538 110.146 79.7993 110.725 80.322C111.313 80.8447 111.607 81.5913 111.607 82.562V84.9C111.607 85.096 111.639 85.236 111.705 85.32C111.779 85.404 111.896 85.4553 112.055 85.474V87C111.887 87.028 111.733 87.0513 111.593 87.07C111.462 87.0887 111.35 87.098 111.257 87.098C110.883 87.098 110.599 87.014 110.403 86.846C110.216 86.678 110.099 86.4727 110.053 86.23L110.011 85.852C109.693 86.2627 109.297 86.58 108.821 86.804C108.345 87.028 107.859 87.14 107.365 87.14C106.879 87.14 106.441 87.042 106.049 86.846C105.666 86.6407 105.363 86.3653 105.139 86.02C104.924 85.6653 104.817 85.2687 104.817 84.83ZM109.381 85.208C109.483 85.096 109.567 84.984 109.633 84.872C109.698 84.76 109.731 84.6573 109.731 84.564V83.822C109.507 83.7287 109.264 83.6587 109.003 83.612C108.741 83.556 108.494 83.528 108.261 83.528C107.775 83.528 107.374 83.6353 107.057 83.85C106.749 84.0553 106.595 84.3307 106.595 84.676C106.595 84.8627 106.646 85.04 106.749 85.208C106.851 85.376 107.001 85.5113 107.197 85.614C107.393 85.7167 107.626 85.768 107.897 85.768C108.177 85.768 108.452 85.7167 108.723 85.614C108.993 85.502 109.213 85.3667 109.381 85.208Z" fill="white"/>
</svg>
