<svg width="140" height="164" viewBox="0 0 140 164" fill="none" xmlns="http://www.w3.org/2000/svg">
<path d="M69.9975 164L140 123V40.9999L69.9975 0L0 40.9999V123L69.9975 164Z" fill="#FCAA23" fill-opacity="0.5"/>
<path d="M47.2743 79V69.06H49.2063V79H47.2743ZM54.3911 79.14C53.7938 79.14 53.2571 79.042 52.7811 78.846C52.3051 78.6407 51.8991 78.3607 51.5631 78.006C51.2271 77.642 50.9658 77.2313 50.7791 76.774C50.6018 76.3167 50.5131 75.836 50.5131 75.332C50.5131 74.6413 50.6671 74.0113 50.9751 73.442C51.2924 72.8633 51.7404 72.4013 52.3191 72.056C52.8978 71.7107 53.5838 71.538 54.3771 71.538C55.1704 71.538 55.8518 71.7107 56.4211 72.056C56.9904 72.4013 57.4151 72.854 57.6951 73.414L55.8611 73.974C55.7024 73.7033 55.4924 73.498 55.2311 73.358C54.9698 73.2087 54.6804 73.134 54.3631 73.134C54.0084 73.134 53.6818 73.2273 53.3831 73.414C53.0938 73.5913 52.8651 73.848 52.6971 74.184C52.5291 74.5107 52.4451 74.8933 52.4451 75.332C52.4451 75.7613 52.5291 76.144 52.6971 76.48C52.8744 76.8067 53.1078 77.068 53.3971 77.264C53.6864 77.4507 54.0084 77.544 54.3631 77.544C54.5871 77.544 54.7971 77.5067 54.9931 77.432C55.1984 77.3573 55.3804 77.2547 55.5391 77.124C55.6978 76.9933 55.8144 76.844 55.8891 76.676L57.7231 77.236C57.5551 77.6 57.3078 77.9267 56.9811 78.216C56.6638 78.5053 56.2858 78.734 55.8471 78.902C55.4178 79.0607 54.9324 79.14 54.3911 79.14ZM60.5714 79V73.302H58.2474V71.664H64.7854V73.302H62.4474V79H60.5714ZM69.2244 79.14C68.6271 79.14 68.0904 79.042 67.6144 78.846C67.1384 78.6407 66.7324 78.3607 66.3964 78.006C66.0698 77.6513 65.8178 77.2453 65.6404 76.788C65.4631 76.3307 65.3744 75.85 65.3744 75.346C65.3744 74.8327 65.4631 74.3473 65.6404 73.89C65.8178 73.4327 66.0698 73.0267 66.3964 72.672C66.7324 72.3173 67.1384 72.042 67.6144 71.846C68.0904 71.6407 68.6271 71.538 69.2244 71.538C69.8218 71.538 70.3538 71.6407 70.8204 71.846C71.2964 72.042 71.7024 72.3173 72.0384 72.672C72.3744 73.0267 72.6264 73.4327 72.7944 73.89C72.9718 74.3473 73.0604 74.8327 73.0604 75.346C73.0604 75.85 72.9718 76.3307 72.7944 76.788C72.6264 77.2453 72.3744 77.6513 72.0384 78.006C71.7118 78.3607 71.3104 78.6407 70.8344 78.846C70.3584 79.042 69.8218 79.14 69.2244 79.14ZM67.3064 75.346C67.3064 75.7753 67.3904 76.158 67.5584 76.494C67.7264 76.8207 67.9551 77.0773 68.2444 77.264C68.5338 77.4507 68.8604 77.544 69.2244 77.544C69.5791 77.544 69.9011 77.4507 70.1904 77.264C70.4798 77.068 70.7084 76.8067 70.8764 76.48C71.0538 76.144 71.1424 75.7613 71.1424 75.332C71.1424 74.912 71.0538 74.534 70.8764 74.198C70.7084 73.862 70.4798 73.6007 70.1904 73.414C69.9011 73.2273 69.5791 73.134 69.2244 73.134C68.8604 73.134 68.5338 73.232 68.2444 73.428C67.9551 73.6147 67.7264 73.876 67.5584 74.212C67.3904 74.5387 67.3064 74.9167 67.3064 75.346ZM78.7227 79.14C78.1533 79.14 77.6493 79.014 77.2107 78.762C76.7813 78.5007 76.4453 78.1507 76.2027 77.712V81.982H74.3267V71.664H75.9647V72.924C76.2447 72.4947 76.5993 72.1587 77.0287 71.916C77.458 71.664 77.948 71.538 78.4987 71.538C78.9933 71.538 79.446 71.636 79.8567 71.832C80.2767 72.028 80.6407 72.3033 80.9487 72.658C81.2567 73.0033 81.4947 73.4047 81.6627 73.862C81.84 74.31 81.9287 74.7953 81.9287 75.318C81.9287 76.0273 81.7887 76.6713 81.5087 77.25C81.238 77.8287 80.86 78.2907 80.3747 78.636C79.8987 78.972 79.348 79.14 78.7227 79.14ZM78.0927 77.544C78.382 77.544 78.6433 77.4833 78.8767 77.362C79.11 77.2407 79.3107 77.0773 79.4787 76.872C79.656 76.6573 79.7867 76.4193 79.8707 76.158C79.964 75.8873 80.0107 75.6073 80.0107 75.318C80.0107 75.01 79.9593 74.7253 79.8567 74.464C79.7633 74.2027 79.6233 73.974 79.4367 73.778C79.25 73.5727 79.0307 73.414 78.7787 73.302C78.536 73.19 78.27 73.134 77.9807 73.134C77.8033 73.134 77.6213 73.1667 77.4347 73.232C77.2573 73.288 77.0847 73.372 76.9167 73.484C76.7487 73.596 76.5993 73.7267 76.4687 73.876C76.3473 74.0253 76.2587 74.1887 76.2027 74.366V76.088C76.3147 76.3587 76.464 76.606 76.6507 76.83C76.8467 77.054 77.0707 77.2313 77.3227 77.362C77.5747 77.4833 77.8313 77.544 78.0927 77.544ZM83.1997 79V71.664H85.0757V79H83.1997ZM83.1997 70.642V68.78H85.0757V70.642H83.1997ZM86.3761 79L88.2381 76.144C87.7994 76.0227 87.4494 75.7847 87.1881 75.43C86.9361 75.0753 86.8101 74.6087 86.8101 74.03C86.8101 73.5447 86.9221 73.1247 87.1461 72.77C87.3701 72.4153 87.6781 72.14 88.0701 71.944C88.4621 71.7387 88.9147 71.636 89.4281 71.636H92.9141V79H91.0381V76.466H90.0441L88.4341 79H86.3761ZM89.6521 75.122H91.0381V73.078H89.7221C89.3861 73.078 89.1201 73.1713 88.9241 73.358C88.7281 73.5447 88.6301 73.7873 88.6301 74.086C88.6301 74.3847 88.7141 74.632 88.8821 74.828C89.0594 75.024 89.3161 75.122 89.6521 75.122ZM44.7881 95.07V93.474H45.5721C45.8148 93.474 45.9968 93.4227 46.1181 93.32C46.2395 93.2173 46.3468 93.054 46.4401 92.83L46.6641 92.34L42.7161 85.06H44.8441L47.5181 90.38L49.8421 85.06H51.8721L47.9101 93.74C47.6675 94.2347 47.3921 94.58 47.0841 94.776C46.7761 94.972 46.3655 95.07 45.8521 95.07H44.7881ZM52.5815 95V87.664H54.4575V90.436H55.0875L57.0755 87.664H59.1195L56.5155 91.206L59.3995 95H57.2575L55.0595 92.088H54.4575V95H52.5815ZM64.9619 95.14C64.3926 95.14 63.8886 95.014 63.4499 94.762C63.0206 94.5007 62.6846 94.1507 62.4419 93.712V97.982H60.5659V87.664H62.2039V88.924C62.4839 88.4947 62.8386 88.1587 63.2679 87.916C63.6972 87.664 64.1872 87.538 64.7379 87.538C65.2326 87.538 65.6852 87.636 66.0959 87.832C66.5159 88.028 66.8799 88.3033 67.1879 88.658C67.4959 89.0033 67.7339 89.4047 67.9019 89.862C68.0792 90.31 68.1679 90.7953 68.1679 91.318C68.1679 92.0273 68.0279 92.6713 67.7479 93.25C67.4772 93.8287 67.0992 94.2907 66.6139 94.636C66.1379 94.972 65.5872 95.14 64.9619 95.14ZM64.3319 93.544C64.6212 93.544 64.8826 93.4833 65.1159 93.362C65.3492 93.2407 65.5499 93.0773 65.7179 92.872C65.8952 92.6573 66.0259 92.4193 66.1099 92.158C66.2032 91.8873 66.2499 91.6073 66.2499 91.318C66.2499 91.01 66.1986 90.7253 66.0959 90.464C66.0026 90.2027 65.8626 89.974 65.6759 89.778C65.4892 89.5727 65.2699 89.414 65.0179 89.302C64.7752 89.19 64.5092 89.134 64.2199 89.134C64.0426 89.134 63.8606 89.1667 63.6739 89.232C63.4966 89.288 63.3239 89.372 63.1559 89.484C62.9879 89.596 62.8386 89.7267 62.7079 89.876C62.5866 90.0253 62.4979 90.1887 62.4419 90.366V92.088C62.5539 92.3587 62.7032 92.606 62.8899 92.83C63.0859 93.054 63.3099 93.2313 63.5619 93.362C63.8139 93.4833 64.0706 93.544 64.3319 93.544ZM68.935 92.83C68.935 92.354 69.0656 91.9387 69.327 91.584C69.5976 91.22 69.971 90.94 70.447 90.744C70.923 90.548 71.469 90.45 72.085 90.45C72.393 90.45 72.7056 90.4733 73.023 90.52C73.3403 90.5667 73.6156 90.6413 73.849 90.744V90.352C73.849 89.8853 73.709 89.526 73.429 89.274C73.1583 89.022 72.7523 88.896 72.211 88.896C71.8096 88.896 71.427 88.966 71.063 89.106C70.699 89.246 70.3163 89.4513 69.915 89.722L69.313 88.49C69.7983 88.1727 70.293 87.9347 70.797 87.776C71.3103 87.6173 71.847 87.538 72.407 87.538C73.4523 87.538 74.2643 87.7993 74.843 88.322C75.431 88.8447 75.725 89.5913 75.725 90.562V92.9C75.725 93.096 75.7576 93.236 75.823 93.32C75.8976 93.404 76.0143 93.4553 76.173 93.474V95C76.005 95.028 75.851 95.0513 75.711 95.07C75.5803 95.0887 75.4683 95.098 75.375 95.098C75.0016 95.098 74.717 95.014 74.521 94.846C74.3343 94.678 74.2176 94.4727 74.171 94.23L74.129 93.852C73.8116 94.2627 73.415 94.58 72.939 94.804C72.463 95.028 71.9776 95.14 71.483 95.14C70.9976 95.14 70.559 95.042 70.167 94.846C69.7843 94.6407 69.481 94.3653 69.257 94.02C69.0423 93.6653 68.935 93.2687 68.935 92.83ZM73.499 93.208C73.6016 93.096 73.6856 92.984 73.751 92.872C73.8163 92.76 73.849 92.6573 73.849 92.564V91.822C73.625 91.7287 73.3823 91.6587 73.121 91.612C72.8596 91.556 72.6123 91.528 72.379 91.528C71.8936 91.528 71.4923 91.6353 71.175 91.85C70.867 92.0553 70.713 92.3307 70.713 92.676C70.713 92.8627 70.7643 93.04 70.867 93.208C70.9696 93.376 71.119 93.5113 71.315 93.614C71.511 93.7167 71.7443 93.768 72.015 93.768C72.295 93.768 72.5703 93.7167 72.841 93.614C73.1116 93.502 73.331 93.3667 73.499 93.208ZM77.478 95V87.664H79.354V95H77.478ZM76.288 86.53V84.864H77.842V86.53H76.288ZM78.976 86.53V84.864H80.53V86.53H78.976ZM81.0464 95V87.664H82.9224V90.464H85.8904V87.664H87.7664V95H85.8904V92.032H82.9224V95H81.0464ZM89.4819 95V87.678H91.3579V92.494L94.6479 87.664H96.3559V95H94.4799V90.296L91.2319 95H89.4819Z" fill="white"/>
</svg>
