<svg width="140" height="164" viewBox="0 0 140 164" fill="none" xmlns="http://www.w3.org/2000/svg">
<path d="M69.9975 164L140 123V40.9999L69.9975 0L0 40.9999V123L69.9975 164Z" fill="#FCAA23" fill-opacity="0.5"/>
<path d="M43.2759 87V77.06H50.4439V78.726H45.1939V81.12H47.8959C49.0066 81.12 49.8419 81.3813 50.4019 81.904C50.9619 82.4267 51.2419 83.1267 51.2419 84.004C51.2419 84.592 51.1206 85.11 50.8779 85.558C50.6352 86.006 50.2759 86.3607 49.7999 86.622C49.3239 86.874 48.7219 87 47.9939 87H43.2759ZM45.1939 85.334H47.7279C48.1012 85.334 48.3999 85.2687 48.6239 85.138C48.8479 84.998 49.0112 84.8253 49.1139 84.62C49.2166 84.4053 49.2679 84.1813 49.2679 83.948C49.2679 83.7147 49.2212 83.5 49.1279 83.304C49.0439 83.0987 48.8899 82.9353 48.6659 82.814C48.4419 82.6833 48.1199 82.618 47.6999 82.618H45.1939V85.334ZM52.4175 87V79.664H54.2935V87H52.4175ZM52.4175 78.642V76.78H54.2935V78.642H52.4175ZM59.3738 87.14C58.7765 87.14 58.2398 87.042 57.7638 86.846C57.2878 86.6407 56.8818 86.3607 56.5458 86.006C56.2192 85.6513 55.9672 85.2453 55.7898 84.788C55.6125 84.3307 55.5238 83.85 55.5238 83.346C55.5238 82.8327 55.6125 82.3473 55.7898 81.89C55.9672 81.4327 56.2192 81.0267 56.5458 80.672C56.8818 80.3173 57.2878 80.042 57.7638 79.846C58.2398 79.6407 58.7765 79.538 59.3738 79.538C59.9712 79.538 60.5032 79.6407 60.9698 79.846C61.4458 80.042 61.8518 80.3173 62.1878 80.672C62.5238 81.0267 62.7758 81.4327 62.9438 81.89C63.1212 82.3473 63.2098 82.8327 63.2098 83.346C63.2098 83.85 63.1212 84.3307 62.9438 84.788C62.7758 85.2453 62.5238 85.6513 62.1878 86.006C61.8612 86.3607 61.4598 86.6407 60.9838 86.846C60.5078 87.042 59.9712 87.14 59.3738 87.14ZM57.4558 83.346C57.4558 83.7753 57.5398 84.158 57.7078 84.494C57.8758 84.8207 58.1045 85.0773 58.3938 85.264C58.6832 85.4507 59.0098 85.544 59.3738 85.544C59.7285 85.544 60.0505 85.4507 60.3398 85.264C60.6292 85.068 60.8578 84.8067 61.0258 84.48C61.2032 84.144 61.2918 83.7613 61.2918 83.332C61.2918 82.912 61.2032 82.534 61.0258 82.198C60.8578 81.862 60.6292 81.6007 60.3398 81.414C60.0505 81.2273 59.7285 81.134 59.3738 81.134C59.0098 81.134 58.6832 81.232 58.3938 81.428C58.1045 81.6147 57.8758 81.876 57.7078 82.212C57.5398 82.5387 57.4558 82.9167 57.4558 83.346ZM63.9441 87.098V85.432C64.1681 85.4227 64.3687 85.3667 64.5461 85.264C64.7234 85.1613 64.8774 84.9887 65.0081 84.746C65.1481 84.494 65.2554 84.144 65.3301 83.696C65.4141 83.248 65.4701 82.674 65.4981 81.974L65.5961 79.664H71.0981V87H69.2221V81.302H67.2481L67.2201 82.156C67.1827 83.1173 67.0894 83.9153 66.9401 84.55C66.7907 85.1847 66.5807 85.6887 66.3101 86.062C66.0487 86.426 65.7221 86.6873 65.3301 86.846C64.9381 87.0047 64.4761 87.0887 63.9441 87.098ZM76.1902 87.14C75.5929 87.14 75.0562 87.042 74.5802 86.846C74.1042 86.6407 73.6982 86.3607 73.3622 86.006C73.0356 85.6513 72.7836 85.2453 72.6062 84.788C72.4289 84.3307 72.3402 83.85 72.3402 83.346C72.3402 82.8327 72.4289 82.3473 72.6062 81.89C72.7836 81.4327 73.0356 81.0267 73.3622 80.672C73.6982 80.3173 74.1042 80.042 74.5802 79.846C75.0562 79.6407 75.5929 79.538 76.1902 79.538C76.7876 79.538 77.3196 79.6407 77.7862 79.846C78.2622 80.042 78.6682 80.3173 79.0042 80.672C79.3402 81.0267 79.5922 81.4327 79.7602 81.89C79.9376 82.3473 80.0262 82.8327 80.0262 83.346C80.0262 83.85 79.9376 84.3307 79.7602 84.788C79.5922 85.2453 79.3402 85.6513 79.0042 86.006C78.6776 86.3607 78.2762 86.6407 77.8002 86.846C77.3242 87.042 76.7876 87.14 76.1902 87.14ZM74.2722 83.346C74.2722 83.7753 74.3562 84.158 74.5242 84.494C74.6922 84.8207 74.9209 85.0773 75.2102 85.264C75.4996 85.4507 75.8262 85.544 76.1902 85.544C76.5449 85.544 76.8669 85.4507 77.1562 85.264C77.4456 85.068 77.6742 84.8067 77.8422 84.48C78.0196 84.144 78.1082 83.7613 78.1082 83.332C78.1082 82.912 78.0196 82.534 77.8422 82.198C77.6742 81.862 77.4456 81.6007 77.1562 81.414C76.8669 81.2273 76.5449 81.134 76.1902 81.134C75.8262 81.134 75.4996 81.232 75.2102 81.428C74.9209 81.6147 74.6922 81.876 74.5242 82.212C74.3562 82.5387 74.2722 82.9167 74.2722 83.346ZM81.2925 87V79.664H86.1505V81.302H83.1685V87H81.2925ZM87.2261 87V79.664H89.1021V87H87.2261ZM87.2261 78.642V76.78H89.1021V78.642H87.2261ZM90.4024 87L92.2644 84.144C91.8258 84.0227 91.4758 83.7847 91.2144 83.43C90.9624 83.0753 90.8364 82.6087 90.8364 82.03C90.8364 81.5447 90.9484 81.1247 91.1724 80.77C91.3964 80.4153 91.7044 80.14 92.0964 79.944C92.4884 79.7387 92.9411 79.636 93.4544 79.636H96.9404V87H95.0644V84.466H94.0704L92.4604 87H90.4024ZM93.6784 83.122H95.0644V81.078H93.7484C93.4124 81.078 93.1464 81.1713 92.9504 81.358C92.7544 81.5447 92.6564 81.7873 92.6564 82.086C92.6564 82.3847 92.7404 82.632 92.9084 82.828C93.0858 83.024 93.3424 83.122 93.6784 83.122Z" fill="white"/>
</svg>
