<svg width="140" height="164" viewBox="0 0 140 164" fill="none" xmlns="http://www.w3.org/2000/svg">
<path fill-rule="evenodd" clip-rule="evenodd" d="M98.6865 99.4339C98.998 99.0118 99.5171 98.8008 99.9324 98.3787C101.282 98.9063 102.839 98.9062 104.708 99.3283C105.435 99.4339 107.304 99.856 107.096 100.806C106.889 101.755 103.774 101.333 102.736 101.228C100.867 101.017 99.6209 100.278 98.6865 99.4339Z" fill="#1A1A1A"/>
<path fill-rule="evenodd" clip-rule="evenodd" d="M94.9489 105.238C94.7413 105.765 94.4298 106.187 94.326 106.715C93.8069 106.61 93.5992 106.821 93.0801 106.821C92.0419 104.605 90.5884 102.916 88.8234 101.439C87.0584 101.439 85.7087 102.6 84.8781 103.971C83.5284 106.082 82.594 108.931 83.1131 111.464C82.6978 112.519 81.1405 112.519 80.5176 111.569C80.4137 111.042 80.6214 110.831 80.7252 110.514C80.829 105.238 83.4246 101.755 86.9546 99.2229C91.3151 98.5897 93.1839 102.389 94.9489 105.238Z" fill="#1A1A1A"/>
<path fill-rule="evenodd" clip-rule="evenodd" d="M99.9324 102.811C101.49 100.595 105.02 103.76 107.408 103.127C108.134 103.444 109.173 104.71 107.823 105.027C107.304 105.132 106.473 104.71 106.058 104.71C105.539 104.71 105.02 104.816 104.501 104.816C102.32 104.816 100.348 103.655 99.9324 102.811Z" fill="#1A1A1A"/>
<path fill-rule="evenodd" clip-rule="evenodd" d="M70.6545 112.519C69.8239 112.519 69.4086 112.097 68.8895 111.78C68.9933 109.986 67.3321 106.609 65.8786 106.398C64.5289 106.187 63.8022 107.559 62.764 108.192C61.6219 109.459 61.4143 111.675 60.376 113.152C59.6493 113.152 59.6493 112.519 58.8187 112.73C58.5072 111.78 59.0263 111.464 59.3378 110.936C59.4416 110.619 59.1302 110.619 59.234 110.197C60.5837 107.454 63.6984 103.127 67.7474 104.816C68.7857 105.238 70.0315 106.821 70.6545 108.192C71.1736 109.67 71.4851 111.041 70.6545 112.519Z" fill="#1A1A1A"/>
<path fill-rule="evenodd" clip-rule="evenodd" d="M107.927 109.459C106.888 111.464 100.763 109.247 100.451 107.77C102.113 105.66 104.812 108.72 107.2 108.614C107.408 109.036 107.927 109.036 107.927 109.459Z" fill="#1A1A1A"/>
<path fill-rule="evenodd" clip-rule="evenodd" d="M108.861 113.468C108.653 114.735 106.888 114.313 105.539 113.996C103.878 113.68 101.801 112.835 101.178 112.097C102.009 109.881 103.981 111.675 105.954 112.202C107.304 112.624 108.55 112.413 108.861 113.468Z" fill="#1A1A1A"/>
<path fill-rule="evenodd" clip-rule="evenodd" d="M101.905 115.896C102.839 114.102 104.085 115.157 105.746 116.107C106.681 116.634 108.238 117.162 108.031 118.428C107.927 118.85 107.408 119.272 106.681 119.272C106.162 119.167 106.058 118.745 105.643 118.428C104.501 117.584 102.528 116.845 101.905 115.896Z" fill="#1A1A1A"/>
<path fill-rule="evenodd" clip-rule="evenodd" d="M105.954 122.333C103.67 122.544 102.839 120.539 101.49 119.483C102.217 116.74 106.266 120.328 106.369 121.277C106.266 121.805 105.954 122.121 105.954 122.333Z" fill="#1A1A1A"/>
<path fill-rule="evenodd" clip-rule="evenodd" d="M73.25 79.3843C72.3156 80.6506 72.2118 83.7107 72.108 85.9267C72.0042 87.5096 72.108 89.0924 72.3156 90.3587C72.108 90.5698 72.108 90.9918 71.9003 91.2029C72.4195 92.4692 73.3539 93.5244 72.9386 95.1073C77.6106 91.9416 81.7635 87.193 88.3043 85.8212C88.6158 85.7157 89.1349 85.9267 89.4464 85.8212C90.3808 85.7157 91.1075 85.0825 91.9381 84.8715C93.8069 84.4494 95.8834 84.0273 97.856 84.1328C100.036 84.2384 102.943 84.977 104.708 86.0323C105.539 86.5599 106.473 87.5096 107.304 88.2482C108.965 89.7256 109.899 90.9919 111.041 93.1024C113.014 96.6902 112.806 101.439 113.222 106.609C113.741 112.73 112.184 119.483 109.276 124.76C107.719 126.342 105.85 127.503 104.085 128.875C100.659 129.825 97.9598 132.041 94.4299 132.99C91.1075 133.835 86.4355 133.94 82.1788 133.518C81.6597 133.518 80.9329 133.413 80.4138 133.307C79.4794 133.096 78.545 132.357 77.5068 132.357C76.78 132.357 75.9494 132.885 75.1188 132.885C74.0806 132.885 73.0424 132.463 72.2118 132.463C71.4851 132.463 70.6545 132.779 69.6162 132.99C68.1627 133.307 66.9169 133.201 65.1519 133.412C63.906 133.624 61.9334 133.835 60.376 133.729C55.8078 133.413 52.6932 130.88 50.5129 127.398C50.2014 125.604 48.7479 124.021 48.2288 122.121C47.9173 120.855 47.8135 119.483 47.502 118.112C47.2944 117.267 46.9829 115.896 46.9829 114.629C46.9829 113.891 47.2944 113.152 47.2944 112.413C47.3982 111.358 47.1906 110.197 47.2944 109.353C47.6058 106.715 48.4364 104.288 49.0594 102.177C49.6823 100.595 50.8243 99.5393 51.1358 97.6399C52.9008 95.9515 54.4581 94.1576 56.5346 92.7858C59.9607 91.836 64.1136 91.8361 67.436 92.3637C66.9169 91.2029 65.5672 90.9919 64.7366 90.2532C62.8678 88.6704 61.5181 86.5599 60.2722 84.4494C60.0646 83.1831 59.5454 82.3389 59.1302 81.3892C59.0263 80.2284 59.0263 78.9622 58.7149 77.5903C59.6493 75.6909 61.4143 76.9572 62.6601 77.8014C63.1792 78.118 63.906 78.5401 64.2175 78.8566C66.9169 81.3892 68.6818 85.9268 70.5507 88.3538C70.9659 86.6654 70.1354 83.9218 70.9659 81.8113C70.8621 80.8616 70.7583 80.334 70.0315 79.7008C70.6545 77.3793 71.6927 75.4799 72.5233 73.3694C72.6271 73.1583 73.0424 73.1584 73.25 73.0528C73.25 72.6307 73.0424 72.6307 73.25 72.2086C75.9494 67.3545 86.8508 65.8772 87.5776 72.3141C87.6814 73.4749 87.3699 74.7412 86.8508 75.3743C85.7088 77.0627 83.84 77.9069 81.5559 78.54C81.1406 78.6455 80.8291 78.9621 80.4138 79.0676C79.1679 79.4897 77.8182 79.0677 76.3647 79.1732C75.015 79.7008 74.0806 80.4395 73.25 79.3843ZM75.4303 73.0528C75.5341 73.0528 75.638 73.0528 75.7418 73.1583C75.8456 73.0528 75.8456 72.7362 75.8456 72.4196C75.638 72.5252 75.4303 72.6307 75.4303 73.0528ZM84.5667 74.0025C84.6705 73.7915 85.1896 73.2639 84.6705 73.0528C84.5667 73.2639 84.1514 73.7915 84.5667 74.0025ZM80.7253 77.0627C81.0367 77.0627 81.2444 77.0627 81.2444 76.8517C81.0367 76.8517 81.1406 76.5351 80.8291 76.6406C80.8291 76.7461 80.7253 76.8517 80.7253 77.0627ZM78.4412 78.0124C78.7526 78.0124 79.0641 78.0124 78.9603 77.5903C78.545 77.4848 78.4412 77.6958 78.4412 78.0124ZM76.0533 78.118C76.1571 78.118 76.1571 78.2235 76.1571 78.329C76.4685 78.329 76.78 78.329 76.9877 78.2235C76.9877 77.6958 76.0533 77.5903 76.0533 78.118ZM60.999 79.7008C62.141 79.5953 61.9334 80.8616 62.8678 80.9671C62.5563 80.0174 61.8296 79.4898 60.999 79.1732C60.7913 79.3843 60.999 79.3843 60.999 79.7008ZM65.671 86.1378C66.3977 86.5599 66.813 88.3538 67.7474 87.8262C66.0863 85.8212 65.4633 82.9721 63.4907 81.2837C63.4907 81.1782 63.3869 81.1781 63.2831 81.1781C63.4907 83.2886 65.0481 84.2383 65.671 86.1378ZM102.113 90.7808C101.697 90.5698 101.49 89.9366 101.075 89.7256C96.5063 86.8765 88.512 87.6151 83.9438 89.9367C79.7909 92.1527 75.5341 95.2128 73.5615 99.3283C72.9386 99.5393 72.108 99.4338 71.2774 99.3283C70.9659 99.0117 70.6545 98.5896 70.4468 98.062C67.6436 95.846 63.5945 94.6852 59.0263 95.5294C56.3269 96.6902 54.0428 98.4841 52.3817 100.806C51.5511 102.072 51.2396 103.127 50.8243 104.71C50.4091 106.293 49.7861 107.665 49.6823 109.142C49.5785 110.83 49.4747 112.941 49.6823 114.735C50.0976 118.323 51.9664 123.177 53.5237 125.709C54.562 127.503 56.8461 129.403 58.8187 129.825C59.5455 130.036 60.4799 129.825 61.3104 129.93C62.4525 130.036 63.4907 130.563 64.7366 130.669C67.436 130.88 70.1354 129.93 72.9386 129.508C73.1462 129.297 72.9386 128.769 73.1462 128.558C75.4303 128.558 77.1953 130.88 79.687 130.247C82.3864 130.352 85.0858 131.302 87.5776 131.091C89.4464 130.985 91.419 130.352 93.2878 129.93C94.6375 129.614 95.8834 128.98 97.1292 128.664C99.4133 128.031 101.075 127.82 102.32 126.237C101.594 125.604 100.971 125.076 100.555 124.126C101.697 121.91 103.047 124.971 104.293 124.865C105.02 124.76 107.096 121.594 107.304 121.066C108.134 119.589 109.069 115.79 109.173 113.891C109.173 113.68 108.965 113.363 108.965 113.152C108.965 111.991 109.38 110.83 109.276 109.459C108.861 104.71 108.446 99.9614 106.681 96.7957C106.266 96.9012 106.473 97.7454 105.85 97.7454C103.67 98.1675 100.14 97.6399 98.7904 96.057C98.7904 95.6349 99.2057 95.7405 99.1019 95.2129C98.5828 94.8963 97.856 94.8962 97.5446 94.3686C97.856 91.836 102.632 92.8913 104.812 93.4189C104.501 92.2582 103.151 91.5195 102.113 90.7808ZM104.189 95.5294C103.359 95.5294 103.151 95.4239 102.424 95.5294C102.736 96.1626 104.085 95.7404 104.293 96.4791C105.435 96.1625 105.643 97.0067 106.681 96.9012C106.473 95.846 106.058 95.0018 105.331 94.4742C105.331 95.2128 104.397 94.8963 104.189 95.5294Z" fill="#1A1A1A"/>
<path fill-rule="evenodd" clip-rule="evenodd" d="M84.6705 118.112C85.2934 118.639 85.1896 119.589 84.8781 120.433C82.2826 121.594 79.4794 123.388 76.0532 123.81C73.7691 124.021 71.1736 123.493 69.2009 122.966C67.8512 122.649 66.6054 121.91 65.5671 121.172C65.5671 120.433 66.5015 119.906 67.4359 119.906C68.3703 120.011 69.0971 120.855 69.9277 121.066C74.1844 122.333 78.0259 121.699 81.5558 119.8C82.594 119.167 83.4246 117.901 84.6705 118.112Z" fill="#1A1A1A"/>
<path fill-rule="evenodd" clip-rule="evenodd" d="M79.5071 23.0544C80.2454 22.7732 80.405 22.5274 80.9189 22.378C80.9837 22.4921 81.1608 22.5403 81.1608 22.5403C81.4073 23.7647 80.4317 24.9457 79.6981 26.2889C79.3313 26.9605 78.49 29.4317 77.5272 29.8446C76.7889 30.1257 75.3551 29.4459 75.5101 28.138C76.7275 27.1194 76.8825 25.8114 77.0376 24.5035C74.8307 23.5167 72.4989 23.3639 70.1022 23.097C68.5087 22.663 69.2076 20.7316 70.8312 20.6916C73.5346 21.2349 76.2853 21.5983 78.9412 22.3216C79.1356 22.6639 79.3775 22.8262 79.5071 23.0544Z" fill="#1A1A1A"/>
<path fill-rule="evenodd" clip-rule="evenodd" d="M58.8103 36.4165C64.5121 42.502 68.587 51.5198 73.1062 59.212C72.9638 59.7519 72.2903 60.1471 71.7117 60.1824C69.8242 58.704 68.623 56.0623 67.2446 53.3724C65.0713 49.0193 62.1896 44.4734 59.5371 40.8578C58.8382 42.7891 60.4885 45.1674 60.5626 47.4057C60.8867 47.9761 61.2581 48.3666 61.2454 49.1347C61.3276 49.5428 61.5996 49.2311 61.6817 49.6392C63.4709 54.3698 65.6744 58.2489 66.7727 63.0807C64.6272 65.1003 63.9872 62.1292 63.0625 60.2379C62.7385 59.6675 62.3496 58.9829 62.0256 58.4125C61.7016 57.842 61.602 57.1399 61.455 56.6176C59.4587 52.3128 56.819 47.9292 54.2834 45.3099C53.8564 46.9295 54.9107 49.0489 55.0149 50.8132C56.0044 52.8186 56.6271 55.4956 57.5217 57.8609C58.0748 59.3618 58.7403 60.7967 59.1813 62.3634C59.5574 63.816 60.2228 65.2509 59.9555 66.6247C59.1223 67.2658 58.5264 67.007 57.9304 66.7483C55.0916 60.9603 52.7445 53.6667 48.9128 48.7656C48.7184 48.4233 47.7509 47.7741 47.781 47.3001C47.7463 46.712 48.6269 45.891 49.4473 46.018C50.0908 46.0968 50.9333 47.58 51.6288 48.5409C52.1472 49.4536 52.6831 50.6604 53.2965 51.2132C53.227 50.037 52.6785 49.5983 52.8509 48.5844C51.9436 46.9871 51.9817 44.683 51.6356 42.7564C53.6942 39.2666 56.9821 44.7911 58.7272 46.8094C58.7226 45.7473 58.5408 44.637 57.8453 43.676C58.0525 43.2502 57.7284 42.6798 57.5641 41.8635C57.4819 41.4554 57.689 41.0296 57.6069 40.6215C57.5895 40.3274 57.3477 40.1651 57.3303 39.871C57.2134 38.8748 57.2862 37.1587 57.6704 36.7812C57.9424 36.4695 58.4088 36.5 58.8103 36.4165Z" fill="#1A1A1A"/>
<path fill-rule="evenodd" clip-rule="evenodd" d="M23.9792 60.2023C24.1261 60.7246 24.0787 60.9045 24.5624 61.2291C24.6446 61.6373 24.2604 62.0149 24.2777 62.3089C21.2169 64.5614 19.1062 67.1691 16.6414 69.6803C19.994 75.3189 22.2114 82.3843 25.9482 87.6453C28.6248 85.7704 30.5586 83.1145 33.1056 81.0114C33.2479 80.4715 33.1657 80.0634 33.4203 79.4576C34.2234 79.2906 34.772 79.7293 35.4802 79.9222C35.1134 80.5938 36.2879 80.8173 35.9859 81.603C32.748 83.8072 29.8261 88.4121 26.5709 90.3223C26.1219 90.5858 25.5907 90.4411 25.0595 90.2965C24.5758 89.9718 24.3814 89.6296 24.1048 88.8792C23.3919 87.6242 22.4372 86.2069 21.9662 85.1142C19.8402 80.5812 17.3427 75.6577 15.1046 71.1906C14.4137 71.2918 13.658 71.2788 13.157 70.6602C13.04 69.6639 13.8432 69.4969 14.3396 69.0534C15.0606 68.4782 15.5871 67.5608 16.308 66.9856C16.9641 66.2964 17.7325 65.5412 18.3887 64.852C19.701 63.4734 20.9958 61.8009 22.5025 60.7646C22.7745 60.4529 23.3357 60.1235 23.9792 60.2023Z" fill="#1A1A1A"/>
<path fill-rule="evenodd" clip-rule="evenodd" d="M75.7671 35.441C74.7141 37.2759 73.6597 35.1565 72.6969 35.5693C71.8464 35.9163 71.3072 37.6018 71.247 38.5498C70.7946 41.7056 71.3189 47.6348 73.6821 51.268C75.9804 54.7871 80.4925 53.5085 82.7455 50.3609C83.4966 49.3117 83.7465 47.6439 85.1756 47.2616C85.6085 50.6584 83.58 53.6742 79.9058 55.3739C76.6806 56.8101 73.394 55.24 71.7738 52.3878C69.0693 47.8901 68.5924 41.7809 69.2346 37.9053C69.407 36.8914 69.5019 36.5315 69.8513 35.5658C71.0166 33.6651 73.4734 32.984 75.1016 34.0061C75.0715 34.4801 75.7324 34.8529 75.7671 35.441Z" fill="#1A1A1A"/>
<path fill-rule="evenodd" clip-rule="evenodd" d="M45.7769 59.5808C45.6693 60.7087 44.4599 59.8972 43.6094 60.2442C42.245 60.7406 40.5185 62.9707 39.1368 63.173C37.9321 63.4235 36.8824 62.3662 37.858 61.1853C39.9259 59.8197 41.7045 58.4717 43.7598 57.8741C44.4854 58.3611 45.5304 58.3563 45.7769 59.5808Z" fill="#1A1A1A"/>
<path fill-rule="evenodd" clip-rule="evenodd" d="M32.4887 68.5955C33.0719 69.6223 32.0142 70.3951 31.151 71.5102C30.6071 72.1336 30.0805 73.051 29.6015 73.7885C28.7856 74.7236 27.5683 75.7422 26.6402 76.7432C25.8718 77.4983 24.8187 79.3332 23.9682 79.6802C23.2299 79.9613 21.5715 79.4133 22.1455 78.3159C22.4001 77.7101 23.2333 77.0691 23.8894 76.3798C25.4088 74.5755 27.5069 72.7359 29.0263 70.9315C29.7773 69.8824 30.7181 68.1133 32.4887 68.5955Z" fill="#1A1A1A"/>
<path fill-rule="evenodd" clip-rule="evenodd" d="M49.9756 63.8103C50.2822 64.0867 50.347 64.2008 50.671 64.7713C48.8797 66.8873 45.128 69.241 43.1596 71.3088C42.0845 71.7875 41.4238 71.4146 41.0176 70.436C41.6864 68.9787 43.3702 67.9907 45.3258 66.691C46.7677 65.5406 48.1448 64.2762 49.9756 63.8103Z" fill="#1A1A1A"/>
<path d="M70.0002 164L0 123V41L70.0002 0L140 41V123L70.0002 164Z" fill="#5856D6" fill-opacity="0.85"/>
<path d="M52.0683 87V86.104C51.471 86.0667 50.9063 85.9407 50.3743 85.726C49.8423 85.5113 49.371 85.2127 48.9603 84.83C48.5496 84.4473 48.223 83.9947 47.9803 83.472C47.747 82.94 47.6303 82.3567 47.6303 81.722C47.6303 81.05 47.7516 80.4527 47.9943 79.93C48.2463 79.398 48.5823 78.9453 49.0023 78.572C49.4223 78.1893 49.8936 77.8953 50.4163 77.69C50.9483 77.4847 51.499 77.3633 52.0683 77.326V76.57H53.9023V77.326C54.4716 77.3633 55.0223 77.4893 55.5543 77.704C56.0863 77.9093 56.5576 78.2033 56.9683 78.586C57.3883 78.9593 57.7196 79.412 57.9623 79.944C58.205 80.4667 58.3263 81.0593 58.3263 81.722C58.3263 82.3753 58.205 82.9633 57.9623 83.486C57.729 84.0087 57.4023 84.4613 56.9823 84.844C56.5716 85.2267 56.1003 85.5253 55.5683 85.74C55.0363 85.9453 54.481 86.0667 53.9023 86.104V87H52.0683ZM52.1243 84.55V78.88C51.6576 78.908 51.2283 79.0387 50.8363 79.272C50.4443 79.5053 50.1316 79.8273 49.8983 80.238C49.6743 80.6393 49.5623 81.134 49.5623 81.722C49.5623 82.1607 49.6323 82.5527 49.7723 82.898C49.9123 83.234 50.099 83.5233 50.3323 83.766C50.575 83.9993 50.8503 84.186 51.1583 84.326C51.4663 84.4567 51.7883 84.5313 52.1243 84.55ZM53.8463 84.55C54.3036 84.5127 54.7283 84.382 55.1203 84.158C55.5123 83.9247 55.825 83.6073 56.0583 83.206C56.2916 82.7953 56.4083 82.3007 56.4083 81.722C56.4083 81.2833 56.3383 80.896 56.1983 80.56C56.0676 80.224 55.881 79.9347 55.6383 79.692C55.405 79.4493 55.1343 79.258 54.8263 79.118C54.5183 78.978 54.1916 78.8987 53.8463 78.88V84.55ZM59.603 87V79.664H61.479V87H59.603ZM59.603 78.642V76.78H61.479V78.642H59.603ZM65.7894 87.112C65.0054 87.112 64.352 86.972 63.8294 86.692C63.3067 86.412 62.896 86.0247 62.5974 85.53L64.1094 84.844C64.268 85.0867 64.4734 85.278 64.7254 85.418C64.9867 85.5487 65.3087 85.614 65.6914 85.614C66.13 85.614 66.466 85.53 66.6994 85.362C66.942 85.1847 67.0634 84.956 67.0634 84.676C67.0634 84.4147 66.9654 84.2047 66.7694 84.046C66.5734 83.8873 66.284 83.808 65.9014 83.808H65.1454V82.646H65.9154C66.0927 82.646 66.242 82.6133 66.3634 82.548C66.494 82.4733 66.592 82.3753 66.6574 82.254C66.732 82.1327 66.7694 81.9927 66.7694 81.834C66.7694 81.6007 66.676 81.4093 66.4894 81.26C66.312 81.1107 66.0274 81.036 65.6354 81.036C65.3087 81.036 65.038 81.0967 64.8234 81.218C64.618 81.3393 64.4454 81.5213 64.3054 81.764L62.8914 81.008C63.1527 80.5507 63.526 80.1913 64.0114 79.93C64.506 79.6687 65.08 79.538 65.7334 79.538C66.2467 79.538 66.704 79.6173 67.1054 79.776C67.516 79.9347 67.838 80.1633 68.0714 80.462C68.3047 80.7607 68.4214 81.134 68.4214 81.582C68.4214 81.8993 68.342 82.2073 68.1834 82.506C68.034 82.8047 67.7867 83.024 67.4414 83.164C67.8894 83.2947 68.2254 83.5187 68.4494 83.836C68.6827 84.1533 68.7994 84.5267 68.7994 84.956C68.7994 85.4227 68.6687 85.8193 68.4074 86.146C68.146 86.4633 67.7914 86.706 67.3434 86.874C66.8954 87.0327 66.3774 87.112 65.7894 87.112ZM70.1167 87V79.678H71.9927V84.494L75.2827 79.664H76.9907V87H75.1147V82.296L71.8667 87H70.1167ZM78.7026 87V79.664H80.5786V82.436H81.2086L83.1966 79.664H85.2406L82.6366 83.206L85.5206 87H83.3786L81.1806 84.088H80.5786V87H78.7026ZM86.1146 84.83C86.1146 84.354 86.2453 83.9387 86.5066 83.584C86.7773 83.22 87.1506 82.94 87.6266 82.744C88.1026 82.548 88.6486 82.45 89.2646 82.45C89.5726 82.45 89.8853 82.4733 90.2026 82.52C90.52 82.5667 90.7953 82.6413 91.0286 82.744V82.352C91.0286 81.8853 90.8886 81.526 90.6086 81.274C90.338 81.022 89.932 80.896 89.3906 80.896C88.9893 80.896 88.6066 80.966 88.2426 81.106C87.8786 81.246 87.496 81.4513 87.0946 81.722L86.4926 80.49C86.978 80.1727 87.4726 79.9347 87.9766 79.776C88.49 79.6173 89.0266 79.538 89.5866 79.538C90.632 79.538 91.444 79.7993 92.0226 80.322C92.6106 80.8447 92.9046 81.5913 92.9046 82.562V84.9C92.9046 85.096 92.9373 85.236 93.0026 85.32C93.0773 85.404 93.194 85.4553 93.3526 85.474V87C93.1846 87.028 93.0306 87.0513 92.8906 87.07C92.76 87.0887 92.648 87.098 92.5546 87.098C92.1813 87.098 91.8966 87.014 91.7006 86.846C91.514 86.678 91.3973 86.4727 91.3506 86.23L91.3086 85.852C90.9913 86.2627 90.5946 86.58 90.1186 86.804C89.6426 87.028 89.1573 87.14 88.6626 87.14C88.1773 87.14 87.7386 87.042 87.3466 86.846C86.964 86.6407 86.6606 86.3653 86.4366 86.02C86.222 85.6653 86.1146 85.2687 86.1146 84.83ZM90.6786 85.208C90.7813 85.096 90.8653 84.984 90.9306 84.872C90.996 84.76 91.0286 84.6573 91.0286 84.564V83.822C90.8046 83.7287 90.562 83.6587 90.3006 83.612C90.0393 83.556 89.792 83.528 89.5586 83.528C89.0733 83.528 88.672 83.6353 88.3546 83.85C88.0466 84.0553 87.8926 84.3307 87.8926 84.676C87.8926 84.8627 87.944 85.04 88.0466 85.208C88.1493 85.376 88.2986 85.5113 88.4946 85.614C88.6906 85.7167 88.924 85.768 89.1946 85.768C89.4746 85.768 89.75 85.7167 90.0206 85.614C90.2913 85.502 90.5106 85.3667 90.6786 85.208Z" fill="white"/>
</svg>
