<svg width="140" height="164" viewBox="0 0 140 164" fill="none" xmlns="http://www.w3.org/2000/svg">
<path d="M69.9975 164L140 123V40.9999L69.9975 0L0 40.9999V123L69.9975 164Z" fill="#FCAA23" fill-opacity="0.5"/>
<path d="M36.522 87.0001V77.0601H42.626V78.7541H38.44V87.0001H36.522ZM47.2335 87.1401C46.6455 87.1401 46.1135 87.0421 45.6375 86.8461C45.1615 86.6408 44.7555 86.3655 44.4195 86.0201C44.0835 85.6655 43.8222 85.2641 43.6355 84.8161C43.4582 84.3588 43.3695 83.8781 43.3695 83.3741C43.3695 82.6741 43.5235 82.0348 43.8315 81.4561C44.1489 80.8775 44.5969 80.4155 45.1755 80.0701C45.7635 79.7155 46.4542 79.5381 47.2475 79.5381C48.0502 79.5381 48.7362 79.7155 49.3055 80.0701C49.8749 80.4155 50.3089 80.8775 50.6075 81.4561C50.9155 82.0255 51.0695 82.6415 51.0695 83.3041C51.0695 83.4161 51.0649 83.5328 51.0555 83.6541C51.0462 83.7661 51.0369 83.8595 51.0275 83.9341H45.3575C45.3949 84.3075 45.5022 84.6341 45.6795 84.9141C45.8662 85.1941 46.0995 85.4088 46.3795 85.5581C46.6689 85.6981 46.9769 85.7681 47.3035 85.7681C47.6769 85.7681 48.0269 85.6795 48.3535 85.5021C48.6895 85.3155 48.9182 85.0728 49.0395 84.7741L50.6495 85.2221C50.4722 85.5955 50.2155 85.9268 49.8795 86.2161C49.5529 86.5055 49.1655 86.7341 48.7175 86.9021C48.2695 87.0608 47.7749 87.1401 47.2335 87.1401ZM45.3155 82.7441H49.1515C49.1142 82.3708 49.0069 82.0488 48.8295 81.7781C48.6615 81.4981 48.4375 81.2835 48.1575 81.1341C47.8775 80.9755 47.5649 80.8961 47.2195 80.8961C46.8835 80.8961 46.5755 80.9755 46.2955 81.1341C46.0249 81.2835 45.8009 81.4981 45.6235 81.7781C45.4555 82.0488 45.3529 82.3708 45.3155 82.7441ZM55.6004 87.1401C55.0031 87.1401 54.4664 87.0421 53.9904 86.8461C53.5144 86.6408 53.1084 86.3608 52.7724 86.0061C52.4457 85.6515 52.1937 85.2455 52.0164 84.7881C51.8391 84.3308 51.7504 83.8501 51.7504 83.3461C51.7504 82.8328 51.8391 82.3475 52.0164 81.8901C52.1937 81.4328 52.4457 81.0268 52.7724 80.6721C53.1084 80.3175 53.5144 80.0421 53.9904 79.8461C54.4664 79.6408 55.0031 79.5381 55.6004 79.5381C56.1977 79.5381 56.7297 79.6408 57.1964 79.8461C57.6724 80.0421 58.0784 80.3175 58.4144 80.6721C58.7504 81.0268 59.0024 81.4328 59.1704 81.8901C59.3477 82.3475 59.4364 82.8328 59.4364 83.3461C59.4364 83.8501 59.3477 84.3308 59.1704 84.7881C59.0024 85.2455 58.7504 85.6515 58.4144 86.0061C58.0877 86.3608 57.6864 86.6408 57.2104 86.8461C56.7344 87.0421 56.1977 87.1401 55.6004 87.1401ZM53.6824 83.3461C53.6824 83.7755 53.7664 84.1581 53.9344 84.4941C54.1024 84.8208 54.3311 85.0775 54.6204 85.2641C54.9097 85.4508 55.2364 85.5441 55.6004 85.5441C55.9551 85.5441 56.2771 85.4508 56.5664 85.2641C56.8557 85.0681 57.0844 84.8068 57.2524 84.4801C57.4297 84.1441 57.5184 83.7615 57.5184 83.3321C57.5184 82.9121 57.4297 82.5341 57.2524 82.1981C57.0844 81.8621 56.8557 81.6008 56.5664 81.4141C56.2771 81.2275 55.9551 81.1341 55.6004 81.1341C55.2364 81.1341 54.9097 81.2321 54.6204 81.4281C54.3311 81.6148 54.1024 81.8761 53.9344 82.2121C53.7664 82.5388 53.6824 82.9168 53.6824 83.3461ZM60.7026 87.0001V79.6641H65.5606V81.3021H62.5786V87.0001H60.7026ZM71.0322 87.1401C70.4629 87.1401 69.9589 87.0141 69.5202 86.7621C69.0909 86.5008 68.7549 86.1508 68.5122 85.7121V89.9821H66.6362V79.6641H68.2742V80.9241C68.5542 80.4948 68.9089 80.1588 69.3382 79.9161C69.7676 79.6641 70.2576 79.5381 70.8082 79.5381C71.3029 79.5381 71.7556 79.6361 72.1662 79.8321C72.5862 80.0281 72.9502 80.3035 73.2582 80.6581C73.5662 81.0035 73.8042 81.4048 73.9722 81.8621C74.1496 82.3101 74.2382 82.7955 74.2382 83.3181C74.2382 84.0275 74.0982 84.6715 73.8182 85.2501C73.5476 85.8288 73.1696 86.2908 72.6842 86.6361C72.2082 86.9721 71.6576 87.1401 71.0322 87.1401ZM70.4022 85.5441C70.6916 85.5441 70.9529 85.4835 71.1862 85.3621C71.4196 85.2408 71.6202 85.0775 71.7882 84.8721C71.9656 84.6575 72.0962 84.4195 72.1802 84.1581C72.2736 83.8875 72.3202 83.6075 72.3202 83.3181C72.3202 83.0101 72.2689 82.7255 72.1662 82.4641C72.0729 82.2028 71.9329 81.9741 71.7462 81.7781C71.5596 81.5728 71.3402 81.4141 71.0882 81.3021C70.8456 81.1901 70.5796 81.1341 70.2902 81.1341C70.1129 81.1341 69.9309 81.1668 69.7442 81.2321C69.5669 81.2881 69.3942 81.3721 69.2262 81.4841C69.0582 81.5961 68.9089 81.7268 68.7782 81.8761C68.6569 82.0255 68.5682 82.1888 68.5122 82.3661V84.0881C68.6242 84.3588 68.7736 84.6061 68.9602 84.8301C69.1562 85.0541 69.3802 85.2315 69.6322 85.3621C69.8842 85.4835 70.1409 85.5441 70.4022 85.5441ZM75.0053 84.8301C75.0053 84.3541 75.1359 83.9388 75.3973 83.5841C75.6679 83.2201 76.0413 82.9401 76.5173 82.7441C76.9933 82.5481 77.5393 82.4501 78.1553 82.4501C78.4633 82.4501 78.7759 82.4735 79.0933 82.5201C79.4106 82.5668 79.6859 82.6415 79.9193 82.7441V82.3521C79.9193 81.8855 79.7793 81.5261 79.4993 81.2741C79.2286 81.0221 78.8226 80.8961 78.2813 80.8961C77.8799 80.8961 77.4973 80.9661 77.1333 81.1061C76.7693 81.2461 76.3866 81.4515 75.9853 81.7221L75.3833 80.4901C75.8686 80.1728 76.3633 79.9348 76.8673 79.7761C77.3806 79.6175 77.9173 79.5381 78.4773 79.5381C79.5226 79.5381 80.3346 79.7995 80.9133 80.3221C81.5013 80.8448 81.7953 81.5915 81.7953 82.5621V84.9001C81.7953 85.0961 81.8279 85.2361 81.8933 85.3201C81.9679 85.4041 82.0846 85.4555 82.2433 85.4741V87.0001C82.0753 87.0281 81.9213 87.0515 81.7813 87.0701C81.6506 87.0888 81.5386 87.0981 81.4453 87.0981C81.0719 87.0981 80.7873 87.0141 80.5913 86.8461C80.4046 86.6781 80.2879 86.4728 80.2413 86.2301L80.1993 85.8521C79.8819 86.2628 79.4853 86.5801 79.0093 86.8041C78.5333 87.0281 78.0479 87.1401 77.5533 87.1401C77.0679 87.1401 76.6293 87.0421 76.2373 86.8461C75.8546 86.6408 75.5513 86.3655 75.3273 86.0201C75.1126 85.6655 75.0053 85.2688 75.0053 84.8301ZM79.5693 85.2081C79.6719 85.0961 79.7559 84.9841 79.8213 84.8721C79.8866 84.7601 79.9193 84.6575 79.9193 84.5641V83.8221C79.6953 83.7288 79.4526 83.6588 79.1913 83.6121C78.9299 83.5561 78.6826 83.5281 78.4493 83.5281C77.9639 83.5281 77.5626 83.6355 77.2453 83.8501C76.9373 84.0555 76.7833 84.3308 76.7833 84.6761C76.7833 84.8628 76.8346 85.0401 76.9373 85.2081C77.0399 85.3761 77.1893 85.5115 77.3853 85.6141C77.5813 85.7168 77.8146 85.7681 78.0853 85.7681C78.3653 85.7681 78.6406 85.7168 78.9113 85.6141C79.1819 85.5021 79.4013 85.3668 79.5693 85.2081ZM86.9643 89.9821V87.0001H86.7543C85.9797 87.0001 85.317 86.8321 84.7663 86.4961C84.225 86.1508 83.8097 85.7028 83.5203 85.1521C83.231 84.5921 83.0863 83.9901 83.0863 83.3461C83.0863 82.6835 83.231 82.0768 83.5203 81.5261C83.819 80.9661 84.239 80.5181 84.7803 80.1821C85.331 79.8461 85.989 79.6781 86.7543 79.6781H86.9643V76.7801H88.8403V79.6781H89.0643C89.8297 79.6781 90.4877 79.8461 91.0383 80.1821C91.589 80.5181 92.009 80.9661 92.2983 81.5261C92.5877 82.0768 92.7323 82.6835 92.7323 83.3461C92.7323 83.9901 92.5877 84.5921 92.2983 85.1521C92.009 85.7028 91.589 86.1508 91.0383 86.4961C90.497 86.8321 89.839 87.0001 89.0643 87.0001H88.8403V89.9821H86.9643ZM86.7543 85.5021H87.0623V81.1761H86.7543C86.3997 81.1761 86.0823 81.2695 85.8023 81.4561C85.5317 81.6428 85.317 81.8995 85.1583 82.2261C84.9997 82.5528 84.9203 82.9261 84.9203 83.3461C84.9203 83.7661 84.9997 84.1395 85.1583 84.4661C85.317 84.7928 85.5317 85.0495 85.8023 85.2361C86.073 85.4135 86.3903 85.5021 86.7543 85.5021ZM88.7563 85.5021H89.0643C89.4283 85.5021 89.7457 85.4135 90.0163 85.2361C90.2963 85.0495 90.511 84.7928 90.6603 84.4661C90.819 84.1395 90.8983 83.7661 90.8983 83.3461C90.8983 82.9261 90.819 82.5528 90.6603 82.2261C90.5017 81.8995 90.287 81.6428 90.0163 81.4561C89.7457 81.2695 89.4283 81.1761 89.0643 81.1761H88.7563V85.5021ZM93.98 87.0001V79.6641H95.856V87.0001H93.98ZM93.98 78.6421V76.7801H95.856V78.6421H93.98ZM97.1563 87.0001L99.0183 84.1441C98.5797 84.0228 98.2297 83.7848 97.9683 83.4301C97.7163 83.0755 97.5903 82.6088 97.5903 82.0301C97.5903 81.5448 97.7023 81.1248 97.9263 80.7701C98.1503 80.4155 98.4583 80.1401 98.8503 79.9441C99.2423 79.7388 99.695 79.6361 100.208 79.6361H103.694V87.0001H101.818V84.4661H100.824L99.2143 87.0001H97.1563ZM100.432 83.1221H101.818V81.0781H100.502C100.166 81.0781 99.9003 81.1715 99.7043 81.3581C99.5083 81.5448 99.4103 81.7875 99.4103 82.0861C99.4103 82.3848 99.4943 82.6321 99.6623 82.8281C99.8397 83.0241 100.096 83.1221 100.432 83.1221Z" fill="white"/>
</svg>
