<svg width="140" height="164" viewBox="0 0 140 164" fill="none" xmlns="http://www.w3.org/2000/svg">
<path fill-rule="evenodd" clip-rule="evenodd" d="M65.3819 43.0312C65.7035 43.8431 65.2211 44.655 65.2211 45.4669C63.7741 45.7916 62.8095 46.4411 61.684 47.0907C61.0409 52.6116 61.2017 60.081 60.5586 66.901C60.2371 69.6614 60.5586 73.0714 60.5586 76.319C60.5586 78.2676 60.0763 81.028 60.7194 82.6518C60.8802 83.3014 62.4879 84.438 63.2918 84.7628C65.8642 85.8994 70.2052 85.5747 72.7776 87.0361C73.26 86.8737 73.4207 86.0618 73.7423 85.7371C73.5815 85.2499 72.7776 85.8994 72.7776 85.5747C74.0639 83.139 75.6716 81.028 77.4402 78.2676C78.8872 75.9943 79.3695 73.5586 81.9419 72.5843C80.8165 68.3624 82.1027 61.5425 81.9419 56.0216C81.2988 55.5344 80.1734 55.5344 79.691 55.0473C79.2087 53.4235 79.3695 51.4749 79.2087 49.364C80.0126 48.3897 81.6204 48.0649 82.9066 47.9026C90.1415 47.0907 98.9842 47.9026 104.451 50.5006C104.611 52.6116 106.058 56.8334 102.2 56.3463C102.039 61.3801 101.557 64.9524 101.717 69.3367C101.878 72.2595 103.325 74.0457 104.611 76.319C105.255 77.6181 105.898 79.0795 106.541 80.0538C107.666 82.1647 109.756 84.2756 110.882 86.3866C111.203 87.0361 111.364 87.6856 111.686 88.3351C112.329 89.4718 113.133 90.4461 113.615 91.5827C114.097 92.557 114.258 93.856 114.74 94.8303C115.062 95.4798 115.544 95.8046 115.866 96.6165C117.152 99.3769 118.599 103.274 119.564 106.684C120.368 109.282 121.815 112.205 121.332 116.264C121.011 118.375 119.724 119.187 118.599 120.811C111.364 122.597 102.521 122.273 93.8394 122.76C85.8006 123.084 79.3695 122.272 72.1345 121.461C70.0444 121.298 69.8837 121.136 67.9543 122.272C65.3819 123.734 63.7741 124.871 60.3978 125.682C55.4138 127.144 49.465 128.443 43.5163 127.793C38.693 127.144 33.8697 126.332 30.3326 124.221C27.9209 122.76 26.3132 120.486 23.7407 119.35C20.8468 114.641 17.4704 110.581 18.9174 102.787C20.3644 94.0184 25.5093 85.5747 34.1912 84.438C35.6382 73.7209 36.2813 61.8672 36.6029 50.9878C36.6029 50.3383 36.9244 50.0135 37.4068 49.8511C35.9598 49.2016 33.8697 49.2016 32.905 48.0649C32.2619 43.0312 36.4421 41.245 41.587 41.4074C49.1435 41.245 59.4332 39.6212 65.3819 43.0312ZM48.6611 43.1935C43.0339 43.5183 35.9598 42.0569 34.6736 46.4411C39.1753 48.7145 45.6064 46.9283 51.2336 46.7659C55.4137 46.6035 60.0763 47.4154 61.8448 44.3302C58.6293 43.1936 53.3237 43.0312 48.6611 43.1935ZM38.8538 49.5264C39.6576 51.4749 39.0145 53.2611 38.8538 55.2097C38.5322 59.5939 38.5322 64.1405 38.2106 68.5248C38.2106 69.3367 37.7283 70.1486 37.7283 71.1229C37.4068 76.319 37.7283 81.5152 37.0852 86.549C31.9404 86.549 28.8856 88.0104 26.6347 90.7708C25.6701 91.9075 24.2231 93.2065 23.58 94.3432C22.133 97.1036 20.8468 101.326 20.5252 104.735C20.0429 109.769 22.4545 112.854 24.3838 115.453C25.3485 116.752 26.4739 118.375 27.5994 119.025C28.0817 119.35 29.0464 119.512 30.011 119.837C30.8149 120.162 31.458 120.649 32.2619 120.973C39.1753 123.896 51.3943 125.358 59.4332 123.247C62.6487 122.435 65.7035 120.324 68.2759 118.863C69.5621 118.051 71.0091 117.239 71.813 116.427C74.0639 114.316 77.6009 109.444 78.7264 106.359C80.9772 100.189 78.5656 94.3432 74.707 91.9075C72.9384 90.7708 71.1699 90.2837 68.7582 89.3094C67.1505 88.6599 65.7035 87.6856 64.8996 87.3609C62.4879 86.7113 59.9155 87.6856 58.3077 85.7371C59.2724 80.8657 57.9862 75.02 58.3077 69.1743C58.6293 62.192 59.5939 55.0473 59.1116 48.3897C52.1982 48.7145 45.9279 49.2016 38.8538 49.5264ZM81.4596 50.5006C80.9772 51.1502 81.4596 52.2868 81.4596 53.0987C86.6044 55.0473 94.0002 55.2097 99.9489 54.073C100.914 54.5601 101.878 54.5601 102.682 53.9106C102.843 53.0987 102.521 52.6116 102.361 51.9621C96.5726 49.5264 87.8906 49.0392 81.4596 50.5006ZM86.1221 56.8335C85.3182 61.2177 86.2829 66.0891 86.6044 70.4734C84.1928 72.2595 82.9066 75.6695 81.2988 78.7547C79.8518 81.5152 78.8871 83.9509 77.6009 86.2242C77.1186 86.8737 76.3147 87.6856 76.3147 88.4975C76.4755 89.3094 78.244 90.1213 79.3695 91.0956C81.2988 92.7194 83.3889 95.4798 83.8712 98.4027C88.6945 98.8898 93.8394 98.4027 98.1804 98.2403C99.4666 98.2403 101.717 97.9155 102.843 98.4027C104.129 98.8898 105.898 102.137 107.023 103.924C107.666 104.898 108.309 105.872 108.952 107.009C109.435 107.821 110.721 109.444 110.721 110.256C110.721 111.88 106.702 112.53 105.094 113.017C102.843 113.504 100.431 113.991 98.6627 113.504C92.3924 114.641 84.6751 113.342 79.0479 112.205C77.2794 114.965 74.8677 116.914 72.7776 119.35C77.4402 119.512 82.2635 120.649 86.4437 120.811C88.8553 120.973 91.7493 120.649 94.4825 120.649C95.7687 120.649 97.0549 120.649 98.1804 120.486C99.3058 120.324 100.431 120.486 101.396 120.486C103.647 120.486 105.898 119.999 107.827 119.837C111.686 119.512 116.027 119.999 118.277 118.375C120.85 113.666 116.991 108.47 116.509 103.436C114.58 100.514 113.615 96.9413 111.846 93.856C110.399 89.7966 108.631 86.7113 106.38 83.3014C105.415 81.8399 104.451 80.2161 103.486 79.2419C101.878 77.2933 99.7881 75.9943 99.6273 73.721C99.145 68.2 100.431 62.3544 99.4666 56.8335C94.804 57.1582 90.1415 56.5087 86.1221 56.8335ZM83.7104 100.514C83.3889 103.599 82.4242 105.872 81.6204 108.47C83.5497 106.197 85.6398 104.086 86.2829 100.676C85.6398 100.514 84.1928 100.351 83.7104 100.514ZM88.373 100.514C90.3023 103.274 85.9613 107.334 85.1574 110.256C84.9967 110.256 84.9967 110.419 84.8359 110.419C83.8712 110.581 83.8712 109.769 83.0673 109.769C82.9066 110.094 82.4242 110.256 82.4242 110.744C83.7104 111.231 85.6398 111.068 87.0868 111.393C88.5338 107.821 90.7846 104.898 91.9101 101.001C90.7846 100.026 89.6592 100.838 88.373 100.514ZM93.8394 100.514C92.714 104.411 89.6592 107.983 89.1769 111.393C90.7846 111.718 93.3571 111.718 95.2864 111.393C93.5178 110.744 94.6433 109.607 95.2864 108.47C96.4118 106.197 97.698 102.462 98.6627 100.026C97.3765 101.163 96.4118 102.949 95.2864 105.223C94.804 106.197 93.1963 110.419 91.9101 110.419C89.82 110.419 91.9101 107.821 92.2316 107.171C93.8394 104.735 95.2864 102.462 96.0903 99.8641C95.1256 100.189 94.804 100.838 93.8394 100.514ZM95.6079 111.555C96.0903 111.555 97.3765 112.043 97.698 111.393C97.0549 111.555 97.0549 111.068 97.0549 110.419C99.3058 107.658 100.27 103.599 102.2 100.676C101.557 100.514 100.914 100.351 100.11 100.351C99.4666 104.898 97.3765 107.983 95.6079 111.555ZM98.9842 111.555C102.682 111.555 105.576 110.744 108.309 109.769C108.149 109.12 107.827 108.47 107.184 108.145C106.702 108.633 106.38 109.12 105.415 109.282C105.415 108.957 104.933 109.12 105.094 108.633C105.737 108.145 106.219 107.496 106.862 106.846C105.737 105.223 104.933 103.436 103.486 102.3C101.878 105.385 100.11 108.145 98.9842 111.555ZM80.4949 109.932C80.6557 110.094 81.2988 110.581 81.4596 110.094C81.138 109.932 81.4596 109.12 80.8165 109.282C80.9772 109.769 80.4949 109.607 80.4949 109.932Z" fill="#1A1A1A"/>
<path fill-rule="evenodd" clip-rule="evenodd" d="M57.0214 54.2354C56.3783 55.5345 53.002 56.9959 52.3589 54.885C53.002 53.5859 56.3783 52.774 57.0214 54.2354Z" fill="#1A1A1A"/>
<path fill-rule="evenodd" clip-rule="evenodd" d="M56.8607 59.4315C56.3784 60.7305 53.4844 60.8929 52.8413 59.7562C52.8413 58.1324 56.5392 57.8077 56.8607 59.4315Z" fill="#1A1A1A"/>
<path fill-rule="evenodd" clip-rule="evenodd" d="M92.3923 60.2435C92.0708 61.7049 90.463 60.893 89.1768 61.2178C88.8552 60.893 88.6945 60.4059 88.5337 59.7564C89.4984 58.9445 91.4277 59.4316 92.3923 60.2435Z" fill="#1A1A1A"/>
<path fill-rule="evenodd" clip-rule="evenodd" d="M90.6237 63.8157C91.4276 65.4395 89.1767 66.2514 88.3728 65.1147C88.212 63.8157 89.4983 63.3285 90.6237 63.8157Z" fill="#1A1A1A"/>
<path fill-rule="evenodd" clip-rule="evenodd" d="M55.2531 64.9524C55.2531 65.6019 55.8962 65.6019 55.8962 66.4138C53.4845 68.2 51.0729 64.1405 55.2531 64.9524Z" fill="#1A1A1A"/>
<path fill-rule="evenodd" clip-rule="evenodd" d="M90.6237 69.9861C89.9806 70.798 88.0513 70.6357 87.7297 69.6614C87.8905 67.7128 90.6237 68.3623 90.6237 69.9861Z" fill="#1A1A1A"/>
<path fill-rule="evenodd" clip-rule="evenodd" d="M55.0921 73.2338C54.6098 73.8833 53.002 73.7209 52.3589 73.2338C51.555 70.9604 55.2529 71.61 55.0921 73.2338Z" fill="#1A1A1A"/>
<path fill-rule="evenodd" clip-rule="evenodd" d="M90.4632 74.5329C89.4986 75.02 87.0869 75.6695 87.0869 74.0457C87.8908 73.2338 90.1417 73.2338 90.4632 74.5329Z" fill="#1A1A1A"/>
<path fill-rule="evenodd" clip-rule="evenodd" d="M56.3785 77.6181C55.7354 78.2677 53.9668 78.9172 53.0022 78.1053C53.0022 77.7805 52.6806 77.4558 52.8414 76.9686C53.6453 76.4815 56.3785 76.3191 56.3785 77.6181Z" fill="#1A1A1A"/>
<path fill-rule="evenodd" clip-rule="evenodd" d="M87.73 78.4298C88.0516 78.7546 88.2124 79.4041 88.0516 79.8913C86.7654 80.3784 84.9968 80.216 84.9968 78.5922C85.8007 77.9427 86.6046 78.5922 87.73 78.4298Z" fill="#1A1A1A"/>
<path fill-rule="evenodd" clip-rule="evenodd" d="M51.0728 83.4637C51.8767 82.8142 55.253 82.6518 55.0922 83.9509C54.9315 85.0875 50.912 85.8994 51.0728 83.4637Z" fill="#1A1A1A"/>
<path fill-rule="evenodd" clip-rule="evenodd" d="M86.2829 84.1132C86.2829 85.2499 83.7104 85.4123 83.0673 84.6004C82.2634 83.1389 85.8005 83.1389 86.2829 84.1132Z" fill="#1A1A1A"/>
<path fill-rule="evenodd" clip-rule="evenodd" d="M82.5851 89.3094C82.5851 89.959 82.7459 90.1213 82.5851 90.6085C81.2989 90.9332 80.0127 90.7709 79.6912 89.6342C80.1735 88.1728 81.2989 89.4718 82.5851 89.3094Z" fill="#1A1A1A"/>
<path fill-rule="evenodd" clip-rule="evenodd" d="M72.6169 97.5907C71.813 99.864 73.0992 100.351 73.26 101.65C73.5816 103.761 71.813 107.334 70.8484 108.795C67.7936 113.504 61.2018 119.35 53.0022 119.512C49.6258 119.674 46.7319 120.162 43.034 119.837C40.6223 119.512 35.799 117.563 34.3521 116.589C30.3326 113.666 27.5994 107.496 28.5641 101.001C28.7249 99.5393 28.8856 97.9155 31.2973 97.9155C31.6188 97.4283 31.4581 96.4541 32.1012 96.2917C35.3167 95.8045 38.693 95.3174 42.3909 95.3174C48.0181 95.3174 54.1276 94.9926 59.594 95.6422C61.3625 95.8045 62.9703 96.2917 64.5781 96.4541C67.3113 96.7788 70.2053 96.2917 72.6169 97.5907ZM43.5163 97.9155C43.6771 99.864 41.9086 101.163 41.2655 102.949C45.4456 104.573 46.7319 100.676 47.6965 97.9155C46.2495 98.0779 44.8025 97.5907 43.5163 97.9155ZM49.7866 97.9155C48.9827 99.7017 47.8573 101.001 47.2142 102.949C48.1789 102.949 48.9827 102.624 50.1082 102.787C51.2336 101.325 51.8767 99.2145 53.3237 98.0778C53.3237 98.4026 54.1276 98.0779 54.1276 98.565C54.1276 100.351 52.6806 100.838 52.5198 102.462C53.9668 102.462 55.0923 102.462 56.5392 102.3C57.5039 101.001 57.8255 99.2145 59.594 98.7274C59.594 99.2145 60.2371 98.8898 60.2371 99.3769C60.0763 100.514 59.1117 101.001 58.7901 102.3C59.9156 102.462 60.5587 101.975 61.6841 102.137C62.1664 101.65 62.1664 100.676 63.1311 100.676C63.935 100.676 63.6134 101.65 64.2565 101.813C66.829 101.65 68.919 101.001 70.0445 99.3769C63.1311 98.7274 56.0569 97.5907 49.7866 97.9155ZM32.4227 98.7274C31.7796 98.8898 31.9404 98.2402 31.2973 98.2402C31.7796 99.0521 31.4581 99.7016 31.1365 100.514C32.1012 101.325 33.2266 102.137 34.9952 102.137C35.799 101.001 35.9598 99.3769 37.246 98.7274C39.0146 99.5393 36.9245 101.325 36.7637 102.462C37.5676 102.625 38.5323 102.624 39.4969 102.787C40.3008 101.163 41.587 100.026 42.0693 98.0778C38.2107 97.9155 35.3167 97.9155 32.4227 98.7274ZM70.6876 101.488C65.5427 103.761 64.5781 110.256 61.3625 114.641C62.0057 114.803 62.6488 114.153 63.2919 113.666C64.7389 112.692 65.8643 111.88 66.829 110.743C68.9191 108.308 71.1699 105.385 71.0092 101.488C71.0092 101.65 70.8484 101.488 70.6876 101.488ZM30.9757 107.983C32.262 107.009 32.9051 105.547 33.7089 104.248C32.7443 103.761 31.7796 103.274 30.3326 103.112C29.8503 104.735 30.6542 106.684 30.9757 107.983ZM62.3272 103.924C61.041 106.359 59.2724 108.795 58.147 111.068C57.6647 111.88 57.0216 112.854 56.7 113.666C56.3785 114.478 56.7 115.94 55.4138 116.264C54.6099 115.615 54.9315 113.991 55.0923 113.342C55.8961 110.094 59.2724 107.334 60.0763 104.086C58.6293 104.248 58.147 104.411 56.8608 104.411C55.7354 107.821 52.359 109.932 52.0375 113.666C51.0728 114.153 51.0728 115.452 49.7866 115.615C48.3396 113.666 50.5905 111.718 51.5552 110.256C52.6806 108.47 53.9668 106.684 54.7707 104.898C53.6453 104.573 52.359 104.898 51.2336 105.06C48.9827 109.12 45.6064 112.043 44.1594 116.914C43.6771 117.401 42.8732 117.076 42.3909 116.589C43.8379 112.205 47.0534 109.607 48.6612 105.385C47.6965 105.385 46.5711 105.385 45.7672 105.547C44.8025 107.496 41.2655 110.581 40.3008 113.017C39.8185 114.153 39.8185 116.102 38.3715 114.641C38.8538 111.068 42.2301 109.12 43.5163 105.71C42.3909 105.385 41.1047 105.547 39.9792 105.385C37.8891 107.333 36.4422 109.932 34.6736 112.205C34.3521 111.88 33.8697 111.718 33.8697 111.231C34.9952 108.957 36.7637 107.334 37.7284 104.898C37.0853 104.735 36.4422 104.573 35.4775 104.573C34.6736 105.385 34.3521 106.197 33.5482 107.334C32.9051 108.145 31.6188 109.12 31.6188 110.256C31.6188 111.068 33.2266 113.342 34.0305 113.829C35.799 115.453 39.3361 117.239 42.0693 117.563C46.0888 118.213 50.9121 117.563 54.6099 117.239C56.3785 117.076 58.147 116.589 59.2724 115.94C59.4332 115.452 59.1117 115.29 59.1117 114.803C61.5233 111.393 63.6134 107.821 65.2212 103.761C64.2565 103.599 63.2919 103.761 62.3272 103.924Z" fill="#1A1A1A"/>
<path fill-rule="evenodd" clip-rule="evenodd" d="M104.29 106.035C103.486 107.658 103.647 109.282 102.843 110.744C99.9488 110.581 102.521 103.761 104.29 106.035Z" fill="#1A1A1A"/>
<path d="M69.9975 164L140 123V40.9999L69.9975 0L0 40.9999V123L69.9975 164Z" fill="#FCAA23" fill-opacity="0.95"/>
<path d="M55.4411 77.0601L57.9051 80.7281L60.3551 77.0601H62.4551L59.0111 82.1001L62.3431 87.0001H60.2431L57.9051 83.4721L55.5531 87.0001H53.4391L56.7711 82.1001L53.3271 77.0601H55.4411ZM63.2739 87.0001V79.6641H65.1499V87.0001H63.2739ZM63.2739 78.6421V76.7801H65.1499V78.6421H63.2739ZM66.8423 87.0001V79.6641H68.8023L71.0983 83.9061L73.4083 79.6641H75.3403V87.0001H73.5623V82.2541L71.6863 85.6981H70.5103L68.6203 82.2541V87.0001H66.8423ZM77.0688 87.0001V79.6641H78.9448V87.0001H77.0688ZM77.0688 78.6421V76.7801H78.9448V78.6421H77.0688ZM80.2452 87.0001L82.1072 84.1441C81.6685 84.0228 81.3185 83.7848 81.0572 83.4301C80.8052 83.0755 80.6792 82.6088 80.6792 82.0301C80.6792 81.5448 80.7912 81.1248 81.0152 80.7701C81.2392 80.4155 81.5472 80.1401 81.9392 79.9441C82.3312 79.7388 82.7839 79.6361 83.2972 79.6361H86.7832V87.0001H84.9072V84.4661H83.9132L82.3032 87.0001H80.2452ZM83.5212 83.1221H84.9072V81.0781H83.5912C83.2552 81.0781 82.9892 81.1715 82.7932 81.3581C82.5972 81.5448 82.4992 81.7875 82.4992 82.0861C82.4992 82.3848 82.5832 82.6321 82.7512 82.8281C82.9285 83.0241 83.1852 83.1221 83.5212 83.1221Z" fill="white"/>
</svg>
