<svg width="140" height="165" viewBox="0 0 140 165" fill="none" xmlns="http://www.w3.org/2000/svg">
<path fill-rule="evenodd" clip-rule="evenodd" d="M64.2199 110.826C64.0739 112.902 62.4683 113.496 61.0086 114.386C59.6949 115.127 57.9433 116.314 56.0457 116.314C54.4401 116.314 52.1046 114.83 50.9369 114.089C47.7256 111.716 47.8715 109.491 43.0546 110.826C40.7191 111.419 37.2159 113.051 36.0481 113.792C34.8804 114.534 33.4207 117.204 31.815 117.055C31.2312 117.055 29.9175 116.61 29.7715 115.424C29.6256 113.644 35.9021 108.749 37.6537 107.711C39.4054 106.821 41.4489 106.524 42.7626 105.486C49.1852 103.855 51.2288 111.716 56.0457 112.161C59.1111 112.012 61.3005 109.194 64.2199 110.826Z" fill="#1A1A1A"/>
<path fill-rule="evenodd" clip-rule="evenodd" d="M111.222 50.0137C111.222 50.9036 110.346 51.0519 110.346 52.0902C110.784 52.9801 111.513 52.2385 111.951 52.9801C110.638 54.6116 109.032 56.5398 106.988 56.9848C102.609 57.5781 102.463 52.5351 99.69 50.7553C96.6247 51.3486 95.0191 53.5734 93.1215 55.3533C91.6618 54.6116 91.6618 56.0948 90.64 56.3915C88.5965 54.4633 92.8296 51.9418 90.786 50.0137C91.3699 47.4922 93.5594 47.0472 96.0408 45.8606C97.3545 45.2673 98.0844 43.9324 99.69 44.6741C100.274 44.9707 102.026 46.009 102.901 46.8989C104.215 48.0855 105.091 50.3103 107.134 50.4586C108.74 50.4586 110.2 48.9754 111.222 50.0137Z" fill="#1A1A1A"/>
<path fill-rule="evenodd" clip-rule="evenodd" d="M82.1741 37.2581C82.32 37.2581 82.466 37.2581 82.6119 37.2581C83.0499 51.2003 80.7144 65.4392 79.5467 79.3815C79.1088 84.1278 78.3789 88.8741 78.5249 93.3238C78.5249 94.0654 78.5249 95.9936 78.6709 96.5869C78.9628 97.4768 79.5467 97.1802 79.5467 98.2184C79.4007 100.295 76.6273 102.075 74.8757 102.371C70.3507 102.965 63.0523 101.185 60.8628 98.8117C59.6951 97.6251 58.6733 95.1037 58.6733 93.1755C58.5273 87.5392 63.9281 84.4245 70.9345 84.8694C72.6861 79.6782 72.3943 73.8936 72.8322 68.7023C72.9782 67.6641 73.562 66.7742 73.708 65.7359C73.708 65.1426 73.2701 64.2526 73.2701 63.6594C73.2701 62.7694 74.1459 61.8795 74.2919 60.9896C74.7298 58.6164 74.4378 56.2433 74.7297 53.8701C70.6427 53.5735 66.2636 54.6117 61.8846 55.0567C57.3596 55.65 52.9805 56.9849 48.6015 57.1332C49.4773 67.9607 48.3096 78.0466 48.1636 88.8741C47.7257 89.4674 46.7039 89.4674 47.1418 90.9506C46.5579 91.099 46.1201 91.2473 45.5362 91.3956C43.3467 95.9936 35.9024 99.7016 29.7717 97.1801C23.933 94.807 27.2903 82.1996 31.9612 80.1231C34.7346 78.9365 37.508 80.4198 39.6975 81.3097C39.5515 74.6352 40.5733 68.7023 40.5733 61.4345C40.5733 60.5446 39.1136 60.9896 38.6757 60.3963C41.3031 56.095 40.4273 48.6789 39.8434 42.5977C41.1571 41.7077 40.8652 40.6695 41.741 39.3346C45.5362 39.9278 49.9152 38.7413 54.4402 38.7413C59.4031 38.7413 64.0741 40.0762 68.745 39.7795C72.9781 39.6312 77.941 38.148 82.1741 37.2581ZM74.8757 45.1191C75.0216 44.3775 76.4813 44.0809 75.8975 43.1909C75.4596 43.6359 74.4378 44.5258 74.8757 45.1191ZM57.9435 48.6789C60.5709 48.2339 61.1547 45.5641 62.4684 43.6359C60.4249 43.9325 59.4031 47.0473 57.9435 48.6789ZM62.6144 47.9373C64.0741 47.4923 65.0959 45.5641 65.2418 44.3775C64.658 45.8607 63.0524 46.3057 62.6144 47.9373ZM71.8104 51.3486C72.9781 51.9419 73.2701 50.0138 73.708 49.2721C72.6862 49.5688 72.1023 50.3104 71.8104 51.3486ZM48.3095 54.9084C48.8934 54.9084 49.3314 54.9084 49.9152 54.9084C50.2072 54.3151 49.3314 53.7218 48.8934 53.2768C48.7475 53.7218 48.1636 53.8701 48.3095 54.9084ZM79.5467 58.3198C79.5467 57.8748 80.1305 56.9849 79.5467 56.6883C79.5467 57.1332 79.1088 58.0232 79.5467 58.3198ZM77.0652 73.7453C78.8168 73.152 78.6708 69.4439 78.5249 67.5157C77.795 69.1473 77.2112 71.9654 77.0652 73.7453ZM33.7128 83.3862C34.2966 83.2379 34.7346 82.9412 34.8806 82.4963C34.5887 82.1996 33.8588 82.3479 33.2749 82.3479C33.1289 83.0896 33.5668 83.0896 33.7128 83.3862ZM38.2378 85.0178C38.3838 84.7211 38.5297 84.5728 38.6757 84.4244C38.3838 83.5345 37.2161 82.3479 36.0483 82.9412C36.1943 84.1278 37.7999 84.1278 38.2378 85.0178ZM44.6604 88.4292C44.8063 87.9842 45.0983 87.8358 45.0983 87.3909C44.6604 87.2426 44.5144 86.9459 44.0765 86.9459C44.0765 87.6875 44.2224 88.1325 44.6604 88.4292ZM63.6362 88.8741C64.366 89.1707 65.3878 88.4292 64.804 87.9842C64.804 88.5775 63.7821 88.1325 63.6362 88.8741ZM66.2636 92.5822C66.5556 90.9506 68.891 89.3191 68.1612 87.9842C67.7233 89.4674 65.9717 90.9506 66.2636 92.5822ZM41.1572 93.1755C41.887 92.7305 43.0547 92.7305 43.0547 91.5439C41.887 91.3956 41.5951 92.4339 41.1572 93.1755ZM75.0217 95.8453C76.3354 95.8453 76.7733 93.9171 76.1894 92.7305C75.6056 93.4721 75.1677 94.5104 75.0217 95.8453ZM65.2418 98.3667C65.5338 98.6634 66.8475 99.1084 67.1394 98.3667C66.7015 97.6251 65.8257 97.6251 65.2418 98.3667Z" fill="#1A1A1A"/>
<path fill-rule="evenodd" clip-rule="evenodd" d="M97.9384 72.2622C98.6682 72.4105 98.5223 73.4488 98.9602 73.8938C104.069 76.4152 108.886 82.6448 109.324 90.2092C109.47 92.7306 109.908 96.2904 108.448 97.6253C107.134 97.6253 106.988 96.2903 105.967 95.5487C103.193 93.4722 98.9602 92.434 95.311 92.5823C93.2675 99.5534 91.9538 108.304 91.6618 116.462C91.2239 117.204 90.64 117.649 90.64 118.687C89.9102 119.132 89.4723 118.687 88.7425 118.539C88.1586 124.472 76.4812 129.959 70.2045 125.806C66.4094 123.285 67.1393 115.869 69.6207 112.606C72.6861 108.453 79.9845 109.343 84.5095 111.568C86.553 99.1085 88.7425 85.7595 89.4723 72.5588C92.0997 71.0756 95.457 72.8555 97.9384 72.2622ZM95.8949 90.2092C96.3328 90.2092 96.6248 89.9125 97.3546 90.0608C97.3546 89.3192 96.4788 89.4675 95.8949 89.1709C95.603 89.4675 95.603 90.0609 95.8949 90.2092ZM107.572 93.3239C107.572 93.0273 107.572 92.5823 107.572 92.2857C106.259 92.1374 106.259 93.4722 107.572 93.3239ZM85.6772 120.17C86.699 119.577 87.2828 118.39 87.5747 116.907C86.553 117.5 86.261 118.984 85.6772 120.17ZM83.1957 122.543C84.2175 122.098 85.0933 121.505 85.3852 120.467C83.7796 120.319 83.6336 121.505 83.1957 122.543Z" fill="#1A1A1A"/>
<path fill-rule="evenodd" clip-rule="evenodd" d="M114.433 117.352C115.455 117.352 117.06 116.314 117.498 117.5C118.666 117.204 118.52 115.572 119.542 115.276C120.855 116.61 118.374 120.763 116.914 121.357C113.849 122.395 110.93 119.429 109.178 117.649C108.01 116.462 107.134 114.237 106.113 114.089C104.945 113.941 103.485 115.127 102.901 116.017C101.442 117.797 99.69 124.175 97.9384 120.022C97.5005 120.763 96.6248 120.763 95.8949 120.17C95.749 118.835 96.1868 118.094 96.4788 117.204C96.3328 116.314 95.311 116.462 95.311 115.572C95.7489 113.347 97.7925 113.199 98.9602 112.012C100.42 110.678 100.858 108.749 102.609 108.008C109.47 105.635 109.908 114.831 114.433 117.352ZM99.6901 116.017C99.6901 115.721 100.566 115.276 99.8361 114.979C99.6901 114.979 99.2522 115.721 99.6901 116.017Z" fill="#1A1A1A"/>
<path d="M69.9975 165L140 123.75V41.2499L69.9975 0L0 41.2499V123.75L69.9975 165Z" fill="#FCAA23" fill-opacity="0.95"/>
<path d="M53.4936 87V80.476L50.9456 85.334H49.8676L47.3196 80.476V87H45.3876V77.06H47.4596L50.3996 82.716L53.3676 77.06H55.4256V87H53.4936ZM58.4108 90.164C58.2148 90.164 58.0142 90.1407 57.8088 90.094C57.6128 90.0473 57.3842 89.9773 57.1228 89.884L57.4868 88.4C57.6268 88.4653 57.7575 88.512 57.8788 88.54C58.0095 88.568 58.1262 88.582 58.2288 88.582C58.4622 88.582 58.6675 88.498 58.8448 88.33C59.0315 88.162 59.1808 87.9053 59.2928 87.56L59.5168 86.958L56.5488 79.664H58.4948L60.4688 85.082L62.2048 79.664H63.9968L61.0008 88.05C60.8422 88.498 60.6322 88.876 60.3708 89.184C60.1095 89.5013 59.8108 89.744 59.4748 89.912C59.1388 90.08 58.7842 90.164 58.4108 90.164ZM67.6341 87.112C66.8501 87.112 66.1968 86.972 65.6741 86.692C65.1514 86.412 64.7408 86.0247 64.4421 85.53L65.9541 84.844C66.1128 85.0867 66.3181 85.278 66.5701 85.418C66.8314 85.5487 67.1534 85.614 67.5361 85.614C67.9748 85.614 68.3108 85.53 68.5441 85.362C68.7868 85.1847 68.9081 84.956 68.9081 84.676C68.9081 84.4147 68.8101 84.2047 68.6141 84.046C68.4181 83.8873 68.1288 83.808 67.7461 83.808H66.9901V82.646H67.7601C67.9374 82.646 68.0868 82.6133 68.2081 82.548C68.3388 82.4733 68.4368 82.3753 68.5021 82.254C68.5768 82.1327 68.6141 81.9927 68.6141 81.834C68.6141 81.6007 68.5208 81.4093 68.3341 81.26C68.1568 81.1107 67.8721 81.036 67.4801 81.036C67.1534 81.036 66.8828 81.0967 66.6681 81.218C66.4628 81.3393 66.2901 81.5213 66.1501 81.764L64.7361 81.008C64.9974 80.5507 65.3708 80.1913 65.8561 79.93C66.3508 79.6687 66.9248 79.538 67.5781 79.538C68.0914 79.538 68.5488 79.6173 68.9501 79.776C69.3608 79.9347 69.6828 80.1633 69.9161 80.462C70.1494 80.7607 70.2661 81.134 70.2661 81.582C70.2661 81.8993 70.1868 82.2073 70.0281 82.506C69.8788 82.8047 69.6314 83.024 69.2861 83.164C69.7341 83.2947 70.0701 83.5187 70.2941 83.836C70.5274 84.1533 70.6441 84.5267 70.6441 84.956C70.6441 85.4227 70.5134 85.8193 70.2521 86.146C69.9908 86.4633 69.6361 86.706 69.1881 86.874C68.7401 87.0327 68.2221 87.112 67.6341 87.112ZM71.9614 87V79.678H73.8374V84.494L77.1274 79.664H78.8354V87H76.9594V82.296L73.7114 87H71.9614ZM80.5474 87V79.664H82.4234V82.436H83.0534L85.0414 79.664H87.0854L84.4814 83.206L87.3654 87H85.2234L83.0254 84.088H82.4234V87H80.5474ZM87.9594 84.83C87.9594 84.354 88.09 83.9387 88.3514 83.584C88.622 83.22 88.9954 82.94 89.4714 82.744C89.9474 82.548 90.4934 82.45 91.1094 82.45C91.4174 82.45 91.73 82.4733 92.0474 82.52C92.3647 82.5667 92.64 82.6413 92.8734 82.744V82.352C92.8734 81.8853 92.7334 81.526 92.4534 81.274C92.1827 81.022 91.7767 80.896 91.2354 80.896C90.834 80.896 90.4514 80.966 90.0874 81.106C89.7234 81.246 89.3407 81.4513 88.9394 81.722L88.3374 80.49C88.8227 80.1727 89.3174 79.9347 89.8214 79.776C90.3347 79.6173 90.8714 79.538 91.4314 79.538C92.4767 79.538 93.2887 79.7993 93.8674 80.322C94.4554 80.8447 94.7494 81.5913 94.7494 82.562V84.9C94.7494 85.096 94.782 85.236 94.8474 85.32C94.922 85.404 95.0387 85.4553 95.1974 85.474V87C95.0294 87.028 94.8754 87.0513 94.7354 87.07C94.6047 87.0887 94.4927 87.098 94.3994 87.098C94.026 87.098 93.7414 87.014 93.5454 86.846C93.3587 86.678 93.242 86.4727 93.1954 86.23L93.1534 85.852C92.836 86.2627 92.4394 86.58 91.9634 86.804C91.4874 87.028 91.002 87.14 90.5074 87.14C90.022 87.14 89.5834 87.042 89.1914 86.846C88.8087 86.6407 88.5054 86.3653 88.2814 86.02C88.0667 85.6653 87.9594 85.2687 87.9594 84.83ZM92.5234 85.208C92.626 85.096 92.71 84.984 92.7754 84.872C92.8407 84.76 92.8734 84.6573 92.8734 84.564V83.822C92.6494 83.7287 92.4067 83.6587 92.1454 83.612C91.884 83.556 91.6367 83.528 91.4034 83.528C90.918 83.528 90.5167 83.6353 90.1994 83.85C89.8914 84.0553 89.7374 84.3307 89.7374 84.676C89.7374 84.8627 89.7887 85.04 89.8914 85.208C89.994 85.376 90.1434 85.5113 90.3394 85.614C90.5354 85.7167 90.7687 85.768 91.0394 85.768C91.3194 85.768 91.5947 85.7167 91.8654 85.614C92.136 85.502 92.3554 85.3667 92.5234 85.208Z" fill="white"/>
</svg>
