<svg width="67" height="62" viewBox="0 0 67 62" fill="none" xmlns="http://www.w3.org/2000/svg">
<path d="M13.9351 33.9574C13.9202 33.9596 13.9041 33.9639 13.8892 33.966C13.9041 33.9639 13.9202 33.9607 13.9351 33.9574ZM14.2377 33.919C14.2174 33.92 14.1971 33.9232 14.1768 33.9254C14.1971 33.9232 14.2174 33.9211 14.2377 33.919ZM13.6315 34.0227C13.624 34.0248 13.6176 34.0269 13.6101 34.0291C13.6176 34.0269 13.624 34.0248 13.6315 34.0227ZM34.2695 41.5987L34.2705 41.5977L34.2684 41.5987H34.2695ZM48.3022 42.593L42.3961 44.9794L35.2905 47.8501C35.2873 47.8501 35.2852 47.8512 35.282 47.8533L35.2445 47.8683C35.2253 47.8758 35.2061 47.8811 35.1868 47.8875C35.1301 47.9089 35.0735 47.9292 35.0157 47.9463C34.9847 47.957 34.9516 47.9645 34.9185 47.973C34.8693 47.9859 34.8212 47.9976 34.7709 48.0083C34.7324 48.0158 34.6939 48.0212 34.6565 48.0265C34.6116 48.0329 34.5667 48.0404 34.5218 48.0447C34.4801 48.0479 34.4384 48.05 34.3978 48.0532C34.355 48.0543 34.3122 48.0564 34.2695 48.0564H34.2684C34.1968 48.0564 34.123 48.0532 34.0514 48.0468C34.0396 48.0457 34.0289 48.0457 34.0172 48.0447C33.9541 48.0383 33.891 48.0286 33.8279 48.018C33.8065 48.0147 33.7873 48.0115 33.767 48.0083C33.7573 48.0062 33.7488 48.003 33.7402 48.0019C33.6921 47.9912 33.644 47.9795 33.597 47.9666C33.5713 47.9613 33.5467 47.9549 33.5211 47.9463C33.4633 47.9292 33.4067 47.9089 33.3511 47.8875C33.3318 47.8811 33.3126 47.8758 33.2933 47.8683L13.639 39.9276C12.309 39.3898 11.5883 37.8877 12.1015 36.548C12.6244 35.1827 14.1618 34.5166 15.5122 35.0619L32.9801 42.1194L33.273 42.2381C33.9113 42.4957 34.6255 42.4957 35.2649 42.2381L51.0563 35.8573L54.3472 34.5273C54.7385 34.3723 54.7 33.9147 54.3718 33.7383L36.163 25.5282C34.958 24.9851 33.5788 24.9851 32.3749 25.5282L13.3321 34.1146C12.3891 34.4503 11.6151 35.172 11.2238 36.1407C10.486 37.9657 11.3713 40.0527 13.1974 40.7904L32.8443 48.7289C33.0763 48.8284 33.3201 48.9054 33.5713 48.9545C33.5873 48.9577 33.6034 48.9599 33.6184 48.9631C33.7039 48.9791 33.7916 48.992 33.8792 49.0016C33.9049 49.0037 33.9295 49.0069 33.9551 49.0101C34.0588 49.0187 34.1626 49.024 34.2684 49.024H34.2695C34.7281 49.024 35.1783 48.9364 35.6059 48.7632L53.6041 41.495C54.4766 41.1422 54.6273 40.8268 54.6273 40.0399L48.3022 42.593Z" fill="#FCAA23"/>
<path d="M34.2673 46.8367C33.9893 46.8367 33.7113 46.7961 33.4355 46.7148C33.4259 46.7127 33.4173 46.7095 33.4077 46.7052L14.4633 39.0393C14.3082 38.9763 14.2345 38.8009 14.2965 38.6459C14.3596 38.4919 14.5349 38.4171 14.6899 38.4802L33.6194 46.1407C34.0545 46.2658 34.479 46.2658 34.9173 46.1396L53.1967 38.7699C53.3507 38.7068 53.5271 38.7827 53.5891 38.9367C53.6511 39.0917 53.5763 39.2671 53.4213 39.3301L35.129 46.7052C35.1205 46.7095 35.1109 46.7127 35.1012 46.7148C34.8243 46.7961 34.5453 46.8367 34.2673 46.8367Z" fill="#FCAA23"/>
<path d="M34.2673 44.7337C33.9893 44.7337 33.7113 44.6931 33.4355 44.6118C33.4259 44.6097 33.4173 44.6065 33.4077 44.6022L14.4633 36.9363C14.3082 36.8743 14.2345 36.6979 14.2965 36.544C14.3596 36.3889 14.5349 36.3152 14.6899 36.3772L33.6194 44.0377C34.0556 44.1628 34.4801 44.1628 34.9173 44.0377L53.1967 36.6669C53.3507 36.6038 53.5271 36.6797 53.5891 36.8337C53.6511 36.9887 53.5763 37.1651 53.4213 37.2271L35.129 44.6022C35.1205 44.6065 35.1109 44.6097 35.1012 44.6129C34.8243 44.6931 34.5463 44.7337 34.2673 44.7337Z" fill="#FCAA23"/>
<path d="M32.7908 15.8567L17.8824 22.664C17.5071 22.8351 17.5071 23.3686 17.8824 23.5396L32.7908 30.347C33.2409 30.5533 33.7583 30.5533 34.2085 30.347L49.1179 23.5396C49.4932 23.3686 49.4932 22.8351 49.1179 22.664L34.2085 15.8567C33.7583 15.6503 33.2409 15.6503 32.7908 15.8567Z" fill="#FCAA23"/>
<path d="M33.4194 38.4053C26.8633 38.4053 21.9196 36.1739 21.9196 33.2145V25.4802L32.4176 30.2743C32.7598 30.4294 33.1233 30.5095 33.4996 30.5095C33.876 30.5095 34.2405 30.4294 34.5827 30.2743L44.9214 25.5529V33.2145C44.9214 36.1739 39.9766 38.4053 33.4194 38.4053Z" fill="white"/>
<path d="M34.9301 31.0344C34.4778 31.2407 33.9967 31.3455 33.4996 31.3455C33.0035 31.3455 32.5213 31.2407 32.0701 31.0344L22.7545 26.7812V33.2144C22.7545 35.6189 27.5294 37.5691 33.4194 37.5691C39.3104 37.5691 44.0842 35.6189 44.0842 33.2144V26.854L34.9301 31.0344Z" fill="#FCAA23"/>
<path d="M12.5452 12.709C11.2921 13.7696 11.0088 15.4963 11.0088 15.4963C11.0088 15.4963 12.7579 15.5038 14.0121 14.4443C15.2662 13.3837 15.5495 11.657 15.5495 11.657C15.5495 11.657 13.7993 11.6495 12.5452 12.709Z" fill="#302EA7"/>
<path d="M19.5406 53.7774C20.5339 55.1555 20.5371 56.74 20.5232 56.7443C20.5253 56.7636 18.3549 56.0686 17.4258 54.5547C16.4957 53.0589 17.0324 51.5653 17.0174 51.5696C17.0228 51.5835 18.5474 52.4121 19.5406 53.7774Z" fill="#302EA7"/>
<path d="M17.8289 58.3568C19.7673 58.1024 20.5403 56.6729 20.5392 56.6857C20.5167 56.6921 18.4747 56.0196 16.6892 56.1618C14.8855 56.3126 13.7875 57.3882 13.7875 57.3999C13.7618 57.4053 15.8691 58.6188 17.8289 58.3568Z" fill="#302EA7"/>
<path d="M15.7954 51.9622C16.4583 53.4569 16.1429 54.9826 16.129 54.9847C16.1301 55.0061 14.2377 53.9754 13.6475 52.3567C13.0552 50.7562 13.8485 49.4026 13.8357 49.4048C13.8378 49.4198 15.1326 50.4782 15.7954 51.9622Z" fill="#302EA7"/>
<path d="M13.285 56.0935C15.1571 56.1705 16.1579 54.9196 16.1557 54.9324C16.1354 54.9345 14.3606 53.9477 12.6382 53.7852C10.8987 53.628 9.64348 54.4812 9.64134 54.493C9.61782 54.494 11.3926 56.0208 13.285 56.0935Z" fill="#302EA7"/>
<path d="M12.5933 49.5759C12.9429 51.1347 12.3463 52.5546 12.3345 52.5546C12.3324 52.5749 10.7286 51.2609 10.4592 49.5909C10.1876 47.9401 11.198 46.7629 11.1852 46.7629C11.1862 46.7779 12.2415 48.0288 12.5933 49.5759Z" fill="#302EA7"/>
<path d="M9.41031 53.1449C11.1851 53.5362 12.374 52.4959 12.3697 52.5077C12.3505 52.5077 10.8515 51.2546 9.22321 50.8013C7.57884 50.3512 6.20711 50.9617 6.20497 50.9734C6.18252 50.9702 7.61626 52.7546 9.41031 53.1449Z" fill="#302EA7"/>
<path d="M9.9535 46.7136C10.0091 48.2874 9.1698 49.5597 9.15804 49.5576C9.15484 49.5768 7.84726 48.0266 7.88254 46.3587C7.91034 44.7058 9.09924 43.736 9.08748 43.7339C9.08534 43.7489 9.89469 45.1516 9.9535 46.7136Z" fill="#302EA7"/>
<path d="M6.22639 49.6261C7.87183 50.3115 9.20614 49.5075 9.20186 49.5181C9.18368 49.5149 7.96805 48.0427 6.46588 47.3189C4.94875 46.5951 3.50431 46.9479 3.50004 46.9586C3.47972 46.9532 4.56278 48.9387 6.22639 49.6261Z" fill="#302EA7"/>
<path d="M7.89538 43.4697C7.67513 45.0114 6.63377 46.102 6.62415 46.0977C6.61773 46.1169 5.617 44.3817 5.93454 42.7587C6.24567 41.1507 7.57035 40.413 7.55966 40.4087C7.55539 40.4237 8.10921 41.9387 7.89538 43.4697Z" fill="#302EA7"/>
<path d="M3.75561 45.6521C5.24067 46.6079 6.67869 46.0573 6.67227 46.068C6.65731 46.0616 5.73248 44.4172 4.38748 43.4454C3.02858 42.4713 1.55528 42.5601 1.54993 42.5697C1.53069 42.5612 2.25344 44.6909 3.75561 45.6521Z" fill="#302EA7"/>
<path d="M6.4381 39.9394C5.96339 41.4084 4.75845 42.2873 4.7499 42.283C4.74028 42.3001 4.05602 40.428 4.63871 38.8938C5.21071 37.3734 6.63055 36.8848 6.62093 36.8784C6.61451 36.8923 6.90532 38.48 6.4381 39.9394Z" fill="#302EA7"/>
<path d="M2.02035 41.338C3.31189 42.5355 4.80978 42.2521 4.8023 42.2617C4.7884 42.2532 4.16294 40.4827 3.00825 39.2906C1.8418 38.0952 0.383466 37.9178 0.377051 37.9263C0.359945 37.9146 0.712767 40.1331 2.02035 41.338Z" fill="#302EA7"/>
<path d="M5.60213 36.2167C4.8922 37.5756 3.56645 38.2225 3.55789 38.2161C3.54613 38.2321 3.18797 36.2723 4.01443 34.8653C4.82806 33.4711 6.30029 33.2413 6.29173 33.2349C6.28318 33.2466 6.30242 34.8664 5.60213 36.2167Z" fill="#302EA7"/>
<path d="M1.04316 36.8016C2.10911 38.2086 3.62197 38.1969 3.61341 38.2043C3.60165 38.1936 3.28304 36.3451 2.35181 34.9637C1.40881 33.577 0.0124877 33.1408 0.00393445 33.1483C-0.0110339 33.1344 -0.0366937 35.3839 1.04316 36.8016Z" fill="#302EA7"/>
<path d="M5.4053 32.3977C4.48154 33.6133 3.07667 34.0111 3.06918 34.0036C3.05528 34.0175 3.03283 32.0213 4.08061 30.7758C5.11555 29.5409 6.59741 29.5762 6.58992 29.5676C6.57816 29.5794 6.31729 31.1895 5.4053 32.3977Z" fill="#302EA7"/>
<path d="M0.845413 32.1572C1.65156 33.7375 3.13555 33.9962 3.12486 34.0026C3.11524 33.9908 3.1131 32.1113 2.43846 30.576C1.75313 29.0342 0.463724 28.35 0.454101 28.3553C0.441271 28.3393 0.026438 30.5653 0.845413 32.1572Z" fill="#302EA7"/>
<path d="M5.86824 28.5776C4.75204 29.62 3.30974 29.7611 3.3044 29.7526C3.28836 29.7654 3.61018 27.7821 4.86002 26.7279C6.0949 25.6823 7.54147 25.9795 7.53506 25.971C7.52116 25.9795 6.97161 27.5416 5.86824 28.5776Z" fill="#302EA7"/>
<path d="M1.45051 27.5223C1.96157 29.2362 3.37072 29.7568 3.35896 29.7622C3.35147 29.7483 3.67329 27.8848 3.28839 26.235C2.89494 24.5768 1.76163 23.6648 1.74987 23.6691C1.73918 23.6509 0.92662 25.7956 1.45051 27.5223Z" fill="#302EA7"/>
<path d="M7.01118 24.8537C5.72498 25.6972 4.29017 25.5796 4.28482 25.57C4.26558 25.5796 4.94236 23.6594 6.37289 22.8244C7.78525 21.9947 9.15056 22.5453 9.14629 22.5357C9.12918 22.5421 8.28348 24.0133 7.01118 24.8537Z" fill="#302EA7"/>
<path d="M2.87991 23.0147C3.06274 24.8163 4.35001 25.585 4.33718 25.5893C4.33183 25.5743 4.98509 23.7738 4.92521 22.0536C4.85786 20.3226 3.92662 19.2064 3.91379 19.2096C3.90524 19.1904 2.68533 21.1982 2.87991 23.0147Z" fill="#302EA7"/>
<path d="M8.85342 21.3212C7.41861 21.9434 6.03512 21.5724 6.03084 21.5628C6.00946 21.5692 7.05082 19.7613 8.63852 19.1679C10.207 18.5767 11.4461 19.3646 11.4429 19.355C11.4226 19.3593 10.2722 20.7 8.85342 21.3212Z" fill="#302EA7"/>
<path d="M5.1562 18.751C4.97444 20.5921 6.09385 21.5886 6.07888 21.5907C6.07567 21.5758 7.06892 19.8844 7.36935 18.1395C7.66337 16.3861 6.98446 15.0977 6.97056 15.0988C6.96307 15.0785 5.32833 16.8929 5.1562 18.751Z" fill="#302EA7"/>
<path d="M11.4151 18.0773C9.85515 18.4622 8.56788 17.8475 8.56575 17.8368C8.54115 17.84 9.95565 16.1967 11.6791 15.862C13.3802 15.5274 14.4461 16.5313 14.4429 16.5206C14.4215 16.5228 12.9568 17.6914 11.4151 18.0773Z" fill="#302EA7"/>
<path d="M8.30273 14.8484C7.72218 16.6767 8.62241 17.8742 8.60637 17.8731C8.6053 17.8581 9.9471 16.3228 10.6431 14.6079C11.3338 12.8801 10.9564 11.4603 10.9403 11.4592C10.9361 11.4378 8.8758 13.002 8.30273 14.8484Z" fill="#302EA7"/>
<path d="M26.6773 57.4619L26.6591 57.1219C23.844 57.2705 21.0578 56.8525 18.3795 55.8806C15.7697 54.9323 13.3748 53.5017 11.26 51.6264C6.87218 47.7358 4.15224 42.3173 3.60056 36.3674C3.1483 31.4963 3.63691 27.1897 5.04927 23.5653C6.56747 19.6735 9.12276 16.6788 12.6446 14.6667L12.4746 14.3716C8.88434 16.4233 6.27987 19.4757 4.7328 23.4413C3.30012 27.1149 2.8051 31.4749 3.26163 36.3995C3.8208 42.4349 6.58137 47.9335 11.0344 51.8809C13.1813 53.785 15.6136 55.238 18.2641 56.2003C20.9851 57.1882 23.8151 57.6126 26.6773 57.4619Z" fill="#302EA7"/>
<path d="M54.454 12.709C55.7082 13.7696 55.9915 15.4963 55.9915 15.4963C55.9915 15.4963 54.2413 15.5038 52.9872 14.4443C51.733 13.3837 51.4497 11.657 51.4497 11.657C51.4497 11.657 53.1999 11.6495 54.454 12.709Z" fill="#302EA7"/>
<path d="M47.4597 53.7774C46.4664 55.1555 46.4621 56.74 46.476 56.7443C46.4739 56.7636 48.6443 56.0686 49.5734 54.5547C50.5046 53.0589 49.9668 51.5653 49.9818 51.5696C49.9765 51.5835 48.4518 52.4121 47.4597 53.7774Z" fill="#302EA7"/>
<path d="M49.1713 58.3568C47.2319 58.1024 46.4589 56.6729 46.46 56.6857C46.4835 56.6921 48.5245 56.0196 50.3111 56.1618C52.1147 56.3126 53.2117 57.3882 53.2117 57.3999C53.2374 57.4053 51.13 58.6188 49.1713 58.3568Z" fill="#302EA7"/>
<path d="M51.2038 51.9622C50.542 53.4569 50.8574 54.9826 50.8702 54.9847C50.8691 55.0061 52.7615 53.9754 53.3517 52.3567C53.944 50.7562 53.1507 49.4026 53.1646 49.4048C53.1614 49.4198 51.8666 50.4782 51.2038 51.9622Z" fill="#302EA7"/>
<path d="M53.7142 56.0935C51.8421 56.1705 50.8414 54.9196 50.8435 54.9324C50.8649 54.9345 52.6386 53.9477 54.361 53.7852C56.1006 53.628 57.3558 54.4812 57.3579 54.493C57.3825 54.494 55.6066 56.0208 53.7142 56.0935Z" fill="#302EA7"/>
<path d="M54.406 49.5759C54.0564 51.1347 54.653 52.5546 54.6658 52.5546C54.6669 52.5749 56.2717 51.2609 56.54 49.5909C56.8127 47.9401 55.8012 46.7629 55.8141 46.7629C55.8141 46.7779 54.7577 48.0288 54.406 49.5759Z" fill="#302EA7"/>
<path d="M57.5899 53.1449C55.814 53.5362 54.6262 52.4959 54.6294 52.5077C54.6486 52.5077 56.1476 51.2546 57.7759 50.8013C59.4203 50.3512 60.791 50.9617 60.7952 50.9734C60.8177 50.9702 59.3829 52.7546 57.5899 53.1449Z" fill="#302EA7"/>
<path d="M57.0457 46.7136C56.9901 48.2874 57.8294 49.5597 57.8412 49.5576C57.8444 49.5768 59.152 48.0266 59.1178 46.3587C59.0889 44.7058 57.9011 43.736 57.9128 43.7339C57.9139 43.7489 57.1045 45.1516 57.0457 46.7136Z" fill="#302EA7"/>
<path d="M60.7728 49.6261C59.1274 50.3115 57.7931 49.5075 57.7974 49.5181C57.8155 49.5149 59.0312 48.0427 60.5334 47.3189C62.0505 46.5951 63.4949 46.9479 63.4992 46.9586C63.5206 46.9532 62.4375 48.9387 60.7728 49.6261Z" fill="#302EA7"/>
<path d="M59.1039 43.4697C59.3241 45.0114 60.3655 46.102 60.3762 46.0977C60.3815 46.1169 61.3833 44.3817 61.0647 42.7587C60.7546 41.1507 59.43 40.413 59.4396 40.4087C59.4449 40.4237 58.89 41.9387 59.1039 43.4697Z" fill="#302EA7"/>
<path d="M63.2436 45.6521C61.7585 46.6079 60.3216 46.0573 60.3269 46.068C60.343 46.0616 61.2678 44.4172 62.6128 43.4454C63.9706 42.4713 65.4439 42.5601 65.4493 42.5697C65.4685 42.5612 64.7468 44.6909 63.2436 45.6521Z" fill="#302EA7"/>
<path d="M60.5611 39.9394C61.0358 41.4084 62.2407 42.2873 62.2493 42.283C62.2589 42.3001 62.9432 40.428 62.3605 38.8938C61.7885 37.3734 60.3686 36.8848 60.3783 36.8784C60.3847 36.8923 60.0939 38.48 60.5611 39.9394Z" fill="#302EA7"/>
<path d="M64.9789 41.338C63.6873 42.5355 62.1894 42.2521 62.1969 42.2617C62.2108 42.2532 62.8363 40.4827 63.991 39.2906C65.1574 38.0952 66.6158 37.9178 66.6232 37.9263C66.6393 37.9146 66.2865 40.1331 64.9789 41.338Z" fill="#302EA7"/>
<path d="M61.3982 36.2167C62.1082 37.5756 63.4328 38.2225 63.4414 38.2161C63.4532 38.2321 63.8113 36.2723 62.9859 34.8653C62.1712 33.4711 60.699 33.2413 60.7076 33.2349C60.7172 33.2466 60.6979 34.8664 61.3982 36.2167Z" fill="#302EA7"/>
<path d="M65.9571 36.8016C64.8912 38.2086 63.3772 38.1969 63.3858 38.2043C63.3975 38.1936 63.7161 36.3451 64.6474 34.9637C65.5904 33.577 66.9867 33.1408 66.9963 33.1483C67.0102 33.1344 67.037 35.3839 65.9571 36.8016Z" fill="#302EA7"/>
<path d="M61.5949 32.3977C62.5176 33.6133 63.9235 34.0111 63.931 34.0036C63.9449 34.0175 63.9674 32.0213 62.9185 30.7758C61.8836 29.5409 60.4017 29.5762 60.4092 29.5676C60.421 29.5794 60.6818 31.1895 61.5949 32.3977Z" fill="#302EA7"/>
<path d="M66.1539 32.1572C65.3488 33.7375 63.8638 33.9962 63.8744 34.0026C63.8841 33.9908 63.8862 32.1113 64.5619 30.576C65.2472 29.0342 66.5356 28.35 66.5463 28.3553C66.5591 28.3393 66.9729 30.5653 66.1539 32.1572Z" fill="#302EA7"/>
<path d="M61.131 28.5776C62.2472 29.62 63.6895 29.7611 63.6948 29.7526C63.7119 29.7654 63.389 27.7821 62.1392 26.7279C60.9043 25.6823 59.4588 25.9795 59.4652 25.971C59.4791 25.9795 60.0276 27.5416 61.131 28.5776Z" fill="#302EA7"/>
<path d="M65.5498 27.5223C65.0377 29.2362 63.6285 29.7568 63.6403 29.7622C63.6478 29.7483 63.326 27.8848 63.7109 26.235C64.1043 24.5768 65.2387 23.6648 65.2504 23.6691C65.2611 23.6509 66.0726 25.7956 65.5498 27.5223Z" fill="#302EA7"/>
<path d="M59.988 24.8537C61.2742 25.6972 62.7101 25.5796 62.7154 25.57C62.7336 25.5796 62.0568 23.6594 60.6274 22.8244C59.214 21.9947 57.8486 22.5453 57.8529 22.5357C57.87 22.5421 58.7168 24.0133 59.988 24.8537Z" fill="#302EA7"/>
<path d="M64.1192 23.0147C63.9375 24.8163 62.6491 25.585 62.663 25.5893C62.6684 25.5743 62.0151 23.7738 62.0739 22.0536C62.1413 20.3226 63.0725 19.2064 63.0854 19.2096C63.0939 19.1904 64.3138 21.1982 64.1192 23.0147Z" fill="#302EA7"/>
<path d="M58.1458 21.3212C59.5806 21.9434 60.9641 21.5724 60.9684 21.5628C60.9898 21.5692 59.9484 19.7613 58.3607 19.1679C56.7923 18.5767 55.5531 19.3646 55.5574 19.355C55.5766 19.3593 56.7281 20.7 58.1458 21.3212Z" fill="#302EA7"/>
<path d="M61.8431 18.751C62.0248 20.5921 60.9054 21.5886 60.9204 21.5907C60.9236 21.5758 59.9303 19.8844 59.6299 18.1395C59.3359 16.3861 60.0148 15.0977 60.0298 15.0988C60.0362 15.0785 61.672 16.8929 61.8431 18.751Z" fill="#302EA7"/>
<path d="M55.5841 18.0773C57.1451 18.4622 58.4313 17.8475 58.4345 17.8368C58.458 17.84 57.0435 16.1967 55.3211 15.862C53.619 15.5274 52.5531 16.5313 52.5563 16.5206C52.5787 16.5228 54.0435 17.6914 55.5841 18.0773Z" fill="#302EA7"/>
<path d="M58.6965 14.8484C59.2781 16.6767 58.3768 17.8742 58.3929 17.8731C58.3939 17.8581 57.0532 16.3228 56.3561 14.6079C55.6654 12.8801 56.0428 11.4603 56.0589 11.4592C56.0632 11.4378 58.1234 13.002 58.6965 14.8484Z" fill="#302EA7"/>
<path d="M40.3219 57.4619L40.3401 57.1219C43.1562 57.2705 45.9414 56.8525 48.6196 55.8806C51.2295 54.9323 53.6244 53.5017 55.7392 51.6264C60.127 47.7358 62.8469 42.3173 63.3997 36.3674C63.8509 31.4963 63.3633 27.1897 61.9499 23.5653C60.4317 19.6735 57.8764 16.6788 54.3557 14.6667L54.5246 14.3716C58.1148 16.4233 60.7204 19.4757 62.2664 23.4413C63.7001 27.1149 64.1941 31.4749 63.7375 36.3995C63.1784 42.4349 60.4178 47.9335 55.9648 51.8809C53.8179 53.785 51.3866 55.238 48.7362 56.2003C46.0141 57.1882 43.184 57.6126 40.3219 57.4619Z" fill="#302EA7"/>
<path d="M33.8686 0L35.3151 2.93163L38.5525 3.40206L36.21 5.68472L36.7628 8.90823L33.8686 7.38682L30.9733 8.90823L31.526 5.68472L29.1846 3.40206L32.4209 2.93163L33.8686 0Z" fill="#FCAA23"/>
<path d="M33.8686 52.8135L35.3151 55.7462L38.5525 56.2166L36.21 58.4993L36.7628 61.7228L33.8686 60.2003L30.9733 61.7228L31.526 58.4993L29.1846 56.2166L32.4209 55.7462L33.8686 52.8135Z" fill="#FCAA23"/>
<path d="M22.7215 5.45923L23.7896 7.62534L26.1802 7.97282L24.4503 9.65888L24.8588 12.0399L22.7215 10.9162L20.5832 12.0399L20.9916 9.65888L19.2617 7.97282L21.6513 7.62534L22.7215 5.45923Z" fill="#FCAA23"/>
<path d="M45.0155 5.45923L46.0846 7.62534L48.4753 7.97282L46.7454 9.65888L47.1538 12.0399L45.0155 10.9162L42.8771 12.0399L43.2856 9.65888L41.5557 7.97282L43.9463 7.62534L45.0155 5.45923Z" fill="#FCAA23"/>
</svg>
