<svg width="53" height="30" fill="none" xmlns="http://www.w3.org/2000/svg"><path d="M25.12 14.936c0 2.816-.544 5.328-1.632 7.536-1.056 2.176-2.528 3.888-4.416 5.136-1.856 1.248-3.968 1.872-6.336 1.872-2.368 0-4.496-.624-6.384-1.872-1.856-1.248-3.328-2.96-4.416-5.136C.88 20.264.352 17.752.352 14.936S.88 9.624 1.936 7.448c1.088-2.208 2.56-3.936 4.416-5.184C8.24.984 10.368.344 12.736.344c2.368 0 4.48.64 6.336 1.92 1.888 1.248 3.36 2.976 4.416 5.184 1.088 2.176 1.632 4.672 1.632 7.488zm-6.48 0c0-1.728-.256-3.232-.768-4.512-.48-1.312-1.168-2.336-2.064-3.072a4.705 4.705 0 00-3.072-1.104c-1.184 0-2.224.368-3.12 1.104-.896.736-1.6 1.76-2.112 3.072-.48 1.28-.72 2.784-.72 4.512 0 1.728.24 3.232.72 4.512.512 1.28 1.216 2.288 2.112 3.024.896.736 1.936 1.104 3.12 1.104 1.152 0 2.16-.368 3.024-1.104.896-.736 1.6-1.744 2.112-3.024.512-1.312.768-2.816.768-4.512zM29.308 29c0-1.44.112-2.736.336-3.888a11.017 11.017 0 011.152-3.216c.576-.992 1.344-1.92 2.304-2.784.992-.896 2.24-1.76 3.744-2.592a247.777 247.777 0 013.456-1.824 34.352 34.352 0 002.496-1.488c.704-.448 1.232-.896 1.584-1.344a2.69 2.69 0 00.528-1.632 2.98 2.98 0 00-.528-1.728c-.352-.544-.848-.976-1.488-1.296-.64-.32-1.44-.48-2.4-.48a7.83 7.83 0 00-2.16.288 7.762 7.762 0 00-1.824.816c-.544.352-1.056.752-1.536 1.2-.48.416-.912.864-1.296 1.344l-4.08-4.704c.448-.448 1.04-.928 1.776-1.44.768-.544 1.664-1.04 2.688-1.488a18.249 18.249 0 013.456-1.152c1.28-.32 2.64-.48 4.08-.48 2.176 0 4.032.352 5.568 1.056C48.7 2.84 49.868 3.784 50.668 5c.832 1.216 1.248 2.64 1.248 4.272 0 1.12-.208 2.112-.624 2.976a8.937 8.937 0 01-1.584 2.304c-.64.64-1.344 1.216-2.112 1.728-.736.512-1.456.96-2.16 1.344-.992.512-1.888.992-2.688 1.44-.8.416-1.504.848-2.112 1.296a13.84 13.84 0 00-1.632 1.296c-.448.448-.848.96-1.2 1.536h14.64V29H29.308z" fill="#FCAA23"/></svg>