<svg width="53" height="37" fill="none" xmlns="http://www.w3.org/2000/svg"><path d="M25.12 14.936c0 2.816-.544 5.328-1.632 7.536-1.056 2.176-2.528 3.888-4.416 5.136-1.856 1.248-3.968 1.872-6.336 1.872-2.368 0-4.496-.624-6.384-1.872-1.856-1.248-3.328-2.96-4.416-5.136C.88 20.264.352 17.752.352 14.936S.88 9.624 1.936 7.448c1.088-2.208 2.56-3.936 4.416-5.184C8.24.984 10.368.344 12.736.344c2.368 0 4.48.64 6.336 1.92 1.888 1.248 3.36 2.976 4.416 5.184 1.088 2.176 1.632 4.672 1.632 7.488zm-6.48 0c0-1.728-.256-3.232-.768-4.512-.48-1.312-1.168-2.336-2.064-3.072a4.705 4.705 0 00-3.072-1.104c-1.184 0-2.224.368-3.12 1.104-.896.736-1.6 1.76-2.112 3.072-.48 1.28-.72 2.784-.72 4.512 0 1.728.24 3.232.72 4.512.512 1.28 1.216 2.288 2.112 3.024.896.736 1.936 1.104 3.12 1.104 1.152 0 2.16-.368 3.024-1.104.896-.736 1.6-1.744 2.112-3.024.512-1.312.768-2.816.768-4.512zm27.132 2.736c1.344.224 2.512.736 3.504 1.536.992.768 1.76 1.76 2.304 2.976.576 1.216.864 2.56.864 4.032 0 1.984-.512 3.712-1.536 5.184s-2.48 2.608-4.368 3.408c-1.856.832-4.048 1.248-6.576 1.248-2.432 0-4.592-.4-6.48-1.2-1.856-.768-3.408-1.904-4.656-3.408l3.648-4.56a8.968 8.968 0 002.976 2.4c1.184.608 2.624.912 4.32.912 1.952 0 3.44-.4 4.464-1.2 1.024-.768 1.536-1.936 1.536-3.504 0-1.664-.592-2.944-1.776-3.84-1.184-.896-2.976-1.344-5.376-1.344h-1.344v-4.8h1.488c1.952 0 3.472-.448 4.56-1.344 1.12-.896 1.68-2.016 1.68-3.36 0-.864-.208-1.584-.624-2.16-.416-.576-.992-1.008-1.728-1.296-.704-.288-1.536-.432-2.496-.432-1.44 0-2.752.336-3.936 1.008-1.184.672-2.144 1.616-2.88 2.832l-4.032-4.512c.672-.992 1.584-1.84 2.736-2.544 1.184-.736 2.528-1.312 4.032-1.728a18.281 18.281 0 014.8-.624c2.176 0 4.08.352 5.712 1.056 1.664.704 2.96 1.696 3.888 2.976.928 1.28 1.392 2.768 1.392 4.464A8.444 8.444 0 0151.1 13.4a7.872 7.872 0 01-2.16 2.832c-.896.736-1.952 1.216-3.168 1.44z" fill="#FCAA23"/></svg>