<svg width="54" height="36" fill="none" xmlns="http://www.w3.org/2000/svg"><path d="M25.12 14.936c0 2.816-.544 5.328-1.632 7.536-1.056 2.176-2.528 3.888-4.416 5.136-1.856 1.248-3.968 1.872-6.336 1.872-2.368 0-4.496-.624-6.384-1.872-1.856-1.248-3.328-2.96-4.416-5.136C.88 20.264.352 17.752.352 14.936S.88 9.624 1.936 7.448c1.088-2.208 2.56-3.936 4.416-5.184C8.24.984 10.368.344 12.736.344c2.368 0 4.48.64 6.336 1.92 1.888 1.248 3.36 2.976 4.416 5.184 1.088 2.176 1.632 4.672 1.632 7.488zm-6.48 0c0-1.728-.256-3.232-.768-4.512-.48-1.312-1.168-2.336-2.064-3.072a4.705 4.705 0 00-3.072-1.104c-1.184 0-2.224.368-3.12 1.104-.896.736-1.6 1.76-2.112 3.072-.48 1.28-.72 2.784-.72 4.512 0 1.728.24 3.232.72 4.512.512 1.28 1.216 2.288 2.112 3.024.896.736 1.936 1.104 3.12 1.104 1.152 0 2.16-.368 3.024-1.104.896-.736 1.6-1.744 2.112-3.024.512-1.312.768-2.816.768-4.512zm23.82 20.16v-7.152H28.444v-5.712l16.08-20.64h4.368v20.592h4.224v5.76h-4.224v7.152H42.46zm-7.584-12.912h8.304V11.336l-8.304 10.848z" fill="#FCAA23"/></svg>