<svg width="72" height="71" fill="none" xmlns="http://www.w3.org/2000/svg"><path fill-rule="evenodd" clip-rule="evenodd" d="M30.889 21.2c.1.4-.1.8-.3 1.3-.7 0-1.2-.8-2-1-2.6-.9-6.4-.9-9.4-.7-.3-1.1 1.3-1.3 2.1-1.4 3.1-.2 7.3.8 9.6 1.8zm.3 5.1c-.1.5-.2.9-.3 1.3-.6 0-.8-.5-1.3-.8-2-1-5.2-1.4-7.7-1.8-.9-.1-2-.4-3.5-.3-.6 0-1.3.2-1.4-.3-.1-.7 1.1-.8 1.9-.8 4.5-.1 9 1.3 12.3 2.7zm.4 6.3c.1.4-.3.7-.3 1.2-.8-.1-1.4-.7-2.2-1-2.3-.8-5.3-1.2-7.8-1.7-.3 0-.3.2-.6.1-.7-.3-2.1-.3-3.3-.3-.5 0-1.6.3-1.6-.5 0-.6.4-.6.9-.6 4.5-.2 11.6 1.1 14.9 2.8zm2.2 5.2c-.2.2-.1.9-.3 1.1-3.6-1.3-8.7-3.2-13.3-3.3-.9 0-2.1.7-2.7-.2.4-1 1.9-.9 2.9-.9 4.6.3 9.5 2.1 13.4 3.3zm25.5-.8c.2.4-.2.7-.3 1.2-6.3-.5-12.6.8-17.4 2-.6-.9.5-1.2.9-1.4.1 0 .2-.1.3-.1 4.5-1 10.7-2 16.5-1.7zm-25.9 6.9c-.1.4-.1.9-.3 1.2-.6.2-.8-.4-1.2-.7-1.3-.9-3.2-1.6-4.9-2.1-3-.9-6.5-1.5-9.9-1.5-.5-1.5 1.9-1.1 3-1 4.6.4 10 2.2 13.3 4.1z" fill="#232178"/><path fill-rule="evenodd" clip-rule="evenodd" d="M59.789 10c.6.4.7 1 .6 2 1-.4 3.3 0 4.3.7 0 .4-.2.5-.3.8-1.4-.4-2.3 0-3.8-.4 0 2.4-.3 5.4-.2 8.3.1 1.8.4 3.6.4 5.3 0 1.6-.1 3.3-.7 4.6-2.1-.9-2.3-3.7-3.8-5.1-1.1 1.2-1.6 3-2 5 1.1.4 2.7.3 3.9.5.2.4-.2.8-.3 1.1-2.2-.3-5.6-.6-8.4-.3-.5.1-1 .3-1.5.4-.5.1-1.1.1-1.5.2-1.7.4-3.1 1.2-4.8 1.4-.1-.3-.4-.4-.3-.9 2.9-1.2 6.1-2.1 9.9-2.4-.1-1.1-.1-3.3-.1-5-2.3-.2-4.4.6-6.2 1.1-.8.3-2 1.4-3 .9 0-.6 1-1.2 1.5-1.4 2.1-1 4.9-1.4 7.5-1.9.3-.3-.3-.3-.2-.8.1-.6.5-.8.5-1.3 0-.7-.9-1.2-.9-1.8-2.5.1-5.2 1-7.3 1.8-.7.3-1.4.9-2 .5-.1-.7.8-1.2 1.4-1.4 1.2-.5 3.2-1.1 4.9-1.5 1.5-.3 3-.8 4.1-.4.7-.9.7-3.1.4-4.3.4-.7.3-1.2.3-2.2-5 .3-8.8 2.1-12.2 4.3-.2 1-.1 1.9-.1 3.1 0 1.5-.3 3.1-.3 4.7 0 1.5.2 3.1-.5 4.3-.2 2.8-.3 6-.8 7.8 0 4.2-.2 8.8-.3 13.4.6-.1 1.1-.6 1.5-.9.5-.4 1.1-.7 1.6-1 2.1-1.3 4-2.8 7.1-3.5 4.6-1 10.2-1.4 15.5-.5.2.3-.3.7-.2 1.3 1.2-1.2 1.2-3.1 1.1-5.6-.1-2.5 0-5.4-.1-8-.1-4.3.3-9 .3-13v-3.8c0-.7-.3-1.5-.1-2.1 1.6.2.6 3.2 1.2 4.4.5.5 1.5.4 2.1.8-.1 4 0 8.5-.2 12.8-.1 2.3-.3 4.5-.3 6.7 0 4.2-.4 9-1.1 13.5-.3 1.6-.1 3.1-1.1 3.8-.7-.5-1.5-.2-2.4-.2-.8 0-1.8-.4-2.6-.4-.2 0-.4.1-.6.1-.4-.1-.7-.3-1-.4-3.4-.8-7.3.2-10.7.9-3.5.7-6.9 1.8-8.9 3.5-1.7-.3-3 .9-4.9 1.1-1 .1-1.8-.2-2.9-.2-.1-.6-.7-.6-.9-1.1-.5-.2-1-.4-1.3-.9-.4 0-.4-.2-.8-.2-2.9-2.1-7.1-3.8-11.7-4.3-2.1-.3-4.9-.1-7-.2-1.2.2-2.4.5-3.2 1.2-.6-.1-1-.8-1.6-.6-.4-6.4-.6-13-.7-20 0-2.3-.2-4.9 0-7.2.1-1.4.5-3 1.1-4.2 1.3-.6 2.9-.9 4.2-1.5.1-.4-.3-.4-.2-.9.9-2.2 2-4.1 3.7-5.5 1.8-.6 3.3-1.5 5.7-1.7 6.4-.5 14.1 1.2 18.4 3.8.3.2.3.7.8.9 2.1-1.2 4-2.6 6.4-3.6 2.3-1 4.9-1.7 8-2 .3-.6-.1-1.4.3-1.8.3-.6 1-.3 1.7-.3 1.7 0 3.8-.3 5.6-.3zm-24.2 27.2c.2-4.1.6-8.3.9-12.1.2-1.9.1-3.8.6-5.4-.3-.3-.1-1-.3-1.5-.3-.6-2.5-1.7-3.6-2.1-2.2-.8-5.3-1.6-7.9-1.9-1.1-.1-2.8-.2-3.8-.1-2.5.3-5.8.5-7.1 1.9-.4.1-.1-.6-.5-.5-.7 1.5-.3 3.4-.4 5.3 0 .5-.2 1-.3 1.5 0 1.5.3 3.2-.1 4.6.1 4.8-.5 10.3-1 15.3-.1 1.3-.2 3.1-.1 4.3.9.3 1.8-.2 2.8-.3 8-.2 14.6 1.9 19.6 4.8.7-4.2.9-8.9 1.2-13.8zm23.8-21.2c-.1-.3.1-.8-.1-1-.1.2-.5 1 .1 1zm-48.5 29.5c.9-9.7 1.5-18.3 1.6-28.9-.1 0-.1-.1-.3-.1-.7.8-1.9 1.6-2.1 2.8-.1.4 0 1.1 0 1.7 0 2.2 0 3.8-.3 5.5-.2 1.3-.2 2.8-.3 4.2-.5 6.2-.7 11.7-.4 17.6.6-.1.8-.7 1.4-.9-.3 1.3-1.2 1.9-1.5 3.1-.1.3-.6 0-.6.3.3.1-.1.3 0 .5.3.3.5-.1.9-.1.1-.8.6-1.4 1.3-1.7 8.1-.8 15.6 1.9 21 5 .8.7 1.9 1.6 3 1.8-.6-.1-.7-.7-.6-1.4-3.2-1.3-5.7-3.2-8.9-4.5-.3-.3.3-.6 0-.9-4.5-.4-8.8-1.3-12.9-1.7-.4-.1-.4-.5-.8-.5-.3.1-.6.1-.9-.1.1-.4.1-1.2.4-1.7zm48.2-27.3c.2 0 .3-.1.3-.3-.3 0-.3.1-.3.3zm6.7 2c.4-.2.7 0 1.2 0 .2-.6-.5-.7-1.2-.7 0 .3-.1.4 0 .7zm-11.8 3.8c.5-.5.9-1.1 1.1-2 0-.1-.1-.1-.2-.1-.4.5-.5 1.4-.9 2.1zm-44.8-.1c0-.5.2-1.2 0-1.7-.7.1-1 1.6 0 1.7zm49.1.7c.1.3.1.6.3.8.1-.4.6-1 .3-1.2-.1.2-.3.4-.6.4zm-.5 1.3c-.1-.7-.5-1.1-.8-1.6.1.7.5 1.1.8 1.6zm-4.3 2.1c.4-.6 1-1.8.7-2.6-.5.7-1.1 1.3-.7 2.6zm-15.2-.8c.3-.1.3-1 .1-1.2-.2.3-.1.8-.1 1.2zm14 2.3c.7-.1.4-1.5 0-1.8-.2.5-.1 1.3 0 1.8zm.2 1.6h.9c.1-.9-.9-.5-.9 0zm-47 11.5c0-2.4.2-4.6-.1-7.4-.2 2.3-.3 5 .1 7.4zm31.8 1.3c.4-.5.2-1.5.2-2.4 0-.6.1-1.1-.1-1.6-.3 1.6 0 3-.1 4zm-30.2-2.3c.2-.2 0-1.1-.1-1 .1.4-.3.8.1 1zm-1.7 2.6c.5 0 .2-1.2 0-1.4.1.7-.1.9 0 1.4zm32 1.7c.1-.1.2-.6-.1-.5.1.2-.1.5.1.5zm22.2-.3h-4.9c-2.3 0-4.3.7-6.3 1.1-.7.1-1.3.1-2 .3-.8.3-1.6.8-2.4 1.3-1.7.9-2.9 1.8-4.3 2.6-.2.4-.4.7-.6 1.1-.5-.2-.7.1-1.3.1-.4 1-.5 1.9-.7 2.9-.3 0-.6 0-.9.1.1.8-.6.7-.6 1.4.8 0 1.9-.4 2.4-1 0-.2-.6-.4-.7-.9 1.6-1.6 3.8-3.1 6-4.3.6-.3 1.3-.8 2-1.1.3-.1.7-.1 1-.3 1-.4 1.9-1.1 3-1.4 3-.8 6.1-.7 9.4-.1 1.1.2 2.7.7 1.4 1.5-1.8-.5-3.1-.9-5-1.1-4.8-.5-8.2 1.8-11.2 3.3-2.1 1.1-4.2 2.2-5.3 3.7 3-1.9 6.9-3.7 11.1-4.5 3.8-.8 7.8-1.4 11.8-.5.2-1.3 1.4-2.3 1.8-3.6-1-.4-2.3-.6-3.7-.6zm-41.7 2.1c2.4.6 5 .7 7.6 1-1.8-1.1-5.6-1.2-7.6-1zm17.5 4c.2.2.5-.2.9-.2.1-1.1.3-2.9-.4-3.7-.3 1.3-.4 2.5-.5 3.9zm-8.4-1.4c2.6 1.3 4.8 3 7.2 4.5.2-.8-.1-1.3.1-2-1.5-1.9-4.4-2.4-7.4-2.8 0 .1 0 .2.1.3zm30 .3c.2.1 1 .2 1.1-.1-.4.1-.8-.2-1.1.1zm-45.5 0c0 .4.7.3.6-.1-.3 0-.4.1-.6.1zm44.1 0c0 .3.9.1.9-.1-.3.2-.6 0-.9.1zm-39.3.5c.6-.1 1.1.5 1.3-.2-.4 0-1.2-.5-1.3.2zm35.7 2.3c.1.1.7 0 .9-.1.1-.7-.8-.2-.9.1zm7.6.3c.2.1.5.2.9.2-.1-.5-.7-.5-.9-.2zm-24.9 5.3c.1.1.5.1.4-.3-.2.1-.3.1-.4.3z" fill="#232178"/></svg>