<svg width="72" height="71" fill="none" xmlns="http://www.w3.org/2000/svg"><path fill-rule="evenodd" clip-rule="evenodd" d="M26.313 21.966c.4 1.9 1.3 3.4 1.5 5.8.3.3 1-.3 1.4 0 0 .8-1 .5-1.2 1.2.3.9.7 2 .9 3.6.3 1.9.7 3.5 0 4.4-.4 0-.7-.3-.9-.5.1-2.3-.9-4.5-1.2-6.9-1.5.1-1.9 1.2-3.4 1.3-.2 2.1-1.1 4.5-.5 6.6-.2.4-.5.7-.9.8-.8-.5-.7-1.8-.6-2.6.2-1.7.8-3.5 1-5 .1-.4-.2-.3-.1-.7 1.4-2.4 1.8-5.8 3.3-8.1.3.1.5.1.7.1zm-2.2 7.1c.7.1 1.6-.4 2.3-.7-.1-1.3-.3-2.6-1-3.3-.3 1.5-1.1 2.6-1.3 4zm14.5-3.3c.1 2.2-1.6 2.6-3.3 3 .9.9 2.1 1.7 3.4 2.3-.5 2.3-2.7 3.4-5.4 3.3-.5 0-.3.7-.7.8-.6-.4-1.5-.5-1.7-1.3.1-.4.8-.2.9-.6-.4-3-.1-6 .2-9-.5-.4-1.5-.5-1-1.5.5-.4 1.4.1 1.9-.5 1.5 1.6 3.9 2.3 5.7 3.5zm-5.7 2.4c1.5-.4 3-.7 4.2-1.4-1-1-2.4-1.5-3.8-2.1-.3 1.1-.5 2.1-.4 3.5zm.2 5.2c1.4-.4 3.2-.4 3.6-1.7-1.3-.8-2.3-1.9-3.7-2.7.1 1.5-.2 3.2.1 4.4zm15.7-7.8c-1.2.4-1.6-.7-2.6-.7-3.1 0-4 6.9-1.6 8.6 1.1.8 2.7.1 3.5-.6.2-.2.4-.7.8-.6.8.2-.2.7-.3 1-.9 1.2-1.8 2.1-3.7 1.9-4.8-.7-3.5-12.8 2.1-11.7.7.2 2.1 1.1 1.8 2.1zm-.6 32.3c-.5-.1-.5.2-.9.2-2.6 1.7-5.7 3-8.4 4.5-1.3 1.9-3.2-.2-2.7-2.3.5-.5 1.4-.2 1.6.3.2-.3.2-.7.3-.9 2.7-2 6.3-3.7 9.1-5.2 1.3.7 1.7 2 1 3.4z" fill="#232178"/><path fill-rule="evenodd" clip-rule="evenodd" d="M66.913 58.566c-2.8-.1-6.7.9-9.1-.6 0-2.5-.5-4.5-.8-6.7-1 0-1.4-.5-1.7-1.2-4.8.3-9.4.4-14 .3-8.2 0-16.5 1.3-25.1.1-.5 2.2-.3 5-1.2 6.7-2.8.8-6.9 1.3-10 .5-.4-2.7-.8-5.3-.7-7.6.1-1.2-.4-2.5-.3-3.7.1-3.1.3-6.7.6-9.8.3-3.2-.1-7.4.2-10.6.1-1.3.5-2.4-.3-3.3 1-1.1.9-4 .3-5.5 1.1-2.1.7-5.8 1.9-7.9 1.1-.3.9.8 1.4 1.2 1-.4-.2-1.2.2-1.9 6-.7 11.6-.4 17.9-.7 3.9-.2 8.1-.4 12.4-.5.7 0 1.4.2 2 .1.3 0 .7-.3 1-.3 1.4-.2 3.2-.2 4.7-.1 3.6.1 7.7.5 11.3 0 2.2 1.2 5.3-.6 8 .6 1.6.7 2.3 5.5 2.2 7.9 0 .3-.2.7-.2.9 0 .4.3 1.4.3 1.7 0 1.2-.2 2.9-.1 4.4.1 3.7.2 8.1.1 11.3-.2 5.2-.3 10.3-.3 15.2-.1 3.5.1 7.1-.7 9.5zm-16.7-48.5c-1.2 1.7-3.8 2.7-4.4 4.7 1.2 0 2.7.2 2.8-.8-.6.1-.8.4-1.3.6.4-1.5 2.1-2.6 3.1-3.7.8-.4 1.6-1 2.2-1.6-.8-.4-1.4.7-2.4.8zm14-.5c.2-.1.7.2.6-.2h-.6v.2zm-26.4.3c-1.7 1.8-4.1 2.9-5.6 4.9 2.8-1.3 4.8-3.5 7.1-5.3-.5.1-.9.4-1.5.4zm-26.3 0c.5.1.4.7.6 1 .6-.2 1.3-.3 1.3-1.2-.7 0-1.3 0-1.9.2zm2.1 2.1c.7.2 1.5-.4 1.9-.9.6-.4 1.5-.4 1.7-1.2-1.7.2-2.8 1.1-3.6 2.1zm17.1-1.6c0-.1 0-.3-.2-.2-1.3.6-2 1.7-3 2.6 1.3-.6 2.1-1.6 3.2-2.4zm-8.8 4.4c1.1-.7 2.1-1.4 3-2.2.8-.7 1.8-1.5 1.6-2-1.7 1.3-3.4 2.6-4.6 4.2zm14.4.1c1 .2 1-.6 1.3-1 1.6-.6 2.5-1.9 3.6-3-2.1.9-3.5 2.5-4.9 4zm19.9-1c1.2-.9 2.3-1.9 3.3-3-1.7.5-2.4 1.9-3.3 3zm.4 1.9c1.9-1.1 2.8-3.1 4.7-4.2 0-.1 0-.3-.2-.2-1.7 1.2-3.7 2.7-4.5 4.4zm-4-3.8c-.9.7-2.1 1.6-2.7 2.8.2 0 1.1.3 1.5 0-.9-1.2 1-2.2 1.6-3-.3-.3-.2.1-.4.2zm.8 2.8c.6-.4 1.9-1.3 1.5-1.9-.4.8-1.2 1.2-1.5 1.9zm-12.4-.1c.7.3 1.3-.6.7-.8-.1.4-.7.3-.7.8zm-2.1.2c.4 0 .9.1 1.2-.1 0-1.1-1.2-.8-1.2.1zm16.4.2c.2-.4.8-.4.8-1-.4 0-1 .6-.8 1zm-27.9 0c.2.2.5.1.7-.1-.1-.2-.7-.3-.7.1zm38.9.9c.3-.3-.1-.7 0-1.2h-.3c-.3.3-.2 1.2.3 1.2zm-8.9 1.3c.8-.4 1.2-1.1 1.7-1.7-.8.2-1.2.9-1.7 1.7zm-41.2-1.2c.5 8.4-1 17.1-.3 25.4 11.7 0 26.2.3 38-.6.5-.7 1.6-.9 1.9-1.9-2.1.1-.6-1.6 0-2.1.1-3.4.2-7.2 0-10.5 0-.8.2-1.6.2-2.3 0-1-.7-2 0-2.7-.2-.3-.7-.3-.8-.8 1-.6.6-2.4 0-3.3-5.7-1.1-11.8-1.1-18.1-.8-4.3.2-8.8.1-12.9 0-2.3-.1-5.1-.6-6.6.1-.2-.9-.8-.9-1.4-.5zm49.8 1.8c.1-.3-.1-.7 0-1.3-.7-.4-1 1.3 0 1.3zm-6.9 1.1c.9-.3 1.5-.9 2.1-1.5.3-.1.8-.1.7-.6-1.2.5-2 1.3-2.8 2.1zm7.1 1.8c-.1-.7.2-1.4-.2-1.6-.1.4-.2 1.3.2 1.6zm-52 .9c.5 0 .4-1.1.2-1.4-.4.4 0 .9-.2 1.4zm-6.5 3c1.1-.9 2.2-1.8 2.9-3-1.5 0-2 2-2.9 3zm54.5 2.7c-.6.9-1.8 1.3-2.4 2.2 1.9-1.1 3.5-2.3 5.3-3.5-1.4-.4-1.7 1.1-2.9 1.3zm-55.7 1.2c.6.2.7-.9.1-.8-.1.1-.1.4-.1.8zm7.2-.4c-.5.5-1.5.6-1.6 1.5.4-.3 1-.7 1.7-.3.1-.2.4-1.2-.1-1.2zm45.5 2.1c.1-.2.4-.2.5-.5-.4-.1-.8.3-.5.5zm-1.4.8c.3.2.8-.1.8-.5-.3.1-.7.2-.8.5zm-46 1.8c.8 0 .9-.8 1.7-.8 0-.3.1-.8-.2-.8-.3.6-1.3.7-1.5 1.6zm51.8.5c.7-.1 2.3-.9 1.3-1.5-.4.6-1 .9-1.3 1.5zm2.9.3c-.1-.4.3-1.3-.2-1.4 0 .5-.1 1.1.2 1.4zm-56.5.9c.6-.1.7-.6 1-.9-.6 0-.7.6-1 .9zm1.4.9c.4-.8 1.9-.6 2.1-1.7-1.3-.1-1.9 1.2-2.1 1.7zm46.5 2c1.2-.9 2.5-1.6 3.4-2.8-1.5.6-2.7 1.5-3.4 2.8zm1.5.6c1.4-.5 2.2-1.5 3.3-2.3-1.4.5-2.3 1.5-3.3 2.3zm-47.4-1.6c-2 2.1-4.4 3.9-5.8 6.6 2.4-1.7 3.9-4.7 6.6-6 .2-.1.6.2.6-.3-.6-.3-.8.1-1.4-.3zm-2.9 1c.3 0 .9-.4.6-.7-.3.2-.8.2-.6.7zm57.3 1.4c-.1-.4.1-.5.1-.8h-.3c-.1.4 0 .7.2.8zm-55.8 1.5c.5-.1.8-.3 1-.7-.3-.1-.7.5-1 .7zm52.2-.1c.2.2.5 0 .6-.2-.3-.3-.5 0-.6.2zm3.5 1.6c-.1-.4.4-.9-.1-.9-.2.3-.2.7.1.9zm-57.4.5c.3-.5 1-.6 1-1.3-.5.1-1 1-1 1.3zm35.2 1.6c1.1-.6 2.6-.6 3.5-1.2-1.7 0-3.2 0-3.5 1.2zm-21.6-.9c0 .2.1.3.1.3.4.1.5-.1.6-.3-.2 0-.4-.2-.7 0zm19.7.1c.2.2.8.2.8-.1-.1-.2-.8-.2-.8.1zm-22.7.6c.2-.3.7-.2.7-.7h-1.6c.1.4.7.4.9.7zm32.1.3c.3.2.8.3 1.2.1.1-1-1-.6-1.2-.1zm-45.1 1.1c.4-.4 1.1-1 1-1.5-.3.4-1 1.1-1 1.5zm35.8-.2c.6-.2 1.3-.4 1.5-.9-.6.1-1.2.4-1.5.9zm-15 0c.4-.3 1-.3 1-.8-.6-.1-.9.7-1 .8zm-2.4 1.6c.9-.3 1.7-.8 2.2-1.5-1.3 0-1.6.9-2.2 1.5zm26.1.2c1.6-.2 3-.7 4-1.2-1.5.3-3.2.3-4 1.2zm-33.9-.2c-.8.4-1.5.9-2.7.9-2.9 2.6-5.9 5-8 8.3 3.5-3.1 6.6-6.7 10.9-9 0-.1 0-.3-.2-.2zm-9.7 5.6c1.5-1.2 2.8-2.4 4.1-3.8.5-.2 1.4-.7 1-1.5-1.8 1.6-3.7 3.1-5.1 5.3zm11.2-4.7c.4 0 .8-.2.8-.6-.4.1-.8.2-.8.6zm-2 1.4c.4.1.9.4 1.4.1 0-.5 0-.9.2-1.2-.6.3-1.4.4-1.6 1.1zm5.1-.9c.1.6 1.3.4 1.5-.1-.4.5-1-.2-1.5.1zm43.4 1.5c.7.4.8-.5.3-.8-.1.2-.3.3-.3.8zm.1 1.4c-.9 1.3-2.4 2.1-3.3 3.5 1.4-.8 2.5-1.9 3.6-2.9v-.6h-.3zm-53 1.5c.3-.2.4-.4.6-.7-.4-.1-.9.4-.6.7zm-1 3.3c1-.6 2-2.1 3-3 0-.2-.1-.3-.2-.3-.9 1.1-2.3 1.7-2.8 3.3zm-3.2.8h.7c.7-1.3 2.1-2.4 2.6-3.5-1.2 1.1-2.6 1.9-3.3 3.5zm57.2.5c1 .2.9-1.8.5-2-.1.6-.7 1.3-.5 2z" fill="#232178"/></svg>