<svg width="72" height="71" viewBox="0 0 72 71" fill="none" xmlns="http://www.w3.org/2000/svg">
<path fill-rule="evenodd" clip-rule="evenodd" d="M67.3444 9.5C68.8444 15.9 67.4444 21.7 66.9444 28.3C66.5444 34.6 66.4444 41.1 65.8444 47.5C65.4444 51.9 64.5444 56.2 64.4444 60.6C63.9444 61.2 62.7444 61 62.8444 61.9C57.2444 63 49.9444 63 44.3444 62C35.9444 62.1 24.3444 60.9 14.9444 61.2C11.6444 61.3 3.84442 62 4.84442 58C3.64442 57.2 4.04441 54.4 4.14441 52.5C4.44441 46.7 5.0444 41 5.5444 35.4C5.7444 33.2 5.94441 31 6.14441 28.8C6.54441 24.1 7.54439 19.2 7.94439 14.9C8.04439 14.1 7.34441 12.2 8.74441 12.4C9.84441 12.6 9.44442 15.1 9.34442 16C9.24442 17.5 8.74441 18.7 8.64441 19.8C8.44441 20.9 8.6444 22 8.5444 23.1C8.4444 24.1 8.04439 25 7.94439 26C7.54439 29 7.54441 32.1 7.24441 35.1C7.14441 36.4 6.74441 38.1 6.64441 39.7C6.64441 40.2 6.74441 40.8 6.74441 41.3C6.64441 42.9 6.1444 44.5 6.0444 46.1C5.7444 49.6 5.84441 53.3 5.64441 57.1C5.84441 57.4 6.54439 57.3 6.94439 57.6C6.64439 58.2 6.94441 58.7 7.14441 59.1C14.5444 59.6 22.4444 59.2 30.7444 59.6C38.1444 59.9 45.7444 60.6 52.7444 61C56.2444 61.2 59.8444 60.8 62.9444 59.7C63.6444 51.6 64.7444 43.5 65.1444 35C65.3444 30.9 65.5444 26.6 65.9444 22.6C66.4444 18.5 66.5444 14.5 65.7444 10.9C64.4444 10 62.9444 10.4 61.5444 10.3C54.6444 10.1 47.2444 10.1 40.3444 9.8C35.1444 9.6 30.2444 9.9 24.6444 9.9C20.7444 9.9 16.3444 9.6 12.5444 10.8C11.4444 11.2 10.7444 12.5 9.64441 11.2C10.0444 10.2 11.2444 9 12.5444 8.9C13.0444 8.8 13.4444 9 13.9444 9C14.8444 9 15.7444 8.6 16.6444 8.5C20.3444 8.2 24.6444 8.6 28.6444 8.5C30.6444 8.4 33.0444 8.1 34.7444 8C35.5444 8 36.4444 8.3 37.3444 8.2C41.5444 8.1 46.0444 8.2 50.5444 8.2C54.4444 8.2 58.3444 8.3 62.1444 8.6C63.9444 8.8 65.8444 8.6 67.3444 9.5Z" fill="#232178"/>
<path fill-rule="evenodd" clip-rule="evenodd" d="M36.0444 24.5C36.1444 25.8 36.4444 27.7 34.8444 27.9C34.2444 27.1 33.7444 23.4 36.0444 24.5Z" fill="#232178"/>
<path fill-rule="evenodd" clip-rule="evenodd" d="M32.3444 25.0001C32.1444 25.5001 32.2444 26.3001 31.8444 26.6001C29.8444 26.8001 30.7444 23.8001 32.3444 25.0001Z" fill="#232178"/>
<path fill-rule="evenodd" clip-rule="evenodd" d="M40.5444 25.7999C40.5444 26.2999 40.6444 26.8999 40.4444 27.1999C40.1444 27.4999 39.5444 27.1999 39.1444 27.1999C39.1444 26.5999 38.6444 26.3999 38.9444 25.8999C39.3444 25.7999 40.0444 25.5999 40.5444 25.7999Z" fill="#232178"/>
<path fill-rule="evenodd" clip-rule="evenodd" d="M38.5444 29.4C38.4444 31.5 34.6444 32.2 32.8444 30.9C32.2444 30.5 31.3444 29 32.4444 28.7C33.4444 28.5 33.9444 30 35.1444 30.1C36.9444 30.3 37.1444 28.9 38.5444 29.4Z" fill="#232178"/>
<path fill-rule="evenodd" clip-rule="evenodd" d="M49.8444 53.3C49.9444 54 49.6444 54.4 49.7444 55.1C51.5444 55.4 53.3444 55.3 55.3444 55.3C57.2444 55.3 59.5444 54.6 60.7444 55.7C60.4444 56.3 59.9444 56.5 59.6444 57C56.3444 57 53.0444 56.8 49.6444 57.1C49.6444 57.9 49.7444 59.2 48.8444 59.4C47.8444 59.1 47.9444 58.1 47.7444 57.2C41.2444 56.9 34.5444 56.7 28.0444 55.8C26.3444 56 18.4444 57 21.8444 54C24.1444 54.5 26.3444 53.9 28.6444 54C31.7444 54.1 34.8444 54.8 37.9444 55.1C41.1444 55.4 44.4444 55.4 47.9444 55.3C48.1444 54.2 48.4444 52.3 49.8444 53.3Z" fill="#232178"/>
<path fill-rule="evenodd" clip-rule="evenodd" d="M62.5444 14.2C62.5444 16.7 63.1444 22.1 62.5444 25C63.2444 33.6 61.4444 42.6 60.9444 50.4C60.5444 51.2 59.5444 51.5 58.7444 51.8C54.8444 51.8 50.9444 50.9 46.7444 50.6C41.5444 50.2 36.0444 50.3 30.4444 50.1C24.7444 49.9 19.2444 50.4 14.0444 50.2C13.2444 50.2 12.4444 49.9 11.8444 50C11.0444 50 10.8444 50.7 9.9444 50.2C9.2444 49.3 9.94441 48.4 10.0444 47.4C10.4444 44.7 10.1444 42.2 10.1444 39.2C10.1444 38.4 10.4444 37.6 10.5444 36.7C10.7444 34.7 10.8444 32.6 10.9444 30.5C11.0444 27.9 11.4444 24.7 10.8444 22.4C11.7444 20 11.4444 17.4 12.0444 14.8C12.2444 14.6 12.8444 14.3 13.2444 14.6C13.3444 14.3 13.2444 13.8 13.7444 13.7C18.2444 12.7 23.5444 14 28.0444 13.7C31.2444 13.5 34.5444 13.2 38.0444 13.2C38.2444 13.2 38.2444 13 38.4444 13C39.2444 13.1 40.0444 13.5 40.9444 13.6C45.3444 13.8 49.9444 13.5 54.3444 13.6C55.9444 13.7 57.5444 14 59.1444 14C59.9444 13.9 61.5444 13.2 62.5444 14.2ZM16.1444 15C16.1444 15.3 16.4444 15.4 16.3444 15.7C15.5444 16.8 14.9444 18.5 14.1444 19.8C13.6444 20.6 12.8444 21 12.6444 21.8C12.1444 24 13.0444 25.6 12.5444 27.8C13.5444 26.8 14.2444 25.4 14.8444 24C14.3444 24 13.9444 24 13.7444 23.6C13.7444 23.4 13.7444 23.2 13.7444 23C16.0444 20.5 17.9444 17.7 19.8444 14.8C18.4444 14.7 17.3444 14.8 16.1444 15ZM33.9444 15C32.9444 16.6 31.4444 17.8 30.4444 19.3C31.5444 19.4 32.5444 18.5 33.9444 18.5C34.6444 17.2 35.6444 16.4 36.2444 15.1C35.4444 14.8 34.7444 14.9 33.9444 15ZM38.5444 15C37.5444 15.2 36.0444 17.6 35.2444 18.5C38.2444 18.7 38.9444 16.6 40.0444 15C39.4444 14.9 39.0444 14.9 38.5444 15ZM29.2444 15.1C27.5444 18.2 25.3444 20.9 23.6444 24.1C23.3444 24 23.1444 23.9 22.9444 23.6C24.1444 20.6 26.2444 17.9 27.4444 15.2C26.7444 14.8 26.3444 15.8 25.9444 16.4C25.4444 17.2 24.7444 17.8 24.5444 18.6C23.5444 19.4 23.0444 20.8 22.0444 21.6C21.7444 22.6 21.1444 23.3 20.5444 23.9C20.1444 24.1 20.0444 23.9 19.6444 23.9C18.3444 25.5 17.6444 27.6 15.8444 28.7C15.3444 29.9 14.7444 31 13.7444 31.7C13.5444 31.6 13.2444 31.6 13.2444 31.2C15.2444 27.9 17.2444 24.7 19.5444 21.7C19.7444 21.9 20.1444 21.8 20.2444 21.9C21.7444 19.5 23.6444 17.6 24.8444 15C24.2444 14.8 23.5444 14.9 22.9444 15C21.1444 18.1 18.7444 20.7 17.0444 24C16.8444 24.1 16.6444 24.2 16.3444 24.2C14.3444 26.7 11.5444 29.8 12.3444 34.4C12.6444 33.6 12.7444 32.6 13.7444 32.5C13.9444 32.6 14.1444 32.7 14.1444 33.1C17.6444 30.6 19.0444 26 21.7444 22.7C21.9444 22.5 22.4444 22.7 22.6444 22.9C22.8444 23.5 22.3444 24 21.9444 24.3C21.5444 25.1 21.1444 26 20.6444 26.8C19.4444 28.5 17.6444 30.2 17.1444 32.1C17.4444 32.4 17.9444 32.5 18.4444 32.7C19.7444 31.7 20.3444 30 21.1444 28.6C21.0444 26.4 22.6444 24.7 25.2444 25.1C25.8444 23.7 27.0444 23 27.2444 21.2C28.7444 19.1 30.9444 17 31.9444 14.8C30.8444 15.1 30.3444 15 29.2444 15.1ZM41.9444 15.1C41.1444 16.7 39.4444 17.4 38.5444 18.9C42.1444 19.9 44.6444 22.2 45.4444 26.1C47.0444 25.6 48.1444 26.4 48.9444 27.2C49.3444 27 49.6444 26.3 50.2444 26.5C50.6444 27.3 49.6444 27.9 49.3444 28.4C49.2444 29.6 48.4444 30.3 47.5444 30.7C46.3444 33.1 44.0444 34.3 43.2444 37C44.1444 38.6 47.5444 38.2 48.1444 36.6C47.7444 34.4 49.0444 32.4 51.7444 32.6C53.0444 33.4 54.2444 35 53.7444 36.8C53.4444 37.9 51.7444 38.9 52.1444 40.3C52.7444 40.2 53.1444 39.1 54.0444 38.9C54.5444 38.9 54.4444 39.4 54.7444 39.5C55.4444 38.6 56.1444 37.5 57.2444 36C58.0444 34.8 59.5444 31.7 60.6444 33.2C60.7444 33.8 59.9444 34.5 59.4444 34.8C59.3444 35.4 58.9444 35.7 58.6444 36.1C58.5444 36.9 57.8444 37.2 57.7444 38C54.9444 41.1 52.6444 44.6 49.8444 47.7C49.1444 46.8 48.8444 47.8 47.7444 47.8C47.4444 47.2 47.9444 46.8 48.2444 46.5C48.9444 45.2 49.7444 44 50.7444 43C50.8444 42.4 51.1444 42.1 51.4444 41.7C50.2444 42.5 49.1444 43.5 47.6444 44C47.1444 44.7 46.7444 45.5 46.2444 46.2C45.7444 46.9 45.3444 47.8 44.4444 48.2C43.2444 47 45.4444 45.7 45.7444 44.4C45.0444 44.2 44.7444 44.3 43.8444 44.2C43.1444 45.6 42.1444 46.6 41.5444 48.1C40.9444 48.2 40.7444 48 40.3444 47.9C40.2444 48.3 40.6444 48.3 40.5444 48.7C46.4444 48.4 52.9444 50.2 59.1444 49.8C59.4444 47.4 59.7444 45 60.2444 42.8C58.6444 43.3 58.1444 47.7 56.0444 47.3C56.9444 43.1 60.6444 41.6 60.8444 36.8C59.3444 37.9 58.8444 39.7 57.4444 41.5C56.4444 42.8 55.7444 43.7 54.6444 45.3C54.2444 45.9 52.8444 48.2 52.3444 48.2C50.6444 48.2 52.4444 46.6 52.7444 46.2C54.9444 43 57.4444 39 59.8444 35.8C60.0444 35.5 60.5444 35.5 60.9444 35.3C61.1444 33.6 61.3444 31.9 61.1444 30.5C59.5444 31.5 58.5444 33.6 56.6444 34C56.5444 33.3 57.3444 33.1 57.7444 32.7C58.9444 31.3 59.6444 29.5 61.1444 28.4C61.1444 28 61.1444 27.6 61.1444 27.2C59.6444 28.2 59.0444 30.1 57.5444 31.1C56.6444 32 55.9444 34.4 54.2444 33.8C55.9444 30.7 58.6444 28.6 60.2444 25.4C60.4444 25.2 61.0444 25.2 61.3444 25C61.3444 24.5 61.3444 24.1 61.3444 23.6C59.5444 25.9 57.2444 28.1 55.2444 30.2C54.6444 30.8 54.2444 32.3 53.0444 31.7C53.9444 29.8 55.7444 28.3 57.2444 26.5C58.7444 24.7 59.9444 22.7 61.4444 21C61.1444 20.5 61.4444 19.5 61.2444 19C60.7444 19.4 60.2444 20 59.8444 20.5C59.2444 21.3 58.8444 22.4 58.2444 23.2C57.5444 24 57.0444 24.7 56.3444 25.5C55.9444 26.1 55.4444 26.7 54.9444 27.3C53.8444 28.7 52.6444 30.3 51.4444 31.3C50.9444 31.3 51.0444 30.8 50.6444 30.8C49.3444 32 48.4444 33.5 47.3444 35C46.7444 35.7 46.0444 37.3 44.8444 36.6C45.4444 35.8 46.1444 35.1 46.3444 34C47.9444 32.7 48.1444 30.1 50.6444 29.8C50.6444 30.1 50.5444 30.6 50.8444 30.6C54.3444 26 57.9444 21.4 61.2444 16.7C61.0444 16.1 61.1444 15.1 60.0444 15.4C59.9444 15.8 60.2444 15.8 60.1444 16.2C57.8444 19.3 55.7444 22.8 53.4444 25.9C53.0444 26 52.7444 25.9 52.6444 25.5C54.3444 21.8 56.9444 18.9 58.8444 15.3C58.4444 15.3 57.9444 15.3 57.5444 15.3C56.6444 16.1 56.1444 17.2 55.3444 18.2C54.0444 19.9 52.7444 21.5 51.4444 23.1C50.8444 23.9 50.3444 25.1 49.2444 25.3C48.8444 24.6 49.5444 24.2 49.8444 23.9C51.3444 20.6 53.8444 18.4 55.5444 15.3C54.9444 15 53.8444 15.2 52.9444 15.2C52.2444 15.8 51.8444 16.6 51.0444 17.1C50.5444 18.6 49.1444 19.2 48.7444 20.7C47.8444 21 48.0444 22.5 46.8444 22.6C47.0444 19.4 49.7444 17.8 50.9444 15.2C50.4444 15 49.5444 15.1 48.8444 15.1C48.8444 15.5 48.8444 15.8 48.8444 16.2C47.6444 17.3 46.8444 18.9 45.8444 20.2C45.5444 20.3 45.1444 20.4 44.7444 20.6C45.3444 18.4 46.7444 17 47.7444 15.2C47.1444 14.9 46.1444 15.1 45.4444 15.1C44.2444 16.7 43.5444 18.7 41.6444 19.7C41.5444 19.5 41.1444 19.5 41.1444 19.1C41.8444 17.7 42.8444 16.7 43.4444 15.2C43.0444 15.1 42.3444 15 41.9444 15.1ZM13.0444 18.9C13.5444 17.7 14.4444 16.8 14.8444 15.4C12.7444 14.5 12.9444 17.5 13.0444 18.9ZM38.5444 21.2C38.9444 21.2 39.3444 21.2 39.3444 20.8C39.2444 20.7 38.6444 20.4 38.5444 20.7C38.8444 20.8 38.4444 21 38.5444 21.2ZM16.0444 22.4C16.8444 22.3 17.5444 21.5 17.3444 20.9C16.8444 21.4 16.3444 21.8 16.0444 22.4ZM26.4444 28.2C26.7444 33.2 32.2444 35.2 37.3444 34.6C39.1444 33.8 41.4444 32.2 42.6444 30.8C44.3444 28.8 44.3444 26 43.1444 23.3C42.0444 23 41.9444 21.6 40.5444 21.4C38.6444 23.7 32.4444 22.8 29.4444 22.3C27.9444 24 26.3444 25.8 26.4444 28.2ZM24.7444 29.2C24.8444 28.6 24.5444 27.8 24.7444 27C22.7444 26.1 22.1444 29.9 24.7444 29.2ZM45.6444 27.5C45.3444 28.3 45.0444 29.1 44.9444 30.1C46.4444 30 47.3444 29.4 47.7444 28.2C47.6444 27.5 46.4444 27.2 45.6444 27.5ZM21.8444 30C21.3444 31.6 19.8444 32.2 19.3444 33.9C21.0444 35.8 26.1444 37 26.2444 33.2C25.4444 33.7 24.5444 35.7 23.4444 34.5C24.4444 33.9 24.9444 32.8 25.6444 31.9C25.5444 31.3 25.1444 31 25.0444 30.4C24.6444 30.4 24.2444 30.4 23.8444 30.4C24.3444 31.8 22.2444 35.3 20.9444 34.4C21.5444 33 22.3444 31.9 22.9444 30.5C22.6444 30.3 22.4444 30 21.8444 30ZM44.6444 30.6C44.2444 32.4 40.6444 33.4 42.3444 35.5C43.5444 34 45.0444 32.6 45.9444 30.8C45.5444 30.7 45.2444 30.5 44.6444 30.6ZM15.6444 37.7C17.6444 37.6 17.9444 35.8 17.4444 34.1C15.1444 32.8 14.5444 36.6 15.6444 37.7ZM49.5444 35.4C49.5444 36.1 50.2444 36.4 50.2444 36.9C52.8444 37.9 52.9444 34.9 51.5444 34.1C50.5444 33.8 49.5444 34.5 49.5444 35.4ZM28.0444 34.7C26.7444 35.7 25.9444 37.4 24.0444 37.6C22.2444 37.8 21.1444 36.3 19.4444 35.8C18.8444 36.3 18.5444 37 18.1444 37.7C18.4444 38 18.6444 37.6 18.9444 37.8C20.3444 39.4 22.6444 41 25.3444 40.7C26.9444 40.5 28.1444 39.2 29.6444 39.2C30.3444 41.1 29.5444 43.3 29.6444 45.4C29.6444 46.4 29.7444 47.5 29.8444 48.4C31.0444 48.4 32.7444 48.5 33.6444 48.4C34.4444 45.5 34.3444 41.1 33.8444 38.8C33.4444 39.5 33.3444 40.6 32.3444 40.8C30.6444 39.5 29.5444 37.7 29.0444 35.2C28.8444 35 28.6444 34.7 28.0444 34.7ZM36.2444 36.6C36.3444 37.6 36.6444 38.4 37.5444 38.7C38.4444 38 38.7444 35.7 40.2444 36.4C40.1444 37.9 38.6444 39 38.1444 40.5C37.1444 41.1 36.5444 40.4 35.8444 40C35.7444 43.2 35.7444 45.5 35.7444 48.7C36.4444 49 37.5444 48.8 38.4444 48.8C38.7444 47.5 39.2444 45 39.1444 43.4C39.1444 43 38.8444 42.5 38.9444 42.2C39.4444 40.2 42.1444 42.4 43.6444 42.8C45.6444 43.3 46.9444 42.7 47.9444 41.7C49.9444 41.6 50.3444 39.9 50.9444 38.4C50.7444 37.9 50.2444 37.8 49.7444 37.6C48.3444 38 47.1444 39.6 45.2444 39.6C43.8444 39.6 42.9444 38.8 41.8444 38.2C41.1444 37.3 40.8444 35.9 39.8444 35.3C39.0444 36 37.7444 36.4 36.2444 36.6ZM12.1444 40.2C12.8444 38.8 14.1444 36.9 13.4444 35.4C12.7444 36.9 11.5444 38.4 12.1444 40.2ZM32.4444 38.6C33.2444 38.2 33.3444 37.2 33.9444 36.6C32.8444 36.5 32.1444 36.1 31.0444 36C31.4444 36.9 31.6444 38 32.4444 38.6ZM17.2444 38.7C16.3444 41.6 14.6444 43.9 13.1444 46.2C12.7444 46.2 12.3444 46 12.3444 45.6C13.4444 43.6 14.7444 41.7 15.5444 39.4C15.3444 39.1 14.8444 39 14.3444 38.8C13.6444 39.7 13.3444 40.5 12.7444 41.5C12.4444 42 11.9444 42.4 11.8444 42.8C11.3444 44.5 12.2444 46.4 11.6444 48.4C14.0444 48.8 15.8444 48.5 18.4444 48.5C18.4444 48 18.1444 47.9 18.0444 47.4C18.9444 45.3 20.1444 43.5 20.8444 41.2C20.5444 41 20.1444 40.8 19.6444 40.7C18.2444 42.9 16.9444 45.2 15.5444 47.4C15.1444 47.3 14.5444 47.6 14.4444 47.2C15.6444 44.6 17.0444 42.2 18.4444 39.8C18.0444 39.4 18.0444 38.5 17.5444 38.3C17.5444 38.5 17.2444 38.4 17.2444 38.7ZM25.9444 42.2C25.6444 42.7 25.4444 43.4 25.0444 43.7C25.1444 44.1 24.8444 44.2 24.9444 44.5C24.0444 45.2 23.7444 48.2 22.2444 47.2C22.8444 45.6 23.4444 43.9 24.1444 42.4C23.6444 42.1 23.0444 41.9 22.2444 41.9C21.4444 44.3 19.6444 46.3 18.9444 48.5C22.0444 48.4 24.8444 48.3 27.9444 48.4C28.0444 47.4 28.4444 45.8 28.0444 45.4C27.0444 46 26.8444 48.5 25.3444 47.7C25.4444 47.3 25.5444 46.9 25.9444 46.8C26.3444 44.7 27.6444 43.5 28.2444 41.6C27.4444 41.7 26.8444 42.1 25.9444 42.2ZM40.2444 47.3C41.2444 46.6 41.6444 45.3 42.2444 44.1C41.7444 43.9 41.4444 43.5 40.7444 43.5C40.5444 44.8 40.3444 46 40.2444 47.3Z" fill="#232178"/>
<path fill-rule="evenodd" clip-rule="evenodd" d="M18.4444 54.4999C17.1444 56.3999 14.8444 57.1999 12.8444 58.3999C10.8444 57.3999 11.9444 54.4999 11.6444 52.2999C13.2444 50.6999 14.4444 52.3999 16.1444 53.0999C17.1444 53.4999 18.1444 53.6999 18.4444 54.4999Z" fill="#232178"/>
</svg>
