<svg width="72" height="71" fill="none" xmlns="http://www.w3.org/2000/svg"><path fill-rule="evenodd" clip-rule="evenodd" d="M50.833 34.3c.6 1 1.7 1.4 2.4 2.4-.4 1.9-2.3 2.3-4.7 2.2-.3.2-.2.7-.6.8-.4 0-.5-.2-.8-.3-.1-.3.3-.2.3-.4-.1-.3-.4-.4-.4-.8 0-.3.4-.2.6-.3-.1-1.6.1-3-.5-4.1.3-1.2-.2-2.6-.3-3.7.3-.2.5-.3 1-.2.5.9.4 2.1.6 3.4 1.3.4 3.5.2 4.1-.7-.4-1.5-1.9-2.1-3-2.8-.2-.1-.2-.4-.4-.5-.8-.5-1.9-.4-2.2-1.4.9-1.4 3.1 1 4.1 1.7.6.4 1 .9 1.7 1.4.4.3.8.4.9 1 .2 1.3-1.1 2.1-2.8 2.3zm-2.3 3.6c1.1-.1 2.6-.1 3.3-.8-.7-1.2-1.9-1.9-3.2-2.5 0 .9-.2 2.3-.1 3.3zm12.5-7.6c-.6.1-.7-.3-1.1-.4-.7 0-1.1.4-1.8.5-.8 1.4-2.3 2.7-1.9 4.8.3 1.7 2.3 2.3 4 1.8.6.8-.9 1.2-1.7 1.3-2 .1-4-1.5-3.7-4.1.1-1.3 1.5-3.5 2.7-4.5.6-.5 1.5-.9 2.8-.8.6.3 1.4.9.7 1.4zm-45.1-1.3c.2.2.3.5.4.9-.5.2-.6.6-1.3.4-.2-.8-.1-1.5.9-1.3zm10.5 1.5c0 .5-.2.7-.5.9-.6 0-.7-.4-1-.7.2-.6 1.1-.7 1.5-.2zm-4.9 2c-1.1.3-1.5-.8-1.1-1.8 1-1 1.2 1 1.1 1.8zm3 .7c.4 3.1-1.3 6.2-5.1 4.9-.6-.2-1.3-.8-1.8-1.2-.6-.5-1.5-.9-1.6-1.3-.1-.5 0-1.2.5-1.3.2-.3-.5-.4-.4-.9.2-.1.4-.5.7-.5 1.9.3 5.5.3 7.7.3zm-6.9 1.1c-1.4 1.4 1.9 3.1 3.7 2.9 1.4-.1 2-1.3 2-2.7-1.3-.3-3.9 0-5.7-.2z" fill="#232178"/><path fill-rule="evenodd" clip-rule="evenodd" d="M31.033 28.1c.7-.2 1.2-.5 2-.5.2-2.4.2-5.2.4-7.5.5-.3.8-.8 1.1-1.3 3.9-.1 7.8-.1 11.6-.3 3-.1 6.2-.4 9.3-.2 1.4.1 3-.3 4.7-.4 1.9 0 3.8.4 5.3.2.7-.1 1.3-.3 2.1.2.1.6.4.9.8 1.2-.4 3.2-.5 7.3-.4 10.8 0 .2-.3.2-.3.5.3 4.2-.7 9.2-1 13.9-.1 1.7 0 3.1-.7 4.4-.5.3-.9-.1-1.4-.1-.4.1-.6.4-1 .5-.6-.2-1.1.2-1.7.3-.8.1-1.7-.2-2.7-.2-1.8 0-4 .3-5.5.3-.8 0-1.6-.4-2.4-.4-6.9-.4-14.2 1.7-20.5-.2-.1-1.1.2-2.1.1-3.7.4-.4.7-1.1.3-1.8-1.4.1-2.8.3-3.6 1.1-.9 2.7-1 6.2-1.6 9.3-2.1.5-4.5.4-6.8.4-1.6 0-3.7.7-4.8-.3.3-1.6-.1-3.7-.2-5.8-1.3.8-1.2 3-1.8 4.5-.3-.1-.5-.1-.8-.2-.1.5-1 1.5-1.8 2s-2.2 1.1-3.3 1.1c-1-.1-2.7-1.1-2.3-2.5.4-1.3 2.4-2.2 3.3-3 0-.6.3-.9.1-1.6 1.2-1.3 1-3.9 2.4-5 0-.5-.6-.5-.5-1.1 1.5-.5 2.5-1.5 3.6-2.4-.7-1-1.6-1.6-2.5-2.5-.7-1.3-1.2-2.7-1.7-4.2-1 .1-1.8.5-2.8.3-4.1-.7-1.4-9.1 2.8-6.6.7-.3.4-1.5.9-2 .3-2.2 1.5-3.4 2.5-4.9.7-.6 1.4-.8 2.2-1.3 1.5-1 2.2-3 4.5-3.1.2 0 .2.3.4.4 3-.3 4.9.8 6.6 2.3 2.6 2.2 4.6 5.7 5.1 9.4zm-7-8.5c.1.1.5.2.5 0-.1-.1-.4-.3-.5 0zm39.1.2c0-.4-.5-.3-.9-.3-.1.5.5.3.9.3zm-43.9.4c.3.1.6-.4.3-.6-.1.3-.6.4-.3.6zm31.4-.2c.2.2.5 0 .7-.1 0-.2-.1-.3-.2-.3-.1.2-.5.2-.5.4zm2.9-.3c-.1.7-.9.7-1 1.4 1-.2 1.4-.9 2.5-1.1-.1-.7-.9-.2-1.5-.3zm-5.2.5c.3-.1.6-.2.7-.4-.3-.2-.7.1-.7.4zm-13.7.2c.6-.4 1.5.1 2-.5h-2v.5zm-16.4.9c.3-.2.5-.5.7-.8-.4.1-.9.5-.7.8zm46.3.3c.3-.2.4.1.8-.1 0-.4.2-.6-.2-.7 0 .5-.4.5-.6.8zm-50.1-.1c.2 0 .6-.4.4-.6-.1.2-.3.4-.4.6zm44.2 0c.7-.2 1.5 0 2-.2-.5-.5-1.8-.5-2 .2zm-19.8-.1c-.2-.1-.3-.3-.5-.4-.1.3-.4.2-.5.5.5 0 .9 0 1-.1zm-12.5.1h.4c0-.2-.1-.4-.4-.4v.4zm13.1.1c.5-.1.6.2 1.1.1v-.5c-.4-.2-1.1-.1-1.1.4zm4.7.3h.8c0-.2.3-.6-.1-.6-.2.2-.6.3-.7.6zm-3-.1c.2 0 .8.2 1.1 0 .1-.7-1-.3-1.1 0zm-22.1.9c.2 0 .6-.4.4-.6-.1.2-.3.4-.4.6zm27.4.5c-4.2.1-8-.9-12.1-.4.2 1.4-.2 3.4-.7 5 2.3.9 2.1 5.6-.5 6.1.3.1.5.1.5.5 1.7-1.1 3.7-2.7 6.3-2.3.9-1.2.8-7.1 2.9-5.3-.5 1 .1 1.7.4 2.8.6 2 1.1 5.2 1.5 7 .1.6.1 1.1.2 1.7.2.9 1.3 3.3-.3 3.1-.8-.1-.4-1.1-.5-1.7-.1-.8-.5-1.8-.6-2.5-.9.1-2.4.4-3.5.6-.4 1.2-.6 2.6-.8 4-.5 0-.5.5-1.1.4 0-.2-.3-.2-.4-.4 0-.8.4-1.1.6-2 .2-.9.3-1.9.3-2.6-.8-.1-.3.7-.3 1.1-.7.3-.6 1-1 1.6-.8 1.2-2.2 1.9-2.9 3-.6.3-1.4.4-2 .8.2.8-.2 1.6.2 2.3 5.8 0 11.6.1 16.5-.6 4.1-.6 8.8-.5 13-.9.4.7 1.1 1 1.8 1.4 1.9-7.2.7-14.4 1.3-23.2-6.5-.5-12.8.3-18.8.5zm-25.3.6c-2.5 2.2-5.2 4.3-9.2 5-.5 3.6.6 7.1 2.7 9.2 1.2 1.3 4.1 3.2 6.4 2.9 1.6-.2 4.8-1.7 5.7-2.4 1.7-1.3 2.6-3 3.2-5.1 0-.3-.5-.1-.5-.5s.6-.1.8-.3c.1-1.3.1-2.2-.1-3.4-2-.4-3.6-1.2-4.6-2.5-.2 0-.4.2-.6 0-.1-.6-.4-1-.6-1.2-1.4 1.4-2.8 3-4.7 3.9-.5-.2-.7-.6-.6-1.1.1-.4.6-.3 1-.6 1-.8 1.3-2.6 1.5-4-.3.2-.3 0-.4.1zm-7.8 2.3c-.2.5-1 .4-1.2 1 1.3.3 3.2-.4 3.9-1.3-.6-.7-1.7 1.6-2.7.3zm15.6 1.7c.3 0 .3.3.7.2.2-.3.1-.9-.2-1-.1.3-.4.4-.5.8zm-22.8 1.1c-1.7 2-.4 4.8 2.7 4.4.1-1.4 0-2.9.2-4.4-1-.8-2.1-1-2.9 0zm28.2 2.2c.2-1.7-2-2.8-3-1.3.2.9-.1 1.9-.1 2.9 1.5.4 2.7-.4 3.1-1.6zm6.5 2.3c.4 1.2-.4 2-.5 2.9.8 0 2.4.1 3.1-.3-.4-2.1-.6-4.5-1.6-6.2-.2 1.3-.2 2.9-1 3.6zm-1.1.3c-.8-1.2-2.7.2-3.5.6-.7.4-1.4.6-1.5 1.3 1 2.1 6.4.3 5-1.9zm-8.8.2c-.5 2-1.9 3.6-2.7 5 1.4.2 3.7.2 4.2-1.1.5-1.2-.3-2.5.1-3.8-.6 0-1.1 0-1.6-.1zm3.1 3.4c.3 0 .4-.2.4-.5h-.4v.5zm-1 1.5c.6.4.6-.5 1.1-.6-.1-.3 0-.6-.2-.8-.3.5-.6.9-.9 1.4zm-18.7.7c-.4-.3-.5-.8-1.1-.9.2.4.7 1 1.1.9zm12.4.8c.6-.1.7.2.9.4.6-.5-.9-1.3-.9-.4zm2.2.2c0 .2 0 .5.2.5.1-.3.3-.4.4-.6-.2-.1-.5-.1-.6.1zm-15.5 1.4c.4.2 1 0 1.4-.1.1-1-1.3-.3-1.4.1zm11.1.7c.4-.3.4-.9.6-1.3-.7 0-1.6 1.2-.6 1.3zm9-.5c.2 0 .4-.1.4-.4-.2 0-.4.2-.4.4zm-17.7.3c.5-.2.6-.1 1.1-.2-.2-.5-1.2-.4-1.1.2zm2.7-.2c.1 1 .8 2.2 1.5 2.9 1.1-.9 2.6-1.7 2.8-3.1-1.2.3-2.8.2-4.3.2zm-1 1.4c.1-.4-.2-.4-.1-.8h-.3c0 .4 0 .8.4.8zm8.4-.2h.4c0-.3 0-.4-.3-.4-.1.1-.2.2-.1.4zm-5.3 3.6c.6-.2.6-1 1.3-1.2 0-.7 1.2-1.2.8-1.7-.7 1.1-1.8 1.6-2.1 2.9zm-6.8-.5c.5-.4 1.2-1.2 1-2-.6.4-1.3 1.2-1 2zm44.1.4c.7.3 1.4-.2 1.7-.6-.6-.4-1.9-.4-1.7.6zm-33.4 3c-.2.1-.6.9-.2 1 .7-1.6 1.3-2.7 1.7-4.5 0-.1 0-.2-.2-.2-.7.9-1 2.3-1.3 3.7zm30.1-3.6c.4.4 0 .6-.2.9.8-.2 1.6-.4 2.1-1-.7 0-1.2.1-1.9.1zm-4 .3c-.1.3.2.2.2.4.3-.1.8 0 .9-.4h-1.1zm-18.3 1.4c.1-.3.4-.4.5-.8-.2 0-.4-.2-.7-.1-.2.3-.1.8.2.9zm4.1-.1c.5 0 .8-.2.6-.6-.1-.2-.5-.1-.8-.1 0 .3.2.4.2.7zm2.2-.2c.2 0 .4-.1.4-.4-.2 0-.2-.2-.5-.1 0 .3.1.4.1.5zm-3.5-.4h-.7c-.1.5.7.3.7 0zm-13 1.2c.2-.2.1-.6.3-.8-.5-.1-.8.7-.3.8zm-6.3 1.3c.3-.5.2-1.5-.2-1.9 0 .3-.2 1.6.2 1.9zm35.1-1.5c.1.2.6 0 .8.1 0-.2 0-.5-.2-.5 0 .3-.6 0-.6.4zm-6.9.3h.8c.1-.3.1-.2 0-.5-.4.1-.7.1-.8.5zm10.4-.1h.9v-.4c-.4 0-.7.2-.9.4zm-45.4 2c.4.9 1.5.9 2.6 1.1 0-.2.2-.4.1-.7-.5.3-.9-.1-1-.6 0-.2.3-.5 0-.3-.5.3-1.2.4-1.7.5zm-1 1.8c-.4-.1-.4-.5-1-.5-.4.7-1.9 1-1.7 2.2.3 1.3 3.4.8 4.3 0 .3-.3.6-.9.7-1.4-.7-.3-1.3-.2-2.3-.3zm13.5.7c.2-.2.2-.7.4-1-.2-.1-.3-.2-.6-.2-.2.4-.5 1.2.2 1.2z" fill="#232178"/></svg>