<svg width="26" height="25" fill="none" xmlns="http://www.w3.org/2000/svg"><g clip-path="url(#clip0_13_4071)" fill="#fff"><path d="M22.657 3.32H3.723C2.125 3.32.825 4.635.825 6.25v12.5c0 1.615 1.3 2.93 2.898 2.93h18.934c1.598 0 2.898-1.315 2.898-2.93V6.25c0-1.615-1.3-2.93-2.898-2.93zm.966 15.43a.972.972 0 01-.966.977H3.723a.972.972 0 01-.966-.977V6.25c0-.538.434-.977.966-.977h18.934c.532 0 .966.439.966.977v12.5z"/><path d="M23.46 4.538l-10.27 7.721L2.922 4.538 1.768 6.105l11.422 8.589 11.422-8.589-1.153-1.567z"/></g><defs><clipPath id="clip0_13_4071"><path fill="#fff" transform="translate(.825)" d="M0 0h24.73v25H0z"/></clipPath></defs></svg>