<svg width="64" height="64" fill="none" xmlns="http://www.w3.org/2000/svg"><path fill-rule="evenodd" clip-rule="evenodd" d="M31.515 18.673c-.2-.497-.4-1.094-.3-1.79.1-1.792 1.4-4.577 2.799-3.383-.5 1.193-2.1 2.387-1.4 4.178 1.2-.597 2.7-1.492 2.9-2.786.399-1.99-1.4-2.984-2.9-2.288-.5.2-.5.896-1.099.796-.2-1.393 2.399-2.786 3.898-1.89.6.398 1.2 1.592 1.3 2.188.1 2.09-2.4 4.776-3.699 5.174-.7.298-1 .1-1.499-.2zm-4.898-5.472c.4.1.7.299.9.498.1 1.094.3 2.188.4 3.283 1.2-.2 1.2-3.184 2.998-2.786-.9 1.99-1.799 3.98-3.398 5.173-1.3-.895-.6-3.78-1.5-5.073-.899 1.293-1.599 2.586-1.799 4.576-.3 0-.4.199-.5.398-.3-.1-.5-.398-.699-.498.5-2.487 1.8-4.079 2.299-6.566.8-.298 1.4 0 1.3.995zm3.199 24.076c.5 2.288-3.099 1.99-3.199 4.278 0 .398.2.895.4 1.294.8 1.392 2.599 2.586 3.399 3.979-.9 1.194-2.5 1.592-4.698 1.99-1.4.199-2.999-.1-3.998.298-1 .398-1.5 1.592-2.8 1.89-4.997-.696-1.698-6.367-.499-8.854-.5-.497-2.099.398-2.199-.696.8-.995 3.299-.796 4.798-.796 0 .398-.3.497-.2.995-1.2.696-1.8 1.99-2.299 3.382 2.599-.199 4.598-1.79 6.897-2.587-.5-2.188 2.099-3.88 3.898-4.874.1-.1.2-.299.5-.299zm-4.298 5.77c-1.9 1.393-3.998 2.488-6.597 3.184-.3-.1-.3-.497-.6-.597-.5.895-1.2 2.885-.1 3.78.4.3 1.8.598 2.2-.198.1-.398-.7-.299-.4-.498.899.1 1.399-.199 1.898-.597.3.498 1.2.299 1.9.299 1.499-.697 3.998-.498 5.197-1.692-1-1.492-2.499-2.387-3.498-3.68z" fill="#232178"/><path fill-rule="evenodd" clip-rule="evenodd" d="M12.324 40.859c1 0 1.8-.995 2.599-1.493.8-.497 1.799-1.193 2.699-.696-1.2 1.691-3.799 1.99-5.098 3.681.1 2.786 0 6.268-.2 9.252-1.6.398-1.2-2.686-1.1-4.377.1-2.09-.1-3.98.1-5.571-1.099-.896-1.999-1.89-2.598-3.184 1.699-1.592 2.399 1.691 3.598 2.388z" fill="#232178"/><path fill-rule="evenodd" clip-rule="evenodd" d="M25.918 30.213c5.997-.596 9.395 3.781 11.394 8.059.4-.895.8-1.691.8-2.885 3.498-4.378 7.097-9.053 10.295-13.928 1.8-2.686 3.399-5.373 5.697-7.362.3-1.99 2.1-.299 3.099.298 2.399 1.492 4.898 3.681 6.797 4.974-.6 2.587-2.5 4.477-4.198 6.567-2.799 3.482-5.798 6.168-8.496 9.849-.6.895-1.4 1.691-2.1 2.487-.699.895-1.499 1.691-1.998 2.487-.3.398-.2.995-.6 1.294-.5.298-1.7.298-2.399.398-1.999.398-3.998 1.193-5.897 1.99.1 1.989-1 2.884-1.7 4.277.8-.199 2.4-1.393 2.9-2.586.4-.796.2-2.19 1.599-1.493-.2 2.388-2.1 3.78-3.799 5.273-2.598 2.388-5.797 4.676-9.395 6.069-1.1.398-2.4.497-3.399 1.094-.3-.1-.6-.1-.9-.1-6.296 1.99-12.993.896-17.691-1.69-.7-.398-1.5-.995-2.199-1.592C2.128 52.598.33 51.404.03 49.116c-.3-3.581 1.699-7.163 3.498-9.451.7-.895 1.3-1.79 2-2.388 1.299-1.094 2.698-1.79 4.197-2.686 1.5-.895 2.699-1.89 3.998-2.388 1.6-.696 3.599-.696 5.398-.995 1.899-.397 3.598-.895 5.197-.895.6-.696.5-1.393.8-2.288.6-1.492 1.9-2.487 1.7-4.278-1.6-.299-3.1-.796-4.299-1.592-1.3-1.79-2.199-4.079-1.899-6.666.3-2.487 2.2-4.079 3.498-5.372 1.3-.796 2.8-1.194 4.199-1.99 1.299-.796 2.498-1.691 4.098-1.99 2.798-.497 5.797.398 7.396 1.99 1 .995 2.399 2.885 2.299 4.875-.1 2.189-1.4 3.482-2.699 4.676.1 1.194-.8 1.393-1 2.288-2.398 2.09-5.697 3.084-9.595 3.681-1.2 1.99-2.499 3.78-2.898 6.567zm9.195-20.892c-5.097-1.393-9.595.896-11.494 4.278-.7 1.194-1.6 3.78-1.1 5.273.2.597.9 1.393 1.3 1.691 1.599 1.294 4.298 1.791 7.096 1.592 3.499-.298 7.797-3.78 9.596-6.467 1.599-2.288.4-4.974-1-6.566-1.699-1.89-5.797-2.587-8.596-1.094 1.2.1 2.4-.1 3.499.1 1.499.198 3.298 1.094 3.298 2.387-1.1 0-1.7-.995-2.599-1.194zm19.591 5.273c-.5 1.492-1.7 2.288-2.599 3.383-1.1 1.392-1.999 3.183-2.998 4.675-3.099 4.577-6.797 8.954-9.696 13.53 2-.994 2.799 1.692 4.098 2.389 1.7-1.194 2.799-2.985 4.098-4.676.9-1.194 1.5-2.488 2.5-3.483 2.998-3.183 5.397-6.864 7.796-10.545.7-.299.6-1.194 1.699-.995.1.199.2.298.2.398-3.399 4.576-6.497 9.55-10.395 13.63-1.1 2.785-3.399 4.377-4.598 7.063.5.2.7.697 1.3.796 1.498-1.79 3.198-3.382 4.297-5.571.8-.299 1.1-1.095 1.6-1.691.3-.398.799-.796 1.099-1.095.7-.796 1.2-1.89 1.999-2.586.2-.2.5-.2.6-.299.3-.298.4-.796.7-1.094 2.298-2.388 4.697-4.975 6.396-7.96a35.592 35.592 0 00-5.297-4.078c-3.498 4.178-6.497 9.053-9.596 13.63-1.899 1.392-2.998 3.482-4.797 4.974-.2.796-.7 1.79-1.7 1.293.2-1.293.8-1.79 1.6-2.686.4-.497.9-.995 1.399-1.492 1.899-2.09 3.398-3.78 4.998-6.168.8-1.095 1.699-2.19 2.399-3.184.9-1.293 1.499-2.587 2.298-3.78.2-.299.7-.498.9-.797.5-.795.8-1.79 1.5-2.487-.8-.497-1.1-1.094-1.8-1.094zM24.618 31.606c-2.099 0-4.997.896-6.797 1.393-.6.2-1.299.2-1.899.398-.3.2-.6.498-.9.697-.399.198-.799.198-1.299.398-3.098 1.392-6.297 3.78-7.996 6.466-1.899 2.786-3.698 6.765-.8 9.75 2.6 2.09 5.798 4.278 10.296 4.378 3.898 0 9.495-1.194 12.494-2.687.5-.199.9-.696 1.4-.895.599-.299 1.199-.398 1.698-.597 2.899-1.592 4.898-5.074 5.198-9.153.1-1.89-.4-3.581-1-5.074-1.2-.597-1.599-1.99-2.798-2.487-.5-.1-.3.299-.8.199-1.9-1.592-4.098-2.786-6.797-2.786zm13.894 7.462c1.3.696 2.499 1.492 2.998 2.985a7.75 7.75 0 012.7-.796c0-.498-.5-.498-.9-.597-.9-1.691-2.5-2.786-3.999-3.98-.3.697-.5 1.592-.8 2.388zM1.729 47.325c0 .2.3.498.3.796.4 2.786 1.999 5.074 4.498 5.373-1.7-1.692-3.898-2.985-4.398-5.671-.5-2.786 1.6-5.074 2.599-7.362.1 0 .1-.1-.1-.1-1.2 1.692-3.099 4.278-2.899 6.964zm33.284 1.493c1.1-.995 2.2-1.99 2.3-3.98-.3-.1-.5-.199-.7-.398-.6 1.194-1.3 3.184-1.6 4.378zm-4.797 4.576c.7 0 1-.398 1.599-.497 0-.1 0-.299-.1-.299-.5.299-1.2.398-1.5.796zm-2.5.597c-.799.796-2.998.895-3.498 1.691 1.6-.398 3.699-.497 4.598-1.69h-1.1zm-8.595 2.587c.9 0 1.999.199 2.199-.498-.8-.199-1.6.299-2.2.498z" fill="#232178"/></svg>