<svg width="1107" height="653" fill="none" xmlns="http://www.w3.org/2000/svg"><path fill-rule="evenodd" clip-rule="evenodd" d="M185.298 652.661s-203.842-15.602-170.292-118.81C48.556 430.642 67.6 424.696 6.497 303.573-54.606 182.449 330.554 47.327 521.491 171.585 712.432 295.843 816.635 214.747 950.84 286.7c134.2 71.951 45.826 281.085-103.111 365.961H185.298z" fill="#FEEED3"/><path fill-rule="evenodd" clip-rule="evenodd" d="M571.764 651.364h10.251v-51.619h-10.251v51.619zm77.116 0h10.248v-51.619H648.88v51.619zm94.332 0h10.251v-51.619h-10.251v51.619z" fill="#222831"/><path fill-rule="evenodd" clip-rule="evenodd" d="M553.546 588.566l79.67 32.166 131.295-19.295-80.074-28.451-130.891 15.58z" fill="#222831"/><path fill-rule="evenodd" clip-rule="evenodd" d="M694.576 579.494l-141.03 9.072V397.141c0-8.103 6.35-14.733 14.114-14.733l112.806-6.396c7.761 0 14.11 6.629 14.11 14.733v188.749z" fill="#222831"/><path fill-rule="evenodd" clip-rule="evenodd" d="M626.534 258.727s-30.686 3.525-32.199 38.205l64.231-21.958s-7.166-15.909-32.032-16.247z" fill="#FCAA23"/><path fill-rule="evenodd" clip-rule="evenodd" d="M626.534 258.726l-.068-.614c-.055.006-7.813.897-15.802 6.195-3.996 2.65-8.047 6.409-11.19 11.707-3.143 5.297-5.373 12.132-5.755 20.893l-.04.906 65.732-22.47-.284-.624c-.028-.062-1.864-4.121-6.864-8.221-4.994-4.103-13.159-8.225-25.72-8.392h-.04l-.037.006.068.614-.006.621c12.299.171 20.152 4.175 24.958 8.113 2.4 1.968 4.036 3.926 5.072 5.385.517.729.881 1.331 1.115 1.75.12.211.203.373.259.481.027.053.046.096.058.121l.013.028.003.006.56-.257-.197-.587-64.234 21.958.2.587.616.028c.373-8.579 2.545-15.192 5.58-20.307 4.553-7.672 11.07-11.999 16.464-14.413a40.063 40.063 0 016.843-2.356 29.208 29.208 0 012.588-.515l.136-.019.033-.006h.01l-.071-.618-.006.621.006-.621zm-157.051 193.56h116.943a.62.62 0 000-1.241H469.483a.62.62 0 000 1.241z" fill="#000"/><path fill-rule="evenodd" clip-rule="evenodd" d="M609.348 310.473s-6.158-5.86-14.751 2.62c-12.333 12.166-2.052 55.278 21.936 36.923l-7.185-39.543z" fill="#fff"/><path fill-rule="evenodd" clip-rule="evenodd" d="M609.348 310.473l.425-.453c-.03-.028-.591-.556-1.605-1.087a9.315 9.315 0 00-4.313-1.055c-1.322 0-2.825.279-4.455 1.015-1.633.739-3.389 1.934-5.235 3.755-1.876 1.853-3.228 4.349-4.116 7.195-.887 2.846-1.309 6.045-1.309 9.329 0 6.127 1.473 12.545 4.279 17.492 1.405 2.474 3.146 4.581 5.229 6.08 2.076 1.499 4.504 2.38 7.203 2.377 3.432 0 7.271-1.409 11.455-4.612l.302-.229-7.29-40.121-.145-.139-.425.453-.604.112 7.182 39.543.607-.112-.373-.494c-4.039 3.089-7.619 4.358-10.709 4.358-2.434 0-4.585-.779-6.489-2.148-2.849-2.048-5.111-5.45-6.645-9.472-1.537-4.019-2.348-8.644-2.345-13.088-.003-3.175.413-6.257 1.254-8.957.841-2.7 2.111-5.015 3.802-6.682 1.759-1.735 3.395-2.837 4.874-3.507 1.479-.667 2.801-.906 3.953-.906a8.064 8.064 0 014.751 1.542c.111.084.197.152.249.199l.059.053.012.009.422-.45-.604.112.604-.112z" fill="#000"/><path fill-rule="evenodd" clip-rule="evenodd" d="M577.738 456.569s11.732-31.737 11.871-30.865l5.502 34.208-17.373-3.343zm132.265-27.876s2.033-7.626 4.846-13.16c.616-1.21 15.177 15.972 15.177 15.972l-20.023-2.812zm60.836-6.658s-41.149-67.661-66.604-61.411c-25.452 6.248-27.972 4.469-27.972 4.469l-7.56-16.244-52.416 20.816s-11.985-1.524-24.768-2.284c-12.783-.764-22.358 14.723-27.399 33.761-5.04 19.041-35.785 69.813-4.788 74.127 30.998 4.317 192.534-1.27 204.966-13.455 12.432-12.184 6.541-39.779 6.541-39.779z" fill="#fff"/><path fill-rule="evenodd" clip-rule="evenodd" d="M577.738 456.569l.576.218c.003-.004.179-.485.493-1.329a2630.415 2630.415 0 016.359-16.989 669.57 669.57 0 013.374-8.768 93.948 93.948 0 011.115-2.74c.136-.326.25-.574.327-.733a1.35 1.35 0 01.077-.142v-.003l-.287-.193.247.242c.037-.037.04-.046.04-.049l-.287-.193.247.242-.395-.388.296.469c.055-.034.08-.062.099-.081l-.395-.388.296.469-.32-.509v.602a.586.586 0 00.32-.093l-.32-.509v.602-.611l-.305.53a.582.582 0 00.305.081v-.611l-.305.53.301-.53-.462.394a.604.604 0 00.161.136l.301-.53-.462.394.456-.388-.56.211a.694.694 0 00.104.177l.456-.388-.56.211.536-.202-.564.096c.006.025.012.059.028.106l.536-.202-.564.096v-.003l5.361 33.333-16.508-3.178-.117.611.576.218-.576-.218-.114.609 18.236 3.51-5.641-35.083v-.003c-.013-.056-.022-.137-.105-.264a.662.662 0 00-.206-.19.642.642 0 00-.308-.083.66.66 0 00-.259.055c-.12.059-.164.109-.201.143-.067.072-.092.112-.123.159a3.945 3.945 0 00-.154.285c-.206.428-.533 1.201-.961 2.263-1.491 3.693-4.175 10.785-6.489 16.958-2.31 6.173-4.251 11.424-4.251 11.424l-.256.689.718.137.114-.609zm132.265-27.876l.594.161.025-.084c.114-.422.656-2.383 1.497-4.879.841-2.495 1.981-5.527 3.278-8.072v-.003l-.453-.233.244.45a.528.528 0 00.209-.217l-.453-.233.244.45-.228-.422v.484a.499.499 0 00.228-.062l-.228-.422v.484-.31l-.08.301a.27.27 0 00.08.009v-.31l-.08.301.015-.059-.021.056.006.003.015-.059-.021.056c.015.003.16.08.338.214.342.251.845.698 1.436 1.272 1.042 1.009 2.376 2.412 3.784 3.948a371.85 371.85 0 016.149 6.924 488.775 488.775 0 012.144 2.492c.265.308.472.553.614.717l.218.258.469-.404.086-.614-20.023-2.812-.086.615.594.161-.594-.161-.087.614 21.632 3.038-1.054-1.244s-3.398-4.013-6.988-8.026c-1.796-2.008-3.635-4.019-5.129-5.534-.749-.76-1.408-1.393-1.948-1.853a6.763 6.763 0 00-.724-.555 1.988 1.988 0 00-.326-.183 1.061 1.061 0 00-.419-.096.71.71 0 00-.659.4v-.003c-1.43 2.815-2.65 6.123-3.516 8.74-.863 2.616-1.374 4.531-1.377 4.54l-.182.68.69.096.087-.614zm60.836-6.658l.524-.326c-.01-.012-9.416-15.483-22.041-30.977-6.313-7.749-13.427-15.502-20.597-21.34-3.586-2.921-7.184-5.36-10.715-7.079-3.531-1.717-7-2.716-10.318-2.719-1.223 0-2.428.136-3.602.425-16.199 3.979-23.082 4.689-25.861 4.689-.789 0-1.242-.058-1.473-.105a1.03 1.03 0 01-.194-.053h-.006l-.151.342.213-.305c-.037-.027-.062-.037-.062-.037l-.151.342.213-.305-.355.506.558-.26-7.804-16.775-52.955 21.03.225.577.077-.618c-.01 0-12.001-1.524-24.808-2.287a15.476 15.476 0 00-.937-.028c-3.21 0-6.223.993-8.981 2.762-4.14 2.657-7.73 7.033-10.758 12.486-3.029 5.453-5.497 11.992-7.354 19.004-.832 3.15-2.404 7.243-4.289 11.865-2.828 6.939-6.368 15.08-9.203 23.165-2.834 8.088-4.973 16.114-4.976 22.892 0 2.191.225 4.252.731 6.145.761 2.837 2.165 5.295 4.378 7.164 2.212 1.868 5.203 3.131 9.082 3.671 3.549.494 8.744.854 15.208 1.093 6.464.242 14.191.36 22.78.36 29.328 0 68.696-1.372 101.952-3.92 16.63-1.273 31.727-2.843 43.287-4.687 5.783-.922 10.678-1.912 14.452-2.973 1.889-.531 3.494-1.08 4.8-1.654 1.304-.577 2.308-1.17 2.998-1.844 3.297-3.234 5.321-7.483 6.529-11.986 1.204-4.506 1.593-9.277 1.593-13.594 0-8.184-1.402-14.751-1.408-14.776l-.022-.106-.055-.09-.524.326-.604.131s.006.021.015.071c.148.72 1.368 6.906 1.365 14.444.003 4.243-.385 8.914-1.553 13.271-1.164 4.358-3.108 8.396-6.195 11.418-.512.503-1.405 1.059-2.635 1.596-2.304 1.018-5.764 2.005-10.136 2.933-7.653 1.623-18.103 3.075-30.212 4.339-36.33 3.786-87.606 5.859-123.647 5.859-8.577 0-16.292-.118-22.734-.357-6.439-.239-11.615-.602-15.084-1.086-2.474-.345-4.523-.987-6.202-1.878-2.52-1.334-4.227-3.215-5.333-5.555-1.103-2.34-1.593-5.155-1.593-8.315-.003-4.345.924-9.32 2.381-14.531 2.182-7.821 5.546-16.163 8.689-23.755 3.142-7.598 6.06-14.429 7.357-19.317 2.443-9.242 5.968-17.628 10.37-23.659 2.2-3.016 4.616-5.44 7.21-7.101 2.597-1.663 5.364-2.57 8.321-2.57.287 0 .573.01.863.025 6.381.382 12.564.95 17.152 1.428a389.323 389.323 0 017.576.853l.157.022 52.024-20.661 7.385 15.869.133.093c.102.069.262.146.604.218.342.068.872.13 1.716.13 2.973-.003 9.902-.736 26.154-4.724a13.784 13.784 0 013.309-.391c3.069 0 6.365.931 9.782 2.595 5.977 2.908 12.299 8.044 18.387 14.118 9.135 9.112 17.755 20.323 24.087 29.249a329.55 329.55 0 017.557 11.132c.9 1.388 1.602 2.496 2.08 3.256.237.382.422.677.542.875.123.196.185.298.185.298l.527-.323-.604.131.604-.131z" fill="#000"/><path fill-rule="evenodd" clip-rule="evenodd" d="M633.487 370.963s10.744 4.428 21.832.816c11.088-3.61 3.583 12.749 11.199 11.961 7.616-.791 22.975-12.638 22.975-19.068 0 0-4.914.99-4.828-.621.33-6.353-9.15-18.855-17.361-16.139-10.753 3.56-33.817 23.051-33.817 23.051z" fill="#FCAA23"/><path fill-rule="evenodd" clip-rule="evenodd" d="M632.988 367.946c-3.232 13.215-14.317 18.209-19.012 17.895-1.719-.112-2.579-.934-1.892-2.328 2.579-5.192-.989-24.639-.989-24.639s18.286-6.245 21.804 2.144c.709 1.673.823 3.927.089 6.928z" fill="#222831"/><path fill-rule="evenodd" clip-rule="evenodd" d="M598.143 307.639s-1.26 9.643 3.947 25.552c5.21 15.909-2.94 17.772 16.717 31.651 19.656 13.876 35.28 2.539 49.56-11.341 14.28-13.876-4.033-53.31-8.063-54.493-2.24-.658-17.102-23.507-31.977-22.566-11.917.751-23.683 24.196-30.184 31.197z" fill="#fff"/><path fill-rule="evenodd" clip-rule="evenodd" d="M598.143 307.639l-.613-.083c-.003.024-.139 1.08-.139 3.041 0 4.057.583 12.002 4.113 22.79 1.285 3.926 1.744 6.968 2.018 9.575.207 1.955.305 3.668.573 5.325.201 1.245.503 2.458 1.02 3.691.78 1.852 2.043 3.733 4.138 5.875 2.098 2.144 5.034 4.556 9.2 7.495 6.402 4.525 12.443 6.434 18.162 6.434 6.026 0 11.658-2.114 16.976-5.391 5.32-3.278 10.345-7.722 15.204-12.443 2.03-1.97 3.42-4.435 4.298-7.188.881-2.759 1.251-5.81 1.254-9-.006-8.519-2.65-18.044-5.66-25.58-1.503-3.768-3.102-7.033-4.52-9.432-.708-1.201-1.371-2.182-1.968-2.911a7.775 7.775 0 00-.86-.909c-.277-.236-.542-.419-.862-.519l-.019.059.025-.056-.006-.003-.019.059.025-.056a.657.657 0 01-.133-.08 5.9 5.9 0 01-.61-.543c-.48-.475-1.121-1.186-1.882-2.052-2.671-3.038-6.865-8.001-11.85-12.216-2.495-2.107-5.191-4.031-8.013-5.437-2.822-1.403-5.774-2.291-8.772-2.291-.311 0-.622.01-.936.028-1.587.103-3.152.577-4.683 1.332-2.681 1.322-5.269 3.491-7.749 6.089-3.721 3.895-7.206 8.758-10.299 13.221-1.544 2.232-2.992 4.361-4.314 6.211-1.318 1.852-2.517 3.429-3.549 4.54l-.135.146-.028.196.613.083.45.422c1.673-1.806 3.629-4.593 5.838-7.79 3.306-4.795 7.163-10.502 11.276-15.055 2.058-2.278 4.178-4.265 6.307-5.702 2.132-1.437 4.264-2.321 6.35-2.455.286-.015.573-.024.859-.024 3.488-.003 7.016 1.319 10.38 3.352 5.047 3.044 9.705 7.672 13.291 11.607 1.797 1.968 3.325 3.762 4.517 5.102a32.283 32.283 0 001.537 1.648c.216.211.41.385.595.528.188.143.351.258.588.329.047.012.207.096.404.27.379.323.897.937 1.47 1.772 1.013 1.465 2.221 3.616 3.456 6.22 1.855 3.904 3.772 8.836 5.223 14.062 1.448 5.227 2.431 10.751 2.431 15.835 0 3.091-.364 6.021-1.196 8.619-.829 2.6-2.12 4.866-3.98 6.676-4.828 4.692-9.798 9.078-14.992 12.277-5.195 3.197-10.599 5.208-16.332 5.208-5.441-.003-11.209-1.8-17.454-6.207-4.892-3.454-8.035-6.148-10.065-8.467-1.522-1.738-2.422-3.255-2.995-4.748-.428-1.117-.678-2.232-.85-3.423-.524-3.579-.352-7.905-2.576-14.699-3.488-10.652-4.051-18.46-4.051-22.399 0-.953.034-1.679.064-2.163.019-.242.034-.425.047-.543l.012-.134.006-.031v-.006l-.61-.081.45.422-.45-.422z" fill="#000"/><path fill-rule="evenodd" clip-rule="evenodd" d="M600.284 323.465s22.263-13.746 44.058-6.943c0 0 6.048 2.355 8.401 7.265 2.351 4.907 5.709 7.809 8.149 20.577 2.268 11.872.694 14.407.694 14.407s12.213-10.319 12.798-12.557c.588-2.238 6.858-44.729-12.894-60.142-19.752-15.412-33.36-13.892-33.36-13.892l-30.323 40.323 2.477 10.962zm6.972 45.924s.866 33.631 1.387 38.184c.52 4.556 19.909 35.114 45.669 27.529 25.759-7.586 3.697 19.99-20.048 13.705-23.745-6.285-26.915-31.533-26.804-37.175.114-5.639-1.987-42.433-1.987-42.433l1.783.19z" fill="#FCAA23"/><path fill-rule="evenodd" clip-rule="evenodd" d="M686.68 365.801c-5.598 11.846-22.513 19.63-19.891 14.556 2.628-5.081 0-40.499 0-40.499s4.982-2.505 7.986-8.821c1.51-3.165 2.526-7.293 2.16-12.544-.151-2.167-6.489 6.018-8.402 3.249-5.524-1.064-8.248-5.617-14.656-8.761l-.003-.004c-4.273-2.101-10.186-3.572-19.656-2.97 0 0-5.164-8.125-7.348-28.09 0 0-2.604 14.981 2.606 29.201 0 0-28.184.454-31.469 12.089 0 0-18.177-11.002 7.697-44.509 2.323-3.014 4.775-5.413 7.323-7.272 2.548-1.856 5.191-3.172 7.89-4.01a42.057 42.057 0 015.034-1.412c13.587-2.917 25.335 1.412 25.335 1.412 30.514 4.969 38.496 42.948 38.727 70.595.114 13.153-1.528 23.969-3.333 27.79z" fill="#222831"/><path fill-rule="evenodd" clip-rule="evenodd" d="M677.252 299.226s-6.159-5.86-14.754 2.619c-12.33 12.166-2.052 55.282 21.939 36.924l-7.185-39.543z" fill="#fff"/><path fill-rule="evenodd" clip-rule="evenodd" d="M677.252 299.225l.422-.45c-.03-.028-.588-.558-1.602-1.086a9.313 9.313 0 00-4.313-1.055c-1.322-.003-2.828.276-4.458 1.015-1.63.738-3.386 1.93-5.235 3.752-1.873 1.853-3.225 4.351-4.113 7.197-.887 2.846-1.312 6.046-1.312 9.33.003 6.126 1.476 12.545 4.282 17.492 1.402 2.47 3.146 4.578 5.229 6.077 2.076 1.499 4.504 2.38 7.203 2.38 3.432 0 7.271-1.412 11.455-4.612l.302-.233-7.29-40.117-.148-.14-.422.45-.607.112 7.185 39.543.607-.112-.373-.493c-4.042 3.091-7.622 4.361-10.709 4.361-2.434-.004-4.588-.779-6.489-2.148-2.849-2.049-5.111-5.453-6.648-9.475-1.535-4.017-2.345-8.644-2.345-13.085 0-3.175.413-6.257 1.257-8.957.841-2.704 2.111-5.016 3.799-6.682 1.762-1.738 3.398-2.84 4.877-3.507 1.479-.671 2.801-.907 3.953-.907 1.59 0 2.865.456 3.746.916.441.229.78.459 1.005.627.111.084.194.152.249.198l.059.05.012.012.422-.453-.607.112.607-.112z" fill="#000"/><path fill-rule="evenodd" clip-rule="evenodd" d="M697.663 362.939s-.989 35.891-1.716 39.981c-.727 4.091 14.336 11.552 14.798 20.9l-1.469 4.485-15.094-23.96s2.662-28.544 2.243-41.198l1.238-.208zm-6.506-46.274c2.301 11.045-1.467 21.191-8.418 22.662-6.953 1.471-14.455-6.291-16.757-17.337-2.304-11.045 1.467-21.191 8.417-22.662 6.954-1.471 14.456 6.291 16.758 17.337z" fill="#FCAA23"/><path fill-rule="evenodd" clip-rule="evenodd" d="M691.157 316.665l-.604.127c.449 2.157.662 4.28.662 6.3.003 4.069-.866 7.737-2.381 10.493-.758 1.378-1.673 2.53-2.718 3.399-1.047.872-2.215 1.465-3.503 1.738a7.83 7.83 0 01-1.59.164c-1.488 0-2.997-.428-4.47-1.235-2.206-1.21-4.317-3.286-6.06-5.999-1.747-2.713-3.131-6.058-3.907-9.789a30.93 30.93 0 01-.665-6.3c0-4.069.868-7.737 2.384-10.493.755-1.378 1.673-2.53 2.718-3.399 1.044-.872 2.215-1.462 3.503-1.735a7.603 7.603 0 011.586-.167c1.491 0 3.001.428 4.474 1.235 2.206 1.21 4.313 3.287 6.06 5.999 1.747 2.713 3.13 6.058 3.907 9.789l1.207-.255c-1.078-5.167-3.268-9.636-6.041-12.842-1.387-1.602-2.921-2.89-4.545-3.781-1.62-.89-3.336-1.387-5.062-1.387-.613 0-1.229.065-1.839.193-1.494.316-2.853 1.008-4.036 1.995-1.775 1.477-3.155 3.607-4.101 6.152-.943 2.544-1.448 5.512-1.448 8.696 0 2.11.225 4.314.69 6.555 1.079 5.167 3.269 9.636 6.042 12.842 1.386 1.602 2.921 2.89 4.544 3.781 1.621.89 3.334 1.387 5.059 1.387.617 0 1.233-.062 1.843-.193 1.494-.316 2.853-1.008 4.036-1.992 1.774-1.48 3.155-3.61 4.097-6.154.943-2.545 1.448-5.513 1.448-8.697 0-2.11-.221-4.314-.687-6.555l-.603.128z" fill="#000"/><path fill-rule="evenodd" clip-rule="evenodd" d="M679.384 299.769s-16.56-48.317-52.85-41.043c0 0 32.938 3.588 44.572 42.095 0 0 2.899 12.827 9.19 8.656 0 0 2.576-1.67-.912-9.708z" fill="#FCE4E2"/><path fill-rule="evenodd" clip-rule="evenodd" d="M679.384 299.769l.583-.202c-.013-.034-3.608-10.524-11.144-21.055-3.768-5.264-8.528-10.543-14.336-14.516-5.807-3.972-12.681-6.638-20.617-6.635-2.391 0-4.878.239-7.456.757l-3.941.792 3.996.434.019.003c.443.05 8.635 1.083 18.109 6.791a54.973 54.973 0 0114.379 12.523c4.585 5.655 8.698 12.939 11.538 22.34l.592-.18-.601.136c.006.025.545 2.427 1.691 4.873.577 1.223 1.297 2.461 2.219 3.429.459.482.97.897 1.546 1.195a4.084 4.084 0 001.892.478c.89 0 1.827-.301 2.782-.937l-.339-.518.333.521c.071-.046.382-.27.665-.794.284-.519.533-1.326.533-2.505 0-1.598-.449-3.88-1.879-7.179l-.564.249.583-.202-.583.202-.564.248c1.384 3.194 1.775 5.323 1.775 6.682 0 1.006-.209 1.589-.382 1.909-.086.161-.169.26-.219.31l-.049.047v.003l.166.22-.148-.233-.018.013.166.22-.148-.233-.006.003c-.804.531-1.494.73-2.104.733a2.875 2.875 0 01-1.328-.338c-.742-.385-1.445-1.102-2.052-1.99-.918-1.328-1.62-3.01-2.083-4.351a27.615 27.615 0 01-.517-1.673 21.813 21.813 0 01-.126-.487c-.016-.056-.025-.1-.031-.127l-.009-.035v-.006l-.007-.022-.006-.021c-2.93-9.702-7.212-17.225-11.985-23.038a56.203 56.203 0 00-21.905-16.285c-6.473-2.688-11.162-3.203-11.202-3.206l-.068.614.12.612a36.571 36.571 0 017.216-.736c7.659 0 14.274 2.561 19.924 6.422 8.473 5.791 14.745 14.534 18.877 21.83a94.553 94.553 0 014.618 9.305 78.488 78.488 0 011.14 2.8c.126.329.219.583.28.757l.071.192.022.062.006.025.012.022.564-.248zm-62.041 32.488s.028.159.074.444c.17 1.006.592 3.597.974 6.518.379 2.92.715 6.173.715 8.469 0 .655-.028 1.233-.086 1.692a4.537 4.537 0 00-.034.531c0 .341.049.645.154.915.154.407.45.717.798.891.348.177.736.239 1.134.239.548 0 1.127-.118 1.7-.283 1.717-.502 3.387-1.468 3.402-1.477a.469.469 0 00.173-.636.459.459 0 00-.632-.171l-.028.016c-.157.087-.903.499-1.821.887-.459.193-.961.379-1.448.516-.487.133-.958.217-1.346.217-.201 0-.379-.022-.521-.062-.219-.065-.354-.159-.459-.301-.102-.146-.182-.376-.182-.751 0-.125.006-.261.028-.413a15.09 15.09 0 00.092-1.81c0-2.721-.447-6.604-.89-9.826-.444-3.215-.885-5.76-.888-5.766a.459.459 0 00-.533-.376.465.465 0 00-.376.537zm9.043 28.249c.018.003.191.028.502.028.801 0 2.533-.158 4.97-1.213 2.44-1.055 5.585-3.005 9.236-6.586a.468.468 0 00.007-.658.46.46 0 00-.654-.009c-3.577 3.513-6.63 5.394-8.953 6.399-2.326 1.003-3.922 1.133-4.606 1.136-.132 0-.231-.006-.293-.012-.03 0-.055-.003-.067-.003l-.013-.003-.006.043.006-.043-.006.043.006-.043a.461.461 0 00-.523.394.469.469 0 00.394.527z" fill="#000"/><path fill-rule="evenodd" clip-rule="evenodd" d="M592.095 464.099s-9.643-9.379 3.192-38.547c6.495-14.761 10.192-20.149 10.192-20.149s10.472 43.212 41.216 32.889c30.745-10.326 46.369-35.204 46.369-35.204s18.815 20.325 18.815 34.351c0 0-29.596-1.518-38.148 11.43-8.556 12.945-82.224 36.893-81.636 15.23z" fill="#FCAA23"/><path fill-rule="evenodd" clip-rule="evenodd" d="M592.095 464.099l.428-.444-.194.202.194-.202-.194.202.194-.202c-.003-.003-.822-.816-1.642-2.716-.822-1.896-1.648-4.879-1.648-9.236 0-5.894 1.513-14.305 6.615-25.9 3.244-7.368 5.783-12.39 7.511-15.564a80.244 80.244 0 011.966-3.439 33.543 33.543 0 01.622-.987l.031-.047.006-.012-.505-.351-.598.146c.009.034 2.104 8.699 7.206 17.411 2.554 4.355 5.86 8.724 10.06 12.027 4.199 3.299 9.31 5.521 15.386 5.518 2.902 0 6.02-.506 9.357-1.626 15.484-5.199 27.149-14.057 34.947-21.614 7.794-7.557 11.729-13.814 11.747-13.845l-.52-.332-.45.425s.015.019.052.056c.539.59 5.213 5.748 9.739 12.43 2.261 3.342 4.486 7.064 6.137 10.772 1.652 3.709 2.724 7.406 2.721 10.668h.616l.034-.621c-.009 0-1.085-.056-2.884-.056-3.839 0-10.965.248-18.042 1.825-3.54.788-7.068 1.906-10.17 3.51-3.103 1.602-5.789 3.687-7.601 6.428-.696 1.055-1.922 2.262-3.58 3.519-2.899 2.204-7.101 4.581-12.056 6.89-7.434 3.467-16.569 6.788-25.618 9.24-9.045 2.448-18.017 4.025-25.091 4.025-4.332.003-7.945-.599-10.398-1.881-1.226-.642-2.16-1.44-2.791-2.414-.632-.975-.974-2.129-.977-3.548 0-.08.003-.158.006-.239l.006-.273-.194-.189-.428.444-.616-.016c-.003.09-.006.183-.006.273 0 1.623.406 3.045 1.177 4.227.576.888 1.349 1.639 2.276 2.26 1.396.928 3.134 1.573 5.146 1.989 2.012.419 4.301.608 6.799.608 5.524 0 12.087-.931 18.936-2.464 10.269-2.3 21.172-5.959 30.101-9.919 4.464-1.98 8.435-4.032 11.593-6.036 1.581-1.003 2.955-1.993 4.092-2.961 1.136-.969 2.033-1.915 2.649-2.846 1.655-2.508 4.159-4.479 7.136-6.012 4.461-2.306 9.957-3.616 15.047-4.336 5.087-.723 9.767-.863 12.604-.863a69.3 69.3 0 012.773.053h.046l.647.034v-.651c0-3.647-1.211-7.617-2.995-11.543-2.68-5.887-6.67-11.682-9.994-16.018-3.324-4.332-5.983-7.203-5.993-7.212l-.542-.587-.428.677-.009.015c-.222.348-4.218 6.567-11.917 13.951-7.7 7.387-19.096 15.937-34.116 20.98-3.225 1.084-6.208 1.561-8.968 1.561-5.774-.003-10.592-2.091-14.629-5.257-6.047-4.745-10.278-11.937-12.97-17.948a75.088 75.088 0 01-2.943-7.666 59.583 59.583 0 01-.862-2.927l-.04-.158-.013-.053-.326-1.341-.78 1.136c-.024.041-3.74 5.46-10.247 20.251-5.154 11.713-6.722 20.295-6.722 26.403 0 4.587.887 7.777 1.793 9.832.902 2.052 1.824 2.964 1.873 3.011l.428-.447-.616-.016.616.016z" fill="#000"/><path fill-rule="evenodd" clip-rule="evenodd" d="M715.632 414.878s12.477 12.412 17.046 19.125c4.569 6.713 10.562-.621 10.562-.621s-16.345-19.245-18.199-22.678c-2.41-4.457-6.439-3.721-9.409 4.174z" fill="#FCAA23"/><path fill-rule="evenodd" clip-rule="evenodd" d="M603.328 367.244s1.76 20.444 2.151 38.159l-2.151-38.159z" fill="#FEF9E6"/><path fill-rule="evenodd" clip-rule="evenodd" d="M602.715 367.297s.028.317.077.909c.339 4.15 1.729 21.735 2.071 37.209a.618.618 0 00.628.609.622.622 0 00.604-.636c-.394-17.741-2.15-38.19-2.15-38.2a.623.623 0 00-.669-.565.624.624 0 00-.561.674z" fill="#000"/><path fill-rule="evenodd" clip-rule="evenodd" d="M585.098 514.905s-6.95 34.493-5.428 56.535c.255 3.721 6.155 3.547 7.418.043l185.02-25.555s-37.63-17.855-37.378-46.203c.219-24.711-149.632 15.18-149.632 15.18z" fill="#FCAA23"/><path fill-rule="evenodd" clip-rule="evenodd" d="M585.098 514.905l-.604-.124c-.003.006-1.414 7.023-2.828 16.756-1.414 9.736-2.831 22.182-2.831 33.069 0 2.381.067 4.69.218 6.878.037.543.179 1.036.41 1.458.345.64.878 1.112 1.491 1.41.61.301 1.301.44 2 .44a5.41 5.41 0 002.776-.769c.844-.513 1.565-1.295 1.938-2.328l-.579-.211.083.614 187.081-25.84-1.88-.891-.025-.013c-.539-.257-9.837-4.782-18.966-12.665-4.566-3.939-9.085-8.718-12.453-14.206-3.367-5.49-5.586-11.679-5.586-18.475v-.277l.003-.062a5.85 5.85 0 00-.431-2.247c-.499-1.216-1.414-2.225-2.64-3.038-1.843-1.223-4.391-2.045-7.53-2.582-3.14-.534-6.874-.773-11.073-.773-10.361 0-23.569 1.459-37.572 3.64-42.006 6.549-91.15 19.634-91.159 19.634l-.37.099-.077.379.604.124.157.599.989-.261c4.868-1.275 27.094-7.02 52.928-12.448 12.915-2.713 26.73-5.345 39.725-7.297 12.993-1.955 25.166-3.228 34.775-3.228 6.328-.003 11.544.559 15.1 1.8 1.777.618 3.13 1.406 4.014 2.331.441.463.77.956.989 1.496a4.65 4.65 0 01.339 1.772v.05c-.003.096-.003.192-.003.289 0 7.188 2.385 13.696 5.934 19.394 5.33 8.55 13.273 15.304 19.884 19.938 6.612 4.63 11.896 7.138 11.917 7.15l.262-.561-.083-.618-185.389 25.608-.127.351c-.268.738-.773 1.3-1.417 1.688a4.143 4.143 0 01-2.138.593c-.715.003-1.377-.196-1.842-.55a1.994 1.994 0 01-.567-.651 2.294 2.294 0 01-.262-.95 99.77 99.77 0 01-.216-6.794c0-10.782 1.408-23.19 2.816-32.889a387.86 387.86 0 011.938-11.986c.265-1.48.487-2.657.641-3.464l.175-.921c.044-.211.065-.317.065-.32l-.604-.121.157.599-.157-.599z" fill="#000"/><path fill-rule="evenodd" clip-rule="evenodd" d="M509.153 505.479H1068.1l-100.297-53.813H586.426" fill="#FEEED3"/><path fill-rule="evenodd" clip-rule="evenodd" d="M509.153 506.1h561.417l-102.613-55.055H586.426a.618.618 0 00-.616.621c0 .344.274.62.616.62h381.223l97.981 52.572H509.153a.62.62 0 000 1.242z" fill="#000"/><path fill-rule="evenodd" clip-rule="evenodd" d="M858.202 481.485s-11.92 12.182 2.194 14.55c14.11 2.368 108.627 9.894 114.795-13.33 6.165-23.228-49.057-15.95-49.057-15.95l-67.932 14.73zm-164.02-9.413s39.036 9.211 57.934 9.702c18.902.49 93.248 1.145 127.767-4.373 34.518-5.515-60.985-13.337-60.985-13.337l-124.716 8.008z" fill="#FCAA23"/><path fill-rule="evenodd" clip-rule="evenodd" d="M553.118 480.939l-23.689 16.756 72.408-2.709v4.739h16.634v-4.739l74.593 1.691-2.283-23.268-.74-9.31-47.545 6.347-47.616 1.185-34.358 3.793-7.404 5.515z" fill="#000"/><path fill-rule="evenodd" clip-rule="evenodd" d="M690.041 493.176l-2.015-28.807-6.134.819-5.965 16.725 14.114 11.263z" fill="#FCAA23"/><path fill-rule="evenodd" clip-rule="evenodd" d="M690.041 493.176l.613-.043-2.061-29.466-7.154.956-6.242 17.498 15.556 12.415-.099-1.403-.613.043.382-.487-13.765-10.987 5.687-15.949 5.111-.683 1.969 28.15.616-.044.382-.487-.382.487z" fill="#000"/><path fill-rule="evenodd" clip-rule="evenodd" d="M535.902 495.945l30.15-24.06 10.161.339-25.23 16.331-15.081 7.39z" fill="#FCAA23"/><path fill-rule="evenodd" clip-rule="evenodd" d="M535.902 495.945l.382.484 29.974-23.916 7.958.266-23.535 15.233-15.05 7.374.271.559.382.484-.382-.484.268.558 15.115-7.405 26.924-17.43-12.36-.412-34.76 27.737 5.081-2.49-.268-.558z" fill="#000"/><path fill-rule="evenodd" clip-rule="evenodd" d="M620.655 473.409s8.735-7.87 24.697-7.364c15.959.509 36.54-.857 36.54-.857l-.758 18.966-9.298 4.063s-50.343-1.198-55.047 3.715c-4.702 4.916-7.527 6.778-10.229 5.763-2.705-1.018 6.199-25.555 14.095-24.286z" fill="#fff"/><path fill-rule="evenodd" clip-rule="evenodd" d="M620.655 473.41l.41.462-.028-.034.028.034-.028-.034.028.034c.028-.028 2.061-1.837 5.919-3.637 3.857-1.801 9.538-3.591 16.889-3.591.481 0 .965.006 1.458.021 2.511.081 5.132.115 7.77.115 14.184 0 28.822-.971 28.831-.974l-.04-.618-.616-.025-.739 18.579-8.944 3.904.243.571.015-.621c-.003 0-5.413-.13-12.856-.13-7.635.003-17.405.136-25.677.686-4.138.276-7.899.655-10.851 1.176-1.476.261-2.748.556-3.777.903a9.46 9.46 0 00-1.359.565c-.391.208-.721.431-.983.708-1.925 2.011-3.527 3.494-4.892 4.453-.684.481-1.307.829-1.877 1.056-.57.223-1.087.329-1.577.329-.416 0-.816-.075-1.229-.23l-.043.124.077-.106-.034-.018-.043.124.077-.106-.034.044.043-.037-.009-.007-.034.044.043-.037a.554.554 0 01-.08-.214 2.806 2.806 0 01-.056-.615c0-.58.105-1.393.311-2.349.358-1.676 1.02-3.79 1.898-6.003 1.319-3.321 3.131-6.877 5.13-9.562.998-1.344 2.046-2.467 3.078-3.237a6.79 6.79 0 011.519-.878 3.844 3.844 0 011.439-.298c.169 0 .335.012.502.04l.289.047.219-.196-.41-.462.096-.615a4.385 4.385 0 00-.696-.056c-.98 0-1.935.323-2.847.857-1.596.94-3.09 2.535-4.471 4.46-2.07 2.892-3.879 6.545-5.182 9.922-.65 1.691-1.174 3.308-1.537 4.733-.364 1.428-.567 2.65-.57 3.597 0 .425.04.798.154 1.136.058.171.142.332.262.481.12.149.286.279.48.351a4.717 4.717 0 001.658.307c.665 0 1.34-.143 2.027-.416 1.032-.41 2.098-1.099 3.275-2.064 1.177-.965 2.465-2.21 3.928-3.74a2.73 2.73 0 01.672-.468c.585-.311 1.467-.615 2.567-.885 1.928-.478 4.532-.866 7.532-1.173 9.009-.922 21.619-1.13 30.992-1.13 3.715 0 6.922.034 9.199.065 1.14.016 2.049.035 2.671.044.623.012.956.022.959.022l.135.003 9.776-4.271.798-20.046-.681.043-.656.044c-2.986.186-15.731.928-28.095.928-2.628 0-5.238-.034-7.73-.112a39.842 39.842 0 00-1.498-.025c-7.61 0-13.506 1.872-17.502 3.749-3.996 1.881-6.091 3.762-6.128 3.796l.412.463.096-.615-.096.615z" fill="#000"/><path fill-rule="evenodd" clip-rule="evenodd" d="M550.983 488.555l26.662-22.51s7.238 2.197 23.018-.857c15.778-3.054 19.992 8.221 19.992 8.221l-11.368 21.955s-3.417-4.779-16.018-4.441c-12.598.342-42.286-2.368-42.286-2.368z" fill="#fff"/><path fill-rule="evenodd" clip-rule="evenodd" d="M550.983 488.555l.394.475 26.663-22.507-.394-.478-.179.595c.058.019 2.637.792 8.001.792 3.728 0 8.802-.376 15.309-1.636 1.849-.357 3.528-.512 5.05-.512 2.813 0 5.099.531 6.954 1.316a14.203 14.203 0 015.742 4.423 12.81 12.81 0 011.208 1.868c.126.236.213.425.271.553l.059.142.015.034.003.007.059-.022-.059.022.059-.022-.059.022.576-.218-.548-.288-11.369 21.955.549.288.499-.363c-.052-.071-.931-1.26-3.266-2.421-2.338-1.163-6.128-2.293-11.988-2.293a62.2 62.2 0 00-1.278.015c-.734.022-1.529.031-2.376.031-6.766 0-16.736-.599-25.002-1.198a938.552 938.552 0 01-14.837-1.198l-.056.618.394.475-.394-.475-.055.618c.003 0 6.577.602 14.859 1.201 8.282.599 18.261 1.201 25.091 1.201.854 0 1.661-.009 2.409-.031.426-.009.838-.016 1.245-.016 5.706 0 9.295 1.099 11.443 2.164 1.072.533 1.787 1.061 2.227 1.446.222.192.373.347.469.453.046.05.077.09.095.112l.019.025.003.003.255-.193-.258.19.003.003.255-.193-.258.19.585.816 11.957-23.094-.095-.261c-.022-.056-.872-2.321-3.229-4.603a15.473 15.473 0 00-4.742-3.128c-2.009-.854-4.467-1.415-7.434-1.415-1.605 0-3.365.164-5.281.537-6.436 1.244-11.433 1.61-15.078 1.61-2.625 0-4.547-.189-5.811-.375a18.88 18.88 0 01-1.401-.255c-.151-.034-.262-.062-.336-.08a.57.57 0 00-.077-.022l-.019-.006h-.003l-.049.177.052-.177h-.003l-.049.177.052-.177-.32-.096-28.052 23.683 1.476.134.055-.618z" fill="#000"/><path fill-rule="evenodd" clip-rule="evenodd" d="M609.231 498.627s1.51-9.057-9.745-11.257c-11.258-2.201-48.503 1.185-48.503 1.185l-15.081 7.39 64.61-2.66c1.331-.056 2.585 1.152 2.628 2.676l-.209 2.579 6.3.087z" fill="#FCAA23"/><path fill-rule="evenodd" clip-rule="evenodd" d="M609.231 498.626l.607.103c.003-.028.077-.469.077-1.17-.003-1.307-.246-3.548-1.685-5.714-.715-1.08-1.732-2.132-3.14-3.023-1.408-.891-3.207-1.614-5.487-2.061-1.423-.279-3.216-.465-5.28-.583-2.062-.121-4.391-.171-6.877-.171-15.294 0-36.509 1.931-36.518 1.931l-.114.009-17.836 8.74 67.559-2.784h.061c.46 0 .937.214 1.301.592.366.379.61.901.625 1.481l.616-.016-.613-.052-.265 3.243 7.487.102.089-.524-.607-.103.006-.62-5.638-.078.157-1.952v-.034a3.45 3.45 0 00-.973-2.312c-.57-.59-1.347-.969-2.185-.969-.04 0-.077 0-.114.003l-61.661 2.539 12.428-6.089-.268-.559.055.618.937-.081c4.261-.369 22.171-1.843 35.471-1.843 2.468 0 4.778.049 6.806.167 2.03.118 3.78.301 5.117.565 2.154.419 3.802 1.096 5.065 1.893 1.895 1.198 2.939 2.672 3.531 4.078a9.406 9.406 0 01.718 3.607c0 .307-.019.555-.031.723-.009.084-.015.146-.022.189l-.006.044-.003.009.059.006-.059-.009v.003l.059.006-.059-.009.61.105.006-.62-.006.62z" fill="#000"/><path fill-rule="evenodd" clip-rule="evenodd" d="M609.231 498.626s-1.01-9.31 14.111-12.06 57.792-2.412 57.792-2.412l8.907 9.022h-69.823c-1.658 0-3.007 1.344-3.09 3.207l-.087 2.243h-7.81z" fill="#FCAA23"/><path fill-rule="evenodd" clip-rule="evenodd" d="M609.231 498.626l.61-.068-.357.041.36-.038-.003-.003-.357.041.36-.038-.003-.018a3.709 3.709 0 01-.009-.28c0-.388.043-1.126.308-2.048.398-1.384 1.273-3.175 3.266-4.863 1.993-1.689 5.124-3.278 10.047-4.175 2.991-.543 7.12-.971 11.794-1.3 14.018-.99 32.944-1.114 41.435-1.114 1.393 0 2.505.003 3.269.006l1.18.006.003-.621-.434.438 7.859 7.964h-68.341c-.995 0-1.91.41-2.576 1.089-.665.683-1.084 1.636-1.13 2.71l-.062 1.651h-7.219v.62l.61-.068-.61.068v.621h8.405l.105-2.84v.004c.037-.786.336-1.437.782-1.894a2.343 2.343 0 011.695-.72h71.302l-10.127-10.26-.253-.003s-1.666-.013-4.458-.013c-5.669 0-15.974.053-26.388.385-5.207.165-10.438.4-15.134.733-4.698.332-8.854.757-11.926 1.315-3.389.618-6.005 1.562-8.023 2.676-3.028 1.666-4.701 3.718-5.595 5.534-.893 1.815-1.016 3.379-1.016 4.099 0 .258.015.41.018.429l.059.555h.554v-.621z" fill="#000"/><path fill-rule="evenodd" clip-rule="evenodd" d="M694.21 362.061s1.374 14.553-1.146 41.027l1.146-41.027z" fill="#FEF9E6"/><path fill-rule="evenodd" clip-rule="evenodd" d="M693.597 362.12l.003.04c.04.447.366 4.355.366 11.416 0 6.902-.314 16.815-1.516 29.453a.617.617 0 101.227.118c1.208-12.678 1.522-22.632 1.522-29.571 0-7.573-.376-11.555-.376-11.574a.616.616 0 10-1.226.118z" fill="#000"/><path fill-rule="evenodd" clip-rule="evenodd" d="M772.718 449.505c.009 5.553-2.68 11.316-12.182 14.42-21.862 7.141-67.263-18.339-67.885-18.69l-.01-.003c-6.211 12.436-11.926 16.415-11.926 16.415-.502 3.215-3.022 5.838-3.022 5.838 1.845-.677 8.821 1.778 2.856 5.077-5.968 3.299-11.005.844-11.005.844-3.362 2.539-6.298 1.602-6.298 1.602-7.631 1.915-7.061-10.109-6.981-11.387-.096.468-.964 2.548-8.562 9.196-8.904 7.787-18.313.844-14.219 0 4.101-.848 23.289-21.493 23.964-24.202.672-2.71 13.103-11.676 19.49-17.179 6.381-5.499 9.24-4.994 16.883-3.808 7.641 1.186 74.174 7.616 74.174 7.616s4.708 6.946 4.723 14.261z" fill="#fff"/><path fill-rule="evenodd" clip-rule="evenodd" d="M772.718 449.505h-.616v.031c-.003 2.676-.647 5.348-2.412 7.744-1.772 2.393-4.69 4.534-9.345 6.055-2.603.85-5.579 1.232-8.802 1.232-5.749 0-12.268-1.213-18.809-3.051-19.623-5.512-39.396-16.604-39.784-16.824l-.031-.016-.552-.279-.274.555c-3.087 6.174-6.039 10.233-8.211 12.741-1.084 1.257-1.974 2.123-2.588 2.672-.308.276-.545.472-.702.596-.08.062-.139.108-.179.136l-.04.031-.009.007-.219.152-.04.26c-.228 1.478-.94 2.871-1.605 3.883a13.133 13.133 0 01-1.155 1.518l-.074.08-.019.019-.003.003-1.861 1.937 2.514-.919c.105-.04.318-.077.583-.077.351 0 .794.058 1.244.167.678.168 1.381.456 1.864.807.244.174.429.357.543.531.117.174.16.319.163.475a.896.896 0 01-.077.344c-.086.202-.265.456-.583.748-.317.292-.773.615-1.386.953-2.301 1.272-4.44 1.648-6.183 1.648-1.297 0-2.373-.211-3.121-.416a10.15 10.15 0 01-.86-.282c-.095-.041-.169-.069-.216-.09l-.049-.022-.012-.006-.336-.165-.302.227c-1.821 1.372-3.463 1.645-4.532 1.648a5.269 5.269 0 01-1.149-.124l-.053-.016-.009-.003-.055.18.058-.18h-.003l-.055.18.058-.18-.166-.053-.17.044c-.517.13-.986.189-1.405.189a3.725 3.725 0 01-1.414-.264c-.714-.288-1.281-.807-1.75-1.502-.702-1.04-1.14-2.477-1.383-3.907-.246-1.431-.305-2.853-.305-3.871 0-.685.025-1.188.04-1.393l-1.22-.162c-.003.022-.046.184-.237.509-.284.488-.897 1.338-2.148 2.679-1.25 1.344-3.139 3.181-5.977 5.664-3.028 2.644-6.066 3.501-8.574 3.504-1.716 0-3.186-.41-4.193-.931-.502-.258-.89-.546-1.125-.795-.12-.127-.2-.239-.243-.326a.388.388 0 01-.049-.155v-.006l-.003-.003.003.003-.003-.003.003.003.009-.015c.028-.031.169-.137.487-.199.351-.075.705-.23 1.103-.444.742-.403 1.626-1.03 2.631-1.834 1.756-1.403 3.879-3.346 6.088-5.506a185.887 185.887 0 009.578-10.124c1.371-1.57 2.551-2.995 3.423-4.14.435-.574.795-1.077 1.063-1.502a7.34 7.34 0 00.342-.587c.09-.183.16-.344.207-.521v-.003c.018-.078.08-.227.188-.407.206-.341.57-.804 1.059-1.328.86-.922 2.095-2.055 3.537-3.293 2.169-1.862 4.81-3.97 7.398-6.034 2.591-2.067 5.129-4.09 7.11-5.794 2.012-1.735 3.645-2.84 5.155-3.51 1.513-.668 2.908-.916 4.529-.916 1.83-.003 3.943.329 6.707.757.977.153 2.85.382 5.404.674 17.866 2.024 68.801 6.949 68.804 6.949l.058-.618-.508.351v.003c.058.084 1.217 1.822 2.357 4.41 1.14 2.589 2.252 6.031 2.258 9.497h.616l.616-.003c-.012-3.789-1.223-7.427-2.421-10.124-1.202-2.7-2.394-4.463-2.41-4.484l-.163-.239-.286-.028-.749-.072c-3.669-.357-20.233-1.964-36.774-3.625a4130.189 4130.189 0 01-23.181-2.374c-3.321-.351-6.239-.667-8.547-.931-2.307-.264-4.011-.475-4.886-.611-2.76-.426-4.917-.773-6.895-.773-1.747-.003-3.355.279-5.025 1.021-1.67.742-3.395 1.924-5.46 3.702-3.17 2.732-7.878 6.35-11.877 9.628-1.999 1.639-3.826 3.19-5.206 4.522-.694.664-1.273 1.272-1.716 1.819-.222.273-.407.53-.558.782-.151.251-.265.49-.33.751v-.003a1.357 1.357 0 01-.074.189 6.029 6.029 0 01-.468.785c-.413.621-1.032 1.443-1.802 2.396-2.705 3.343-7.259 8.318-11.526 12.52-2.132 2.101-4.199 4.013-5.919 5.431-.859.708-1.633 1.292-2.273 1.71-.324.208-.61.376-.854.497a2.47 2.47 0 01-.573.217c-.407.084-.752.224-1.029.463a1.3 1.3 0 00-.333.44 1.25 1.25 0 00-.117.534c0 .261.074.503.188.723.197.385.509.717.909 1.031.598.468 1.405.884 2.379 1.192a11.23 11.23 0 003.367.502c2.788.004 6.143-.974 9.382-3.808 3.814-3.336 5.952-5.537 7.163-6.983.604-.726.979-1.263 1.217-1.666.237-.407.339-.68.382-.891l-.604-.124-.616-.041c-.013.224-.04.754-.04 1.471 0 1.627.135 4.215.927 6.481.397 1.133.964 2.191 1.809 2.995.422.397.911.729 1.472.956a4.875 4.875 0 001.876.35c.533 0 1.1-.071 1.704-.223l-.151-.602-.185.593c.047.012.635.195 1.581.198 1.282 0 3.223-.347 5.271-1.896l-.369-.497-.268.559c.055.025 1.938.937 4.794.94 1.919 0 4.279-.419 6.775-1.8.902-.499 1.549-.99 1.996-1.505a3.03 3.03 0 00.511-.794 2.11 2.11 0 00.179-.835 2.04 2.04 0 00-.175-.817c-.198-.437-.515-.785-.888-1.08-.557-.437-1.244-.757-1.944-.98-.702-.221-1.414-.342-2.039-.345-.361.003-.694.04-1.005.152l.213.584.44.431c.019-.019.672-.701 1.396-1.803.721-1.105 1.519-2.629 1.793-4.37l-.607-.096.348.509c.084-.056 5.873-4.122 12.13-16.648l-.551-.276-.275.552.006.006.278-.555-.302.54c.286.161 9.19 5.158 20.959 10.124 5.885 2.483 12.488 4.956 19.096 6.812 6.609 1.856 13.217 3.098 19.139 3.098 3.318 0 6.418-.391 9.184-1.291 4.828-1.577 7.998-3.858 9.949-6.499 1.953-2.638 2.658-5.612 2.658-8.483v-.034l-.616.003z" fill="#000"/><path fill-rule="evenodd" clip-rule="evenodd" d="M662.729 461.926a60.792 60.792 0 00-.653 3.253c-.327 1.868-.654 4.214-.657 6.204.003.965.077 1.846.293 2.585.111.366.256.702.471.993.216.286.518.528.885.64a.614.614 0 00.767-.413.618.618 0 00-.407-.773.546.546 0 01-.262-.205c-.145-.186-.289-.555-.379-1.049-.092-.493-.135-1.105-.135-1.778 0-1.853.317-4.162.638-5.99.16-.916.32-1.713.437-2.278l.145-.667.04-.177.015-.059a.624.624 0 00-.459-.748.614.614 0 00-.739.462zm6.316 1.974c-.006.013-.278.819-.552 1.983-.274 1.167-.551 2.688-.551 4.159 0 .708.064 1.409.237 2.058.172.648.459 1.257.921 1.738a.615.615 0 00.872.018.625.625 0 00.016-.878c-.278-.288-.484-.695-.62-1.201-.135-.506-.197-1.105-.194-1.735-.003-1.313.256-2.762.518-3.87.129-.556.262-1.027.36-1.356.046-.168.087-.298.117-.385l.031-.1.009-.024v-.007a.622.622 0 00-.382-.788.613.613 0 00-.782.388z" fill="#000"/><path fill-rule="evenodd" clip-rule="evenodd" d="M772.718 448.767c.009 5.552-2.68 11.319-12.182 14.422-21.862 7.139-67.263-18.342-67.885-18.693l-.009-.003s1.682-3.386 4.541-2.033c2.776 1.316 50.003 16.251 75.535 6.307z" fill="#FCAA23"/><path fill-rule="evenodd" clip-rule="evenodd" d="M694.182 472.072h76.099v-8.008h-76.099v8.008z" fill="#fff"/><path fill-rule="evenodd" clip-rule="evenodd" d="M694.182 464.065v.62h75.483v6.766h-74.867v-7.386h-.616v.62-.62h-.616v8.628h77.331v-9.249h-77.331v.621h.616z" fill="#000"/><path fill-rule="evenodd" clip-rule="evenodd" d="M743.456 472.072l38.98-102.599h134.821l3.451 2.675-172.668 99.924h-4.584z" fill="#fff"/><path fill-rule="evenodd" clip-rule="evenodd" d="M743.455 472.072l.577.223 38.826-102.202h134.19l2.554 1.981-171.725 99.377h-4.422v.621l.577.223-.577-.223v.621h4.751l173.611-100.467-4.35-3.374H782.01l-39.451 103.841h.896v-.621z" fill="#000"/><path fill-rule="evenodd" clip-rule="evenodd" d="M920.708 372.148H785.427l-37.387 99.924h135.281l37.387-99.924z" fill="#fff"/><path fill-rule="evenodd" clip-rule="evenodd" d="M920.708 372.148v-.621H785.002l-37.853 101.166h136.6l37.849-101.166h-.89v.621l-.576-.217-37.236 99.52H748.933l36.922-98.682h134.853v-.621l-.576-.217.576.217z" fill="#000"/><path fill-rule="evenodd" clip-rule="evenodd" d="M553.546 588.566l79.67 32.166v19.363l-74.987-34.155a8.028 8.028 0 01-4.683-7.309v-10.065zm79.67 32.166l131.295-19.295v14.726l-131.295 23.932v-19.363zm374.404 31.647h8.74V515.634h-8.74v136.745zm-62.499 0h8.739V515.634h-8.739v136.745z" fill="#222831"/><path fill-rule="evenodd" clip-rule="evenodd" d="M390.491 651.985h141.624a.619.619 0 00.617-.621.617.617 0 00-.617-.62H390.491a.616.616 0 00-.616.62c0 .342.274.621.616.621zm151.369 0h328.447a.618.618 0 00.616-.621.616.616 0 00-.616-.62H541.86a.62.62 0 000 1.241zM884.923 653h221.457c.35 0 .62-.279.62-.62a.616.616 0 00-.62-.621H884.923a.62.62 0 000 1.241z" fill="#000"/><path fill-rule="evenodd" clip-rule="evenodd" d="M690.041 540.004s27.199 18.171 51.997 8.376c21.209-8.376 20.411-7.275 20.411-7.275s91.051-4.655 102.818 27.076c8.176 22.045-47.629 83.183-47.629 83.183h-54.683s11.094-34.695 17.265-47.134c0 0-57.065 3.048-77.612-6.853-20.549-9.9-11.476-57.373-11.476-57.373" fill="#5856D6"/><path fill-rule="evenodd" clip-rule="evenodd" d="M689.699 540.522c.022.015 4.27 2.852 10.95 5.692 6.679 2.837 15.79 5.686 25.553 5.686 5.262 0 10.713-.829 16.061-2.939 8.393-3.318 13.334-5.146 16.234-6.142 1.448-.5 2.384-.789 2.982-.953.296-.081.508-.131.653-.158.071-.013.123-.022.16-.025.037-.006.056-.006.056-.006v-.419l-.17.375c.127.053.167.04.17.044v-.419l-.17.375.241-.531-.469.342a.57.57 0 00.228.189l.241-.531-.469.342.484-.354h-.598a.605.605 0 00.114.354l.484-.354h-.598.592l-.548-.224a.597.597 0 00-.044.224h.592l-.548-.224.554.227-.496-.335a.678.678 0 00-.058.108l.554.227-.496-.335-.687 1.03 1.229-.065.213-.009c.989-.047 5.373-.23 11.818-.23 12.558 0 32.942.698 51.28 4.448 9.165 1.871 17.82 4.509 24.709 8.181 3.444 1.834 6.445 3.923 8.857 6.297 2.413 2.371 4.23 5.022 5.333 7.989.527 1.421.78 3.032.78 4.81 0 3.036-.739 6.549-2.049 10.357-2.292 6.663-6.328 14.23-11.094 21.806-7.151 11.365-15.941 22.765-22.938 31.318-3.5 4.277-6.553 7.84-8.728 10.336a354.973 354.973 0 01-2.557 2.895c-.296.335-.527.59-.684.764-.154.17-.235.257-.235.257l.453.422v-.62h-54.683v.62l.585.19.126-.391a928.717 928.717 0 016.862-20.428c1.7-4.87 3.546-9.982 5.324-14.6 1.774-4.618 3.487-8.746 4.92-11.626l.471-.956-1.057.056s-.126.009-.375.022c-1.732.084-9.311.422-19.262.422-9.24 0-20.529-.292-31.081-1.347-5.275-.528-10.364-1.248-14.918-2.213-4.55-.962-8.565-2.176-11.677-3.678-2.625-1.266-4.75-3.165-6.476-5.537-2.588-3.553-4.258-8.174-5.271-13.193-1.014-5.015-1.374-10.419-1.374-15.534 0-6.021.499-11.635.995-15.738.246-2.055.496-3.727.681-4.891.092-.581.172-1.031.225-1.338.027-.152.049-.27.061-.348.016-.077.022-.114.022-.114a.62.62 0 00-.487-.727.614.614 0 00-.721.491c-.006.025-2.006 10.49-2.009 22.665.003 6.897.641 14.342 2.675 20.773 1.016 3.215 2.384 6.179 4.208 8.687 1.824 2.511 4.11 4.562 6.938 5.925 3.251 1.564 7.345 2.796 11.958 3.774 6.919 1.465 15.004 2.358 23.1 2.889 8.094.531 16.2.695 23.151.695 11.405 0 19.696-.443 19.702-.443l-.031-.621-.551-.276c-1.559 3.144-3.414 7.653-5.327 12.665-5.731 15.031-11.973 34.55-11.976 34.553l-.258.813h55.801l.182-.202c.01-.009 12.133-13.289 24.266-29.723 6.066-8.215 12.136-17.222 16.702-25.766 2.282-4.271 4.186-8.43 5.527-12.321 1.337-3.895 2.113-7.527 2.116-10.764 0-1.893-.268-3.656-.856-5.245-1.174-3.162-3.112-5.968-5.629-8.445-4.409-4.332-10.592-7.675-17.728-10.282-10.7-3.904-23.554-6.148-35.806-7.421-12.253-1.272-23.899-1.573-32.172-1.573-7.391 0-12.086.242-12.092.242l.031.62.511.345a.628.628 0 00.108-.36.648.648 0 00-.12-.376.708.708 0 00-.198-.177.813.813 0 00-.403-.102c-.133 0-.262.019-.45.053-.323.065-.813.189-1.602.434-2.369.727-7.453 2.524-18.483 6.881-5.185 2.048-10.478 2.855-15.611 2.855-9.523.003-18.492-2.79-25.072-5.589a79.989 79.989 0 01-7.851-3.846 59.065 59.065 0 01-2.153-1.263c-.247-.152-.435-.273-.561-.354l-.139-.09-.037-.021-.009-.01a.614.614 0 00-.853.177.623.623 0 00.172.86z" fill="#000"/><path fill-rule="evenodd" clip-rule="evenodd" d="M721.288 582.992s32.258 11.17 53.091 0c20.83-11.17 20.158-13.774 25.032-12.896 0 0-12.265 13.911-19.995 33.373 0 0-47.04 1.354-59.471-2.032-10.161-2.766 1.343-18.445 1.343-18.445z" fill="#302EA7"/><path fill-rule="evenodd" clip-rule="evenodd" d="M780.793 604.453s.01-.018.025-.062c.262-.673 2.585-6.548 6.374-13.671 3.79-7.123 9.058-15.497 15.156-21.151a.626.626 0 00.037-.876.615.615 0 00-.872-.037c-6.476 6.012-11.92 14.839-15.772 22.169-3.848 7.331-6.091 13.166-6.097 13.181-.123.32.037.68.354.804a.613.613 0 00.795-.357z" fill="#000"/><path fill-rule="evenodd" clip-rule="evenodd" d="M975.734 459.394s-2.428 5.307 1.395 7.967l-18.532 24.543-91.581-1.937s-2.742-10.145.392-13.218l90.995 1.896 17.331-19.251z" fill="#fff"/><path fill-rule="evenodd" clip-rule="evenodd" d="M958.403 478.645l-91.46-1.828 29.293-23.482 83.934 1.127-21.767 24.183z" fill="#222831"/><path fill-rule="evenodd" clip-rule="evenodd" d="M977.129 467.36l-18.532 24.544-91.581-1.937s-1.879-10.565.737-13.218c0 0 .927-.655-.737 0-2.353.931-6.371 8.103-1.161 14.55l94.948 2.659 20.15-26.598h-3.824z" fill="#222831"/><path fill-rule="evenodd" clip-rule="evenodd" d="M958.12 491.385c-4.347-7.042-.357-11.998-.185-12.225h.469c-.044.05-3.883 5.621.194 12.225h-.478z" fill="#000"/><path fill-rule="evenodd" clip-rule="evenodd" d="M963.302 442.724s-2.428 5.304 1.396 7.967l-18.535 24.543-91.578-1.933s-2.742-10.149.391-13.222l90.993 1.897 17.333-19.252z" fill="#fff"/><path fill-rule="evenodd" clip-rule="evenodd" d="M945.969 461.976l-91.458-1.828 29.294-23.482 83.934 1.126-21.77 24.184z" fill="#222831"/><path fill-rule="evenodd" clip-rule="evenodd" d="M945.969 461.976l.012-.621-89.748-1.794 27.784-22.271 82.347 1.105-20.851 23.162.456.419.012-.621-.012.621.459.416 22.685-25.202-85.521-1.148-30.8 24.692 93.445 1.866.191-.208-.459-.416z" fill="#000"/><path fill-rule="evenodd" clip-rule="evenodd" d="M964.698 450.691l-18.535 24.543-91.578-1.933s-1.879-10.568.736-13.222c0 0 .928-.655-.736 0-2.354.928-6.375 8.104-1.162 14.55l94.949 2.66 20.149-26.598h-3.823z" fill="#222831"/><path fill-rule="evenodd" clip-rule="evenodd" d="M964.698 450.691l-.49-.376-18.344 24.289-91.267-1.924-.012.621.607-.112-.006-.037c-.071-.397-.638-3.818-.638-7.086 0-1.21.077-2.399.28-3.389.099-.493.231-.937.389-1.303.157-.367.345-.655.542-.857l-.438-.438.355.509a2.288 2.288 0 00.326-.285.744.744 0 00.099-.14c.034-.065.089-.155.095-.341a.676.676 0 00-.092-.335.632.632 0 00-.179-.193.615.615 0 00-.246-.108.69.69 0 00-.164-.019c-.095 0-.163.012-.24.028-.216.046-.481.137-.915.307-.502.199-.974.565-1.439 1.049-.69.733-1.346 1.754-1.842 2.983a11.338 11.338 0 00-.82 4.215c-.003 2.302.734 4.86 2.687 7.271l.175.221 95.55 2.678 21.095-27.849h-5.373l-.185.245.49.376v.621h2.578l-19.203 25.347-94.634-2.651-.016.621.478-.391c-1.778-2.203-2.406-4.447-2.409-6.489 0-1.832.517-3.504 1.21-4.774a7.556 7.556 0 011.113-1.567c.372-.397.739-.652.995-.751.268-.106.459-.174.585-.211a.946.946 0 01.133-.034l.015-.004-.028-.232v.232h.028l-.028-.232v.232-.459l-.083.453c.04.006.065.006.083.006v-.459l-.083.453.102-.562-.382.416a.56.56 0 00.28.146l.102-.562-.382.416.4-.437-.545.229a.625.625 0 00.145.208l.4-.437-.545.229.545-.226h-.588a.58.58 0 00.043.226l.545-.226h-.588.548l-.477-.279c-.022.043-.068.111-.071.279h.548l-.477-.279.326.192-.289-.248c-.006.009-.019.021-.037.056l.326.192-.289-.248.123.105-.117-.112-.006.007.123.105-.117-.112-.068.059-.034.025-.009.006v.004l.139.195-.139-.199v.004l.139.195-.139-.199-.043.035-.04.037c-.339.344-.595.766-.798 1.238-.302.705-.49 1.527-.607 2.409a21.436 21.436 0 00-.163 2.777c0 3.632.659 7.325.662 7.344l.089.499 92.398 1.952 18.723-24.794-.49-.376v.621-.621z" fill="#000"/><path fill-rule="evenodd" clip-rule="evenodd" d="M945.688 473.984c-4.347-6.198-.357-10.562-.184-10.757h.465c-.04.043-3.879 4.947.194 10.757h-.475z" fill="#000"/><path fill-rule="evenodd" clip-rule="evenodd" d="M975.734 425.781s-2.428 5.307 1.395 7.967l-18.532 24.544-91.581-1.934s-2.742-10.149.392-13.221l90.995 1.896 17.331-19.252z" fill="#fff"/><path fill-rule="evenodd" clip-rule="evenodd" d="M958.403 445.033l-91.46-1.828 29.293-23.482 83.934 1.127-21.767 24.183z" fill="#FCAA23"/><path fill-rule="evenodd" clip-rule="evenodd" d="M958.403 445.033l.013-.621-89.751-1.793 27.784-22.272 82.347 1.105-20.852 23.162.459.419.013-.621-.013.621.456.416 22.685-25.201-85.517-1.149-30.804 24.693 93.448 1.868.188-.211-.456-.416z" fill="#000"/><path fill-rule="evenodd" clip-rule="evenodd" d="M977.129 433.749l-18.532 24.543-91.581-1.934s-1.879-10.567.737-13.221c0 0 .927-.655-.737 0-2.353.928-6.371 8.103-1.161 14.55l94.948 2.66 20.15-26.598h-3.824z" fill="#FCAA23"/><path fill-rule="evenodd" clip-rule="evenodd" d="M977.129 433.748l-.49-.378-18.344 24.295-91.266-1.928-.013.621.607-.112-.006-.037c-.071-.397-.638-3.817-.638-7.085 0-1.211.081-2.399.281-3.389.098-.494.231-.938.388-1.304.157-.369.345-.658.542-.857l-.437-.437.354.509a2.281 2.281 0 00.327-.286.783.783 0 00.098-.139c.034-.066.09-.156.096-.342a.681.681 0 00-.093-.335.626.626 0 00-.178-.192.608.608 0 00-.247-.109.667.667 0 00-.163-.019c-.096 0-.163.013-.237.028-.219.047-.484.137-.918.308-.503.198-.974.564-1.439 1.049-.69.732-1.347 1.753-1.843 2.982a11.338 11.338 0 00-.819 4.215c-.003 2.303.733 4.86 2.686 7.272l.179.22 95.546 2.678 21.095-27.848h-5.373l-.185.242.49.378v.621h2.579l-19.204 25.347-94.634-2.65-.015.621.477-.392c-1.777-2.203-2.406-4.447-2.409-6.489 0-1.831.518-3.504 1.211-4.774a7.63 7.63 0 011.112-1.567c.373-.397.743-.652.995-.751a7.7 7.7 0 01.586-.211.942.942 0 01.132-.034l.019-.003-.031-.233v.233h.031l-.031-.233v.233-.46l-.083.45c.04.01.064.01.083.01v-.46l-.083.45.101-.558-.382.416c.12.108.225.133.281.142l.101-.558-.382.416.404-.438-.548.23c.033.08.089.155.144.208l.404-.438-.548.23.545-.227h-.589c0 .065.013.146.044.227l.545-.227h-.589.549l-.478-.279c-.018.04-.068.112-.071.279h.549l-.478-.279.33.192-.293-.248-.037.056.33.192-.293-.248.123.106-.117-.112-.006.006.123.106-.117-.112v.003-.003.003-.003l-.064.056-.037.028-.006.006h-.004l.136.195-.136-.195.136.195-.136-.195-.043.031-.04.04c-.339.345-.594.767-.798 1.239-.302.704-.49 1.527-.607 2.408a21.441 21.441 0 00-.163 2.778c0 3.631.659 7.324.662 7.343l.09.5 92.397 1.952 18.723-24.795-.49-.376v.621-.621z" fill="#000"/><path fill-rule="evenodd" clip-rule="evenodd" d="M958.12 457.283c-4.347-6.477-.357-11.036-.185-11.244h.469c-.041.046-3.883 5.17.194 11.244h-.478z" fill="#000"/><path fill-rule="evenodd" clip-rule="evenodd" d="M748.336 215.065h319.044V8.93H748.336v206.135z" fill="#fff"/><path fill-rule="evenodd" clip-rule="evenodd" d="M1067.38 215.065v-.621H748.952V9.551h317.808v205.514h.62v-.621.621h.61V8.309H747.719v207.377h320.271v-.621h-.61z" fill="#000"/><path fill-rule="evenodd" clip-rule="evenodd" d="M770.839 128.751h147.854V33.3H770.839v95.451z" fill="#FCAA23"/><path fill-rule="evenodd" clip-rule="evenodd" d="M936.082 65.794h44.1V33.3h-44.1v32.494z" fill="#222831"/><path fill-rule="evenodd" clip-rule="evenodd" d="M936.082 117.074h44.1V84.58h-44.1v32.494z" fill="#FCAA23"/><path fill-rule="evenodd" clip-rule="evenodd" d="M936.082 168.352h44.1v-32.493h-44.1v32.493z" fill="#222831"/><path fill-rule="evenodd" clip-rule="evenodd" d="M936.082 214.388h44.1v-27.25h-44.1v27.25z" fill="#FCAA23"/><path fill-rule="evenodd" clip-rule="evenodd" d="M1075.44 223.373v-.621H740.889V1.242h333.931v222.131h.62v-.621.621h.62V0H739.657v223.994h336.403v-.621h-.62z" fill="#5856D6"/><path fill-rule="evenodd" clip-rule="evenodd" d="M740.273 111.503h-93.664a.62.62 0 00-.616.62.62.62 0 00.616.621h93.664a.62.62 0 00.616-.621.62.62 0 00-.616-.62z" fill="#5856D6"/><path fill-rule="evenodd" clip-rule="evenodd" d="M646.609 147.029v-.621H521.141v-91.67h124.852v92.291h.616v-.621.621h.616V53.496H519.909v94.154h127.316v-.621h-.616z" fill="#5856D6"/><path fill-rule="evenodd" clip-rule="evenodd" d="M606.397 86.744c-2.354.634-4.631 1.243-6.905 1.86-3.01.816-6.017 1.64-9.027 2.457-2.338.635-4.673 1.278-7.018 1.89-.364.094-.792.132-1.149.037-4.052-1.067-8.097-2.164-12.142-3.255l-9.04-2.441c-.203-.056-.409-.103-.733-.183v.766c0 3.413.015 6.826-.009 10.24-.009 1.318.474 2.302 1.54 3.091 3.925 2.905 8.14 5.225 12.86 6.51 6.877 1.873 13.615 1.28 20.23-1.271 3.567-1.376 6.882-3.22 10.046-5.359.811-.548 1.331-1.31 1.338-2.303.021-3.984.009-7.969.009-12.039z" fill="#FCAA23"/><path fill-rule="evenodd" clip-rule="evenodd" d="M619.565 81.613c-.191-.066-.379-.148-.576-.194-5.25-1.233-10.503-2.45-15.75-3.695-6.458-1.532-12.906-3.095-19.364-4.616a3.563 3.563 0 00-1.599.013c-5.687 1.381-11.365 2.793-17.044 4.204-3.262.81-6.519 1.642-9.779 2.449-2.52.623-5.049 1.22-7.569 1.839-.324.08-.635.214-.949.323l-.006.18c.187.076.369.174.56.226 3.876 1.045 7.755 2.08 11.631 3.125 6.661 1.797 13.319 3.6 19.98 5.4.631.17 1.281.294 1.888.53 1.267.49 2.468.349 3.753-.014 5.21-1.472 10.444-2.86 15.67-4.284 3.999-1.09 7.998-2.194 12-3.284 2.147-.586 4.301-1.155 6.448-1.734.241-.065.472-.151.709-.228 0-.08 0-.16-.003-.24z" fill="#FCAA23"/><path fill-rule="evenodd" clip-rule="evenodd" d="M566.129 116.799c1.914-.002 3.485 1.512 3.488 3.361.006 1.851-1.565 3.382-3.472 3.387-1.911.006-3.476-1.511-3.482-3.371-.009-1.864 1.544-3.375 3.466-3.377zm-20.602-8.093l19.696 6.869c0 .041 0 .082.003.123-.428 0-.893.114-1.272-.017-4.523-1.557-9.03-3.152-13.544-4.734-1.898-.664-3.796-1.319-5.691-1.988-.36-.127-.529-.064-.677.328-1.039 2.778-.863 5.447.754 7.942.275.42.875.753 1.384.87 3.361.773 6.744 1.454 10.108 2.212 1.704.383 3.627.858 5.315 1.306 1.836 5.062 7.582 2.485 7.582 2.485l17.974 7.59c-2.862-2.282-2.828-5.897-1.771-9.642-1.337-.367-2.674-.722-4.008-1.105-3.525-1.012-7.05-2.023-10.562-3.072-.422-.125-.779-.474-1.164-.719.036-.071.07-.142.107-.213.965.286 1.926.578 2.893.856 3.673 1.057 7.342 2.111 11.015 3.163.653.186 1.303.37 1.959.532.419.103.499.308.379.72-.477 1.613-.758 3.253-.598 4.949.216 2.285 1.455 3.898 3.43 4.417 1.152.302 2.205-.03 3.219-.548 3.334-1.701 5.672-6.837 4.757-10.483-.351-1.401-1.137-2.5-2.646-2.656-.709-.073-1.547.125-2.173.479-.813.459-1.472 1.196-2.196 1.814.024.07.052.141.08.212.422.133.844.268 1.269.4.604.188 1.205.383 1.815.557 1.405.403 1.744 1.236 1.442 2.784-.265 1.356-1.032 2.471-2.163 3.282-1.981 1.42-4.221.22-4.464-2.375-.25-2.659 1.747-6.251 4.14-7.373.546-.255 1.162-.353 1.815-.543-1.343-.277-2.665-.521-3.974-.821a3128.1 3128.1 0 01-14.931-3.46c-.499-.117-1.087-.161-1.226-.874-.031-.158-.302-.323-.493-.385a74.696 74.696 0 00-2.942-.875c-.197-.053-.49-.072-.622.037-.481.399-.915.194-1.396.028-4.754-1.653-9.338-3.71-13.901-5.827-.712-.331-1.417-.708-2.166-.927-1.294-.38-2.474.096-3.537.794-1.386.912-2.354 2.19-3.019 3.888z" fill="#222831"/><path fill-rule="evenodd" clip-rule="evenodd" d="M619.547 118.01c-1.001-3.888-1.981-7.716-2.973-11.54-.114-.445-.117-.773.234-1.173 1.325-1.516.918-4.155-.73-5.313-.21-.148-.37-.526-.37-.798-.025-4.669-.019-9.338-.019-14.006v-.96c-.585.16-1.112.264-1.599.465-.126.052-.172.412-.175.63-.01 4.58-.013 9.162 0 13.742 0 .476-.096.777-.537 1.066-1.58 1.035-1.851 3.72-.533 5.224.336.385.382.697.259 1.168-.952 3.656-1.873 7.321-2.813 10.981-.077.293-.166.529.207.705 3.028 1.419 6.02 1.441 9.049-.191z" fill="#FCAA23"/><path fill-rule="evenodd" clip-rule="evenodd" d="M588.432 123.533c-.271 1.244-.102 2.291.656 3.194.814.972 2.212.89 3.279-.189.758-.763 1.275-1.67 1.482-2.738.04-.192.12-.429.046-.58-.191-.39-.382-.921-.709-1.055-.262-.107-.81.206-1.078.481-.308.314-.499.775-.644 1.205-.148.449-.373.529-.783.392-.721-.241-1.448-.459-2.249-.71z" fill="#081535"/><path fill-rule="evenodd" clip-rule="evenodd" d="M825.914 77.954c0-10.024 8.069-18.151 18.02-18.151 9.951 0 18.017 8.127 18.017 18.151 0 10.026-8.066 18.152-18.017 18.152-9.951 0-18.02-8.126-18.02-18.151z" fill="#fff"/><path fill-rule="evenodd" clip-rule="evenodd" d="M839.491 69.798l14.918 8.706-14.942 8.66.024-17.366z" fill="#081535"/><path fill-rule="evenodd" clip-rule="evenodd" d="M827.457 147.029h-53.334c-1.808 0-3.284-1.489-3.284-3.309v-1.251c0-1.82 1.476-3.309 3.284-3.309h53.334c1.809 0 3.285 1.489 3.285 3.309v1.251c0 1.82-1.476 3.309-3.285 3.309z" fill="#222831"/><path fill-rule="evenodd" clip-rule="evenodd" d="M881.371 157.692H771.748c-.66 0-1.199-.544-1.199-1.211v-.456c0-.667.539-1.211 1.199-1.211h109.623a1.21 1.21 0 011.201 1.211v.456a1.21 1.21 0 01-1.201 1.211zm-26.882 12.1h-82.741c-.66 0-1.199-.546-1.199-1.21v-.456c0-.668.539-1.211 1.199-1.211h82.741c.663 0 1.202.543 1.202 1.211v.456a1.21 1.21 0 01-1.202 1.21zm-32.368 8.83h-50.373c-.66 0-1.199-.546-1.199-1.21v-.46c0-.664.539-1.207 1.199-1.207h50.373c.662 0 1.202.543 1.202 1.207v.46c0 .664-.54 1.21-1.202 1.21zm27.553 8.827h-77.926c-.66 0-1.199-.543-1.199-1.211v-.456c0-.664.539-1.21 1.199-1.21h77.926c.659 0 1.201.546 1.201 1.21v.456a1.21 1.21 0 01-1.201 1.211zm-17.583 8.83h-60.343a1.21 1.21 0 01-1.199-1.211v-.456c0-.667.539-1.21 1.199-1.21h60.343c.659 0 1.198.543 1.198 1.21v.456a1.21 1.21 0 01-1.198 1.211z" fill="#FCAA23"/><path fill-rule="evenodd" clip-rule="evenodd" d="M1015.05 42.608h-22.362c-1.981 0-3.602-1.633-3.602-3.63v-1.372c0-1.995 1.621-3.629 3.602-3.629h22.362c1.98 0 3.6 1.634 3.6 3.63v1.372c0 1.996-1.62 3.63-3.6 3.63zm0 50.603h-22.362c-1.981 0-3.602-1.633-3.602-3.63V88.21c0-1.996 1.621-3.629 3.602-3.629h22.362c1.98 0 3.6 1.633 3.6 3.63v1.372c0 1.996-1.62 3.63-3.6 3.63zm.59 51.195h-22.364c-1.981 0-3.601-1.633-3.601-3.629v-1.373c0-1.996 1.62-3.629 3.601-3.629h22.364c1.98 0 3.6 1.633 3.6 3.629v1.373c0 1.996-1.62 3.629-3.6 3.629zm-.59 51.364h-22.362c-1.981 0-3.602-1.633-3.602-3.629v-1.371c0-1.999 1.621-3.632 3.602-3.632h22.362c1.98 0 3.6 1.633 3.6 3.632v1.371c0 1.996-1.62 3.629-3.6 3.629z" fill="#222831"/><path fill-rule="evenodd" clip-rule="evenodd" d="M1031.18 50.675h-40.729a1.374 1.374 0 01-1.365-1.375v-.52c0-.757.614-1.376 1.365-1.376h40.729c.75 0 1.36.619 1.36 1.375v.52a1.37 1.37 0 01-1.36 1.376zm0 50.152h-40.729a1.374 1.374 0 01-1.365-1.376v-.52c0-.757.614-1.376 1.365-1.376h40.729c.75 0 1.36.62 1.36 1.376v.52a1.37 1.37 0 01-1.36 1.376zm0 51.279h-40.729a1.374 1.374 0 01-1.365-1.376v-.52c0-.756.614-1.376 1.365-1.376h40.729c.75 0 1.36.62 1.36 1.376v.52a1.37 1.37 0 01-1.36 1.376zm0 50.631h-40.729a1.373 1.373 0 01-1.365-1.375v-.521c0-.757.614-1.375 1.365-1.375h40.729c.75 0 1.36.618 1.36 1.375v.521a1.37 1.37 0 01-1.36 1.375z" fill="#FCAA23"/><path fill-rule="evenodd" clip-rule="evenodd" d="M903.646 117.074H780.017a1.28 1.28 0 01-1.272-1.281v-.484a1.28 1.28 0 011.272-1.281h123.629c.699 0 1.269.576 1.269 1.281v.484c0 .705-.57 1.281-1.269 1.281zM749.01 18.745h317.73V9.67H749.01v9.075z" fill="#222831"/><path fill-rule="evenodd" clip-rule="evenodd" d="M615.596 209.593c-7.206-11.958-28.748-5.841-28.393 7.933.32 12.436 16.843 24.664 20.06 26.93l7.97-3.299a55.74 55.74 0 001.063-3.333c1.402-4.873 3.296-13.56 1.842-21.282-.462-2.467-1.269-4.835-2.542-6.949z" fill="#fff"/><path fill-rule="evenodd" clip-rule="evenodd" d="M615.597 209.593l.526-.323a13.297 13.297 0 00-5.499-5.083c-2.184-1.09-4.628-1.593-7.092-1.593-4.135.004-8.337 1.413-11.542 3.939-1.602 1.263-2.954 2.809-3.906 4.603a12.77 12.77 0 00-1.501 6.055c-.003.118 0 .236.003.354.087 3.246 1.22 6.433 2.896 9.422 2.521 4.485 6.267 8.544 9.687 11.71 3.42 3.163 6.516 5.428 7.739 6.288l.274.196 8.541-3.535.092-.258c.225-.633.623-1.809 1.072-3.374 1.054-3.668 2.391-9.472 2.391-15.459 0-2.042-.154-4.103-.533-6.111-.474-2.523-1.303-4.962-2.622-7.154l-1.053.646c1.226 2.036 2.012 4.333 2.464 6.741.361 1.915.512 3.901.512 5.878 0 5.804-1.306 11.518-2.342 15.115a54.72 54.72 0 01-1.05 3.299l.579.208-.234-.574-7.971 3.299.235.574.351-.509c-1.587-1.117-6.495-4.721-11.018-9.568-2.264-2.421-4.43-5.152-6.038-8.023-1.615-2.871-2.665-5.875-2.739-8.846-.003-.105-.003-.214-.006-.319a11.563 11.563 0 011.358-5.469c1.291-2.436 3.423-4.41 5.971-5.773a17.987 17.987 0 018.39-2.113c2.298 0 4.553.472 6.543 1.465a12.02 12.02 0 014.995 4.615l.527-.323z" fill="#000"/><path fill-rule="evenodd" clip-rule="evenodd" d="M615.234 241.157l-.869-.314-.133.367-.034.09-.009.021-.003.007.863.338-.367-.854-7.25 3.163.367.853.514-.772-.009-.007a21.673 21.673 0 01-.514-.356l-.527.763.348.863 7.974-3.299-.351-.863-.869-.314.869.314-.352-.86-9.536 3.945 1.387.977c.351.249.548.382.554.385l.419.28 8.064-3.517.139-.363c.003-.006.073-.192.197-.534l.702-1.97-1.926.797.352.86z" fill="#000"/><path fill-rule="evenodd" clip-rule="evenodd" d="M615.492 241.051l.771 1.89.077.187-8.643 3.575-.077-.186-.77-1.89.413-.171 7.971-3.299.258-.106zm.268 8.756l-2.76 1.142a2.739 2.739 0 01-3.584-1.505l-.311-.764 7.839-3.243.311.76a2.773 2.773 0 01-1.495 3.61z" fill="#FFAF6A"/><path fill-rule="evenodd" clip-rule="evenodd" d="M613.911 241.033c-.006-.022-.138-.379-.755-2.195-.619-1.815-1.725-5.093-3.697-10.977-.514-1.543-.721-2.899-.721-4.069 0-.537.043-1.037.12-1.496l.259-1.567-1.244.974c-.114.09-.235.18-.355.273-3.269 2.48-5.718 3.557-7.403 3.883l-.949.183.567.792c.899 1.244 1.904 2.942 2.896 4.773 1.491 2.75 2.958 5.81 4.051 8.181a188.76 188.76 0 011.809 4.047.614.614 0 00.81.323.622.622 0 00.32-.816c0-.003-1.284-3.008-3.034-6.658a131.143 131.143 0 00-2.875-5.673c-1.007-1.859-2.027-3.588-2.979-4.907l-.499.363.117.612c1.953-.382 4.541-1.558 7.909-4.113v.004l.369-.286-.379-.49-.607-.103a10.605 10.605 0 00-.135 1.701c0 1.316.231 2.809.786 4.466 2.033 6.074 3.148 9.373 3.755 11.155.61 1.784.706 2.045.712 2.06a.617.617 0 101.155-.44" fill="#000"/><path fill-rule="evenodd" clip-rule="evenodd" d="M618.047 245.44l-10.011 4.143-1.131-2.771 10.011-4.141 1.131 2.769z" fill="#FFAF6A"/><path fill-rule="evenodd" clip-rule="evenodd" d="M618.046 245.44l-.176-.431-9.585 3.966-.776-1.909 9.154-3.789.955 2.34.428-.177-.176-.431.176.431.425-.177-1.303-3.2-10.867 4.494 1.482 3.631 10.864-4.494-.176-.431-.425.177z" fill="#000"/><path fill-rule="evenodd" clip-rule="evenodd" d="M578.397 191.899l7.749 8.424a.615.615 0 00.872.031.621.621 0 00.034-.875l-7.749-8.424a.615.615 0 00-.872-.034.626.626 0 00-.034.878zm-14.496 24.088l15.226 2.085a.621.621 0 00.167-1.232l-15.226-2.085a.614.614 0 00-.693.53.62.62 0 00.526.702zm6.603 16.166l10.417-2.008a.624.624 0 00.49-.726.616.616 0 00-.721-.493l-10.417 2.008a.62.62 0 00.231 1.219zm50.161-47.606l-5.426 13.221a.623.623 0 00.336.81.613.613 0 00.804-.335l5.426-13.221a.619.619 0 00-.336-.81.613.613 0 00-.804.335zm19.101 15.037L625 210.254a.624.624 0 00-.142.866.61.61 0 00.859.143l14.767-10.67a.623.623 0 00.142-.866.613.613 0 00-.86-.143z" fill="#081535"/><path fill-rule="evenodd" clip-rule="evenodd" d="M714.35 416.52s1.337-4.236 4.588-9.087l-4.588 9.087z" fill="#FEF9E6"/><path fill-rule="evenodd" clip-rule="evenodd" d="M714.938 416.709v-.009c.071-.217 1.408-4.292 4.508-8.92a.622.622 0 00-.166-.862.613.613 0 00-.854.167c-3.297 4.926-4.652 9.212-4.665 9.249a.624.624 0 00.401.779.62.62 0 00.776-.404z" fill="#000"/><path fill-rule="evenodd" clip-rule="evenodd" d="M582.603 413.835s5.148 2.356 7.194 13.026l-7.194-13.026z" fill="#FEF9E6"/><path fill-rule="evenodd" clip-rule="evenodd" d="M582.347 414.4l.114-.254-.117.254h.003l.114-.254-.117.254c.006.003 1.217.575 2.678 2.424 1.46 1.853 3.179 4.988 4.168 10.155a.618.618 0 00.724.491.62.62 0 00.487-.727c-1.038-5.422-2.878-8.78-4.489-10.785-1.611-2.008-2.983-2.656-3.057-2.687a.62.62 0 00-.508 1.129z" fill="#000"/><path fill-rule="evenodd" clip-rule="evenodd" d="M577.31 455.977c.083-.255 11.784-30.633 11.784-30.633s-2.209-7.7-6.491-11.086c0 0-2.437-.851-1.766 6.089.672 6.943-8.398 34.276-8.398 34.276l4.871 1.354z" fill="#FCAA23"/><path fill-rule="evenodd" clip-rule="evenodd" d="M562.395 455.011s3.876-6.753 7.32-6.17c3.448.584 10.79 4.131 14.16 4.963 3.371.829 7.567.602 7.567.602s5.543 6.49 4.569 9.885c-.974 3.399-8.913 9.435-8.913 9.435s6.883 4.451 6.211 5.584c-.669 1.132-5.164 3.395-5.164 3.395L562 481.799s-7.03-6.037-6.962-8.073c.07-2.039 1.944-10.263 1.719-12.756-.225-2.489-.41-5.583 5.638-5.959z" fill="#fff"/><path fill-rule="evenodd" clip-rule="evenodd" d="M562.395 455.011l.533.311.009-.016c.096-.161.995-1.685 2.243-3.138.625-.726 1.334-1.43 2.055-1.939a5.183 5.183 0 011.063-.593 2.65 2.65 0 01.989-.208c.111 0 .219.009.326.025.798.136 1.886.459 3.094.881 1.818.633 3.922 1.49 5.891 2.266 1.974.779 3.801 1.477 5.132 1.806 2.268.556 4.825.649 6.366.649.838 0 1.371-.028 1.38-.028l-.034-.621-.468.407.012.012a32.881 32.881 0 012.388 3.271c.554.869 1.097 1.831 1.494 2.763.4.931.644 1.837.641 2.554 0 .261-.031.496-.09.707-.095.342-.301.761-.591 1.22-.505.801-1.269 1.71-2.129 2.607-1.288 1.347-2.785 2.672-3.959 3.659-.585.491-1.091.897-1.448 1.183-.179.143-.324.251-.419.329l-.111.084-.037.028-.706.536.746.482.065.043c.339.22 1.876 1.238 3.315 2.343.718.553 1.414 1.13 1.907 1.626.246.246.441.472.558.646.058.084.098.155.117.202l.012.04.006-.003-.006.003.006-.003-.006.003.133-.018h-.133v.018l.133-.018h-.133.271l-.231-.137a.294.294 0 00-.04.137h.271l-.231-.137v-.003a1.66 1.66 0 01-.296.329c-.283.261-.727.58-1.217.9-.736.481-1.589.968-2.255 1.328-.333.183-.619.335-.823.441-.101.05-.181.093-.237.121-.052.028-.08.04-.08.04l.274.556.022-.621-26.145-.903-.022.618.401-.472s-.028-.022-.077-.065a66.463 66.463 0 01-3.691-3.476c-.801-.823-1.577-1.683-2.135-2.434a7.404 7.404 0 01-.647-1.005c-.148-.286-.2-.512-.197-.59v-.006l-.09-.003.09.006v-.003l-.09-.003.09.006v-.006c.006-.205.037-.518.089-.9.179-1.344.589-3.538.955-5.708.182-1.089.355-2.172.484-3.15.126-.981.209-1.853.209-2.542 0-.192-.006-.366-.021-.534-.04-.453-.08-.915-.08-1.359 0-.49.049-.959.175-1.381.096-.317.231-.605.435-.875.302-.401.752-.767 1.476-1.065.72-.301 1.716-.521 3.059-.605l.33-.019.163-.288-.533-.311-.037-.62c-1.276.08-2.305.276-3.146.577a5.416 5.416 0 00-1.574.847 3.92 3.92 0 00-1.282 1.782c-.231.651-.296 1.319-.299 1.958.003.515.043 1.012.087 1.474.009.115.015.258.015.419 0 .674-.099 1.673-.256 2.797-.234 1.688-.588 3.671-.893 5.415-.151.873-.29 1.686-.395 2.375-.104.692-.178 1.254-.194 1.669l.617.022-.614-.028-.003.059c0 .217.044.419.108.621.123.379.33.754.589 1.154.449.693 1.075 1.447 1.765 2.204 2.064 2.259 4.708 4.528 4.717 4.537l.163.14 26.518.919.139-.072a47.24 47.24 0 002.366-1.291c.613-.36 1.251-.757 1.793-1.148.271-.196.517-.388.73-.58.213-.196.391-.382.53-.615a.995.995 0 00.132-.496c0-.205-.055-.379-.123-.534-.129-.295-.326-.556-.564-.829-.419-.478-.982-.984-1.605-1.496-1.864-1.527-4.239-3.06-4.248-3.069l-.333.524.37.494c.009-.007 2.005-1.524 4.134-3.48 1.066-.977 2.166-2.063 3.075-3.14.453-.537.86-1.071 1.192-1.593.33-.524.589-1.033.734-1.542.098-.341.138-.692.138-1.052-.003-1.018-.326-2.086-.782-3.141-.691-1.583-1.698-3.135-2.536-4.308a30.755 30.755 0 00-1.516-1.961l-.197-.233-.302.015-.022.004c-.101.003-.582.024-1.29.024-1.485.003-3.981-.096-6.076-.614-.795-.196-1.873-.565-3.078-1.021-1.811-.683-3.919-1.552-5.903-2.309a57.652 57.652 0 00-2.838-1.015c-.884-.286-1.688-.506-2.381-.624a3.114 3.114 0 00-.533-.043c-.512 0-1.011.117-1.485.31-.829.341-1.593.903-2.292 1.545-1.051.969-1.951 2.123-2.601 3.042-.647.922-1.041 1.605-1.047 1.614l.533.313-.037-.62.037.62z" fill="#000"/><path fill-rule="evenodd" clip-rule="evenodd" d="M568.775 466.274c.01.003 2.804 1.869 6.153 3.743 1.673.934 3.488 1.875 5.17 2.585.841.354 1.651.655 2.403.866.752.215 1.442.342 2.067.345.395-.003.764-.053 1.109-.189.715-.289 1.267-.677 1.64-1.174.375-.49.545-1.08.542-1.666 0-.478-.105-.956-.278-1.434-.258-.714-.668-1.428-1.167-2.132a20.347 20.347 0 00-1.716-2.07c-2.631-2.8-7.875-8.157-7.875-8.16a.617.617 0 00-.872-.006.625.625 0 00-.006.878l.231.236c1.038 1.062 5.339 5.472 7.625 7.905.795.844 1.519 1.735 2.031 2.573.255.419.455.826.591 1.201.136.376.203.717.203 1.009-.003.363-.089.645-.292.918-.204.27-.549.54-1.116.767-.144.062-.366.102-.65.102-.453 0-1.05-.102-1.734-.298-1.199-.338-2.647-.949-4.135-1.672-2.23-1.087-4.544-2.43-6.3-3.501-.875-.534-1.612-1-2.129-1.332-.259-.167-.462-.301-.601-.391l-.157-.102-.056-.037a.61.61 0 00-.853.177.622.622 0 00.172.859z" fill="#000"/><path fill-rule="evenodd" clip-rule="evenodd" d="M578.148 458.509s3.318.689 6.664 0c3.346-.689 4.413.313 4.271 1.245-.142.934-4.483 5.449-4.483 5.449l-6.452-6.694z" fill="#FCAA23"/><path fill-rule="evenodd" clip-rule="evenodd" d="M580.557 461.743l4.541 4.786-11.236-42.988s-.139-1.282-.973-1.636c-.838-.351-2.373.103-2.511 1.471l10.179 38.367zm3.065 11.353l1.027 3.951 3.173 6.213.25-7.271-1.048-4.237s-1.06 2.033-3.402 1.344z" fill="#081535"/><path fill-rule="evenodd" clip-rule="evenodd" d="M566.271 481.196l5.468-22.908s.974-.94-3.37-8.711c0 0-1.649.527-5.546 6.111 0 0-6.741-1.251-5.469 6.055 0 0-2.495 11.604-1.546 12.585.949.981 3.91 5.937 6.587 6.868h3.876z" fill="#FCAA23"/><path fill-rule="evenodd" clip-rule="evenodd" d="M587.089 571.483s0 48.234 74.946 38.588c0 0 7.339 25.977 19.857 41.293h48.047s-5.542-136.239-56.196-124.054c-50.654 12.188-86.654 44.173-86.654 44.173z" fill="#5856D6"/><path fill-rule="evenodd" clip-rule="evenodd" d="M587.089 571.484h-.617c0 .037 0 2.572.897 6.371a40.34 40.34 0 003.894 10.143c3.078 5.605 8.146 11.614 16.437 16.204 8.288 4.593 19.78 7.765 35.699 7.762 5.66 0 11.88-.4 18.717-1.279l-.081-.614-.591.167c.003.016 1.845 6.53 5.256 14.969 3.414 8.442 8.389 18.808 14.715 26.551l.184.227h48.984l-.027-.645c0-.022-1.27-31.251-8.162-62.523-3.447-15.639-8.294-31.287-15.13-43.087-3.423-5.897-7.342-10.838-11.862-14.32-4.517-3.483-9.646-5.494-15.398-5.491-2.059 0-4.191.255-6.403.789-25.414 6.114-47.132 17.188-62.503 26.731-15.374 9.544-24.398 17.56-24.419 17.579l-.207.183v.283h.617l.406.465s.031-.031.102-.09c2.116-1.856 37.384-32.184 86.291-43.944 2.123-.512 4.159-.754 6.116-.754 5.462.003 10.302 1.89 14.649 5.236 3.802 2.926 7.216 6.977 10.263 11.831 5.333 8.494 9.542 19.453 12.838 31.101 4.945 17.47 7.841 36.495 9.496 51.144a434.678 434.678 0 011.66 17.958c.154 2.197.259 3.938.324 5.13.034.596.055 1.052.071 1.363.012.307.021.465.021.465l.613-.025v-.62h-48.047v.62l.475-.394c-6.19-7.573-11.141-17.855-14.527-26.232a174.584 174.584 0 01-3.876-10.567 147.77 147.77 0 01-1.251-3.982c-.027-.096-.049-.168-.061-.218l-.022-.071-.145-.515-.527.068c-6.79.875-12.958 1.27-18.559 1.27-14.006 0-24.472-2.477-32.295-6.167-5.866-2.772-10.253-6.223-13.54-9.845-4.93-5.428-7.398-11.247-8.63-15.71a36.346 36.346 0 01-1.078-5.447 24.874 24.874 0 01-.151-1.943v-.127h-.616l.406.465-.406-.465z" fill="#000"/><path fill-rule="evenodd" clip-rule="evenodd" d="M662.578 609.77l-.006-.006c-.194-.36-7.432-13.905-10.645-40.726a.616.616 0 10-1.223.149c3.287 27.42 10.762 41.123 10.792 41.182.164.301.54.409.838.245a.625.625 0 00.244-.844z" fill="#000"/><path fill-rule="evenodd" clip-rule="evenodd" d="M509.153 519.355H1068.1v-13.876H509.153v13.876z" fill="#222831"/><path fill-rule="evenodd" clip-rule="evenodd" d="M650.728 571.03s-.224-3.532-5.376 3.141c-5.154 6.676-.896 21.909-10.977 26.648-10.081 4.736-17.808 5.866-17.808 5.866s15.457 7.334 44.239 2.706c0 0-4.479-2.818-10.078-38.361z" fill="#302EA7"/><path fill-rule="evenodd" clip-rule="evenodd" d="M847.964 420.788c0 2.995-4.175 5.422-9.326 5.422-5.148 0-9.323-2.427-9.323-5.422 0-2.995 4.175-5.425 9.323-5.425 5.151 0 9.326 2.43 9.326 5.425z" fill="#222831"/><path fill-rule="evenodd" clip-rule="evenodd" d="M610.233 339.458c.339 1.126.061 2.209-.623 2.417-.684.211-1.516-.53-1.854-1.657-.342-1.124-.062-2.207.622-2.418.684-.211 1.513.534 1.855 1.658zm24.321-6.208c-.065 1.173-.706 2.095-1.436 2.055-.73-.04-1.27-1.024-1.205-2.201.065-1.176.706-2.094 1.436-2.054.73.04 1.269 1.024 1.205 2.2zm-31.7-.484l-.123-.025.12.028.003-.003-.123-.025.12.028a4.97 4.97 0 01.853-1.763 4.168 4.168 0 011.347-1.154c.585-.314 1.318-.525 2.271-.525.295 0 .61.019.949.066a.463.463 0 00.52-.401.464.464 0 00-.397-.521 7.658 7.658 0 00-1.072-.075c-1.107-.003-2.016.255-2.74.652-1.084.593-1.744 1.477-2.126 2.2-.385.727-.502 1.304-.508 1.332a.462.462 0 10.906.186zm26.268-9.093l-.173-.215.17.218.003-.003-.173-.215.17.218.015-.013c.145-.108 1.399-1.008 3.51-1.005 1.214 0 2.717.291 4.486 1.219a.46.46 0 00.622-.198.464.464 0 00-.194-.627c-1.892-.993-3.552-1.329-4.914-1.325-1.288 0-2.305.294-3.001.595-.697.302-1.076.606-1.1.627a.466.466 0 00-.071.655c.16.199.45.23.65.069z" fill="#000"/><path fill-rule="evenodd" clip-rule="evenodd" d="M625.558 271.433c-.006.012-1.618 2.784-3.229 7.116-1.609 4.333-3.223 10.223-3.223 16.48 0 2.943.357 5.962 1.241 8.936a.305.305 0 00.382.208.309.309 0 00.207-.385c-.863-2.908-1.214-5.869-1.214-8.759 0-6.148 1.59-11.977 3.186-16.263a56.236 56.236 0 012.191-5.121 36.166 36.166 0 01.973-1.868l.016-.031a.313.313 0 00-.108-.425.306.306 0 00-.422.112zm-11.431 33.528l-.003-.006c-.074-.152-1.424-3.042-1.424-7.188 0-1.623.207-3.436.774-5.357a.31.31 0 10-.592-.177 19.52 19.52 0 00-.798 5.534c0 4.419 1.479 7.442 1.492 7.47a.303.303 0 00.409.14.312.312 0 00.142-.416zm-17.845 9.506l-.003-.006c-.098-.124-1.993-2.601-1.99-6.595 0-1.822.388-3.96 1.528-6.356a.314.314 0 00-.145-.413.307.307 0 00-.413.146c-1.177 2.473-1.59 4.711-1.586 6.623 0 4.332 2.107 6.961 2.129 6.989a.308.308 0 10.48-.388zm72.701 5.795c0 .015.037 2.042.678 4.571.644 2.527 1.882 5.571 4.341 7.586a.309.309 0 00.435-.047.314.314 0 00-.046-.435c-2.299-1.877-3.51-4.798-4.132-7.256a22.912 22.912 0 01-.564-3.144c-.043-.4-.068-.726-.08-.946l-.013-.258-.003-.084a.31.31 0 00-.314-.304.309.309 0 00-.302.317zm-56.018 43.642s.003.019.016.059c.151.618 1.396 5.829 1.396 11.71 0 1.791-.114 3.644-.41 5.447a.31.31 0 00.252.357.306.306 0 00.355-.254c.302-1.844.419-3.731.419-5.55 0-6.365-1.43-11.911-1.433-11.927a.307.307 0 10-.595.158zm55.445-14.959l.025.078c.246.773 2.237 7.331 2.237 15.288 0 3.712-.435 7.728-1.674 11.605a.313.313 0 00.198.391.309.309 0 00.388-.202c1.266-3.954 1.704-8.032 1.704-11.794 0-8.597-2.286-15.543-2.293-15.561a.305.305 0 00-.388-.196.31.31 0 00-.197.391zm170.188 259.372c0 .003-.12.115-.357.329-1.76 1.614-9.927 8.967-21.166 16.98-11.237 8.014-25.545 16.688-39.563 20.956a.31.31 0 00.179.596c15.066-4.591 30.387-14.19 41.95-22.641 11.566-8.451 19.37-15.757 19.376-15.763a.312.312 0 00.015-.438.305.305 0 00-.434-.019z" fill="#fff"/><path fill-rule="evenodd" clip-rule="evenodd" d="M506.217 504.719v14.636a.616.616 0 101.233 0v-14.636a.616.616 0 10-1.233 0zM758.096 14.208a1.63 1.63 0 01-1.623 1.636 1.63 1.63 0 01-1.627-1.636 1.63 1.63 0 011.627-1.636 1.63 1.63 0 011.623 1.636zm5.25 0a1.63 1.63 0 01-1.624 1.636 1.63 1.63 0 01-1.623-1.636 1.63 1.63 0 011.623-1.636 1.63 1.63 0 011.624 1.636zm5.25 0a1.63 1.63 0 01-1.624 1.636 1.63 1.63 0 01-1.623-1.636 1.63 1.63 0 011.623-1.636 1.63 1.63 0 011.624 1.636z" fill="#000"/><path fill-rule="evenodd" clip-rule="evenodd" d="M899.092 358.973v-135.6a.617.617 0 10-1.232 0v135.6a.616.616 0 101.232 0z" fill="#4052F2"/></svg>