<svg width="27" height="27" fill="none" xmlns="http://www.w3.org/2000/svg"><g clip-path="url(#clip0_13_4065)"><path d="M26.193 11.94L14.517 1.21l-.112-.103a1.073 1.073 0 00-.25-.172L14.143.93a1.062 1.062 0 00-.918 0l-.012.005a1.073 1.073 0 00-.25.172l-.11.1L1.176 11.94a1.092 1.092 0 00-.072 1.53 1.063 1.063 0 001.513.073l.351-.322v12.52c0 .599.48 1.084 1.072 1.084h19.289c.592 0 1.071-.485 1.071-1.083V13.22l.351.322c.438.403 1.116.37 1.514-.073a1.092 1.092 0 00-.072-1.53zM11.54 24.658v-6.5c0-1.196.96-2.166 2.143-2.166 1.184 0 2.144.97 2.144 2.166v6.5H11.54zm10.716 0H17.97v-6.5c0-2.393-1.92-4.333-4.287-4.333s-4.286 1.94-4.286 4.333v6.5H5.11V11.251l8.573-7.879 8.573 7.88v13.406z" fill="#fff"/></g><defs><clipPath id="clip0_13_4065"><path fill="#fff" transform="translate(.825 .824)" d="M0 0h25.719v26H0z"/></clipPath></defs></svg>