<svg width="23" height="23" fill="none" xmlns="http://www.w3.org/2000/svg"><path fill-rule="evenodd" clip-rule="evenodd" d="M11.422.643c-2.714 0-3.142 0-4.285.071-1.143.072-2 .215-2.643.5-.714.286-1.357.643-1.929 1.286-.643.643-1 1.214-1.285 1.929-.286.714-.429 1.5-.5 2.642-.072 1.143-.072 1.572-.072 4.5 0 3 0 3.358.072 4.5.071 1.143.214 2 .5 2.643.285.715.642 1.357 1.285 1.929.643.643 1.215 1 1.929 1.286.714.285 1.5.428 2.643.5 1.143.071 1.571.071 4.5.071 3 0 3.357 0 4.5-.071 1.143-.072 2-.215 2.643-.5.714-.286 1.357-.643 1.928-1.286.643-.643 1-1.214 1.286-1.929.286-.714.428-1.5.5-2.643.071-1.142.071-1.5.071-4.285v-.572c0-2.714 0-3.143-.071-4.285-.072-1.143-.214-2-.5-2.643-.286-.715-.643-1.357-1.286-1.929-.643-.643-1.214-1-1.928-1.286-.715-.285-1.5-.428-2.643-.5C14.994.5 14.637.5 11.85.5h-.429v.143zm7.5 5.071A1.28 1.28 0 0117.637 7a1.28 1.28 0 01-1.286-1.286 1.28 1.28 0 011.286-1.285c.643 0 1.285.571 1.285 1.285zm-7.214 9.5c-2 0-3.643-1.643-3.643-3.643 0-2 1.643-3.642 3.643-3.642 2 0 3.643 1.642 3.643 3.642s-1.643 3.643-3.643 3.643zm0-9.285a5.61 5.61 0 015.643 5.642 5.61 5.61 0 01-5.643 5.643 5.61 5.61 0 01-5.643-5.643c0-3.142 2.572-5.642 5.643-5.642zm0-3.358c2.929 0 3.286 0 4.429.072 1.071.071 1.643.214 2.071.357.5.214.857.429 1.286.786.357.357.643.714.786 1.285.142.358.357 1 .357 2.072.071 1.143.071 1.5.071 4.428 0 2.929 0 3.286-.071 4.429-.072 1.071-.215 1.643-.357 2.071a4.78 4.78 0 01-.786 1.286c-.357.357-.714.643-1.286.786-.357.143-1 .357-2.071.357-1.143.071-1.5.071-4.429.071-2.928 0-3.286 0-4.428-.071-1.072-.071-1.643-.214-2.072-.357a4.784 4.784 0 01-1.286-.786c-.357-.357-.642-.714-.785-1.286-.143-.357-.357-1-.357-2.071-.072-1.143-.072-1.5-.072-4.429 0-2.928 0-3.285.072-4.428.071-1.072.214-1.643.357-2.072.214-.5.428-.857.785-1.285.358-.357.715-.643 1.286-.786.357-.143 1-.357 2.072-.357 1.142-.072 1.5-.072 4.428-.072z" fill="#fff"/></svg>