<svg width="17" height="25" fill="none" xmlns="http://www.w3.org/2000/svg"><path fill-rule="evenodd" clip-rule="evenodd" d="M6.632.115c-.038.495.19 1.029.077 1.372-.115 0-.267-.038-.344-.114 0 0 0-.115-.076-.229C6.175.991 6.175.915 6.137.61A3.192 3.192 0 016.06.23c0-.191.343-.344.571-.115zm3.393.381c-.115.381-.534.572-.534 1.03-.19.113-.381.152-.534.037-.266-.267.305-.686.42-.915.228.077.38-.38.648-.152zM4.117 1.64c-.115.038-.191.076-.343.038-.039-.23-.344-.305-.267-.534-.153-.076-.267-.229-.19-.42.228-.076.418-.266.57-.037.077.343.268.61.23.952zm8.652-.649c.038.23-.19.191-.19.344-.191.076-.534.343-.725.61-.114.152-.114.342-.267.38-.152.039-.304-.114-.419-.19.267-.61.763-1.22 1.601-1.144zM2.401 3.355c-.457.114-.914-.115-1.181-.42.076-.19.267-.304.571-.266.153.266.572.266.61.686zm12.236-.381c0 .19-.115.266-.305.343-.343.152-.458.533-.915.343-.076-.115-.114-.229-.038-.381 0-.039.495-.344.61-.382.267-.076.495-.076.648.077zm1.601 2.02c-.267.305-1.068.648-1.41.228.038-.152.114-.228.152-.343.457 0 1.067-.343 1.258.115zM5.413 4.917c.076.115.114.267.19.344-.038.114-.152.19-.229.266-.304 0-.533-.114-.457-.495.19 0 .267-.153.496-.115zm-3.965.648v.23c-.305.228-.99.037-1.296-.153 0-.115 0-.115-.038-.19.305-.458.953-.077 1.334.113zm2.974.648c0 .267-.039.458-.267.534-.534.839-.534 2.173.038 2.897.114.114.381.267.114.457-.114.077-.381.038-.495-.038-.42-.305-.572-1.296-.686-1.753a6.64 6.64 0 01.724-2.173.5.5 0 01.572.076zm12.311 1.106c0 .114-.114.152-.114.267-.381.038-.877.076-1.144-.153-.152-.686.991-.381 1.258-.114zm-15.59.991c.039.076 0 .152 0 .267C.877 8.805.115 9.3 0 8.615c.305-.229.686-.229 1.143-.305zM17 9.339c-.19.305-.991.343-1.296.153a.528.528 0 010-.344c.267-.228 1.182-.228 1.296.191zM1.41 11.321c0 .076.038.153.077.229-.305.228-.496.762-1.068.571-.19-.228.038-.38.19-.495.382 0 .42-.42.801-.305zm15.59.534c-.152.305-.495.266-.915.228-.152-.114-.229-.228-.19-.38.076-.268.305-.191.61-.153.19.076.457 0 .495.305zM1.944 12.922c.229.457-.61.953-.877.457.115-.343.534-.457.877-.457zm13.989 1.83c-.267.19-.686.038-.839-.191-.038-.114.115-.152 0-.19.267-.382.915-.115.839.38zM3.24 15.4c-.114.266-.457.343-.534.686-.228.114-.61.114-.648-.115-.114-.419.839-.876 1.182-.571zm11.664.876c-.115.42-.8.19-.839-.114 0-.457.839-.343.839.114zm-10.368.038c.152.458-.381.572-.61.839-.152-.076-.381-.076-.457-.19.076-.496.571-.572 1.067-.649zm9.148 1.525c-.076.381-1.22.381-1.105-.19.342-.306.838.038 1.105.19zm-8.157-.229c.076.077.114.19.114.343-.114.115-.267.191-.343.343-.114-.038-.381-.038-.533-.152 0-.152.076-.229.114-.343.267 0 .381-.229.648-.19z" fill="#1A1A1A"/><path fill-rule="evenodd" clip-rule="evenodd" d="M11.359 18.601c.762.077 1.105.61.99 1.449-.152.152-.342.229-.495.343.305.457-.114 1.105-.343 1.486.267.42-.038 1.182-.228 1.601-.115 0-.115-.038-.23-.038a.555.555 0 00-.228.343c-.305.19-.61.343-.953.496-.8.152-1.906.152-2.477-.343h-.23c-.19-.381-.647-.648-.838-1.03-.076-.152-.038-.266-.152-.419.038-.38-.153-.648-.114-.99-.191-.153-.153-.458-.305-.61.038-.267.038-.534.114-.84-.114-.152-.267-.266-.42-.38 0-.115-.037-.534-.037-.725.152-.266.457-.304.724-.419.076-.915-.229-1.639-.534-2.325a11.973 11.973 0 00-.495-.991c-.458-.839-1.22-1.41-1.678-2.173-.419-.533-.876-1.143-1.143-1.867-.038-.115-.114-.23-.152-.343-.23-.687-.305-1.41-.458-2.135.076-.762.038-1.563.343-2.249.038-.076.115-.114.153-.152.038-.115.038-.229.076-.343.076-.153.19-.267.305-.42.229-.38.381-.762.724-1.067.152-.152.42-.305.61-.495.534-.458 1.22-.839 2.096-1.068.877-.228 2.097-.419 3.05-.38.61 0 1.486.152 1.982.418 1.372.343 2.325 1.182 2.935 2.478.266.61.533 1.258.724 1.982.038.19.114.42.152.61.19 1.067.305 2.249.229 3.316-.038.267-.076.648-.152 1.03-.038.418-.077.838-.23 1.219 0 .038-.075.076-.075.152a3.227 3.227 0 01-.953 1.601c-.381.19-.839.534-1.182.877-.114.114-.152.305-.229.42-.038.075-.152.075-.19.152-.038.076-.038.152-.076.228-.153.23-.496.648-.572.915-.114.153-.114.458-.038.686zm.343-2.592c.114-.114.152-.266.229-.38.38-.458.99-.687 1.448-1.106.534-.496.8-1.753.915-2.592.228-1.753-.077-3.469-.42-4.765-.152-.571-.266-1.105-.533-1.524-.305-.534-.61-.991-1.106-1.41-.914-.801-2.4-1.144-3.926-1.144-.343.114-.838.114-1.22.152-.647.038-1.41.42-1.981.61-.23.076-.343.19-.534.305-.381.267-.762.534-.991.915-.153 0-.153.19-.305.19-.305.687-.8 1.258-.915 2.097-.228 1.296.115 2.706.534 3.812.19.19.305.457.42.724.647 1.029 1.486 1.906 2.21 2.859.305.686.724 1.41 1.029 2.172.114.267.229.686.229.991 0 .229-.153.534-.038.686h.152c.229-.533.19-1.143.19-1.791 0-1.753-.571-3.545-1.143-4.917-.457-.229-.915-.839-.724-1.41 0-.115-.076-.115-.038-.23.076-.152.19-.19.381-.228.267.114.076.457.152.724.039.19.191.267.23.42.304-.077.418.038.495.304.19 0 .343.077.419-.076-.343-.305-.839-.762-.724-1.372.038-.152.19-.229.114-.42.19-.342.572-.495 1.067-.495.42.19.839.458.839 1.03 0 .38-.229.724-.305 1.029.267.038.457-.039.724-.077-.152-.305-.19-.61-.228-.953.076-.114.038-.343.152-.533.038-.076.152-.153.229-.229.038-.076.076-.19.114-.267a.9.9 0 01.305-.343c.305-.228.572-.076.953.038.038.191.19.23.229.42.228-.153.38-.343.61-.534.114.038.304.038.495.038.42.267.8.648.61 1.182-.076.19-.153.38-.229.61a5.87 5.87 0 01-.229.495c.344.305.877-.19 1.068.153-.153.038-.153.19-.305.266-.153.077-.381.077-.572.153.152.076.114.305.114.534-.114.076-.266.114-.38.19-.42.42-.725.991-.916 1.64-.19.57-.38 1.371-.38 1.981 0 .61-.115 1.487.037 2.097.077.266.23.457-.038.61.19.038.305 0 .534.038-.19-1.258.457-2.02.953-2.669zM9.567 9.034c-.495.153-.724 1.144-.38 1.601.38-.305.914-1.182.38-1.6zm1.83.953c.038-.114.114-.305.114-.42-.038-.304-.381-.457-.61-.228-.228.229-.343 1.143.115 1.296.152-.229.305-.457.38-.648zm-4.422-.381c-.305.42 0 1.067.343 1.258.42-.343.496-1.449-.343-1.258zm2.63 1.448c.153.305.915.343 1.106 0-.267-.114-.343-.457-.572-.61-.229.191-.381.42-.534.61zm1.601.343c-.343.267-.724.534-1.334.42-.305-.039-.61-.382-.838-.382-.191 0-.42.115-.648.153a3.376 3.376 0 01-.877 0c-.19.19-.457.267-.724.343.038.457.343.915.457 1.41.42 1.601.648 3.43.42 5.108.686.076 1.372.076 2.096.076-.458-2.44-.115-5.146 1.296-6.785.19-.076.381-.152.495-.343-.19-.076-.305-.038-.343 0zM7.242 20.05c.534.038 1.182.076 1.868.038.572 0 1.181.114 1.83.038.724-.076 1.143-.686.343-.877-.572-.114-1.258 0-1.868-.076-.076 0-.153-.076-.229-.076-.305-.038-.686 0-.953 0-.762 0-1.448.038-2.096.114.076.496.61.763 1.105.839zm1.067 1.563c1.068.076 1.944.19 2.669-.039.152-.114.152-.343.343-.419-.038-.229.266-.42.19-.534-.19-.038-.19.077-.343.077-1.6 0-3.392.114-4.764-.229-.077.991 1.029 1.067 1.905 1.144zm-.99.571c.076 0 .152 0 .152-.076-.038-.038-.076-.038-.153-.038v.114zm1.181.496c0-.19.038-.458-.152-.496.038.115.076.42.152.496zm.572-.19c.19-.039.305-.077.495-.039 0-.114 0-.152.038-.19-.152.038-.686-.23-.533.228zm.876 1.143c0-.076-.076-.153-.038-.343-.038 0-.076 0-.076-.038-.114.152.038.305.114.38zm-.762.19c.038 0 .076.038.114.038.039-.076-.038-.228-.076-.266-.038 0-.038.114-.038.228z" fill="#1A1A1A"/></svg>