<svg version="1.1" id="Слой_1" xmlns="http://www.w3.org/2000/svg" xmlns:xlink="http://www.w3.org/1999/xlink" x="0" y="0" viewBox="0 0 992.13 425.2" xml:space="preserve"><style>.st1{fill:#f8aa29}.st3{fill:#353c90}.st4{enable-background:new}</style><g id="g24"><defs><path id="SVGID_1_" d="M-78.51-2.23h504.08v504.08H-78.51z"/></defs><clipPath id="SVGID_2_"><use xlink:href="#SVGID_1_" overflow="visible"/></clipPath><g id="g26" clip-path="url(#SVGID_2_)"><g id="g32" transform="translate(222.798 336.838)"><path class="st1" d="M-112.64-120.22c-.05.01-.1.02-.14.03.05-.02.09-.03.14-.03m.94-.12c-.06.01-.12.01-.19.02.06-.01.12-.02.19-.02m-1.88.32c-.02.01-.04.01-.06.02.02-.01.04-.02.06-.02m63.85 23.43zm43.42 3.08l-18.27 7.38-21.98 8.88c-.01 0-.02.01-.03.01l-.12.05-.18.06c-.17.07-.35.13-.53.18-.1.03-.2.05-.3.08-.15.04-.3.08-.46.11l-.36.06-.42.06-.38.03c-.13.01-.26.01-.4.01-.22 0-.45-.01-.67-.03-.04 0-.07 0-.1-.01-.2-.02-.39-.05-.59-.08l-.19-.03c-.03-.01-.06-.01-.08-.02-.15-.03-.29-.07-.44-.11-.08-.02-.16-.04-.23-.06-.18-.05-.35-.12-.53-.18l-.18-.06-60.81-24.57c-4.12-1.66-6.35-6.31-4.76-10.46 1.62-4.22 6.38-6.28 10.55-4.6l54.04 21.83.91.37c1.98.8 4.19.8 6.16 0L2.2-114.35l10.18-4.11c1.21-.48 1.09-1.9.07-2.44l-56.33-25.4a14.257 14.257 0 00-11.72 0l-58.91 26.57a10.984 10.984 0 00-6.52 6.27c-2.28 5.65.46 12.1 6.11 14.39l60.78 24.56c.72.31 1.47.55 2.25.7.05.01.1.02.14.03.27.05.54.09.81.12l.24.03c.32.03.64.04.97.04 1.42 0 2.81-.27 4.14-.81l55.68-22.49c2.7-1.09 3.17-2.07 3.17-4.5l-19.57 7.88z" id="path34"/></g><g id="g36" transform="translate(297.083 289.783)"><path class="st1" d="M-124.02-33.32c-.86 0-1.72-.13-2.57-.38l-.09-.03-58.61-23.72a.927.927 0 01-.51-1.22c.19-.48.74-.71 1.22-.51l58.57 23.7c1.35.39 2.66.39 4.02 0l56.55-22.8a.929.929 0 011.21.52.944.944 0 01-.52 1.22l-56.59 22.82-.09.03c-.87.24-1.73.37-2.59.37" id="path38"/></g><g id="g40" transform="translate(297.083 297.466)"><path class="st1" d="M-124.02-47.51c-.86 0-1.72-.13-2.57-.38l-.09-.03-58.61-23.72a.927.927 0 01-.51-1.22.94.94 0 011.22-.52l58.57 23.7c1.35.39 2.66.39 4.02 0l56.55-22.8a.929.929 0 011.21.52.944.944 0 01-.52 1.22l-56.59 22.82-.09.03c-.87.25-1.73.38-2.59.38" id="path42"/></g><g id="g44" transform="translate(291.687 402.973)"><path class="st1" d="M-123.19-242.36l-46.12 21.06c-1.16.53-1.16 2.18 0 2.71l46.12 21.06c1.39.64 3 .64 4.39 0l46.12-21.06c1.16-.53 1.16-2.18 0-2.71l-46.12-21.06c-1.4-.64-3-.64-4.39 0" id="path46"/></g><g id="g48" transform="translate(293.986 320.59)"><path d="M-123.55-90.22c-20.28 0-35.58-6.9-35.58-16.06v-23.93l32.48 14.83c1.06.48 2.19.73 3.35.73s2.29-.25 3.35-.73l31.99-14.61v23.71c0 9.16-15.3 16.06-35.59 16.06" fill="#fff" id="path50"/></g><g id="g52" transform="translate(299.503 347.519)"><path class="st1" d="M-124.39-139.95c-1.4.64-2.89.96-4.42.96-1.54 0-3.03-.32-4.42-.96l-28.82-13.16v19.9c0 7.44 14.77 13.47 33 13.47 18.22 0 33-6.03 33-13.47v-19.68l-28.34 12.94z" id="path54"/></g><g id="g56" transform="translate(217.72 414.47)"><path class="st3" d="M-111.86-263.6c-3.88 3.28-4.76 8.62-4.76 8.62s5.41.02 9.29-3.26c3.88-3.28 4.76-8.62 4.76-8.62s-5.41-.01-9.29 3.26" id="path58"/></g><g id="g60" transform="translate(243.276 264.425)"><path class="st3" d="M-115.78 13.51c3.07 4.27 3.08 9.16 3.04 9.18.01.06-6.71-2.09-9.58-6.78-2.88-4.63-1.22-9.25-1.26-9.24.01.05 4.73 2.61 7.8 6.84" id="path62"/></g><g id="g64" transform="translate(237.023 247.693)"><path class="st3" d="M-114.82 44.41c6-.79 8.39-5.21 8.39-5.17-.07.02-6.39-2.06-11.91-1.62-5.58.47-8.98 3.8-8.98 3.83-.08.01 6.44 3.77 12.5 2.96" id="path66"/></g><g id="g68" transform="translate(229.595 271.059)"><path class="st3" d="M-113.68 1.26c2.05 4.63 1.07 9.35 1.03 9.35 0 .06-5.85-3.12-7.68-8.13-1.83-4.95.62-9.14.58-9.13.01.04 4.02 3.32 6.07 7.91" id="path70"/></g><g id="g72" transform="translate(220.422 255.962)"><path class="st3" d="M-112.27 29.14c5.79.24 8.89-3.63 8.88-3.59-.07.01-5.55-3.05-10.88-3.55-5.38-.49-9.26 2.15-9.27 2.19-.08 0 5.41 4.72 11.27 4.95" id="path74"/></g><g id="g76" transform="translate(217.896 279.776)"><path class="st3" d="M-111.89-14.84c1.08 4.82-.76 9.22-.8 9.22 0 .06-4.97-4-5.8-9.17-.84-5.11 2.28-8.75 2.25-8.75 0 .04 3.26 3.91 4.35 8.7" id="path78"/></g><g id="g80" transform="translate(206.265 266.736)"><path class="st3" d="M-110.11 9.24c5.49 1.21 9.17-2.01 9.16-1.97-.06 0-4.7-3.88-9.73-5.28-5.09-1.39-9.33.5-9.34.53-.07-.01 4.36 5.51 9.91 6.72" id="path82"/></g><g id="g84" transform="translate(208.252 290.233)"><path class="st3" d="M-110.41-34.15c.17 4.87-2.43 8.8-2.46 8.8-.01.06-4.06-4.74-3.95-9.9.09-5.11 3.76-8.11 3.73-8.12-.01.04 2.5 4.39 2.68 9.22" id="path86"/></g><g id="g88" transform="translate(194.632 279.593)"><path class="st3" d="M-108.32-14.5c5.09 2.12 9.22-.37 9.21-.33-.05-.01-3.82-4.57-8.46-6.81-4.7-2.24-9.16-1.14-9.18-1.11-.07-.02 3.28 6.12 8.43 8.25" id="path90"/></g><g id="g92" transform="translate(200.731 302.084)"><path class="st3" d="M-109.26-56.04c-.68 4.77-3.9 8.14-3.94 8.13-.02.06-3.12-5.31-2.13-10.33.96-4.97 5.06-7.26 5.03-7.27-.01.04 1.7 4.73 1.04 9.47" id="path94"/></g><g id="g96" transform="translate(185.606 294.113)"><path class="st3" d="M-106.94-41.32c4.6 2.96 9.04 1.25 9.02 1.29-.05-.02-2.91-5.11-7.07-8.11-4.2-3.01-8.76-2.74-8.78-2.71-.05-.03 2.18 6.56 6.83 9.53" id="path98"/></g><g id="g100" transform="translate(195.407 314.984)"><path class="st3" d="M-108.44-79.86c-1.47 4.55-5.2 7.27-5.22 7.25-.03.05-2.15-5.74-.34-10.49 1.77-4.7 6.16-6.22 6.13-6.23-.03.04.87 4.95-.57 9.47" id="path102"/></g><g id="g104" transform="translate(179.266 309.873)"><path class="st3" d="M-105.97-70.42c4 3.7 8.63 2.83 8.61 2.86-.04-.03-1.98-5.5-5.55-9.19-3.61-3.7-8.12-4.25-8.14-4.22-.06-.05 1.03 6.82 5.08 10.55" id="path106"/></g><g id="g108" transform="translate(192.35 328.584)"><path class="st3" d="M-107.97-104.98c-2.2 4.21-6.3 6.2-6.32 6.18-.03.05-1.14-6.01 1.41-10.37 2.52-4.31 7.07-5.02 7.05-5.05-.04.05.02 5.06-2.14 9.24" id="path110"/></g><g id="g112" transform="translate(175.694 326.449)"><path class="st3" d="M-105.42-101.04c3.3 4.35 7.98 4.32 7.95 4.34-.04-.03-1.02-5.75-3.9-10.03-2.92-4.29-7.24-5.64-7.26-5.62-.05-.03-.13 6.93 3.21 11.31" id="path114"/></g><g id="g116" transform="translate(191.632 342.538)"><path class="st3" d="M-107.86-130.75c-2.86 3.76-7.2 4.99-7.23 4.97-.04.04-.11-6.13 3.13-9.99 3.2-3.82 7.78-3.71 7.76-3.74-.03.04-.84 5.02-3.66 8.76" id="path118"/></g><g id="g120" transform="translate(174.973 343.417)"><path class="st3" d="M-105.31-132.37c2.49 4.89 7.08 5.69 7.05 5.71-.03-.04-.04-5.85-2.13-10.6-2.12-4.77-6.11-6.89-6.14-6.87-.03-.06-1.32 6.83 1.22 11.76" id="path122"/></g><g id="g124" transform="translate(193.325 356.494)"><path class="st3" d="M-108.12-156.52c-3.45 3.22-7.92 3.66-7.93 3.64-.05.04.95-6.1 4.81-9.36 3.82-3.24 8.29-2.32 8.27-2.34-.04.02-1.74 4.85-5.15 8.06" id="path126"/></g><g id="g128" transform="translate(177.183 360.35)"><path class="st3" d="M-105.65-163.65c1.58 5.3 5.94 6.91 5.91 6.93-.02-.04.97-5.81-.22-10.91-1.22-5.13-4.73-7.95-4.76-7.94-.04-.05-2.55 6.58-.93 11.92" id="path130"/></g><g id="g132" transform="translate(197.501 370.1)"><path class="st3" d="M-108.76-181.65c-3.98 2.61-8.42 2.25-8.44 2.22-.06.03 2.04-5.91 6.46-8.5 4.37-2.57 8.6-.86 8.58-.89-.05.02-2.67 4.57-6.6 7.17" id="path134"/></g><g id="g136" transform="translate(182.405 376.82)"><path class="st3" d="M-106.45-194.06c.57 5.57 4.55 7.95 4.51 7.96-.02-.04 2.01-5.62 1.82-10.94-.21-5.35-3.09-8.81-3.13-8.8-.03-.05-3.8 6.16-3.2 11.78" id="path138"/></g><g id="g140" transform="translate(204.232 383.007)"><path class="st3" d="M-109.79-205.49c-4.44 1.93-8.72.78-8.73.75-.07.02 3.16-5.57 8.07-7.41 4.85-1.83 8.69.61 8.68.58-.08.01-3.64 4.16-8.02 6.08" id="path142"/></g><g id="g144" transform="translate(190.723 392.398)"><path class="st3" d="M-107.72-222.83c-.56 5.7 2.9 8.78 2.86 8.79-.01-.05 3.06-5.28 3.99-10.68.91-5.43-1.19-9.41-1.24-9.41-.03-.06-5.08 5.55-5.61 11.3" id="path146"/></g><g id="g148" transform="translate(213.59 394.858)"><path class="st3" d="M-111.23-227.37c-4.83 1.19-8.81-.71-8.82-.74-.07.01 4.3-5.07 9.63-6.11 5.26-1.03 8.56 2.07 8.55 2.04-.06 0-4.59 3.61-9.36 4.81" id="path150"/></g><g id="g152" transform="translate(202.22 406.655)"><path class="st3" d="M-109.49-249.16c-1.8 5.66.99 9.36.94 9.36 0-.05 4.15-4.8 6.3-10.1 2.14-5.34.97-9.74.92-9.74-.01-.07-6.38 4.77-8.16 10.48" id="path154"/></g><g id="g156" transform="translate(269.351 250.965)"><path class="st3" d="M-119.77 38.37l-.06-1.05c-8.71.46-17.33-.83-25.62-3.84-8.08-2.93-15.48-7.36-22.03-13.16-13.57-12.04-21.99-28.8-23.7-47.21-1.4-15.07.11-28.4 4.48-39.61 4.7-12.04 12.6-21.3 23.5-27.53l-.52-.91c-11.11 6.35-19.17 15.79-23.95 28.06-4.43 11.37-5.96 24.85-4.55 40.09 1.73 18.67 10.27 35.68 24.05 47.9C-161.53 27-154 31.5-145.81 34.47c8.43 3.05 17.18 4.36 26.04 3.9" id="path158"/></g><g id="g160" transform="translate(370.836 414.47)"><path class="st3" d="M-135.32-263.6c3.88 3.28 4.76 8.62 4.76 8.62s-5.41.02-9.29-3.26c-3.88-3.28-4.76-8.62-4.76-8.62s5.41-.01 9.29 3.26" id="path162"/></g><g id="g164" transform="translate(345.28 264.425)"><path class="st3" d="M-131.4 13.51c-3.07 4.27-3.08 9.16-3.04 9.18-.01.06 6.71-2.09 9.58-6.78 2.88-4.63 1.22-9.25 1.26-9.24-.02.05-4.73 2.61-7.8 6.84" id="path166"/></g><g id="g168" transform="translate(351.533 247.693)"><path class="st3" d="M-132.36 44.41c-6-.79-8.39-5.21-8.39-5.17.07.02 6.39-2.06 11.91-1.62 5.58.47 8.98 3.8 8.98 3.83.08.01-6.44 3.77-12.5 2.96" id="path170"/></g><g id="g172" transform="translate(358.961 271.059)"><path class="st3" d="M-133.5 1.26c-2.05 4.63-1.07 9.35-1.03 9.35 0 .06 5.85-3.12 7.68-8.13 1.83-4.95-.62-9.14-.58-9.13-.01.04-4.02 3.32-6.07 7.91" id="path174"/></g><g id="g176" transform="translate(368.134 255.962)"><path class="st3" d="M-134.91 29.14c-5.79.24-8.89-3.63-8.88-3.59.07.01 5.55-3.05 10.88-3.55 5.38-.49 9.26 2.15 9.27 2.19.08 0-5.41 4.72-11.27 4.95" id="path178"/></g><g id="g180" transform="translate(370.66 279.776)"><path class="st3" d="M-135.29-14.84c-1.08 4.82.76 9.22.8 9.22 0 .06 4.97-4 5.8-9.17.84-5.11-2.28-8.75-2.25-8.75 0 .04-3.26 3.91-4.35 8.7" id="path182"/></g><g id="g184" transform="translate(382.291 266.736)"><path class="st3" d="M-137.07 9.24c-5.49 1.21-9.17-2.01-9.16-1.97.06 0 4.7-3.88 9.73-5.28 5.09-1.39 9.33.5 9.34.53.07-.01-4.36 5.51-9.91 6.72" id="path186"/></g><g id="g188" transform="translate(380.304 290.233)"><path class="st3" d="M-136.77-34.15c-.17 4.87 2.43 8.8 2.46 8.8.01.06 4.06-4.74 3.95-9.9-.09-5.11-3.76-8.11-3.73-8.12.01.04-2.5 4.39-2.68 9.22" id="path190"/></g><g id="g192" transform="translate(393.924 279.593)"><path class="st3" d="M-138.86-14.5c-5.09 2.12-9.22-.37-9.21-.33.05-.01 3.82-4.57 8.46-6.81 4.69-2.24 9.16-1.14 9.18-1.11.07-.02-3.28 6.12-8.43 8.25" id="path194"/></g><g id="g196" transform="translate(387.824 302.084)"><path class="st3" d="M-137.92-56.04c.68 4.77 3.9 8.14 3.94 8.13.02.06 3.12-5.31 2.13-10.33-.96-4.97-5.06-7.26-5.03-7.27.01.04-1.7 4.73-1.04 9.47" id="path198"/></g><g id="g200" transform="translate(402.95 294.113)"><path class="st3" d="M-140.24-41.32c-4.6 2.96-9.04 1.25-9.02 1.29.05-.02 2.91-5.11 7.07-8.11 4.2-3.01 8.76-2.74 8.78-2.71.05-.03-2.18 6.56-6.83 9.53" id="path202"/></g><g id="g204" transform="translate(393.15 314.984)"><path class="st3" d="M-138.74-79.86c1.47 4.55 5.2 7.27 5.22 7.25.03.05 2.15-5.74.34-10.49-1.77-4.7-6.16-6.22-6.13-6.23.03.04-.87 4.95.57 9.47" id="path206"/></g><g id="g208" transform="translate(409.29 309.873)"><path class="st3" d="M-141.21-70.42c-4 3.7-8.63 2.83-8.61 2.86.04-.03 1.98-5.5 5.55-9.19 3.61-3.7 8.12-4.25 8.14-4.22.06-.05-1.04 6.82-5.08 10.55" id="path210"/></g><g id="g212" transform="translate(396.205 328.584)"><path class="st3" d="M-139.21-104.98c2.2 4.21 6.3 6.2 6.32 6.18.03.05 1.14-6.01-1.41-10.37-2.52-4.31-7.07-5.02-7.05-5.05.04.05-.02 5.06 2.14 9.24" id="path214"/></g><g id="g216" transform="translate(412.862 326.449)"><path class="st3" d="M-141.76-101.04c-3.3 4.35-7.98 4.32-7.95 4.34.04-.03 1.02-5.75 3.9-10.03 2.92-4.29 7.24-5.64 7.27-5.62.04-.03.12 6.93-3.22 11.31" id="path218"/></g><g id="g220" transform="translate(396.924 342.538)"><path class="st3" d="M-139.32-130.75c2.86 3.76 7.2 4.99 7.23 4.97.04.04.11-6.13-3.13-9.99-3.2-3.82-7.78-3.71-7.76-3.74.03.04.84 5.02 3.66 8.76" id="path222"/></g><g id="g224" transform="translate(413.583 343.417)"><path class="st3" d="M-141.87-132.37c-2.49 4.89-7.08 5.69-7.05 5.71.03-.04.04-5.85 2.13-10.6 2.12-4.77 6.11-6.89 6.14-6.87.03-.06 1.32 6.83-1.22 11.76" id="path226"/></g><g id="g228" transform="translate(395.231 356.494)"><path class="st3" d="M-139.06-156.52c3.45 3.22 7.91 3.66 7.93 3.64.05.04-.95-6.1-4.81-9.36-3.82-3.24-8.29-2.32-8.27-2.34.04.02 1.74 4.85 5.15 8.06" id="path230"/></g><g id="g232" transform="translate(411.373 360.35)"><path class="st3" d="M-141.53-163.65c-1.58 5.3-5.94 6.91-5.91 6.93.02-.04-.97-5.81.22-10.91 1.22-5.13 4.73-7.95 4.76-7.94.04-.05 2.55 6.58.93 11.92" id="path234"/></g><g id="g236" transform="translate(391.055 370.1)"><path class="st3" d="M-138.42-181.65c3.98 2.61 8.42 2.25 8.44 2.22.06.03-2.04-5.91-6.46-8.5-4.37-2.57-8.6-.86-8.58-.89.05.02 2.67 4.57 6.6 7.17" id="path238"/></g><g id="g240" transform="translate(406.15 376.82)"><path class="st3" d="M-140.73-194.06c-.56 5.57-4.55 7.95-4.51 7.96.02-.04-2-5.62-1.82-10.94.21-5.35 3.09-8.81 3.13-8.8.03-.05 3.8 6.16 3.2 11.78" id="path242"/></g><g id="g244" transform="translate(384.324 383.007)"><path class="st3" d="M-137.39-205.49c4.44 1.93 8.72.78 8.73.75.07.02-3.16-5.57-8.07-7.41-4.85-1.83-8.69.61-8.68.58.08.01 3.64 4.16 8.02 6.08" id="path246"/></g><g id="g248" transform="translate(397.833 392.398)"><path class="st3" d="M-139.46-222.83c.56 5.7-2.9 8.78-2.86 8.79.01-.05-3.06-5.28-3.99-10.68-.91-5.43 1.19-9.41 1.24-9.41.02-.06 5.08 5.55 5.61 11.3" id="path250"/></g><g id="g252" transform="translate(374.966 394.858)"><path class="st3" d="M-135.95-227.37c4.83 1.19 8.81-.71 8.82-.74.07.01-4.3-5.07-9.63-6.11-5.26-1.03-8.56 2.07-8.55 2.04.06 0 4.59 3.61 9.36 4.81" id="path254"/></g><g id="g256" transform="translate(386.336 406.655)"><path class="st3" d="M-137.69-249.16c1.8 5.66-.99 9.36-.94 9.36 0-.05-4.15-4.8-6.3-10.1-2.14-5.34-.97-9.74-.92-9.74.01-.07 6.38 4.77 8.16 10.48" id="path258"/></g><g id="g260" transform="translate(319.205 250.965)"><path class="st3" d="M-127.41 38.37l.06-1.05c8.71.46 17.33-.83 25.62-3.84 8.08-2.93 15.48-7.36 22.03-13.16C-66.13 8.28-57.71-8.48-56-26.89c1.4-15.07-.11-28.4-4.48-39.61-4.7-12.04-12.6-21.3-23.5-27.53l.52-.91c11.11 6.35 19.17 15.79 23.95 28.06 4.43 11.37 5.96 24.85 4.55 40.09C-56.7-8.12-65.24 8.89-79.01 21.1c-6.64 5.89-14.17 10.39-22.36 13.36-8.43 3.06-17.19 4.37-26.04 3.91" id="path262"/></g><g id="g264" transform="translate(295.624 460.906)"><path class="st1" d="M-123.8-349.35l4.48 9.07 10.01 1.46-7.24 7.06 1.71 9.97-8.96-4.71-8.96 4.71 1.71-9.97-7.24-7.06 10.01-1.46 4.48-9.07z" id="path266"/></g><g id="g268" transform="translate(295.624 267.947)"><path class="st1" d="M-123.8 7l4.48 9.07 10.01 1.46-7.24 7.06 1.71 9.97-8.96-4.71-8.96 4.71 1.71-9.97-7.24-7.06 10.01-1.46L-123.8 7z" id="path270"/></g><g id="g272" transform="translate(254.897 440.96)"><path class="st1" d="M-117.56-312.52l3.31 6.7 7.4 1.07-5.35 5.22 1.26 7.37-6.61-3.48-6.62 3.48 1.26-7.37-5.35-5.22 7.4-1.07 3.3-6.7z" id="path274"/></g><g id="g276" transform="translate(336.352 440.96)"><path class="st1" d="M-130.04-312.52l3.31 6.7 7.4 1.07-5.35 5.22 1.26 7.37-6.62-3.48-6.62 3.48 1.26-7.37-5.35-5.22 7.4-1.07 3.31-6.7z" id="path278"/></g></g></g><g class="st4"><path class="st1" d="M299.78 122.01h69.68v18.32h-23.38v55.86h-22.92v-55.86h-23.38v-18.32z"/></g><g class="st4"><path class="st1" d="M373.67 122.01h22.97v74.18h-22.97v-74.18z"/></g><g class="st4"><path class="st1" d="M408.78 122.01h30.15l11.63 45.14 11.54-45.14h30.13v74.18h-18.77v-56.57L459 196.19h-16.99l-14.44-56.57v56.57H408.8v-74.18z"/></g><g class="st4"><path class="st1" d="M507.85 122.01h61.43v15.84h-38.46v11.79h35.67v15.13h-35.67v14.62h39.57v16.8h-62.54v-74.18z"/></g><path class="st3" d="M577.64 122.01h22.92v55.91h35.77v18.27h-58.7v-74.18zm63.89 0h61.43v15.84H664.5v11.79h35.67v15.13H664.5v14.62h39.57v16.8h-62.54v-74.18z"/><path class="st3" d="M756.92 183.94H730.9l-3.62 12.25h-23.4l27.88-74.18h25l27.87 74.18h-24l-3.71-12.25zm-4.75-16.04l-8.19-26.67-8.1 26.67h16.29zm42.98 28.29v-74.18h38.2c7.08 0 12.5.61 16.24 1.82 3.75 1.21 6.76 3.47 9.06 6.76s3.44 7.29 3.44 12.02c0 4.12-.88 7.67-2.63 10.65-1.76 2.99-4.17 5.41-7.24 7.26-1.96 1.18-4.64 2.16-8.05 2.93 2.73.91 4.72 1.82 5.97 2.73.84.61 2.06 1.91 3.67 3.9 1.6 1.99 2.67 3.53 3.21 4.61l11.1 21.49h-25.9l-12.25-22.67c-1.55-2.93-2.93-4.84-4.15-5.72-1.65-1.15-3.53-1.72-5.62-1.72h-2.02v30.11h-23.03zm23.02-44.13h9.66c1.05 0 3.07-.34 6.07-1.01 1.52-.3 2.76-1.08 3.72-2.33.96-1.25 1.44-2.68 1.44-4.3 0-2.4-.76-4.23-2.28-5.52-1.52-1.28-4.37-1.92-8.55-1.92h-10.07v15.08zm54.03-30.05h21.4l27.93 41.04v-41.04h21.61v74.18h-21.61l-27.78-40.73v40.73H872.2v-74.18z"/><g class="st4"><path class="st3" d="M362.75 228.03h3.08v20.54h7.74v-20.54h3.08v20.54h7.74v-20.54h3.08v23.29h-24.72v-23.29z"/></g><g class="st4"><path class="st3" d="M408.13 228.03h3.08v10.2c1.41 0 2.4-.27 2.97-.82s1.3-1.86 2.19-3.93c.65-1.53 1.18-2.6 1.6-3.23.42-.63 1.01-1.16 1.79-1.59.77-.43 1.63-.64 2.56-.64 1.19 0 1.81.01 1.87.03v2.67c-.11 0-.31 0-.62-.02-.34-.01-.55-.02-.62-.02-.98 0-1.72.24-2.19.71-.49.48-1.04 1.49-1.67 3.05-.78 1.97-1.45 3.21-1.99 3.73s-1.19.92-1.94 1.23c1.5.41 2.99 1.8 4.45 4.16l4.8 7.75h-3.83l-3.89-6.32c-1.07-1.75-1.96-2.95-2.68-3.6s-1.65-.98-2.8-.98v10.9h-3.08v-23.28z"/></g><g class="st4"><path class="st3" d="M439.23 239.97c0-3.87 1.04-6.89 3.11-9.08 2.08-2.19 4.75-3.28 8.04-3.28 2.15 0 4.09.51 5.81 1.54 1.73 1.03 3.04 2.46 3.95 4.3.91 1.84 1.36 3.92 1.36 6.25 0 2.36-.48 4.47-1.43 6.34-.95 1.86-2.3 3.28-4.05 4.23-1.75.96-3.63 1.44-5.66 1.44-2.19 0-4.15-.53-5.88-1.59-1.73-1.06-3.03-2.5-3.92-4.34s-1.33-3.76-1.33-5.81zm3.17.05c0 2.81.75 5.02 2.26 6.63 1.51 1.61 3.4 2.42 5.68 2.42 2.32 0 4.23-.82 5.73-2.45s2.25-3.95 2.25-6.94c0-1.9-.32-3.55-.96-4.96s-1.58-2.51-2.81-3.29c-1.23-.78-2.62-1.17-4.15-1.17-2.18 0-4.06.75-5.63 2.25-1.58 1.5-2.37 4-2.37 7.51z"/></g><g class="st4"><path class="st3" d="M478.56 228.03h14.58v23.29h-3.08v-20.54h-8.42v11.99c0 2.44-.11 4.22-.34 5.35-.23 1.13-.71 2.02-1.44 2.65-.73.63-1.66.95-2.78.95-.68 0-1.49-.13-2.45-.38l.52-2.73c.51.21.94.32 1.3.32.7 0 1.22-.26 1.57-.79.35-.52.52-1.76.52-3.71v-16.4z"/></g><g class="st4"><path class="st3" d="M509.77 251.32l8.94-23.29h3.32l9.53 23.29h-3.51l-2.72-7.05h-9.74l-2.56 7.05h-3.26zm6.72-9.57h7.9l-2.43-6.45c-.74-1.96-1.29-3.57-1.65-4.83-.3 1.49-.71 2.98-1.25 4.45l-2.57 6.83z"/></g><g class="st4"><path class="st3" d="M565.29 228.03h18.32v23.29h-3.1v-20.54h-12.14v20.54h-3.08v-23.29z"/></g><g class="st4"><path class="st3" d="M602.25 251.32v-23.29h3.08v23.29h-3.08z"/></g><g class="st4"><path class="st3" d="M623.62 228.03h14.17v20.54h2.1v8.18h-2.75v-5.43h-15.39v5.43H619v-8.18h1.81c1.88-2.83 2.81-8.54 2.81-17.14v-3.4zm11.09 2.74h-8.12v1.19c0 1.98-.18 4.69-.53 8.13-.36 3.44-1.05 6.26-2.09 8.48h10.74v-17.8z"/></g><g class="st4"><path class="st3" d="M657.48 228.03h15.06v2.75h-11.98v20.54h-3.08v-23.29z"/></g><g class="st4"><path class="st3" d="M682.19 239.97c0-3.87 1.04-6.89 3.11-9.08 2.08-2.19 4.75-3.28 8.04-3.28 2.15 0 4.09.51 5.81 1.54s3.04 2.46 3.95 4.3c.91 1.84 1.36 3.92 1.36 6.25 0 2.36-.48 4.47-1.43 6.34-.95 1.86-2.3 3.28-4.05 4.23-1.75.96-3.63 1.44-5.66 1.44-2.19 0-4.15-.53-5.88-1.59-1.73-1.06-3.03-2.5-3.92-4.34s-1.33-3.76-1.33-5.81zm3.18.05c0 2.81.75 5.02 2.26 6.63 1.51 1.61 3.4 2.42 5.68 2.42 2.32 0 4.23-.82 5.73-2.45 1.5-1.63 2.25-3.95 2.25-6.94 0-1.9-.32-3.55-.96-4.96-.64-1.41-1.58-2.51-2.81-3.29-1.23-.78-2.62-1.17-4.15-1.17-2.18 0-4.06.75-5.63 2.25-1.58 1.5-2.37 4-2.37 7.51z"/></g><g class="st4"><path class="st3" d="M726.08 251.32v-20.54h-7.67v-2.75h18.46v2.75h-7.71v20.54h-3.08z"/></g><g class="st4"><path class="st3" d="M748.27 239.97c0-3.87 1.04-6.89 3.11-9.08 2.08-2.19 4.75-3.28 8.04-3.28 2.15 0 4.09.51 5.81 1.54s3.04 2.46 3.95 4.3c.91 1.84 1.36 3.92 1.36 6.25 0 2.36-.48 4.47-1.43 6.34-.95 1.86-2.3 3.28-4.05 4.23-1.75.96-3.63 1.44-5.66 1.44-2.19 0-4.15-.53-5.88-1.59-1.73-1.06-3.03-2.5-3.92-4.34s-1.33-3.76-1.33-5.81zm3.18.05c0 2.81.75 5.02 2.26 6.63 1.51 1.61 3.4 2.42 5.68 2.42 2.32 0 4.23-.82 5.73-2.45 1.5-1.63 2.25-3.95 2.25-6.94 0-1.9-.32-3.55-.96-4.96-.64-1.41-1.58-2.51-2.81-3.29-1.23-.78-2.62-1.17-4.15-1.17-2.18 0-4.06.75-5.63 2.25-1.59 1.5-2.37 4-2.37 7.51z"/></g><g class="st4"><path class="st3" d="M786.43 251.32v-23.29h8.74c1.78 0 3.21.24 4.28.71 1.08.47 1.92 1.2 2.53 2.18.61.98.91 2 .91 3.07 0 1-.27 1.93-.81 2.81-.54.88-1.36 1.59-2.45 2.13 1.41.41 2.49 1.12 3.25 2.11.76 1 1.14 2.17 1.14 3.53 0 1.09-.23 2.11-.69 3.04-.46.94-1.03 1.66-1.71 2.17-.68.51-1.53.89-2.55 1.15-1.02.26-2.27.39-3.76.39h-8.88zm3.08-13.51h5.04c1.37 0 2.35-.09 2.94-.27.78-.23 1.37-.62 1.77-1.16s.6-1.22.6-2.03c0-.77-.19-1.45-.56-2.04-.37-.59-.9-.99-1.59-1.21s-1.87-.33-3.54-.33h-4.65v7.04zm0 10.76h5.8c1 0 1.69-.04 2.1-.11.71-.13 1.3-.34 1.78-.64s.87-.73 1.18-1.29c.31-.57.46-1.22.46-1.96 0-.87-.22-1.62-.67-2.26-.44-.64-1.06-1.09-1.85-1.35s-1.92-.39-3.41-.39h-5.39v8z"/></g><g class="st4"><path class="st3" d="M820.67 228.03h3.08v10.2c1.41 0 2.4-.27 2.97-.82s1.3-1.86 2.19-3.93c.65-1.53 1.18-2.6 1.6-3.23.42-.63 1.01-1.16 1.79-1.59.77-.43 1.63-.64 2.56-.64 1.19 0 1.81.01 1.87.03v2.67c-.11 0-.31 0-.62-.02-.34-.01-.55-.02-.62-.02-.99 0-1.72.24-2.19.71-.49.48-1.04 1.49-1.67 3.05-.78 1.97-1.45 3.21-1.99 3.73s-1.19.92-1.94 1.23c1.5.41 2.99 1.8 4.45 4.16l4.8 7.75h-3.83l-3.89-6.32c-1.07-1.75-1.96-2.95-2.68-3.6-.72-.65-1.65-.98-2.8-.98v10.9h-3.08v-23.28z"/></g><g class="st4"><path class="st3" d="M852.81 228.03h2.8v18.44L868 228.03h3.1v23.29h-2.8v-18.4l-12.41 18.4h-3.08v-23.29z"/></g><g class="st4"><path class="st3" d="M436 267.07h14.17v20.54h2.1v8.18h-2.75v-5.43h-15.39v5.43h-2.75v-8.18h1.81c1.87-2.83 2.81-8.54 2.81-17.14v-3.4zm11.08 2.75h-8.12v1.19c0 1.98-.18 4.69-.53 8.13-.35 3.44-1.05 6.26-2.09 8.48h10.74v-17.8z"/></g><g class="st4"><path class="st3" d="M468.87 279.02c0-3.87 1.04-6.89 3.11-9.08 2.08-2.19 4.75-3.28 8.04-3.28 2.15 0 4.09.51 5.81 1.54 1.73 1.03 3.04 2.46 3.95 4.3.91 1.84 1.36 3.92 1.36 6.25 0 2.36-.48 4.47-1.43 6.34-.95 1.86-2.3 3.28-4.05 4.23-1.75.96-3.63 1.44-5.66 1.44-2.19 0-4.15-.53-5.88-1.59-1.73-1.06-3.03-2.5-3.92-4.34s-1.33-3.77-1.33-5.81zm3.17.04c0 2.81.75 5.02 2.26 6.63 1.51 1.61 3.4 2.42 5.68 2.42 2.32 0 4.23-.82 5.73-2.45s2.25-3.95 2.25-6.94c0-1.9-.32-3.55-.96-4.96s-1.58-2.51-2.81-3.29c-1.23-.78-2.62-1.17-4.15-1.17-2.18 0-4.06.75-5.63 2.25-1.58 1.51-2.37 4.01-2.37 7.51z"/></g><g class="st4"><path class="st3" d="M524.39 283.78l2.94-.76c.22 1.13.82 2.27 1.79 3.4.97 1.13 2.25 1.7 3.85 1.7 1.63 0 2.92-.42 3.86-1.25.94-.84 1.41-1.85 1.41-3.03 0-1.28-.5-2.3-1.49-3.06-1-.76-2.35-1.14-4.07-1.14h-1.48v-2.69c1.42 0 2.5-.08 3.26-.25s1.42-.58 1.99-1.25c.58-.67.87-1.44.87-2.3 0-1.02-.39-1.9-1.18-2.65-.79-.75-1.86-1.13-3.2-1.13-1.18 0-2.18.29-3.01.88s-1.41 1.37-1.72 2.33-.48 1.69-.48 2.17l-2.96-.67c.73-4.95 3.46-7.42 8.2-7.42 2.28 0 4.08.63 5.42 1.9 1.33 1.27 2 2.75 2 4.44 0 2.17-1.03 3.86-3.08 5.05 1.19.33 2.18 1 2.98 2.01s1.2 2.22 1.2 3.63c0 2-.78 3.68-2.33 5.03s-3.61 2.03-6.17 2.03c-4.41.01-7.27-2.32-8.6-6.97z"/></g><g class="st4"><path class="st3" d="M556.41 290.36v-23.29h3.08v9.56h12.1v-9.56h3.08v23.29h-3.08v-10.98h-12.1v10.98h-3.08z"/></g><g class="st4"><path class="st3" d="M591.81 279.02c0-3.87 1.04-6.89 3.11-9.08 2.08-2.19 4.75-3.28 8.04-3.28 2.15 0 4.09.51 5.81 1.54s3.04 2.46 3.95 4.3c.91 1.84 1.36 3.92 1.36 6.25 0 2.36-.48 4.47-1.43 6.34-.95 1.86-2.3 3.28-4.05 4.23-1.75.96-3.63 1.44-5.66 1.44-2.19 0-4.15-.53-5.88-1.59-1.73-1.06-3.03-2.5-3.92-4.34s-1.33-3.77-1.33-5.81zm3.18.04c0 2.81.75 5.02 2.26 6.63 1.51 1.61 3.4 2.42 5.68 2.42 2.32 0 4.23-.82 5.73-2.45 1.5-1.63 2.25-3.95 2.25-6.94 0-1.9-.32-3.55-.96-4.96-.64-1.41-1.58-2.51-2.81-3.29-1.23-.78-2.62-1.17-4.15-1.17-2.18 0-4.06.75-5.63 2.25-1.58 1.51-2.37 4.01-2.37 7.51z"/></g><g class="st4"><path class="st3" d="M654.54 290.36v-20.54h-7.67v-2.75h18.46v2.75h-7.71v20.54h-3.08z"/></g><g class="st4"><path class="st3" d="M674.3 290.36l8.94-23.29h3.32l9.53 23.29h-3.51l-2.72-7.05h-9.74l-2.56 7.05h-3.26zm6.72-9.57h7.9l-2.43-6.45c-.74-1.96-1.29-3.57-1.65-4.83-.3 1.49-.71 2.98-1.25 4.45l-2.57 6.83z"/></g><g class="st4"><path class="st3" d="M731.9 267.07h14.17v20.54h2.1v8.18h-2.75v-5.43h-15.39v5.43h-2.75v-8.18h1.81c1.88-2.83 2.81-8.54 2.81-17.14v-3.4zm11.09 2.75h-8.12v1.19c0 1.98-.18 4.69-.53 8.13-.36 3.44-1.05 6.26-2.09 8.48h10.74v-17.8z"/></g><g class="st4"><path class="st3" d="M765.74 267.07h18.32v23.29h-3.1v-20.54h-12.14v20.54h-3.08v-23.29z"/></g><g class="st4"><path class="st3" d="M799.62 290.36l8.94-23.29h3.32l9.53 23.29h-3.51l-2.72-7.05h-9.74l-2.56 7.05h-3.26zm6.72-9.57h7.9l-2.43-6.45c-.74-1.96-1.29-3.57-1.65-4.83-.3 1.49-.71 2.98-1.25 4.45l-2.57 6.83z"/></g></svg>