<svg width="246" height="226" fill="none" xmlns="http://www.w3.org/2000/svg"><path d="M51.797 124.438c-.055.007-.113.023-.168.031.055-.008.113-.02.168-.031zm1.105-.141c-.074.004-.148.015-.222.023l.222-.023zm-2.215.379l-.078.023.078-.023zm75.403 27.679l.004-.003-.008.003h.004zm51.269 3.633l-21.578 8.719-25.961 10.488c-.011 0-.019.004-.031.012l-.137.055c-.07.027-.14.047-.211.07a9.406 9.406 0 01-.625.215c-.113.039-.234.066-.355.098-.18.046-.356.089-.539.128-.141.028-.281.047-.418.067-.164.023-.328.051-.492.066-.153.012-.305.02-.453.032-.157.003-.313.011-.469.011h-.004c-.262 0-.531-.011-.793-.035-.043-.004-.082-.004-.125-.008a10.157 10.157 0 01-.691-.097l-.223-.036c-.035-.007-.067-.019-.098-.023a11.087 11.087 0 01-.523-.129 2.381 2.381 0 01-.278-.074 8.746 8.746 0 01-.621-.215c-.07-.023-.14-.043-.211-.07L50.715 146.25c-4.86-1.965-7.492-7.453-5.617-12.348 1.91-4.988 7.527-7.422 12.46-5.429l63.821 25.785 1.07.433a9.725 9.725 0 007.278 0l57.695-23.312 12.023-4.859c1.43-.567 1.289-2.239.09-2.883l-66.527-29.996a16.832 16.832 0 00-13.84 0l-69.574 31.371a12.988 12.988 0 00-7.703 7.402c-2.696 6.668.539 14.293 7.21 16.988l71.782 29.004c.847.364 1.738.645 2.656.824.059.012.117.02.172.032.312.058.633.105.953.14.094.008.184.02.277.032.379.031.758.05 1.145.05h.004c1.676 0 3.32-.32 4.883-.953l65.757-26.554c3.188-1.289 3.739-2.442 3.739-5.317l-23.11 9.328z" fill="#FCAA23"/><path d="M126.082 171.492c-1.016 0-2.031-.148-3.039-.445a.617.617 0 01-.102-.035l-69.215-28.008a1.106 1.106 0 01-.609-1.438c.23-.562.871-.835 1.438-.605l69.16 27.988c1.59.457 3.14.457 4.742-.004l66.785-26.925a1.1 1.1 0 011.434.609 1.107 1.107 0 01-.614 1.437l-66.832 26.946a.482.482 0 01-.101.035 10.788 10.788 0 01-3.047.445z" fill="#FCAA23"/><path d="M126.082 163.809c-1.016 0-2.031-.149-3.039-.446a.475.475 0 01-.102-.035L53.726 135.32a1.1 1.1 0 01-.609-1.433c.23-.567.871-.836 1.438-.61l69.16 27.989a8.372 8.372 0 004.742 0l66.785-26.93a1.102 1.102 0 11.82 2.047l-66.832 26.945a.641.641 0 01-.101.039 10.908 10.908 0 01-3.047.442zm-5.394-105.504l-54.47 24.87c-1.37.626-1.37 2.575 0 3.2l54.47 24.871a6.212 6.212 0 005.179 0l54.473-24.871c1.371-.625 1.371-2.574 0-3.2l-54.473-24.87a6.212 6.212 0 00-5.179 0z" fill="#FCAA23"/><path d="M122.984 140.688c-23.953 0-42.015-8.153-42.015-18.965V93.465l38.355 17.515a9.523 9.523 0 007.91 0l37.774-17.25v27.993c0 10.812-18.067 18.965-42.024 18.965z" fill="#fff"/><path d="M128.504 113.758a12.502 12.502 0 01-5.227 1.137c-1.812 0-3.574-.383-5.222-1.137l-34.036-15.54v23.505c0 8.785 17.446 15.91 38.965 15.91 21.524 0 38.965-7.125 38.965-15.91V98.484l-33.445 15.274z" fill="#FCAA23"/><path d="M46.719 46.805c-4.578 3.875-5.614 10.183-5.614 10.183s6.391.028 10.973-3.843c4.582-3.876 5.617-10.184 5.617-10.184s-6.394-.027-10.976 3.844zm25.558 150.047c3.63 5.035 3.64 10.824 3.59 10.839.008.071-7.922-2.468-11.316-8-3.399-5.464-1.438-10.921-1.492-10.906.02.051 5.59 3.078 9.218 8.067z" fill="#302EA7"/><path d="M66.023 213.582c7.083-.93 9.907-6.152 9.903-6.106-.082.024-7.543-2.433-14.067-1.914-6.59.551-10.601 4.481-10.601 4.524-.094.019 7.605 4.453 14.765 3.496zm-7.429-23.363c2.422 5.461 1.27 11.035 1.218 11.043.004.078-6.91-3.688-9.066-9.602-2.164-5.847.734-10.793.688-10.785.007.055 4.738 3.922 7.16 9.344z" fill="#302EA7"/><path d="M49.422 205.313c6.84.281 10.496-4.29 10.488-4.243-.074.008-6.558-3.597-12.851-4.191-6.356-.574-10.942 2.543-10.95 2.586-.086.004 6.399 5.582 13.313 5.848zM46.895 181.5c1.277 5.695-.903 10.883-.946 10.883-.008.074-5.867-4.727-6.851-10.828-.992-6.032 2.699-10.332 2.652-10.332.004.054 3.86 4.625 5.145 10.277z" fill="#302EA7"/><path d="M35.266 194.539c6.484 1.43 10.828-2.371 10.812-2.328-.07 0-5.547-4.578-11.496-6.234-6.008-1.645-11.02.585-11.027.628-.082-.011 5.156 6.508 11.71 7.934zm1.984-23.496c.203 5.75-2.863 10.398-2.906 10.391-.012.07-4.79-5.594-4.66-11.688.101-6.039 4.445-9.582 4.402-9.59-.008.055 2.95 5.18 3.164 10.887z" fill="#302EA7"/><path d="M23.633 181.684c6.012 2.504 10.887-.434 10.87-.395-.066-.012-4.507-5.391-9.995-8.035-5.543-2.645-10.82-1.356-10.836-1.316-.074-.02 3.883 7.234 9.96 9.746zm6.097-22.493c-.804 5.633-4.609 9.618-4.644 9.602-.024.07-3.68-6.27-2.52-12.199 1.137-5.875 5.977-8.571 5.938-8.586-.016.054 2.008 5.59 1.226 11.183z" fill="#302EA7"/><path d="M14.605 167.164c5.426 3.492 10.68 1.481 10.657 1.52-.055-.024-3.434-6.032-8.348-9.582-4.965-3.559-10.348-3.235-10.367-3.2-.07-.031 2.57 7.75 8.058 11.262zm9.801-20.871c-1.734 5.367-6.136 8.578-6.168 8.562-.035.063-2.535-6.777-.406-12.382 2.09-5.555 7.277-7.34 7.242-7.364-.023.051 1.04 5.852-.668 11.184z" fill="#302EA7"/><path d="M8.266 151.402c4.718 4.375 10.191 3.34 10.164 3.375-.051-.031-2.336-6.5-6.555-10.855-4.262-4.367-9.59-5.016-9.613-4.984-.063-.043 1.226 8.062 6.004 12.464zm13.086-18.711c-2.594 4.965-7.438 7.329-7.47 7.305-.042.059-1.35-7.101 1.669-12.242 2.972-5.094 8.351-5.934 8.32-5.957-.031.043.04 5.961-2.52 10.894z" fill="#302EA7"/><path d="M4.695 134.828c3.895 5.141 9.422 5.098 9.39 5.125-.042-.039-1.206-6.793-4.608-11.84-3.446-5.066-8.547-6.66-8.579-6.632-.054-.051-.148 8.168 3.797 13.347zm15.938-16.09c-3.375 4.442-8.508 5.895-8.535 5.867-.051.051-.133-7.242 3.695-11.793 3.781-4.511 9.195-4.382 9.168-4.414-.043.043-.996 5.926-4.328 10.34z" fill="#302EA7"/><path d="M3.973 117.859c2.945 5.774 8.367 6.719 8.328 6.743-.035-.043-.043-6.911-2.508-12.52-2.504-5.633-7.215-8.133-7.25-8.113-.047-.059-1.563 8.074 1.43 13.89zm18.351-13.078c-4.078 3.809-9.348 4.324-9.367 4.293-.059.047 1.117-7.199 5.684-11.05 4.511-3.82 9.797-2.735 9.773-2.766-.05.031-2.059 5.738-6.09 9.523z" fill="#302EA7"/><path d="M6.184 100.926c1.867 6.261 7.015 8.164 6.972 8.183-.027-.05 1.149-6.859-.258-12.886-1.437-6.059-5.578-9.391-5.62-9.375-.04-.067-3.009 7.77-1.094 14.078zm20.316-9.75c-4.7 3.082-9.941 2.652-9.96 2.617-.071.035 2.401-6.98 7.628-10.031 5.16-3.032 10.148-1.02 10.133-1.055-.063.023-3.153 5.398-7.801 8.469z" fill="#302EA7"/><path d="M11.406 84.457c.668 6.582 5.371 9.39 5.324 9.406-.02-.054 2.368-6.632 2.149-12.918-.246-6.324-3.649-10.402-3.695-10.39-.032-.07-4.489 7.265-3.778 13.902zM33.23 78.27c-5.242 2.273-10.296.918-10.312.883-.078.023 3.727-6.583 9.527-8.75 5.73-2.16 10.258.718 10.246.683-.074.016-4.277 4.914-9.46 7.184z" fill="#302EA7"/><path d="M19.723 68.879c-.665 6.727 3.425 10.367 3.37 10.375-.011-.055 3.618-6.234 4.715-12.61 1.075-6.406-1.406-11.113-1.456-11.109-.028-.074-6 6.555-6.63 13.344zm22.867-2.461c-5.7 1.406-10.403-.84-10.41-.879-.09.012 5.078-5.992 11.375-7.215 6.215-1.222 10.109 2.446 10.097 2.407-.078.007-5.43 4.277-11.062 5.687z" fill="#302EA7"/><path d="M31.219 54.621c-2.121 6.68 1.168 11.055 1.11 11.05-.005-.054 4.898-5.663 7.44-11.929 2.524-6.312 1.145-11.5 1.086-11.504-.015-.078-7.543 5.637-9.636 12.383z" fill="#302EA7"/><path d="M98.352 210.312l-.067-1.242c-10.285.543-20.465-.984-30.25-4.535-9.535-3.465-18.285-8.691-26.012-15.543-16.03-14.215-25.968-34.012-27.984-55.75-1.652-17.797.133-33.531 5.293-46.773 5.547-14.219 14.883-25.16 27.75-32.512l-.621-1.078c-13.117 7.496-22.633 18.648-28.285 33.137-5.235 13.421-7.043 29.351-5.375 47.343 2.043 22.051 12.129 42.141 28.398 56.563 7.844 6.957 16.73 12.266 26.414 15.781 9.942 3.609 20.281 5.16 30.739 4.609zM199.836 46.805c4.582 3.875 5.617 10.183 5.617 10.183s-6.394.028-10.976-3.843c-4.582-3.876-5.618-10.184-5.618-10.184s6.395-.027 10.977 3.844zm-25.555 150.047c-3.629 5.035-3.644 10.824-3.594 10.839-.007.071 7.922-2.468 11.317-8 3.402-5.464 1.437-10.921 1.492-10.906-.02.051-5.59 3.078-9.215 8.067z" fill="#302EA7"/><path d="M180.535 213.582c-7.086-.93-9.91-6.152-9.906-6.106.086.024 7.543-2.433 14.07-1.914 6.59.551 10.598 4.481 10.598 4.524.094.019-7.606 4.453-14.762 3.496zm7.426-23.363c-2.418 5.461-1.266 11.035-1.219 11.043-.004.078 6.91-3.688 9.067-9.602 2.164-5.847-.735-10.793-.684-10.785-.012.055-4.742 3.922-7.164 9.344z" fill="#302EA7"/><path d="M197.133 205.313c-6.84.281-10.496-4.29-10.488-4.243.078.008 6.558-3.597 12.851-4.191 6.356-.574 10.942 2.543 10.949 2.586.09.004-6.398 5.582-13.312 5.848zm2.527-23.813c-1.277 5.695.902 10.883.949 10.883.004.074 5.868-4.727 6.848-10.828.996-6.032-2.699-10.332-2.652-10.332 0 .054-3.86 4.625-5.145 10.277z" fill="#302EA7"/><path d="M211.293 194.539c-6.488 1.43-10.828-2.371-10.816-2.328.07 0 5.546-4.578 11.496-6.234 6.007-1.645 11.015.585 11.031.628.082-.011-5.16 6.508-11.711 7.934zm-1.988-23.496c-.203 5.75 2.863 10.398 2.906 10.391.012.07 4.789-5.594 4.664-11.688-.106-6.039-4.445-9.582-4.402-9.59.004.055-2.954 5.18-3.168 10.887z" fill="#302EA7"/><path d="M222.922 181.684c-6.012 2.504-10.887-.434-10.871-.395.066-.012 4.508-5.391 9.996-8.035 5.543-2.645 10.82-1.356 10.836-1.316.078-.02-3.879 7.234-9.961 9.746zm-6.098-22.493c.805 5.633 4.61 9.618 4.649 9.602.019.07 3.679-6.27 2.515-12.199-1.133-5.875-5.972-8.571-5.937-8.586.019.054-2.008 5.59-1.227 11.183z" fill="#302EA7"/><path d="M231.949 167.164c-5.426 3.492-10.676 1.481-10.656 1.52.058-.024 3.437-6.032 8.351-9.582 4.961-3.559 10.344-3.235 10.364-3.2.07-.031-2.567 7.75-8.059 11.262zm-9.801-20.871c1.735 5.367 6.137 8.578 6.168 8.562.036.063 2.536-6.777.407-12.382-2.09-5.555-7.278-7.34-7.243-7.364.024.051-1.039 5.852.668 11.184z" fill="#302EA7"/><path d="M238.289 151.402c-4.719 4.375-10.191 3.34-10.164 3.375.051-.031 2.336-6.5 6.555-10.855 4.261-4.367 9.59-5.016 9.617-4.984.058-.043-1.231 8.062-6.008 12.464zm-13.082-18.711c2.594 4.965 7.434 7.329 7.465 7.305.043.059 1.351-7.101-1.664-12.242-2.977-5.094-8.356-5.934-8.324-5.957.035.043-.036 5.961 2.523 10.894z" fill="#302EA7"/><path d="M241.863 134.828c-3.894 5.141-9.425 5.098-9.394 5.125.043-.039 1.207-6.793 4.609-11.84 3.445-5.066 8.547-6.66 8.582-6.632.051-.051.149 8.168-3.797 13.347zm-15.937-16.09c3.371 4.442 8.508 5.895 8.535 5.867.051.051.133-7.242-3.699-11.793-3.782-4.511-9.196-4.382-9.168-4.414.043.043.996 5.926 4.332 10.34z" fill="#302EA7"/><path d="M242.582 117.859c-2.941 5.774-8.367 6.719-8.328 6.743.035-.043.043-6.911 2.512-12.52 2.503-5.633 7.211-8.133 7.25-8.113.046-.059 1.558 8.074-1.434 13.89zm-18.352-13.078c4.079 3.809 9.348 4.324 9.368 4.293.062.047-1.118-7.199-5.684-11.05-4.512-3.82-9.793-2.735-9.77-2.766.051.031 2.055 5.738 6.086 9.523z" fill="#302EA7"/><path d="M240.375 100.926c-1.871 6.261-7.02 8.164-6.977 8.183.028-.05-1.148-6.859.258-12.886 1.438-6.059 5.582-9.391 5.625-9.375.039-.067 3.004 7.77 1.094 14.078zm-20.32-9.75c4.699 3.082 9.945 2.652 9.965 2.617.066.035-2.407-6.98-7.629-10.031-5.164-3.032-10.153-1.02-10.137-1.055.062.023 3.156 5.398 7.801 8.469z" fill="#302EA7"/><path d="M235.148 84.457c-.664 6.582-5.371 9.39-5.32 9.406.02-.054-2.367-6.632-2.152-12.918.246-6.324 3.648-10.402 3.695-10.39.031-.07 4.488 7.265 3.777 13.902zm-21.824-6.187c5.242 2.273 10.297.918 10.313.883.078.023-3.727-6.583-9.528-8.75-5.73-2.16-10.257.718-10.242.683.07.016 4.278 4.914 9.457 7.184z" fill="#302EA7"/><path d="M226.832 68.879c.664 6.727-3.426 10.367-3.371 10.375.012-.055-3.617-6.234-4.715-12.61-1.074-6.406 1.406-11.113 1.461-11.109.023-.074 6 6.555 6.625 13.344zm-22.867-2.461c5.703 1.406 10.402-.84 10.414-.879.086.012-5.082-5.992-11.375-7.215-6.219-1.222-10.113 2.446-10.102 2.407.082.007 5.434 4.277 11.063 5.687z" fill="#302EA7"/><path d="M215.336 54.621c2.125 6.68-1.168 11.055-1.109 11.05.003-.054-4.895-5.663-7.442-11.929-2.523-6.312-1.144-11.5-1.086-11.504.016-.078 7.543 5.637 9.637 12.383z" fill="#302EA7"/><path d="M148.203 210.312l.067-1.242c10.289.543 20.464-.984 30.25-4.535 9.535-3.465 18.285-8.691 26.011-15.543 16.031-14.215 25.969-34.012 27.989-55.75 1.648-17.797-.133-33.531-5.297-46.773-5.547-14.219-14.883-25.16-27.746-32.512l.617-1.078c13.117 7.496 22.636 18.648 28.285 33.137 5.238 13.421 7.043 29.351 5.375 47.343-2.043 22.051-12.129 42.141-28.399 56.563-7.843 6.957-16.726 12.266-26.41 15.781-9.945 3.609-20.285 5.16-30.742 4.609z" fill="#302EA7"/><path d="M124.625.371l5.285 10.711 11.828 1.719-8.558 8.34 2.019 11.777-10.574-5.559-10.578 5.559 2.019-11.777-8.554-8.34 11.824-1.719 5.289-10.71zm0 192.957l5.285 10.715 11.828 1.719-8.558 8.34 2.019 11.777-10.574-5.563-10.578 5.563 2.019-11.777-8.554-8.34 11.824-1.719 5.289-10.715zM83.898 20.316l3.903 7.915 8.734 1.269-6.32 6.16 1.492 8.7-7.809-4.106-7.812 4.105 1.492-8.699-6.32-6.16 8.73-1.27 3.91-7.914zm81.454 0l3.906 7.915 8.734 1.269-6.32 6.16 1.492 8.7-7.812-4.106-7.813 4.105 1.492-8.699-6.32-6.16 8.734-1.27 3.907-7.914z" fill="#FCAA23"/></svg>