<?xml version="1.0" encoding="utf-8"?>
<!-- Generator: Adobe Illustrator 23.1.0, SVG Export Plug-In . SVG Version: 6.00 Build 0)  -->
<svg version="1.1" id="Слой_1" xmlns="http://www.w3.org/2000/svg" xmlns:xlink="http://www.w3.org/1999/xlink" x="0px" y="0px"
	 viewBox="0 0 992.13 425.2" style="enable-background:new 0 0 992.13 425.2;" xml:space="preserve">
<style type="text/css">
	.st0{clip-path:url(#SVGID_2_);}
	.st1{fill:#F8AA29;}
	.st2{fill:#FFFFFF;}
	.st3{fill:#353C90;}
	.st4{enable-background:new    ;}
</style>
<g>
	<g id="g24">
		<g>
			<defs>
				<rect id="SVGID_1_" x="-78.51" y="-2.23" width="504.08" height="504.08"/>
			</defs>
			<clipPath id="SVGID_2_">
				<use xlink:href="#SVGID_1_"  style="overflow:visible;"/>
			</clipPath>
			<g id="g26" class="st0">
				<g id="g32" transform="translate(222.7983,336.8383)">
					<g id="path34">
						<path class="st1" d="M-112.64-120.22c-0.05,0.01-0.1,0.02-0.14,0.03C-112.73-120.21-112.69-120.22-112.64-120.22
							 M-111.7-120.34c-0.06,0.01-0.12,0.01-0.19,0.02C-111.83-120.33-111.77-120.34-111.7-120.34 M-113.58-120.02
							c-0.02,0.01-0.04,0.01-0.06,0.02C-113.62-120.01-113.6-120.02-113.58-120.02 M-49.73-96.59L-49.73-96.59L-49.73-96.59
							L-49.73-96.59L-49.73-96.59z M-6.31-93.51l-18.27,7.38l-21.98,8.88c-0.01,0-0.02,0.01-0.03,0.01l-0.12,0.05
							c-0.06,0.02-0.12,0.04-0.18,0.06c-0.17,0.07-0.35,0.13-0.53,0.18c-0.1,0.03-0.2,0.05-0.3,0.08c-0.15,0.04-0.3,0.08-0.46,0.11
							c-0.12,0.02-0.24,0.04-0.36,0.06c-0.14,0.02-0.28,0.04-0.42,0.06c-0.13,0.01-0.26,0.02-0.38,0.03
							c-0.13,0.01-0.26,0.01-0.4,0.01h0c-0.22,0-0.45-0.01-0.67-0.03c-0.04,0-0.07,0-0.1-0.01c-0.2-0.02-0.39-0.05-0.59-0.08
							c-0.06-0.01-0.13-0.02-0.19-0.03c-0.03-0.01-0.06-0.01-0.08-0.02c-0.15-0.03-0.29-0.07-0.44-0.11
							c-0.08-0.02-0.16-0.04-0.23-0.06c-0.18-0.05-0.35-0.12-0.53-0.18c-0.06-0.02-0.12-0.04-0.18-0.06l-60.81-24.57
							c-4.12-1.66-6.35-6.31-4.76-10.46c1.62-4.22,6.38-6.28,10.55-4.6l54.04,21.83l0.91,0.37c1.98,0.8,4.19,0.8,6.16,0l48.86-19.74
							l10.18-4.11c1.21-0.48,1.09-1.9,0.07-2.44l-56.33-25.4c-3.73-1.68-7.99-1.68-11.72,0l-58.91,26.57
							c-2.92,1.04-5.31,3.27-6.52,6.27c-2.28,5.65,0.46,12.1,6.11,14.39l60.78,24.56c0.72,0.31,1.47,0.55,2.25,0.7
							c0.05,0.01,0.1,0.02,0.14,0.03c0.27,0.05,0.54,0.09,0.81,0.12c0.08,0.01,0.16,0.02,0.24,0.03c0.32,0.03,0.64,0.04,0.97,0.04h0
							h0c1.42,0,2.81-0.27,4.14-0.81l55.68-22.49c2.7-1.09,3.17-2.07,3.17-4.5L-6.31-93.51z"/>
					</g>
				</g>
				<g id="g36" transform="translate(297.0827,289.7828)">
					<g id="path38">
						<path class="st1" d="M-124.02-33.32c-0.86,0-1.72-0.13-2.57-0.38c-0.03-0.01-0.06-0.02-0.09-0.03l-58.61-23.72
							c-0.48-0.19-0.71-0.74-0.51-1.22c0.19-0.48,0.74-0.71,1.22-0.51l58.57,23.7c1.35,0.39,2.66,0.39,4.02,0l56.55-22.8
							c0.48-0.19,1.02,0.04,1.21,0.52c0.19,0.48-0.04,1.02-0.52,1.22l-56.59,22.82c-0.03,0.01-0.06,0.02-0.09,0.03
							C-122.3-33.45-123.16-33.32-124.02-33.32"/>
					</g>
				</g>
				<g id="g40" transform="translate(297.0827,297.4661)">
					<g id="path42">
						<path class="st1" d="M-124.02-47.51c-0.86,0-1.72-0.13-2.57-0.38c-0.03-0.01-0.06-0.02-0.09-0.03l-58.61-23.72
							c-0.48-0.19-0.71-0.74-0.51-1.22c0.19-0.48,0.74-0.71,1.22-0.52l58.57,23.7c1.35,0.39,2.66,0.39,4.02,0l56.55-22.8
							c0.48-0.19,1.02,0.04,1.21,0.52c0.19,0.48-0.04,1.02-0.52,1.22l-56.59,22.82c-0.03,0.01-0.06,0.02-0.09,0.03
							C-122.3-47.64-123.16-47.51-124.02-47.51"/>
					</g>
				</g>
				<g id="g44" transform="translate(291.687,402.9726)">
					<g id="path46">
						<path class="st1" d="M-123.19-242.36l-46.12,21.06c-1.16,0.53-1.16,2.18,0,2.71l46.12,21.06c1.39,0.64,3,0.64,4.39,0
							l46.12-21.06c1.16-0.53,1.16-2.18,0-2.71l-46.12-21.06C-120.2-243-121.8-243-123.19-242.36"/>
					</g>
				</g>
				<g id="g48" transform="translate(293.9861,320.5894)">
					<g id="path50">
						<path class="st2" d="M-123.55-90.22c-20.28,0-35.58-6.9-35.58-16.06v-23.93l32.48,14.83c1.06,0.48,2.19,0.73,3.35,0.73
							s2.29-0.25,3.35-0.73l31.99-14.61v23.71C-87.96-97.12-103.26-90.22-123.55-90.22"/>
					</g>
				</g>
				<g id="g52" transform="translate(299.5032,347.5187)">
					<g id="path54">
						<path class="st1" d="M-124.39-139.95c-1.4,0.64-2.89,0.96-4.42,0.96c-1.54,0-3.03-0.32-4.42-0.96l-28.82-13.16v19.9
							c0,7.44,14.77,13.47,33,13.47c18.22,0,33-6.03,33-13.47v-19.68L-124.39-139.95z"/>
					</g>
				</g>
				<g id="g56" transform="translate(217.7199,414.4704)">
					<g id="path58">
						<path class="st3" d="M-111.86-263.6c-3.88,3.28-4.76,8.62-4.76,8.62s5.41,0.02,9.29-3.26c3.88-3.28,4.76-8.62,4.76-8.62
							S-107.98-266.87-111.86-263.6"/>
					</g>
				</g>
				<g id="g60" transform="translate(243.2759,264.4245)">
					<g id="path62">
						<path class="st3" d="M-115.78,13.51c3.07,4.27,3.08,9.16,3.04,9.18c0.01,0.06-6.71-2.09-9.58-6.78
							c-2.88-4.63-1.22-9.25-1.26-9.24C-123.57,6.72-118.85,9.28-115.78,13.51"/>
					</g>
				</g>
				<g id="g64" transform="translate(237.0227,247.6927)">
					<g id="path66">
						<path class="st3" d="M-114.82,44.41c6-0.79,8.39-5.21,8.39-5.17c-0.07,0.02-6.39-2.06-11.91-1.62
							c-5.58,0.47-8.98,3.8-8.98,3.83C-127.4,41.46-120.88,45.22-114.82,44.41"/>
					</g>
				</g>
				<g id="g68" transform="translate(229.5951,271.0586)">
					<g id="path70">
						<path class="st3" d="M-113.68,1.26c2.05,4.63,1.07,9.35,1.03,9.35c0,0.06-5.85-3.12-7.68-8.13c-1.83-4.95,0.62-9.14,0.58-9.13
							C-119.74-6.61-115.73-3.33-113.68,1.26"/>
					</g>
				</g>
				<g id="g72" transform="translate(220.4217,255.9621)">
					<g id="path74">
						<path class="st3" d="M-112.27,29.14c5.79,0.24,8.89-3.63,8.88-3.59c-0.07,0.01-5.55-3.05-10.88-3.55
							c-5.38-0.49-9.26,2.15-9.27,2.19C-123.62,24.19-118.13,28.91-112.27,29.14"/>
					</g>
				</g>
				<g id="g76" transform="translate(217.8961,279.7759)">
					<g id="path78">
						<path class="st3" d="M-111.89-14.84c1.08,4.82-0.76,9.22-0.8,9.22c0,0.06-4.97-4-5.8-9.17c-0.84-5.11,2.28-8.75,2.25-8.75
							C-116.24-23.5-112.98-19.63-111.89-14.84"/>
					</g>
				</g>
				<g id="g80" transform="translate(206.2648,266.7356)">
					<g id="path82">
						<path class="st3" d="M-110.11,9.24c5.49,1.21,9.17-2.01,9.16-1.97c-0.06,0-4.7-3.88-9.73-5.28c-5.09-1.39-9.33,0.5-9.34,0.53
							C-120.09,2.51-115.66,8.03-110.11,9.24"/>
					</g>
				</g>
				<g id="g84" transform="translate(208.2517,290.2325)">
					<g id="path86">
						<path class="st3" d="M-110.41-34.15c0.17,4.87-2.43,8.8-2.46,8.8c-0.01,0.06-4.06-4.74-3.95-9.9
							c0.09-5.11,3.76-8.11,3.73-8.12C-113.1-43.33-110.59-38.98-110.41-34.15"/>
					</g>
				</g>
				<g id="g88" transform="translate(194.6321,279.5928)">
					<g id="path90">
						<path class="st3" d="M-108.32-14.5c5.09,2.12,9.22-0.37,9.21-0.33c-0.05-0.01-3.82-4.57-8.46-6.81
							c-4.7-2.24-9.16-1.14-9.18-1.11C-116.82-22.77-113.47-16.63-108.32-14.5"/>
					</g>
				</g>
				<g id="g92" transform="translate(200.7314,302.0841)">
					<g id="path94">
						<path class="st3" d="M-109.26-56.04c-0.68,4.77-3.9,8.14-3.94,8.13c-0.02,0.06-3.12-5.31-2.13-10.33
							c0.96-4.97,5.06-7.26,5.03-7.27C-110.31-65.47-108.6-60.78-109.26-56.04"/>
					</g>
				</g>
				<g id="g96" transform="translate(185.6062,294.1129)">
					<g id="path98">
						<path class="st3" d="M-106.94-41.32c4.6,2.96,9.04,1.25,9.02,1.29c-0.05-0.02-2.91-5.11-7.07-8.11
							c-4.2-3.01-8.76-2.74-8.78-2.71C-113.82-50.88-111.59-44.29-106.94-41.32"/>
					</g>
				</g>
				<g id="g100" transform="translate(195.4068,314.9837)">
					<g id="path102">
						<path class="st3" d="M-108.44-79.86c-1.47,4.55-5.2,7.27-5.22,7.25c-0.03,0.05-2.15-5.74-0.34-10.49
							c1.77-4.7,6.16-6.22,6.13-6.23C-107.9-89.29-107-84.38-108.44-79.86"/>
					</g>
				</g>
				<g id="g104" transform="translate(179.2657,309.8728)">
					<g id="path106">
						<path class="st3" d="M-105.97-70.42c4,3.7,8.63,2.83,8.61,2.86c-0.04-0.03-1.98-5.5-5.55-9.19c-3.61-3.7-8.12-4.25-8.14-4.22
							C-111.11-81.02-110.02-74.15-105.97-70.42"/>
					</g>
				</g>
				<g id="g108" transform="translate(192.3503,328.5845)">
					<g id="path110">
						<path class="st3" d="M-107.97-104.98c-2.2,4.21-6.3,6.2-6.32,6.18c-0.03,0.05-1.14-6.01,1.41-10.37
							c2.52-4.31,7.07-5.02,7.05-5.05C-105.87-114.17-105.81-109.16-107.97-104.98"/>
					</g>
				</g>
				<g id="g112" transform="translate(175.6942,326.4489)">
					<g id="path114">
						<path class="st3" d="M-105.42-101.04c3.3,4.35,7.98,4.32,7.95,4.34c-0.04-0.03-1.02-5.75-3.9-10.03
							c-2.92-4.29-7.24-5.64-7.26-5.62C-108.68-112.38-108.76-105.42-105.42-101.04"/>
					</g>
				</g>
				<g id="g116" transform="translate(191.6318,342.5376)">
					<g id="path118">
						<path class="st3" d="M-107.86-130.75c-2.86,3.76-7.2,4.99-7.23,4.97c-0.04,0.04-0.11-6.13,3.13-9.99
							c3.2-3.82,7.78-3.71,7.76-3.74C-104.23-139.47-105.04-134.49-107.86-130.75"/>
					</g>
				</g>
				<g id="g120" transform="translate(174.9731,343.4174)">
					<g id="path122">
						<path class="st3" d="M-105.31-132.37c2.49,4.89,7.08,5.69,7.05,5.71c-0.03-0.04-0.04-5.85-2.13-10.6
							c-2.12-4.77-6.11-6.89-6.14-6.87C-106.56-144.19-107.85-137.3-105.31-132.37"/>
					</g>
				</g>
				<g id="g124" transform="translate(193.325,356.4941)">
					<g id="path126">
						<path class="st3" d="M-108.12-156.52c-3.45,3.22-7.92,3.66-7.93,3.64c-0.05,0.04,0.95-6.1,4.81-9.36
							c3.82-3.24,8.29-2.32,8.27-2.34C-103.01-164.56-104.71-159.73-108.12-156.52"/>
					</g>
				</g>
				<g id="g128" transform="translate(177.1825,360.3503)">
					<g id="path130">
						<path class="st3" d="M-105.65-163.65c1.58,5.3,5.94,6.91,5.91,6.93c-0.02-0.04,0.97-5.81-0.22-10.91
							c-1.22-5.13-4.73-7.95-4.76-7.94C-104.76-175.62-107.27-168.99-105.65-163.65"/>
					</g>
				</g>
				<g id="g132" transform="translate(197.5012,370.1009)">
					<g id="path134">
						<path class="st3" d="M-108.76-181.65c-3.98,2.61-8.42,2.25-8.44,2.22c-0.06,0.03,2.04-5.91,6.46-8.5
							c4.37-2.57,8.6-0.86,8.58-0.89C-102.21-188.8-104.83-184.25-108.76-181.65"/>
					</g>
				</g>
				<g id="g136" transform="translate(182.4048,376.8201)">
					<g id="path138">
						<path class="st3" d="M-106.45-194.06c0.57,5.57,4.55,7.95,4.51,7.96c-0.02-0.04,2.01-5.62,1.82-10.94
							c-0.21-5.35-3.09-8.81-3.13-8.8C-103.28-205.89-107.05-199.68-106.45-194.06"/>
					</g>
				</g>
				<g id="g140" transform="translate(204.2317,383.007)">
					<g id="path142">
						<path class="st3" d="M-109.79-205.49c-4.44,1.93-8.72,0.78-8.73,0.75c-0.07,0.02,3.16-5.57,8.07-7.41
							c4.85-1.83,8.69,0.61,8.68,0.58C-101.85-211.56-105.41-207.41-109.79-205.49"/>
					</g>
				</g>
				<g id="g144" transform="translate(190.7234,392.3982)">
					<g id="path146">
						<path class="st3" d="M-107.72-222.83c-0.56,5.7,2.9,8.78,2.86,8.79c-0.01-0.05,3.06-5.28,3.99-10.68
							c0.91-5.43-1.19-9.41-1.24-9.41C-102.14-234.19-107.19-228.58-107.72-222.83"/>
					</g>
				</g>
				<g id="g148" transform="translate(213.5899,394.8577)">
					<g id="path150">
						<path class="st3" d="M-111.23-227.37c-4.83,1.19-8.81-0.71-8.82-0.74c-0.07,0.01,4.3-5.07,9.63-6.11
							c5.26-1.03,8.56,2.07,8.55,2.04C-101.93-232.18-106.46-228.57-111.23-227.37"/>
					</g>
				</g>
				<g id="g152" transform="translate(202.2199,406.6546)">
					<g id="path154">
						<path class="st3" d="M-109.49-249.16c-1.8,5.66,0.99,9.36,0.94,9.36c0-0.05,4.15-4.8,6.3-10.1c2.14-5.34,0.97-9.74,0.92-9.74
							C-101.34-259.71-107.71-254.87-109.49-249.16"/>
					</g>
				</g>
				<g id="g156" transform="translate(269.3514,250.9649)">
					<g id="path158">
						<path class="st3" d="M-119.77,38.37l-0.06-1.05c-8.71,0.46-17.33-0.83-25.62-3.84c-8.08-2.93-15.48-7.36-22.03-13.16
							c-13.57-12.04-21.99-28.8-23.7-47.21c-1.4-15.07,0.11-28.4,4.48-39.61c4.7-12.04,12.6-21.3,23.5-27.53l-0.52-0.91
							c-11.11,6.35-19.17,15.79-23.95,28.06c-4.43,11.37-5.96,24.85-4.55,40.09c1.73,18.67,10.27,35.68,24.05,47.9
							c6.64,5.89,14.17,10.39,22.36,13.36C-137.38,37.52-128.63,38.83-119.77,38.37"/>
					</g>
				</g>
				<g id="g160" transform="translate(370.8361,414.4704)">
					<g id="path162">
						<path class="st3" d="M-135.32-263.6c3.88,3.28,4.76,8.62,4.76,8.62s-5.41,0.02-9.29-3.26c-3.88-3.28-4.76-8.62-4.76-8.62
							S-139.2-266.87-135.32-263.6"/>
					</g>
				</g>
				<g id="g164" transform="translate(345.2803,264.4245)">
					<g id="path166">
						<path class="st3" d="M-131.4,13.51c-3.07,4.27-3.08,9.16-3.04,9.18c-0.01,0.06,6.71-2.09,9.58-6.78
							c2.88-4.63,1.22-9.25,1.26-9.24C-123.62,6.72-128.33,9.28-131.4,13.51"/>
					</g>
				</g>
				<g id="g168" transform="translate(351.5333,247.6927)">
					<g id="path170">
						<path class="st3" d="M-132.36,44.41c-6-0.79-8.39-5.21-8.39-5.17c0.07,0.02,6.39-2.06,11.91-1.62
							c5.58,0.47,8.98,3.8,8.98,3.83C-119.78,41.46-126.3,45.22-132.36,44.41"/>
					</g>
				</g>
				<g id="g172" transform="translate(358.9611,271.0586)">
					<g id="path174">
						<path class="st3" d="M-133.5,1.26c-2.05,4.63-1.07,9.35-1.03,9.35c0,0.06,5.85-3.12,7.68-8.13c1.83-4.95-0.62-9.14-0.58-9.13
							C-127.44-6.61-131.45-3.33-133.5,1.26"/>
					</g>
				</g>
				<g id="g176" transform="translate(368.1343,255.9621)">
					<g id="path178">
						<path class="st3" d="M-134.91,29.14c-5.79,0.24-8.89-3.63-8.88-3.59c0.07,0.01,5.55-3.05,10.88-3.55
							c5.38-0.49,9.26,2.15,9.27,2.19C-123.56,24.19-129.05,28.91-134.91,29.14"/>
					</g>
				</g>
				<g id="g180" transform="translate(370.6598,279.7759)">
					<g id="path182">
						<path class="st3" d="M-135.29-14.84c-1.08,4.82,0.76,9.22,0.8,9.22c0,0.06,4.97-4,5.8-9.17c0.84-5.11-2.28-8.75-2.25-8.75
							C-130.94-23.5-134.2-19.63-135.29-14.84"/>
					</g>
				</g>
				<g id="g184" transform="translate(382.2912,266.7356)">
					<g id="path186">
						<path class="st3" d="M-137.07,9.24c-5.49,1.21-9.17-2.01-9.16-1.97c0.06,0,4.7-3.88,9.73-5.28c5.09-1.39,9.33,0.5,9.34,0.53
							C-127.09,2.51-131.52,8.03-137.07,9.24"/>
					</g>
				</g>
				<g id="g188" transform="translate(380.3043,290.2325)">
					<g id="path190">
						<path class="st3" d="M-136.77-34.15c-0.17,4.87,2.43,8.8,2.46,8.8c0.01,0.06,4.06-4.74,3.95-9.9
							c-0.09-5.11-3.76-8.11-3.73-8.12C-134.08-43.33-136.59-38.98-136.77-34.15"/>
					</g>
				</g>
				<g id="g192" transform="translate(393.9238,279.5928)">
					<g id="path194">
						<path class="st3" d="M-138.86-14.5c-5.09,2.12-9.22-0.37-9.21-0.33c0.05-0.01,3.82-4.57,8.46-6.81
							c4.69-2.24,9.16-1.14,9.18-1.11C-130.36-22.77-133.71-16.63-138.86-14.5"/>
					</g>
				</g>
				<g id="g196" transform="translate(387.8244,302.0841)">
					<g id="path198">
						<path class="st3" d="M-137.92-56.04c0.68,4.77,3.9,8.14,3.94,8.13c0.02,0.06,3.12-5.31,2.13-10.33
							c-0.96-4.97-5.06-7.26-5.03-7.27C-136.87-65.47-138.58-60.78-137.92-56.04"/>
					</g>
				</g>
				<g id="g200" transform="translate(402.9496,294.1129)">
					<g id="path202">
						<path class="st3" d="M-140.24-41.32c-4.6,2.96-9.04,1.25-9.02,1.29c0.05-0.02,2.91-5.11,7.07-8.11
							c4.2-3.01,8.76-2.74,8.78-2.71C-133.36-50.88-135.59-44.29-140.24-41.32"/>
					</g>
				</g>
				<g id="g204" transform="translate(393.1491,314.9837)">
					<g id="path206">
						<path class="st3" d="M-138.74-79.86c1.47,4.55,5.2,7.27,5.22,7.25c0.03,0.05,2.15-5.74,0.34-10.49
							c-1.77-4.7-6.16-6.22-6.13-6.23C-139.28-89.29-140.18-84.38-138.74-79.86"/>
					</g>
				</g>
				<g id="g208" transform="translate(409.2903,309.8728)">
					<g id="path210">
						<path class="st3" d="M-141.21-70.42c-4,3.7-8.63,2.83-8.61,2.86c0.04-0.03,1.98-5.5,5.55-9.19c3.61-3.7,8.12-4.25,8.14-4.22
							C-136.07-81.02-137.17-74.15-141.21-70.42"/>
					</g>
				</g>
				<g id="g212" transform="translate(396.2055,328.5845)">
					<g id="path214">
						<path class="st3" d="M-139.21-104.98c2.2,4.21,6.3,6.2,6.32,6.18c0.03,0.05,1.14-6.01-1.41-10.37
							c-2.52-4.31-7.07-5.02-7.05-5.05C-141.31-114.17-141.37-109.16-139.21-104.98"/>
					</g>
				</g>
				<g id="g216" transform="translate(412.8616,326.4489)">
					<g id="path218">
						<path class="st3" d="M-141.76-101.04c-3.3,4.35-7.98,4.32-7.95,4.34c0.04-0.03,1.02-5.75,3.9-10.03
							c2.92-4.29,7.24-5.64,7.27-5.62C-138.5-112.38-138.42-105.42-141.76-101.04"/>
					</g>
				</g>
				<g id="g220" transform="translate(396.9242,342.5376)">
					<g id="path222">
						<path class="st3" d="M-139.32-130.75c2.86,3.76,7.2,4.99,7.23,4.97c0.04,0.04,0.11-6.13-3.13-9.99
							c-3.2-3.82-7.78-3.71-7.76-3.74C-142.95-139.47-142.14-134.49-139.32-130.75"/>
					</g>
				</g>
				<g id="g224" transform="translate(413.5827,343.4174)">
					<g id="path226">
						<path class="st3" d="M-141.87-132.37c-2.49,4.89-7.08,5.69-7.05,5.71c0.03-0.04,0.04-5.85,2.13-10.6
							c2.12-4.77,6.11-6.89,6.14-6.87C-140.62-144.19-139.33-137.3-141.87-132.37"/>
					</g>
				</g>
				<g id="g228" transform="translate(395.231,356.4941)">
					<g id="path230">
						<path class="st3" d="M-139.06-156.52c3.45,3.22,7.91,3.66,7.93,3.64c0.05,0.04-0.95-6.1-4.81-9.36
							c-3.82-3.24-8.29-2.32-8.27-2.34C-144.17-164.56-142.47-159.73-139.06-156.52"/>
					</g>
				</g>
				<g id="g232" transform="translate(411.3734,360.3503)">
					<g id="path234">
						<path class="st3" d="M-141.53-163.65c-1.58,5.3-5.94,6.91-5.91,6.93c0.02-0.04-0.97-5.81,0.22-10.91
							c1.22-5.13,4.73-7.95,4.76-7.94C-142.42-175.62-139.91-168.99-141.53-163.65"/>
					</g>
				</g>
				<g id="g236" transform="translate(391.0547,370.1009)">
					<g id="path238">
						<path class="st3" d="M-138.42-181.65c3.98,2.61,8.42,2.25,8.44,2.22c0.06,0.03-2.04-5.91-6.46-8.5
							c-4.37-2.57-8.6-0.86-8.58-0.89C-144.97-188.8-142.35-184.25-138.42-181.65"/>
					</g>
				</g>
				<g id="g240" transform="translate(406.15,376.8201)">
					<g id="path242">
						<path class="st3" d="M-140.73-194.06c-0.56,5.57-4.55,7.95-4.51,7.96c0.02-0.04-2-5.62-1.82-10.94
							c0.21-5.35,3.09-8.81,3.13-8.8C-143.9-205.89-140.13-199.68-140.73-194.06"/>
					</g>
				</g>
				<g id="g244" transform="translate(384.3243,383.007)">
					<g id="path246">
						<path class="st3" d="M-137.39-205.49c4.44,1.93,8.72,0.78,8.73,0.75c0.07,0.02-3.16-5.57-8.07-7.41
							c-4.85-1.83-8.69,0.61-8.68,0.58C-145.33-211.56-141.77-207.41-137.39-205.49"/>
					</g>
				</g>
				<g id="g248" transform="translate(397.8326,392.3982)">
					<g id="path250">
						<path class="st3" d="M-139.46-222.83c0.56,5.7-2.9,8.78-2.86,8.79c0.01-0.05-3.06-5.28-3.99-10.68
							c-0.91-5.43,1.19-9.41,1.24-9.41C-145.05-234.19-139.99-228.58-139.46-222.83"/>
					</g>
				</g>
				<g id="g252" transform="translate(374.9661,394.8577)">
					<g id="path254">
						<path class="st3" d="M-135.95-227.37c4.83,1.19,8.81-0.71,8.82-0.74c0.07,0.01-4.3-5.07-9.63-6.11
							c-5.26-1.03-8.56,2.07-8.55,2.04C-145.25-232.18-140.72-228.57-135.95-227.37"/>
					</g>
				</g>
				<g id="g256" transform="translate(386.3361,406.6546)">
					<g id="path258">
						<path class="st3" d="M-137.69-249.16c1.8,5.66-0.99,9.36-0.94,9.36c0-0.05-4.15-4.8-6.3-10.1c-2.14-5.34-0.97-9.74-0.92-9.74
							C-145.84-259.71-139.47-254.87-137.69-249.16"/>
					</g>
				</g>
				<g id="g260" transform="translate(319.2047,250.9649)">
					<g id="path262">
						<path class="st3" d="M-127.41,38.37l0.06-1.05c8.71,0.46,17.33-0.83,25.62-3.84c8.08-2.93,15.48-7.36,22.03-13.16
							c13.57-12.04,21.99-28.8,23.7-47.21c1.4-15.07-0.11-28.4-4.48-39.61c-4.7-12.04-12.6-21.3-23.5-27.53l0.52-0.91
							c11.11,6.35,19.17,15.79,23.95,28.06c4.43,11.37,5.96,24.85,4.55,40.09C-56.7-8.12-65.24,8.89-79.01,21.1
							c-6.64,5.89-14.17,10.39-22.36,13.36C-109.8,37.52-118.56,38.83-127.41,38.37"/>
					</g>
				</g>
				<g id="g264" transform="translate(295.6244,460.9065)">
					<g id="path266">
						<path class="st1" d="M-123.8-349.35l4.48,9.07l10.01,1.46l-7.24,7.06l1.71,9.97l-8.96-4.71l-8.96,4.71l1.71-9.97l-7.24-7.06
							l10.01-1.46L-123.8-349.35z"/>
					</g>
				</g>
				<g id="g268" transform="translate(295.6244,267.9469)">
					<g id="path270">
						<path class="st1" d="M-123.8,7l4.48,9.07l10.01,1.46l-7.24,7.06l1.71,9.97l-8.96-4.71l-8.96,4.71l1.71-9.97l-7.24-7.06
							l10.01-1.46L-123.8,7z"/>
					</g>
				</g>
				<g id="g272" transform="translate(254.8971,440.9608)">
					<g id="path274">
						<path class="st1" d="M-117.56-312.52l3.31,6.7l7.4,1.07l-5.35,5.22l1.26,7.37l-6.61-3.48l-6.62,3.48l1.26-7.37l-5.35-5.22
							l7.4-1.07L-117.56-312.52z"/>
					</g>
				</g>
				<g id="g276" transform="translate(336.3517,440.9608)">
					<g id="path278">
						<path class="st1" d="M-130.04-312.52l3.31,6.7l7.4,1.07l-5.35,5.22l1.26,7.37l-6.62-3.48l-6.62,3.48l1.26-7.37l-5.35-5.22
							l7.4-1.07L-130.04-312.52z"/>
					</g>
				</g>
			</g>
		</g>
	</g>
	<g class="st4">
		<path class="st1" d="M299.78,122.01h69.68v18.32h-23.38v55.86h-22.92v-55.86h-23.38V122.01z"/>
	</g>
	<g class="st4">
		<path class="st1" d="M373.67,122.01h22.97v74.18h-22.97V122.01z"/>
	</g>
	<g class="st4">
		<path class="st1" d="M408.78,122.01h30.15l11.63,45.14l11.54-45.14h30.13v74.18h-18.77v-56.57l-14.46,56.57h-16.99l-14.44-56.57
			v56.57h-18.77V122.01z"/>
	</g>
	<g class="st4">
		<path class="st1" d="M507.85,122.01h61.43v15.84h-38.46v11.79h35.67v15.13h-35.67v14.62h39.57v16.8h-62.54V122.01z"/>
	</g>
	<g>
		<path class="st3" d="M577.64,122.01h22.92v55.91h35.77v18.27h-58.7V122.01z"/>
	</g>
	<g>
		<path class="st3" d="M641.53,122.01h61.43v15.84H664.5v11.79h35.67v15.13H664.5v14.62h39.57v16.8h-62.54V122.01z"/>
	</g>
	<g>
		<path class="st3" d="M756.92,183.94H730.9l-3.62,12.25h-23.4l27.88-74.18h25l27.87,74.18h-24L756.92,183.94z M752.17,167.9
			l-8.19-26.67l-8.1,26.67H752.17z"/>
	</g>
	<g>
		<path class="st3" d="M795.15,196.19v-74.18h38.2c7.08,0,12.5,0.61,16.24,1.82c3.75,1.21,6.76,3.47,9.06,6.76s3.44,7.29,3.44,12.02
			c0,4.12-0.88,7.67-2.63,10.65c-1.76,2.99-4.17,5.41-7.24,7.26c-1.96,1.18-4.64,2.16-8.05,2.93c2.73,0.91,4.72,1.82,5.97,2.73
			c0.84,0.61,2.06,1.91,3.67,3.9c1.6,1.99,2.67,3.53,3.21,4.61l11.1,21.49h-25.9l-12.25-22.67c-1.55-2.93-2.93-4.84-4.15-5.72
			c-1.65-1.15-3.53-1.72-5.62-1.72h-2.02v30.11H795.15z M818.17,152.06h9.66c1.05,0,3.07-0.34,6.07-1.01
			c1.52-0.3,2.76-1.08,3.72-2.33c0.96-1.25,1.44-2.68,1.44-4.3c0-2.4-0.76-4.23-2.28-5.52c-1.52-1.28-4.37-1.92-8.55-1.92h-10.07
			V152.06z"/>
	</g>
	<g>
		<path class="st3" d="M872.2,122.01h21.4l27.93,41.04v-41.04h21.61v74.18h-21.61l-27.78-40.73v40.73H872.2V122.01z"/>
	</g>
	<g>
	</g>
	<g>
	</g>
	<g class="st4">
		<path class="st3" d="M362.75,228.03h3.08v20.54h7.74v-20.54h3.08v20.54h7.74v-20.54h3.08v23.29h-24.72V228.03z"/>
	</g>
	<g class="st4">
		<path class="st3" d="M408.13,228.03h3.08v10.2c1.41,0,2.4-0.27,2.97-0.82s1.3-1.86,2.19-3.93c0.65-1.53,1.18-2.6,1.6-3.23
			c0.42-0.63,1.01-1.16,1.79-1.59c0.77-0.43,1.63-0.64,2.56-0.64c1.19,0,1.81,0.01,1.87,0.03v2.67c-0.11,0-0.31,0-0.62-0.02
			c-0.34-0.01-0.55-0.02-0.62-0.02c-0.98,0-1.72,0.24-2.19,0.71c-0.49,0.48-1.04,1.49-1.67,3.05c-0.78,1.97-1.45,3.21-1.99,3.73
			s-1.19,0.92-1.94,1.23c1.5,0.41,2.99,1.8,4.45,4.16l4.8,7.75h-3.83l-3.89-6.32c-1.07-1.75-1.96-2.95-2.68-3.6s-1.65-0.98-2.8-0.98
			v10.9h-3.08V228.03z"/>
	</g>
	<g class="st4">
		<path class="st3" d="M439.23,239.97c0-3.87,1.04-6.89,3.11-9.08c2.08-2.19,4.75-3.28,8.04-3.28c2.15,0,4.09,0.51,5.81,1.54
			c1.73,1.03,3.04,2.46,3.95,4.3c0.91,1.84,1.36,3.92,1.36,6.25c0,2.36-0.48,4.47-1.43,6.34c-0.95,1.86-2.3,3.28-4.05,4.23
			c-1.75,0.96-3.63,1.44-5.66,1.44c-2.19,0-4.15-0.53-5.88-1.59c-1.73-1.06-3.03-2.5-3.92-4.34S439.23,242.02,439.23,239.97z
			 M442.4,240.02c0,2.81,0.75,5.02,2.26,6.63c1.51,1.61,3.4,2.42,5.68,2.42c2.32,0,4.23-0.82,5.73-2.45s2.25-3.95,2.25-6.94
			c0-1.9-0.32-3.55-0.96-4.96s-1.58-2.51-2.81-3.29c-1.23-0.78-2.62-1.17-4.15-1.17c-2.18,0-4.06,0.75-5.63,2.25
			C443.19,234.01,442.4,236.51,442.4,240.02z"/>
	</g>
	<g class="st4">
		<path class="st3" d="M478.56,228.03h14.58v23.29h-3.08v-20.54h-8.42v11.99c0,2.44-0.11,4.22-0.34,5.35
			c-0.23,1.13-0.71,2.02-1.44,2.65c-0.73,0.63-1.66,0.95-2.78,0.95c-0.68,0-1.49-0.13-2.45-0.38l0.52-2.73
			c0.51,0.21,0.94,0.32,1.3,0.32c0.7,0,1.22-0.26,1.57-0.79c0.35-0.52,0.52-1.76,0.52-3.71V228.03z"/>
	</g>
	<g class="st4">
		<path class="st3" d="M509.77,251.32l8.94-23.29h3.32l9.53,23.29h-3.51l-2.72-7.05h-9.74l-2.56,7.05H509.77z M516.49,241.75h7.9
			l-2.43-6.45c-0.74-1.96-1.29-3.57-1.65-4.83c-0.3,1.49-0.71,2.98-1.25,4.45L516.49,241.75z"/>
	</g>
	<g class="st4">
	</g>
	<g class="st4">
		<path class="st3" d="M565.29,228.03h18.32v23.29h-3.1v-20.54h-12.14v20.54h-3.08V228.03z"/>
	</g>
	<g class="st4">
		<path class="st3" d="M602.25,251.32v-23.29h3.08v23.29H602.25z"/>
	</g>
	<g class="st4">
		<path class="st3" d="M623.62,228.03h14.17v20.54h2.1v8.18h-2.75v-5.43h-15.39v5.43H619v-8.18h1.81c1.88-2.83,2.81-8.54,2.81-17.14
			V228.03z M634.71,230.77h-8.12v1.19c0,1.98-0.18,4.69-0.53,8.13c-0.36,3.44-1.05,6.26-2.09,8.48h10.74V230.77z"/>
	</g>
	<g class="st4">
		<path class="st3" d="M657.48,228.03h15.06v2.75h-11.98v20.54h-3.08V228.03z"/>
	</g>
	<g class="st4">
		<path class="st3" d="M682.19,239.97c0-3.87,1.04-6.89,3.11-9.08c2.08-2.19,4.75-3.28,8.04-3.28c2.15,0,4.09,0.51,5.81,1.54
			s3.04,2.46,3.95,4.3c0.91,1.84,1.36,3.92,1.36,6.25c0,2.36-0.48,4.47-1.43,6.34c-0.95,1.86-2.3,3.28-4.05,4.23
			c-1.75,0.96-3.63,1.44-5.66,1.44c-2.19,0-4.15-0.53-5.88-1.59c-1.73-1.06-3.03-2.5-3.92-4.34S682.19,242.02,682.19,239.97z
			 M685.37,240.02c0,2.81,0.75,5.02,2.26,6.63c1.51,1.61,3.4,2.42,5.68,2.42c2.32,0,4.23-0.82,5.73-2.45
			c1.5-1.63,2.25-3.95,2.25-6.94c0-1.9-0.32-3.55-0.96-4.96c-0.64-1.41-1.58-2.51-2.81-3.29c-1.23-0.78-2.62-1.17-4.15-1.17
			c-2.18,0-4.06,0.75-5.63,2.25C686.16,234.01,685.37,236.51,685.37,240.02z"/>
	</g>
	<g class="st4">
		<path class="st3" d="M726.08,251.32v-20.54h-7.67v-2.75h18.46v2.75h-7.71v20.54H726.08z"/>
	</g>
	<g class="st4">
		<path class="st3" d="M748.27,239.97c0-3.87,1.04-6.89,3.11-9.08c2.08-2.19,4.75-3.28,8.04-3.28c2.15,0,4.09,0.51,5.81,1.54
			s3.04,2.46,3.95,4.3c0.91,1.84,1.36,3.92,1.36,6.25c0,2.36-0.48,4.47-1.43,6.34c-0.95,1.86-2.3,3.28-4.05,4.23
			c-1.75,0.96-3.63,1.44-5.66,1.44c-2.19,0-4.15-0.53-5.88-1.59c-1.73-1.06-3.03-2.5-3.92-4.34S748.27,242.02,748.27,239.97z
			 M751.45,240.02c0,2.81,0.75,5.02,2.26,6.63c1.51,1.61,3.4,2.42,5.68,2.42c2.32,0,4.23-0.82,5.73-2.45
			c1.5-1.63,2.25-3.95,2.25-6.94c0-1.9-0.32-3.55-0.96-4.96c-0.64-1.41-1.58-2.51-2.81-3.29c-1.23-0.78-2.62-1.17-4.15-1.17
			c-2.18,0-4.06,0.75-5.63,2.25C752.23,234.01,751.45,236.51,751.45,240.02z"/>
	</g>
	<g class="st4">
		<path class="st3" d="M786.43,251.32v-23.29h8.74c1.78,0,3.21,0.24,4.28,0.71c1.08,0.47,1.92,1.2,2.53,2.18
			c0.61,0.98,0.91,2,0.91,3.07c0,1-0.27,1.93-0.81,2.81c-0.54,0.88-1.36,1.59-2.45,2.13c1.41,0.41,2.49,1.12,3.25,2.11
			c0.76,1,1.14,2.17,1.14,3.53c0,1.09-0.23,2.11-0.69,3.04c-0.46,0.94-1.03,1.66-1.71,2.17c-0.68,0.51-1.53,0.89-2.55,1.15
			c-1.02,0.26-2.27,0.39-3.76,0.39H786.43z M789.51,237.81h5.04c1.37,0,2.35-0.09,2.94-0.27c0.78-0.23,1.37-0.62,1.77-1.16
			s0.6-1.22,0.6-2.03c0-0.77-0.19-1.45-0.56-2.04c-0.37-0.59-0.9-0.99-1.59-1.21s-1.87-0.33-3.54-0.33h-4.65V237.81z M789.51,248.57
			h5.8c1,0,1.69-0.04,2.1-0.11c0.71-0.13,1.3-0.34,1.78-0.64c0.48-0.3,0.87-0.73,1.18-1.29c0.31-0.57,0.46-1.22,0.46-1.96
			c0-0.87-0.22-1.62-0.67-2.26c-0.44-0.64-1.06-1.09-1.85-1.35c-0.79-0.26-1.92-0.39-3.41-0.39h-5.39V248.57z"/>
	</g>
	<g class="st4">
		<path class="st3" d="M820.67,228.03h3.08v10.2c1.41,0,2.4-0.27,2.97-0.82s1.3-1.86,2.19-3.93c0.65-1.53,1.18-2.6,1.6-3.23
			c0.42-0.63,1.01-1.16,1.79-1.59c0.77-0.43,1.63-0.64,2.56-0.64c1.19,0,1.81,0.01,1.87,0.03v2.67c-0.11,0-0.31,0-0.62-0.02
			c-0.34-0.01-0.55-0.02-0.62-0.02c-0.99,0-1.72,0.24-2.19,0.71c-0.49,0.48-1.04,1.49-1.67,3.05c-0.78,1.97-1.45,3.21-1.99,3.73
			s-1.19,0.92-1.94,1.23c1.5,0.41,2.99,1.8,4.45,4.16l4.8,7.75h-3.83l-3.89-6.32c-1.07-1.75-1.96-2.95-2.68-3.6
			c-0.72-0.65-1.65-0.98-2.8-0.98v10.9h-3.08V228.03z"/>
	</g>
	<g class="st4">
		<path class="st3" d="M852.81,228.03h2.8v18.44L868,228.03h3.1v23.29h-2.8v-18.4l-12.41,18.4h-3.08V228.03z"/>
	</g>
	<g class="st4">
	</g>
	<g class="st4">
		<path class="st3" d="M436,267.07h14.17v20.54h2.1v8.18h-2.75v-5.43h-15.39v5.43h-2.75v-8.18h1.81c1.87-2.83,2.81-8.54,2.81-17.14
			V267.07z M447.08,269.82h-8.12v1.19c0,1.98-0.18,4.69-0.53,8.13c-0.35,3.44-1.05,6.26-2.09,8.48h10.74V269.82z"/>
	</g>
	<g class="st4">
		<path class="st3" d="M468.87,279.02c0-3.87,1.04-6.89,3.11-9.08c2.08-2.19,4.75-3.28,8.04-3.28c2.15,0,4.09,0.51,5.81,1.54
			c1.73,1.03,3.04,2.46,3.95,4.3c0.91,1.84,1.36,3.92,1.36,6.25c0,2.36-0.48,4.47-1.43,6.34c-0.95,1.86-2.3,3.28-4.05,4.23
			c-1.75,0.96-3.63,1.44-5.66,1.44c-2.19,0-4.15-0.53-5.88-1.59c-1.73-1.06-3.03-2.5-3.92-4.34S468.87,281.06,468.87,279.02z
			 M472.04,279.06c0,2.81,0.75,5.02,2.26,6.63c1.51,1.61,3.4,2.42,5.68,2.42c2.32,0,4.23-0.82,5.73-2.45s2.25-3.95,2.25-6.94
			c0-1.9-0.32-3.55-0.96-4.96s-1.58-2.51-2.81-3.29c-1.23-0.78-2.62-1.17-4.15-1.17c-2.18,0-4.06,0.75-5.63,2.25
			C472.83,273.06,472.04,275.56,472.04,279.06z"/>
	</g>
	<g class="st4">
	</g>
	<g class="st4">
		<path class="st3" d="M524.39,283.78l2.94-0.76c0.22,1.13,0.82,2.27,1.79,3.4c0.97,1.13,2.25,1.7,3.85,1.7
			c1.63,0,2.92-0.42,3.86-1.25c0.94-0.84,1.41-1.85,1.41-3.03c0-1.28-0.5-2.3-1.49-3.06c-1-0.76-2.35-1.14-4.07-1.14h-1.48v-2.69
			c1.42,0,2.5-0.08,3.26-0.25s1.42-0.58,1.99-1.25c0.58-0.67,0.87-1.44,0.87-2.3c0-1.02-0.39-1.9-1.18-2.65
			c-0.79-0.75-1.86-1.13-3.2-1.13c-1.18,0-2.18,0.29-3.01,0.88s-1.41,1.37-1.72,2.33s-0.48,1.69-0.48,2.17l-2.96-0.67
			c0.73-4.95,3.46-7.42,8.2-7.42c2.28,0,4.08,0.63,5.42,1.9c1.33,1.27,2,2.75,2,4.44c0,2.17-1.03,3.86-3.08,5.05
			c1.19,0.33,2.18,1,2.98,2.01s1.2,2.22,1.2,3.63c0,2-0.78,3.68-2.33,5.03c-1.55,1.35-3.61,2.03-6.17,2.03
			C528.58,290.76,525.72,288.43,524.39,283.78z"/>
	</g>
	<g class="st4">
		<path class="st3" d="M556.41,290.36v-23.29h3.08v9.56h12.1v-9.56h3.08v23.29h-3.08v-10.98h-12.1v10.98H556.41z"/>
	</g>
	<g class="st4">
		<path class="st3" d="M591.81,279.02c0-3.87,1.04-6.89,3.11-9.08c2.08-2.19,4.75-3.28,8.04-3.28c2.15,0,4.09,0.51,5.81,1.54
			s3.04,2.46,3.95,4.3c0.91,1.84,1.36,3.92,1.36,6.25c0,2.36-0.48,4.47-1.43,6.34c-0.95,1.86-2.3,3.28-4.05,4.23
			c-1.75,0.96-3.63,1.44-5.66,1.44c-2.19,0-4.15-0.53-5.88-1.59c-1.73-1.06-3.03-2.5-3.92-4.34S591.81,281.06,591.81,279.02z
			 M594.99,279.06c0,2.81,0.75,5.02,2.26,6.63c1.51,1.61,3.4,2.42,5.68,2.42c2.32,0,4.23-0.82,5.73-2.45
			c1.5-1.63,2.25-3.95,2.25-6.94c0-1.9-0.32-3.55-0.96-4.96c-0.64-1.41-1.58-2.51-2.81-3.29c-1.23-0.78-2.62-1.17-4.15-1.17
			c-2.18,0-4.06,0.75-5.63,2.25C595.78,273.06,594.99,275.56,594.99,279.06z"/>
	</g>
	<g class="st4">
	</g>
	<g class="st4">
		<path class="st3" d="M654.54,290.36v-20.54h-7.67v-2.75h18.46v2.75h-7.71v20.54H654.54z"/>
	</g>
	<g class="st4">
		<path class="st3" d="M674.3,290.36l8.94-23.29h3.32l9.53,23.29h-3.51l-2.72-7.05h-9.74l-2.56,7.05H674.3z M681.02,280.79h7.9
			l-2.43-6.45c-0.74-1.96-1.29-3.57-1.65-4.83c-0.3,1.49-0.71,2.98-1.25,4.45L681.02,280.79z"/>
	</g>
	<g class="st4">
	</g>
	<g class="st4">
		<path class="st3" d="M731.9,267.07h14.17v20.54h2.1v8.18h-2.75v-5.43h-15.39v5.43h-2.75v-8.18h1.81
			c1.88-2.83,2.81-8.54,2.81-17.14V267.07z M742.99,269.82h-8.12v1.19c0,1.98-0.18,4.69-0.53,8.13c-0.36,3.44-1.05,6.26-2.09,8.48
			h10.74V269.82z"/>
	</g>
	<g class="st4">
		<path class="st3" d="M765.74,267.07h18.32v23.29h-3.1v-20.54h-12.14v20.54h-3.08V267.07z"/>
	</g>
	<g class="st4">
		<path class="st3" d="M799.62,290.36l8.94-23.29h3.32l9.53,23.29h-3.51l-2.72-7.05h-9.74l-2.56,7.05H799.62z M806.34,280.79h7.9
			l-2.43-6.45c-0.74-1.96-1.29-3.57-1.65-4.83c-0.3,1.49-0.71,2.98-1.25,4.45L806.34,280.79z"/>
	</g>
	<g>
	</g>
</g>
</svg>
