<svg width="246" height="226" viewBox="0 0 246 226" fill="none" xmlns="http://www.w3.org/2000/svg">
<path d="M51.7969 124.438C51.7422 124.445 51.6836 124.461 51.6289 124.469C51.6836 124.461 51.7422 124.449 51.7969 124.438ZM52.9023 124.297C52.8281 124.301 52.7539 124.312 52.6797 124.32C52.7539 124.312 52.8281 124.305 52.9023 124.297ZM50.6875 124.676C50.6602 124.684 50.6367 124.691 50.6094 124.699C50.6367 124.691 50.6602 124.684 50.6875 124.676ZM126.09 152.355L126.094 152.352L126.086 152.355H126.09ZM177.359 155.988L155.781 164.707L129.82 175.195C129.809 175.195 129.801 175.199 129.789 175.207L129.652 175.262C129.582 175.289 129.512 175.309 129.441 175.332C129.234 175.41 129.027 175.484 128.816 175.547C128.703 175.586 128.582 175.613 128.461 175.645C128.281 175.691 128.105 175.734 127.922 175.773C127.781 175.801 127.641 175.82 127.504 175.84C127.34 175.863 127.176 175.891 127.012 175.906C126.859 175.918 126.707 175.926 126.559 175.938C126.402 175.941 126.246 175.949 126.09 175.949H126.086C125.824 175.949 125.555 175.938 125.293 175.914C125.25 175.91 125.211 175.91 125.168 175.906C124.937 175.883 124.707 175.848 124.477 175.809C124.398 175.797 124.328 175.785 124.254 175.773C124.219 175.766 124.187 175.754 124.156 175.75C123.98 175.711 123.805 175.668 123.633 175.621C123.539 175.602 123.449 175.578 123.355 175.547C123.145 175.484 122.937 175.41 122.734 175.332C122.664 175.309 122.594 175.289 122.523 175.262L50.7148 146.25C45.8555 144.285 43.2227 138.797 45.0977 133.902C47.0078 128.914 52.625 126.48 57.5586 128.473L121.379 154.258L122.449 154.691C124.781 155.633 127.391 155.633 129.727 154.691L187.422 131.379L199.445 126.52C200.875 125.953 200.734 124.281 199.535 123.637L133.008 93.6406C128.605 91.6562 123.566 91.6562 119.168 93.6406L49.5937 125.012C46.1484 126.238 43.3203 128.875 41.8906 132.414C39.1953 139.082 42.4297 146.707 49.1016 149.402L120.883 178.406C121.73 178.77 122.621 179.051 123.539 179.23C123.598 179.242 123.656 179.25 123.711 179.262C124.023 179.32 124.344 179.367 124.664 179.402C124.758 179.41 124.848 179.422 124.941 179.434C125.32 179.465 125.699 179.484 126.086 179.484H126.09C127.766 179.484 129.41 179.164 130.973 178.531L196.73 151.977C199.918 150.688 200.469 149.535 200.469 146.66L177.359 155.988Z" fill="#FCAA23"/>
<path d="M126.082 171.492C125.066 171.492 124.051 171.344 123.043 171.047C123.008 171.039 122.977 171.027 122.941 171.012L53.7265 143.004C53.1601 142.773 52.8906 142.133 53.1171 141.566C53.3476 141.004 53.9882 140.731 54.5546 140.961L123.715 168.949C125.305 169.406 126.855 169.406 128.457 168.945L195.242 142.02C195.805 141.789 196.449 142.066 196.676 142.629C196.902 143.195 196.629 143.836 196.062 144.066L129.23 171.012C129.199 171.027 129.164 171.039 129.129 171.047C128.117 171.344 127.098 171.492 126.082 171.492Z" fill="#FCAA23"/>
<path d="M126.082 163.809C125.066 163.809 124.051 163.66 123.043 163.363C123.008 163.356 122.977 163.344 122.941 163.328L53.7265 135.32C53.1601 135.094 52.8906 134.449 53.1171 133.887C53.3476 133.32 53.9882 133.051 54.5546 133.277L123.715 161.266C125.309 161.723 126.859 161.723 128.457 161.266L195.242 134.336C195.805 134.106 196.449 134.383 196.676 134.945C196.902 135.512 196.629 136.156 196.062 136.383L129.23 163.328C129.199 163.344 129.164 163.356 129.129 163.367C128.117 163.66 127.102 163.809 126.082 163.809Z" fill="#FCAA23"/>
<path d="M120.688 58.3047L66.2188 83.1758C64.8477 83.8008 64.8477 85.75 66.2188 86.375L120.688 111.246C122.332 112 124.223 112 125.867 111.246L180.34 86.375C181.711 85.75 181.711 83.8008 180.34 83.1758L125.867 58.3047C124.223 57.5508 122.332 57.5508 120.688 58.3047Z" fill="#FCAA23"/>
<path d="M122.984 140.688C99.0312 140.688 80.9688 132.535 80.9688 121.723V93.4648L119.324 110.98C120.574 111.547 121.902 111.84 123.277 111.84C124.652 111.84 125.984 111.547 127.234 110.98L165.008 93.7305V121.723C165.008 132.535 146.941 140.688 122.984 140.688Z" fill="white"/>
<path d="M128.504 113.758C126.852 114.512 125.094 114.895 123.277 114.895C121.465 114.895 119.703 114.512 118.055 113.758L84.0195 98.2188V121.723C84.0195 130.508 101.465 137.633 122.984 137.633C144.508 137.633 161.949 130.508 161.949 121.723V98.4844L128.504 113.758Z" fill="#FCAA23"/>
<path d="M46.7188 46.8047C42.1406 50.6797 41.1055 56.9883 41.1055 56.9883C41.1055 56.9883 47.4961 57.0156 52.0781 53.1445C56.6602 49.2695 57.6953 42.9609 57.6953 42.9609C57.6953 42.9609 51.3008 42.9336 46.7188 46.8047Z" fill="#302EA7"/>
<path d="M72.2773 196.852C75.9062 201.887 75.9179 207.676 75.8671 207.691C75.875 207.762 67.9453 205.223 64.5507 199.691C61.1523 194.227 63.1132 188.77 63.0585 188.785C63.0781 188.836 68.6484 191.863 72.2773 196.852Z" fill="#302EA7"/>
<path d="M66.0234 213.582C73.1055 212.652 75.9297 207.43 75.9258 207.476C75.8437 207.5 68.3828 205.043 61.8594 205.562C55.2695 206.113 51.2578 210.043 51.2578 210.086C51.1641 210.105 58.8633 214.539 66.0234 213.582Z" fill="#302EA7"/>
<path d="M58.5937 190.219C61.0156 195.68 59.8633 201.254 59.8125 201.262C59.8164 201.34 52.9023 197.574 50.7461 191.66C48.582 185.813 51.4805 180.867 51.4336 180.875C51.4414 180.93 56.1719 184.797 58.5937 190.219Z" fill="#302EA7"/>
<path d="M49.4219 205.313C56.2617 205.594 59.918 201.023 59.9101 201.07C59.8359 201.078 53.3516 197.473 47.0586 196.879C40.7031 196.305 36.1172 199.422 36.1094 199.465C36.0234 199.469 42.5078 205.047 49.4219 205.313Z" fill="#302EA7"/>
<path d="M46.8945 181.5C48.1719 187.195 45.9922 192.383 45.9492 192.383C45.9414 192.457 40.082 187.656 39.0977 181.555C38.1055 175.523 41.7969 171.223 41.75 171.223C41.7539 171.277 45.6094 175.848 46.8945 181.5Z" fill="#302EA7"/>
<path d="M35.2656 194.539C41.75 195.969 46.0937 192.168 46.0781 192.211C46.0078 192.211 40.5312 187.633 34.582 185.977C28.5742 184.332 23.5625 186.562 23.5547 186.605C23.4726 186.594 28.7109 193.113 35.2656 194.539Z" fill="#302EA7"/>
<path d="M37.25 171.043C37.4531 176.793 34.3867 181.441 34.3437 181.434C34.332 181.504 29.5547 175.84 29.6836 169.746C29.7852 163.707 34.1289 160.164 34.0859 160.156C34.0781 160.211 37.0352 165.336 37.25 171.043Z" fill="#302EA7"/>
<path d="M23.6328 181.684C29.6445 184.188 34.5195 181.25 34.5039 181.289C34.4375 181.277 29.9961 175.898 24.5078 173.254C18.9648 170.609 13.6875 171.898 13.6719 171.938C13.5976 171.918 17.5547 179.172 23.6328 181.684Z" fill="#302EA7"/>
<path d="M29.7304 159.191C28.9257 164.824 25.121 168.809 25.0859 168.793C25.0624 168.863 21.4062 162.523 22.5663 156.594C23.7031 150.719 28.5429 148.023 28.5038 148.008C28.4882 148.062 30.5117 153.598 29.7304 159.191Z" fill="#302EA7"/>
<path d="M14.6054 167.164C20.0312 170.656 25.2851 168.645 25.2617 168.684C25.207 168.66 21.8281 162.652 16.914 159.102C11.9492 155.543 6.56637 155.867 6.54684 155.902C6.47653 155.871 9.11715 163.652 14.6054 167.164Z" fill="#302EA7"/>
<path d="M24.4062 146.293C22.6719 151.66 18.2695 154.871 18.2383 154.855C18.2031 154.918 15.7031 148.078 17.832 142.473C19.9219 136.918 25.1094 135.133 25.0742 135.109C25.0508 135.16 26.1133 140.961 24.4062 146.293Z" fill="#302EA7"/>
<path d="M8.26557 151.402C12.9843 155.777 18.457 154.742 18.4296 154.777C18.3789 154.746 16.0937 148.277 11.8749 143.922C7.61323 139.555 2.2851 138.906 2.26166 138.938C2.19916 138.895 3.48823 147 8.26557 151.402Z" fill="#302EA7"/>
<path d="M21.3515 132.691C18.7578 137.656 13.914 140.02 13.8828 139.996C13.8398 140.055 12.5312 132.895 15.5507 127.754C18.5234 122.66 23.9023 121.82 23.8711 121.797C23.8398 121.84 23.9101 127.758 21.3515 132.691Z" fill="#302EA7"/>
<path d="M4.69528 134.828C8.58981 139.969 14.1172 139.926 14.0859 139.953C14.0429 139.914 12.8789 133.16 9.47653 128.113C6.03122 123.047 0.929658 121.453 0.898408 121.481C0.84372 121.43 0.74997 129.649 4.69528 134.828Z" fill="#302EA7"/>
<path d="M20.6328 118.738C17.2578 123.18 12.125 124.633 12.0977 124.605C12.0469 124.656 11.9649 117.363 15.793 112.812C19.5742 108.301 24.9883 108.43 24.9609 108.398C24.918 108.441 23.9649 114.324 20.6328 118.738Z" fill="#302EA7"/>
<path d="M3.97264 117.859C6.91795 123.633 12.3398 124.578 12.3008 124.602C12.2656 124.559 12.2578 117.691 9.79295 112.082C7.28904 106.449 2.57811 103.949 2.54295 103.969C2.49608 103.91 0.980451 112.043 3.97264 117.859Z" fill="#302EA7"/>
<path d="M22.3242 104.781C18.2461 108.59 12.9765 109.105 12.957 109.074C12.8984 109.121 14.0742 101.875 18.6406 98.0234C23.1523 94.2031 28.4375 95.2891 28.414 95.2578C28.3633 95.2891 26.3555 100.996 22.3242 104.781Z" fill="#302EA7"/>
<path d="M6.18356 100.926C8.05074 107.187 13.1992 109.09 13.1562 109.109C13.1289 109.059 14.3046 102.25 12.8984 96.2226C11.4609 90.164 7.32027 86.832 7.27731 86.8476C7.23824 86.7812 4.26949 94.6171 6.18356 100.926Z" fill="#302EA7"/>
<path d="M26.5 91.1757C21.8008 94.2577 16.5586 93.828 16.5391 93.7929C16.4687 93.828 18.9414 86.8124 24.168 83.7616C29.3281 80.7304 34.3164 82.7421 34.3008 82.707C34.2383 82.7304 31.1484 88.1054 26.5 91.1757Z" fill="#302EA7"/>
<path d="M11.4062 84.457C12.0742 91.0391 16.7773 93.8477 16.7304 93.8633C16.7109 93.8086 19.0976 87.2305 18.8789 80.9453C18.6328 74.6211 15.2304 70.543 15.1836 70.5547C15.1523 70.4844 10.6953 77.8203 11.4062 84.457Z" fill="#302EA7"/>
<path d="M33.2304 78.2696C27.9882 80.5431 22.9336 79.1876 22.9179 79.1525C22.8398 79.1759 26.6445 72.5704 32.4453 70.4025C38.1757 68.2423 42.7031 71.1212 42.6914 71.0861C42.6171 71.1017 38.414 76.0001 33.2304 78.2696Z" fill="#302EA7"/>
<path d="M19.7226 68.879C19.0585 75.6056 23.1484 79.2462 23.0937 79.254C23.082 79.1993 26.7109 73.0197 27.8085 66.6447C28.8828 60.2384 26.4023 55.5314 26.3515 55.5353C26.3242 55.4611 20.3515 62.09 19.7226 68.879Z" fill="#302EA7"/>
<path d="M42.5898 66.4181C36.8906 67.8243 32.1874 65.5782 32.1796 65.5392C32.0898 65.5509 37.2577 59.547 43.5546 58.3243C49.7695 57.1017 53.664 60.7697 53.6523 60.7306C53.5742 60.7384 48.2226 65.0079 42.5898 66.4181Z" fill="#302EA7"/>
<path d="M31.2187 54.6212C29.0976 61.3008 32.3867 65.6758 32.3281 65.6719C32.3242 65.6172 37.2265 60.0079 39.7695 53.7422C42.2929 47.4297 40.914 42.2422 40.8554 42.2383C40.8398 42.1602 33.3124 47.8751 31.2187 54.6212Z" fill="#302EA7"/>
<path d="M98.3515 210.312L98.2851 209.07C87.9999 209.613 77.8203 208.086 68.0351 204.535C58.4999 201.07 49.7499 195.844 42.0234 188.992C25.9921 174.777 16.0546 154.98 14.039 133.242C12.3867 115.445 14.1718 99.7109 19.332 86.4688C24.8788 72.25 34.2148 61.3086 47.082 53.957L46.4609 52.8789C33.3437 60.375 23.8281 71.5273 18.1757 86.0156C12.9413 99.4375 11.1328 115.367 12.8007 133.359C14.8437 155.41 24.9296 175.5 41.1992 189.922C49.0429 196.879 57.9296 202.188 67.6132 205.703C77.5546 209.312 87.8945 210.863 98.3515 210.312Z" fill="#302EA7"/>
<path d="M199.836 46.8047C204.418 50.6797 205.453 56.9883 205.453 56.9883C205.453 56.9883 199.059 57.0156 194.477 53.1445C189.895 49.2695 188.859 42.9609 188.859 42.9609C188.859 42.9609 195.254 42.9336 199.836 46.8047Z" fill="#302EA7"/>
<path d="M174.281 196.852C170.652 201.887 170.637 207.676 170.687 207.691C170.68 207.762 178.609 205.223 182.004 199.691C185.406 194.227 183.441 188.77 183.496 188.785C183.476 188.836 177.906 191.863 174.281 196.852Z" fill="#302EA7"/>
<path d="M180.535 213.582C173.449 212.652 170.625 207.43 170.629 207.476C170.715 207.5 178.172 205.043 184.699 205.562C191.289 206.113 195.297 210.043 195.297 210.086C195.391 210.105 187.691 214.539 180.535 213.582Z" fill="#302EA7"/>
<path d="M187.961 190.219C185.543 195.68 186.695 201.254 186.742 201.262C186.738 201.34 193.652 197.574 195.809 191.66C197.973 185.813 195.074 180.867 195.125 180.875C195.113 180.93 190.383 184.797 187.961 190.219Z" fill="#302EA7"/>
<path d="M197.133 205.313C190.293 205.594 186.637 201.023 186.645 201.07C186.723 201.078 193.203 197.473 199.496 196.879C205.852 196.305 210.438 199.422 210.445 199.465C210.535 199.469 204.047 205.047 197.133 205.313Z" fill="#302EA7"/>
<path d="M199.66 181.5C198.383 187.195 200.562 192.383 200.609 192.383C200.613 192.457 206.477 187.656 207.457 181.555C208.453 175.523 204.758 171.223 204.805 171.223C204.805 171.277 200.945 175.848 199.66 181.5Z" fill="#302EA7"/>
<path d="M211.293 194.539C204.805 195.969 200.465 192.168 200.477 192.211C200.547 192.211 206.023 187.633 211.973 185.977C217.98 184.332 222.988 186.562 223.004 186.605C223.086 186.594 217.844 193.113 211.293 194.539Z" fill="#302EA7"/>
<path d="M209.305 171.043C209.102 176.793 212.168 181.441 212.211 181.434C212.223 181.504 217 175.84 216.875 169.746C216.769 163.707 212.43 160.164 212.473 160.156C212.477 160.211 209.519 165.336 209.305 171.043Z" fill="#302EA7"/>
<path d="M222.922 181.684C216.91 184.188 212.035 181.25 212.051 181.289C212.117 181.277 216.559 175.898 222.047 173.254C227.59 170.609 232.867 171.898 232.883 171.938C232.961 171.918 229.004 179.172 222.922 181.684Z" fill="#302EA7"/>
<path d="M216.824 159.191C217.629 164.824 221.434 168.809 221.473 168.793C221.492 168.863 225.152 162.523 223.988 156.594C222.855 150.719 218.016 148.023 218.051 148.008C218.07 148.062 216.043 153.598 216.824 159.191Z" fill="#302EA7"/>
<path d="M231.949 167.164C226.523 170.656 221.273 168.645 221.293 168.684C221.351 168.66 224.73 162.652 229.644 159.102C234.605 155.543 239.988 155.867 240.008 155.902C240.078 155.871 237.441 163.652 231.949 167.164Z" fill="#302EA7"/>
<path d="M222.148 146.293C223.883 151.66 228.285 154.871 228.316 154.855C228.352 154.918 230.852 148.078 228.723 142.473C226.633 136.918 221.445 135.133 221.48 135.109C221.504 135.16 220.441 140.961 222.148 146.293Z" fill="#302EA7"/>
<path d="M238.289 151.402C233.57 155.777 228.098 154.742 228.125 154.777C228.176 154.746 230.461 148.277 234.68 143.922C238.941 139.555 244.27 138.906 244.297 138.938C244.355 138.895 243.066 147 238.289 151.402Z" fill="#302EA7"/>
<path d="M225.207 132.691C227.801 137.656 232.641 140.02 232.672 139.996C232.715 140.055 234.023 132.895 231.008 127.754C228.031 122.66 222.652 121.82 222.684 121.797C222.719 121.84 222.648 127.758 225.207 132.691Z" fill="#302EA7"/>
<path d="M241.863 134.828C237.969 139.969 232.438 139.926 232.469 139.953C232.512 139.914 233.676 133.16 237.078 128.113C240.523 123.047 245.625 121.453 245.66 121.481C245.711 121.43 245.809 129.649 241.863 134.828Z" fill="#302EA7"/>
<path d="M225.926 118.738C229.297 123.18 234.434 124.633 234.461 124.605C234.512 124.656 234.594 117.363 230.762 112.812C226.98 108.301 221.566 108.43 221.594 108.398C221.637 108.441 222.59 114.324 225.926 118.738Z" fill="#302EA7"/>
<path d="M242.582 117.859C239.641 123.633 234.215 124.578 234.254 124.602C234.289 124.559 234.297 117.691 236.766 112.082C239.269 106.449 243.977 103.949 244.016 103.969C244.062 103.91 245.574 112.043 242.582 117.859Z" fill="#302EA7"/>
<path d="M224.23 104.781C228.309 108.59 233.578 109.105 233.598 109.074C233.66 109.121 232.48 101.875 227.914 98.0234C223.402 94.2031 218.121 95.2891 218.144 95.2578C218.195 95.2891 220.199 100.996 224.23 104.781Z" fill="#302EA7"/>
<path d="M240.375 100.926C238.504 107.187 233.355 109.09 233.398 109.109C233.426 109.059 232.25 102.25 233.656 96.2226C235.094 90.164 239.238 86.832 239.281 86.8476C239.32 86.7812 242.285 94.6171 240.375 100.926Z" fill="#302EA7"/>
<path d="M220.055 91.1757C224.754 94.2577 230 93.828 230.02 93.7929C230.086 93.828 227.613 86.8124 222.391 83.7616C217.227 80.7304 212.238 82.7421 212.254 82.707C212.316 82.7304 215.41 88.1054 220.055 91.1757Z" fill="#302EA7"/>
<path d="M235.148 84.457C234.484 91.0391 229.777 93.8477 229.828 93.8633C229.848 93.8086 227.461 87.2305 227.676 80.9453C227.922 74.6211 231.324 70.543 231.371 70.5547C231.402 70.4844 235.859 77.8203 235.148 84.457Z" fill="#302EA7"/>
<path d="M213.324 78.2696C218.566 80.5431 223.621 79.1876 223.637 79.1525C223.715 79.1759 219.91 72.5704 214.109 70.4025C208.379 68.2423 203.852 71.1212 203.867 71.0861C203.937 71.1017 208.145 76.0001 213.324 78.2696Z" fill="#302EA7"/>
<path d="M226.832 68.879C227.496 75.6056 223.406 79.2462 223.461 79.254C223.473 79.1993 219.844 73.0197 218.746 66.6447C217.672 60.2384 220.152 55.5314 220.207 55.5353C220.23 55.4611 226.207 62.09 226.832 68.879Z" fill="#302EA7"/>
<path d="M203.965 66.4181C209.668 67.8243 214.367 65.5782 214.379 65.5392C214.465 65.5509 209.297 59.547 203.004 58.3243C196.785 57.1017 192.891 60.7697 192.902 60.7306C192.984 60.7384 198.336 65.0079 203.965 66.4181Z" fill="#302EA7"/>
<path d="M215.336 54.6212C217.461 61.3008 214.168 65.6758 214.227 65.6719C214.23 65.6172 209.332 60.0079 206.785 53.7422C204.262 47.4297 205.641 42.2422 205.699 42.2383C205.715 42.1602 213.242 47.8751 215.336 54.6212Z" fill="#302EA7"/>
<path d="M148.203 210.312L148.27 209.07C158.559 209.613 168.734 208.086 178.52 204.535C188.055 201.07 196.805 195.844 204.531 188.992C220.562 174.777 230.5 154.98 232.52 133.242C234.168 115.445 232.387 99.7109 227.223 86.4688C221.676 72.25 212.34 61.3086 199.477 53.957L200.094 52.8789C213.211 60.375 222.73 71.5273 228.379 86.0156C233.617 99.4375 235.422 115.367 233.754 133.359C231.711 155.41 221.625 175.5 205.355 189.922C197.512 196.879 188.629 202.188 178.945 205.703C169 209.312 158.66 210.863 148.203 210.312Z" fill="#302EA7"/>
<path d="M124.625 0.371094L129.91 11.082L141.738 12.8008L133.18 21.1406L135.199 32.918L124.625 27.3594L114.047 32.918L116.066 21.1406L107.512 12.8008L119.336 11.082L124.625 0.371094Z" fill="#FCAA23"/>
<path d="M124.625 193.328L129.91 204.043L141.738 205.762L133.18 214.102L135.199 225.879L124.625 220.316L114.047 225.879L116.066 214.102L107.512 205.762L119.336 204.043L124.625 193.328Z" fill="#FCAA23"/>
<path d="M83.8984 20.3164L87.8008 28.2305L96.5352 29.5L90.2148 35.6602L91.707 44.3594L83.8984 40.2539L76.0859 44.3594L77.5781 35.6602L71.2578 29.5L79.9883 28.2305L83.8984 20.3164Z" fill="#FCAA23"/>
<path d="M165.352 20.3164L169.258 28.2305L177.992 29.5L171.672 35.6602L173.164 44.3594L165.352 40.2539L157.539 44.3594L159.031 35.6602L152.711 29.5L161.445 28.2305L165.352 20.3164Z" fill="#FCAA23"/>
</svg>
