<svg width="67" height="62" fill="none" xmlns="http://www.w3.org/2000/svg"><path d="M13.935 33.957c-.015.003-.03.007-.046.009a.617.617 0 00.046-.009zm.303-.038l-.061.006.06-.006zm-.606.104l-.022.006.022-.006zm20.637 7.576l.002-.001h-.003.002zm14.033.994l-5.906 2.386-7.105 2.871a.014.014 0 00-.009.003l-.037.015c-.02.008-.039.013-.058.02a2.467 2.467 0 01-.171.058 3.205 3.205 0 01-.245.062c-.039.008-.077.013-.114.019l-.135.018-.124.008-.129.003c-.072 0-.146-.003-.218-.01l-.034-.001a2.93 2.93 0 01-.19-.027l-.06-.01-.027-.006a3.022 3.022 0 01-.389-.114c-.02-.007-.038-.012-.058-.02l-19.654-7.94c-1.33-.538-2.05-2.04-1.537-3.38a2.606 2.606 0 013.41-1.486l17.468 7.057.293.12a2.664 2.664 0 001.992 0l15.791-6.382 3.291-1.33c.392-.155.353-.612.025-.789l-18.209-8.21a4.607 4.607 0 00-3.788 0l-19.043 8.587a3.555 3.555 0 00-2.108 2.026 3.576 3.576 0 001.973 4.65l19.647 7.938c.232.1.476.176.727.226l.047.008c.086.016.174.029.261.039l.076.008c.104.009.208.014.313.014h.002a3.57 3.57 0 001.336-.26l17.998-7.269c.873-.353 1.023-.668 1.023-1.455l-6.325 2.553z" fill="#FCAA23"/><path d="M34.267 46.837a2.932 2.932 0 01-.86-.132L14.464 39.04a.302.302 0 11.227-.559l18.93 7.66c.434.126.859.126 1.297 0l18.28-7.37a.301.301 0 11.224.56L35.13 46.705a2.952 2.952 0 01-.862.132z" fill="#FCAA23"/><path d="M34.267 44.734a2.932 2.932 0 01-.86-.132l-18.944-7.666a.301.301 0 11.227-.559l18.93 7.66c.436.126.86.126 1.297 0l18.28-7.37a.301.301 0 11.224.56L35.13 44.602a2.985 2.985 0 01-.862.131zM32.79 15.857l-14.908 6.807a.481.481 0 000 .876l14.909 6.807c.45.206.967.206 1.418 0l14.909-6.807a.481.481 0 000-.876l-14.91-6.807a1.7 1.7 0 00-1.417 0z" fill="#FCAA23"/><path d="M33.42 38.405c-6.557 0-11.5-2.231-11.5-5.19V25.48l10.498 4.794a2.603 2.603 0 002.165 0l10.338-4.721v7.662c0 2.959-4.944 5.19-11.502 5.19z" fill="#fff"/><path d="M34.93 31.034a3.423 3.423 0 01-1.43.312 3.41 3.41 0 01-1.43-.312l-9.316-4.253v6.433c0 2.405 4.775 4.355 10.665 4.355 5.891 0 10.665-1.95 10.665-4.355v-6.36l-9.154 4.18z" fill="#FCAA23"/><path d="M12.545 12.709c-1.253 1.06-1.536 2.787-1.536 2.787s1.749.008 3.003-1.052 1.537-2.787 1.537-2.787-1.75-.008-3.004 1.052zm6.995 41.068c.994 1.379.997 2.963.983 2.967.002.02-2.168-.675-3.097-2.19-.93-1.495-.394-2.989-.409-2.984.006.014 1.53.842 2.524 2.207z" fill="#302EA7"/><path d="M17.829 58.357c1.938-.255 2.711-1.684 2.71-1.671-.022.006-2.064-.666-3.85-.524-1.803.15-2.902 1.226-2.902 1.238-.025.005 2.082 1.219 4.042.957zm-2.034-6.395c.663 1.495.348 3.02.334 3.023.001.021-1.891-1.01-2.482-2.628-.592-1.6.201-2.954.189-2.952.002.015 1.297 1.073 1.96 2.557z" fill="#302EA7"/><path d="M13.285 56.093c1.872.077 2.873-1.173 2.87-1.16-.02.002-1.794-.985-3.517-1.148-1.74-.157-2.995.696-2.997.708-.023.001 1.752 1.528 3.644 1.6zm-.692-6.517c.35 1.559-.247 2.979-.258 2.979-.003.02-1.606-1.294-1.876-2.964-.271-1.65.739-2.828.726-2.828.001.015 1.056 1.266 1.408 2.813z" fill="#302EA7"/><path d="M9.41 53.145c1.775.391 2.964-.65 2.96-.637-.02 0-1.518-1.253-3.147-1.707-1.644-.45-3.016.16-3.018.172-.022-.003 1.411 1.782 3.205 2.172zm.544-6.431c.055 1.573-.784 2.846-.796 2.844-.003.019-1.31-1.531-1.275-3.2.027-1.652 1.216-2.622 1.204-2.624-.002.015.808 1.418.867 2.98z" fill="#302EA7"/><path d="M6.226 49.626c1.646.686 2.98-.118 2.976-.108-.018-.003-1.234-1.475-2.736-2.2-1.517-.723-2.962-.37-2.966-.36-.02-.005 1.063 1.98 2.726 2.668zm1.669-6.156c-.22 1.541-1.261 2.632-1.27 2.628-.007.019-1.008-1.716-.69-3.34.31-1.607 1.635-2.345 1.625-2.35-.005.016.55 1.53.335 3.062z" fill="#302EA7"/><path d="M3.756 45.652c1.485.956 2.923.405 2.916.416-.015-.006-.94-1.65-2.285-2.623-1.358-.974-2.832-.885-2.837-.875-.02-.009.703 2.12 2.206 3.082zm2.682-5.712c-.475 1.468-1.68 2.347-1.688 2.343-.01.017-.694-1.855-.111-3.39.572-1.52 1.992-2.008 1.982-2.015-.006.014.284 1.602-.183 3.061z" fill="#302EA7"/><path d="M2.02 41.338c1.292 1.197 2.79.914 2.782.924-.014-.009-.64-1.78-1.794-2.971-1.166-1.196-2.625-1.373-2.63-1.365-.018-.011.335 2.207 1.642 3.412zm3.582-5.121c-.71 1.359-2.036 2.005-2.044 2-.012.015-.37-1.945.456-3.352.814-1.394 2.286-1.624 2.278-1.63-.009.012.01 1.631-.69 2.982z" fill="#302EA7"/><path d="M1.043 36.802c1.066 1.407 2.579 1.395 2.57 1.402-.011-.01-.33-1.859-1.261-3.24-.943-1.387-2.34-1.823-2.348-1.816-.015-.014-.04 2.236 1.04 3.654zm4.362-4.404c-.923 1.215-2.328 1.613-2.336 1.606-.014.014-.036-1.983 1.012-3.228 1.035-1.235 2.516-1.2 2.509-1.208-.012.011-.273 1.621-1.185 2.83z" fill="#302EA7"/><path d="M.845 32.157c.807 1.58 2.29 1.84 2.28 1.846-.01-.012-.012-1.892-.687-3.427-.685-1.542-1.974-2.226-1.984-2.22-.013-.017-.428 2.21.391 3.801zm5.023-3.579C4.752 29.62 3.31 29.76 3.304 29.753c-.016.012.306-1.97 1.556-3.025 1.235-1.046 2.681-.748 2.675-.757-.014.009-.563 1.57-1.667 2.607z" fill="#302EA7"/><path d="M1.45 27.522c.512 1.714 1.92 2.235 1.909 2.24-.008-.014.314-1.877-.07-3.527-.394-1.658-1.527-2.57-1.54-2.566-.01-.018-.822 2.127-.298 3.853zm5.561-2.668c-1.286.843-2.72.726-2.726.716-.02.01.657-1.91 2.088-2.746 1.412-.83 2.778-.279 2.773-.288-.017.006-.863 1.477-2.135 2.318z" fill="#302EA7"/><path d="M2.88 23.015c.183 1.801 1.47 2.57 1.457 2.574-.005-.015.648-1.815.588-3.535-.067-1.731-.998-2.848-1.011-2.844-.009-.02-1.229 1.988-1.034 3.805zm5.973-1.694c-1.434.622-2.818.251-2.822.242-.022.006 1.02-1.802 2.608-2.395 1.568-.591 2.807.197 2.804.187-.02.004-1.17 1.345-2.59 1.966z" fill="#302EA7"/><path d="M5.156 18.751c-.182 1.841.938 2.838.923 2.84-.003-.015.99-1.707 1.29-3.451.294-1.754-.385-3.042-.398-3.041-.008-.02-1.643 1.794-1.815 3.652zm6.259-.674c-1.56.385-2.847-.23-2.85-.24-.024.003 1.39-1.64 3.114-1.975 1.701-.335 2.767.67 2.764.659-.021.002-1.486 1.17-3.028 1.556z" fill="#302EA7"/><path d="M8.303 14.848c-.58 1.829.32 3.026.303 3.025 0-.015 1.341-1.55 2.037-3.265.69-1.728.313-3.148.297-3.149-.004-.021-2.064 1.543-2.637 3.39z" fill="#302EA7"/><path d="M26.677 57.462l-.018-.34a20.917 20.917 0 01-8.28-1.241 22.04 22.04 0 01-7.119-4.255c-4.388-3.89-7.108-9.309-7.66-15.259-.452-4.87.037-9.177 1.45-12.802 1.517-3.892 4.073-6.886 7.595-8.898l-.17-.295c-3.59 2.051-6.195 5.104-7.742 9.07C3.3 27.114 2.805 31.474 3.262 36.4c.559 6.035 3.32 11.534 7.772 15.48a22.361 22.361 0 007.23 4.32 21.249 21.249 0 008.413 1.262zm27.777-44.753c1.254 1.06 1.538 2.787 1.538 2.787s-1.75.008-3.005-1.052c-1.254-1.06-1.537-2.787-1.537-2.787s1.75-.008 3.004 1.052zM47.46 53.777c-.994 1.379-.998 2.963-.984 2.967-.002.02 2.168-.675 3.097-2.19.932-1.495.394-2.989.409-2.984-.005.014-1.53.842-2.522 2.207z" fill="#302EA7"/><path d="M49.171 58.357c-1.94-.255-2.712-1.684-2.711-1.671.023.006 2.065-.666 3.851-.524 1.804.15 2.9 1.226 2.9 1.238.026.005-2.081 1.219-4.04.957zm2.033-6.395c-.662 1.495-.347 3.02-.334 3.023 0 .021 1.892-1.01 2.482-2.628.592-1.6-.201-2.954-.187-2.952-.004.015-1.298 1.073-1.961 2.557z" fill="#302EA7"/><path d="M53.714 56.093c-1.872.077-2.873-1.173-2.87-1.16.02.002 1.795-.985 3.517-1.148 1.74-.157 2.995.696 2.997.708.025.001-1.751 1.528-3.644 1.6zm.692-6.517c-.35 1.559.247 2.979.26 2.979 0 .02 1.606-1.294 1.874-2.964.273-1.65-.739-2.828-.726-2.828 0 .015-1.056 1.266-1.408 2.813z" fill="#302EA7"/><path d="M57.59 53.145c-1.776.391-2.964-.65-2.96-.637.019 0 1.518-1.253 3.146-1.707 1.644-.45 3.015.16 3.02.172.022-.003-1.413 1.782-3.206 2.172zm-.544-6.431c-.056 1.573.783 2.846.795 2.844.003.019 1.311-1.531 1.277-3.2-.03-1.652-1.217-2.622-1.205-2.624 0 .015-.808 1.418-.867 2.98z" fill="#302EA7"/><path d="M60.773 49.626c-1.646.686-2.98-.118-2.976-.108.019-.003 1.234-1.475 2.736-2.2 1.517-.723 2.962-.37 2.966-.36.022-.005-1.062 1.98-2.726 2.668zm-1.669-6.156c.22 1.541 1.261 2.632 1.272 2.628.006.019 1.007-1.716.689-3.34-.31-1.607-1.635-2.345-1.625-2.35.005.016-.55 1.53-.336 3.062z" fill="#302EA7"/><path d="M63.244 45.652c-1.486.956-2.922.405-2.917.416.016-.006.94-1.65 2.286-2.623 1.358-.974 2.83-.885 2.836-.875.02-.009-.702 2.12-2.205 3.082zm-2.683-5.712c.475 1.468 1.68 2.347 1.688 2.343.01.017.694-1.855.111-3.39-.572-1.52-1.991-2.008-1.982-2.015.007.014-.284 1.602.183 3.061z" fill="#302EA7"/><path d="M64.979 41.338c-1.292 1.197-2.79.914-2.782.924.014-.009.64-1.78 1.794-2.971 1.166-1.196 2.625-1.373 2.632-1.365.016-.011-.337 2.207-1.644 3.412zm-3.581-5.121c.71 1.359 2.035 2.005 2.043 2 .012.015.37-1.945-.455-3.352-.815-1.394-2.287-1.624-2.278-1.63.01.012-.01 1.631.69 2.982z" fill="#302EA7"/><path d="M65.957 36.802c-1.066 1.407-2.58 1.395-2.571 1.402.011-.01.33-1.859 1.261-3.24.943-1.387 2.34-1.823 2.35-1.816.013-.014.04 2.236-1.04 3.654zm-4.362-4.404c.923 1.215 2.328 1.613 2.336 1.606.014.014.036-1.983-1.012-3.228-1.035-1.235-2.517-1.2-2.51-1.208.012.011.273 1.621 1.186 2.83z" fill="#302EA7"/><path d="M66.154 32.157c-.805 1.58-2.29 1.84-2.28 1.846.01-.012.012-1.892.688-3.427.685-1.542 1.974-2.226 1.984-2.22.013-.017.427 2.21-.392 3.801zm-5.023-3.579c1.116 1.042 2.559 1.183 2.564 1.175.017.012-.306-1.97-1.556-3.025-1.235-1.046-2.68-.748-2.674-.757.014.009.563 1.57 1.666 2.607z" fill="#302EA7"/><path d="M65.55 27.522c-.512 1.714-1.921 2.235-1.91 2.24.008-.014-.314-1.877.07-3.527.394-1.658 1.529-2.57 1.54-2.566.011-.018.823 2.127.3 3.853zm-5.562-2.668c1.286.843 2.722.726 2.727.716.019.01-.658-1.91-2.088-2.746-1.413-.83-2.778-.279-2.774-.288.017.006.864 1.477 2.135 2.318z" fill="#302EA7"/><path d="M64.12 23.015c-.183 1.801-1.47 2.57-1.457 2.574.005-.015-.648-1.815-.59-3.535.068-1.731 1-2.848 1.012-2.844.009-.02 1.229 1.988 1.034 3.805zm-5.974-1.694c1.435.622 2.818.251 2.822.242.022.006-1.02-1.802-2.607-2.395-1.569-.591-2.808.197-2.804.187.02.004 1.171 1.345 2.589 1.966z" fill="#302EA7"/><path d="M61.843 18.751c.182 1.841-.938 2.838-.923 2.84.004-.015-.99-1.707-1.29-3.451-.294-1.754.385-3.042.4-3.041.006-.02 1.642 1.794 1.813 3.652zm-6.259-.674c1.561.385 2.847-.23 2.85-.24.024.003-1.39-1.64-3.113-1.975-1.702-.335-2.768.67-2.765.659.023.002 1.488 1.17 3.028 1.556z" fill="#302EA7"/><path d="M58.697 14.848c.581 1.829-.32 3.026-.304 3.025 0-.015-1.34-1.55-2.037-3.265-.69-1.728-.313-3.148-.297-3.149.004-.021 2.064 1.543 2.638 3.39z" fill="#302EA7"/><path d="M40.322 57.462l.018-.34c2.816.148 5.601-.27 8.28-1.241a22.04 22.04 0 007.12-4.255c4.387-3.89 7.107-9.309 7.66-15.259.45-4.87-.037-9.177-1.45-12.802-1.518-3.892-4.074-6.886-7.594-8.898l.169-.295c3.59 2.051 6.195 5.104 7.741 9.07 1.434 3.673 1.928 8.033 1.471 12.958-.559 6.035-3.32 11.534-7.772 15.48a22.358 22.358 0 01-7.229 4.32 21.257 21.257 0 01-8.414 1.262z" fill="#302EA7"/><path d="M33.869 0l1.446 2.932 3.238.47-2.343 2.283.553 3.223-2.894-1.521-2.896 1.521.553-3.223-2.341-2.283 3.236-.47L33.869 0zm0 52.813l1.446 2.933 3.238.47L36.21 58.5l.553 3.224-2.894-1.523-2.896 1.523.553-3.224-2.341-2.282 3.236-.47 1.448-2.934zM22.721 5.46l1.069 2.165 2.39.348-1.73 1.686.409 2.38-2.138-1.123-2.138 1.124.409-2.381-1.73-1.686 2.39-.348 1.07-2.166zm22.295 0l1.069 2.165 2.39.348-1.73 1.686.409 2.38-2.139-1.123-2.138 1.124.409-2.381-1.73-1.686 2.39-.348 1.07-2.166z" fill="#FCAA23"/></svg>