<svg width="27" height="27" fill="none" xmlns="http://www.w3.org/2000/svg"><g clip-path="url(#clip0_13_4094)" fill="#fff"><path d="M7.754 22.576c-.034 1.587-.219 3.4 1.147 3.838 1.34.441 2.117-.647 3.864-2.857 6.513.45 12.262-1.402 13.031-8.04.69-5.9-.201-10.315-2.493-12.416C19.94-.155 8.999-.61 4.993 3.26c-1.65 1.735-2.453 4.28-2.528 8.01-.06 3.046-.185 9.275 5.289 11.307zM4.073 11.302c.066-3.297.726-5.495 2.054-6.892 3.344-3.23 13.256-2.857 16.08-.118 1.884 1.725 2.612 5.748 1.994 11.036-.562 4.849-3.65 5.676-4.813 5.987a19.786 19.786 0 01-6.905.59c-.58-.063-.808.491-1.02.693-1.048 1.275-1.805 2.196-2.001 2.32-.145-.218-.122-1.249-.105-2.076-.053-.373.277-1.403-.583-1.636-4.87-1.454-4.76-6.95-4.701-9.904z"/><path d="M7.147 9.145c.858 1.73 1.695 4.787 4.909 7.448 1.115.93 4.454 3.074 5.762 3.074 1.867 0 4.001-2.97 2.439-4.295-.703-.694-1.692-1.378-2.327-1.754l-.002-.001c-1.647-.963-2.55.81-2.657.879-2.413 2.184-5.385-1.61-3.302-3.445.256-.322 1.784-1.068.877-2.762-.803-1.47-1.334-1.976-1.634-2.395-1.583-1.998-5.007 1.32-4.065 3.251zm9.83 5.82c.11.07 1.063.492 2.2 1.61.144.123-.82 1.54-1.434 1.459-.121-.055-.997-.267-2.878-1.43 1.786-.612 1.77-1.573 2.112-1.638zM9.834 6.923c.067-.036.1-.038.098-.047.308.435.77.849 1.504 2.193.195.365-.286.507-.597.828a3.577 3.577 0 00-.966 1.39c-.658-1.256-.953-2.16-1.253-2.793-.12-.577.704-1.276 1.214-1.571z"/><path d="M14.702 9.762c.012.002 1.178.152 1.387 1.42.176 1.077 1.758.788 1.585-.266-.325-1.97-1.966-2.672-2.79-2.768-1.056-.12-1.237 1.49-.182 1.614z"/><path d="M13.865 6.26c.018 0 2.548-.046 4.195 1.735 1.627 1.759 1.268 4.317 1.265 4.34-.164 1.054 1.42 1.333 1.587.252.021-.136.494-3.354-1.677-5.703-2.155-2.331-5.29-2.258-5.42-2.25-1.098.037-.965 1.71.05 1.625z"/></g><defs><clipPath id="clip0_13_4094"><path fill="#fff" transform="translate(.972 .5)" d="M0 0h25.719v26H0z"/></clipPath></defs></svg>