<svg width="25" height="25" fill="none" xmlns="http://www.w3.org/2000/svg"><path d="M6.603 22.578c0-.418.14-.871-.035-1.185-.174-.278-.662-.383-1.01-.557-1.847-.976-3.276-2.37-4.007-4.32-.314-.767-.418-1.638-.558-2.474-.14-.837-.174-1.673-.209-2.51-.07-1.81.14-3.623.523-5.4.209-1.01.731-1.881 1.359-2.648.975-1.22 2.16-2.23 3.658-2.717.871-.28 1.777-.419 2.683-.523C10.227.104 11.481 0 12.7 0c1.22 0 2.44.105 3.659.21.801.069 1.603.208 2.404.382 1.394.314 2.543 1.115 3.554 2.09.976.942 1.777 2.057 2.056 3.415.418 1.986.662 3.972.487 5.993a42.888 42.888 0 01-.453 3.624c-.243 1.394-1.01 2.474-1.986 3.45-1.01 1.045-2.16 1.881-3.623 2.194-1.115.244-2.265.349-3.38.488-.592.07-1.22.105-1.847.105-.697 0-1.428-.035-2.125-.035a.897.897 0 00-.557.244c-.802.801-1.534 1.603-2.3 2.404-.558.558-1.324.592-1.742.035-.174-.244-.244-.592-.279-.871 0-.418.035-.767.035-1.15zm.975-1.08v2.091c0 .104.07.243.14.278.07.035.209-.07.279-.14.07-.034.104-.104.174-.173a343.627 343.627 0 013.519-3.59.823.823 0 01.557-.243c1.673 0 3.345-.14 5.018-.349.975-.139 1.881-.383 2.683-1.01 1.045-.836 2.02-1.742 2.264-3.1.244-1.29.384-2.614.453-3.938.035-1.08-.104-2.195-.209-3.275-.104-1.15-.383-2.265-1.22-3.206-.835-.94-1.776-1.812-3.065-2.056a27.562 27.562 0 00-3.798-.453c-2.09-.104-4.216-.034-6.272.349-2.23.383-3.763 1.672-4.53 3.763-.348.94-.418 1.986-.487 2.996a29.06 29.06 0 00.07 3.903c.034.766.139 1.568.418 2.3.627 1.707 1.881 2.822 3.554 3.484.313.139.452.278.452.627-.034.522 0 1.15 0 1.742z" fill="#fff"/><path d="M13.815 14.076c.14-.07.314-.14.453-.244.174-.139.279-.348.453-.487.349-.349.767-.488 1.185-.244.766.522 1.533 1.045 2.265 1.637.278.21.383.523.209.871-.384.871-.941 1.568-1.917 1.847a.848.848 0 01-.418 0c-3.24-1.15-5.958-2.962-7.77-5.958-.627-1.01-1.08-2.125-1.603-3.206-.278-.522-.174-1.01.14-1.498A3.626 3.626 0 018.275 5.54c.349-.174.732-.14.976.174a24.97 24.97 0 011.568 2.195c.348.558.174 1.01-.314 1.429-.104.07-.174.14-.279.209-.313.244-.383.557-.243.906.592 1.637 1.672 2.857 3.344 3.484.14.07.28.07.488.14zm5.018-3.206c0 .105.07.245.035.35-.07.139-.174.348-.314.383-.104.034-.348-.175-.383-.28-.105-.348-.105-.696-.14-1.044-.139-2.056-1.707-4.007-3.693-4.495-.418-.105-.87-.14-1.324-.21-.104 0-.174-.034-.278-.034-.244-.035-.419-.105-.419-.383.035-.314.28-.384.523-.384 2.683.105 4.983 1.638 5.749 4.39.14.558.21 1.15.279 1.708 0-.035 0 0-.035 0z" fill="#fff"/><path d="M17.334 10.487c-.035.07 0 .21-.07.28-.104.104-.243.243-.383.243-.104 0-.278-.174-.278-.279-.105-.383-.105-.836-.21-1.22-.348-1.323-1.463-2.23-2.857-2.369-.139 0-.243-.034-.383-.07-.209-.034-.348-.173-.313-.383.034-.243.209-.348.418-.348 2.055.14 3.798 1.429 4.041 3.693 0 .105.035.28.035.453z" fill="#fff"/><path d="M13.746 7.91c1.184.034 2.09 1.044 2.02 2.16 0 .243-.104.452-.348.418-.14-.035-.279-.21-.418-.349-.035-.035 0-.104 0-.14-.174-.905-.418-1.15-1.359-1.323-.244-.035-.418-.175-.418-.418.035-.244.21-.349.453-.349h.07z" fill="#fff"/></svg>