<svg width="26" height="25" fill="none" xmlns="http://www.w3.org/2000/svg"><path d="M.333 25l1.763-6.709C1.109 16.455.545 14.407.545 12.359.545 5.509 6.113 0 12.88 0c6.767 0 12.336 5.508 12.336 12.359 0 6.78-5.498 12.359-12.336 12.359-2.044 0-4.017-.495-5.85-1.483L.333 25zm7.05-4.308l.422.283a10.005 10.005 0 005.075 1.412c5.498 0 10.01-4.52 10.01-10.028 0-5.509-4.512-10.028-10.01-10.028S2.871 6.85 2.871 12.359c0 1.836.493 3.601 1.48 5.155l.282.424-.987 3.743 3.736-.989z" fill="#fff"/><path fill-rule="evenodd" clip-rule="evenodd" d="M17.462 14.054c-.493-.283-1.198-.636-1.762-.424-.494.212-.775.918-1.057 1.271-.142.212-.353.212-.564.141a8.564 8.564 0 01-4.018-3.39c-.141-.211-.141-.423.07-.635.282-.353.635-.706.705-1.2.07-.424-.14-.99-.352-1.413-.212-.494-.494-1.271-1.058-1.554-.493-.282-1.127-.141-1.55.212-.705.565-1.058 1.554-1.058 2.472 0 .282.07.494.07.777.142.635.424 1.2.776 1.695.212.423.494.776.776 1.2a12.115 12.115 0 003.383 3.178c.634.424 1.41.777 2.115.989.845.282 1.55.565 2.467.424.916-.212 1.832-.777 2.255-1.695.141-.283.141-.565.07-.848 0-.565-.774-.918-1.268-1.2z" fill="#fff"/></svg>