<?xml version="1.0" encoding="utf-8"?><!DOCTYPE svg PUBLIC "-//W3C//DTD SVG 1.1//EN" "http://www.w3.org/Graphics/SVG/1.1/DTD/svg11.dtd"><svg xmlns="http://www.w3.org/2000/svg" xmlns:xlink="http://www.w3.org/1999/xlink"><symbol fill="none" viewBox="0 0 24 23" id="burger" xmlns="http://www.w3.org/2000/svg"><path d="M21 9.583H7M21 5.75H3M21 13.417H3M21 17.25H7" stroke="#000" stroke-width="2" stroke-linecap="round" stroke-linejoin="round"/></symbol><symbol viewBox="0 0 94.926 94.926" id="cross" xmlns="http://www.w3.org/2000/svg"><path d="M55.931 47.463L94.306 9.09a2.118 2.118 0 000-2.994L88.833.62a2.123 2.123 0 00-2.996 0L47.463 38.994 9.089.62c-.795-.795-2.202-.794-2.995 0L.622 6.096a2.117 2.117 0 000 2.994l38.374 38.373L.622 85.836a2.117 2.117 0 000 2.994l5.473 5.476a2.123 2.123 0 002.995 0l38.374-38.374 38.374 38.374c.397.396.937.62 1.498.62s1.101-.224 1.498-.62l5.473-5.476a2.118 2.118 0 000-2.994L55.931 47.463z"/></symbol><symbol fill="none" viewBox="0 0 140 164" id="p1" xmlns="http://www.w3.org/2000/svg"><path fill-rule="evenodd" clip-rule="evenodd" d="M58.604 51.122c1.63 4.494 2.963 9.138 4.889 13.333 4.296-1.797 10.222-4.494 16.444-3.146 2.815.6 5.482 2.247 7.704 3.446 1.482-1.948 1.333-4.495 2.815-6.292 2.37-2.847 6.074-3.896 9.778-5.693 2.815 0 6.667-.15 9.333.45.741-.3 1.482-.6 2.667-.45.148.3.296.45.593.45.444 3.894-.445 9.288-.889 12.584.296.749.592 1.498.148 2.397-1.037.3-2.222.3-3.408.15-1.037-1.948-3.555-1.948-5.333-1.499-3.852 2.997-1.778 10.487 1.63 12.585 1.777-.75 1.481-2.847 1.926-4.794 2.222-1.648 6.518-.6 8.296.899 2.222.45 3.407-.3 4.889.15.444 1.048.741 2.996-.445 3.445-1.185 4.794-2.222 8.69-4.148 12.585-2.074 1.648-4.148 3.745-7.407 4.195-5.482.749-11.556-1.499-15.704-3.296 1.037 2.097 3.407 3.595 3.555 5.992.297 4.045-.296 7.341-2.074 10.487-.74 1.349-2.37 1.948-2.518 4.046-2.222 2.397-5.037 4.344-7.704 6.292-3.111.899-6.963 2.696-10.519 3.595-1.926.45-3.407 1.049-5.185.749-1.63-.149-2.963-1.198-4.296.3-.593-.15-.89-.449-1.482-.599-1.778-8.54-1.481-17.828-2.074-27.117-1.481.15-2.222 1.049-3.26 1.798-1.333.15-1.629-.75-2.518-1.049-.889-3.745-2.815-6.442-4.148-9.738-2.222 0-4.296 0-5.778.899-.296 4.195.297 7.94-.444 11.236-3.408 0-8.297-.899-12.445-.599-.74.75-1.778.45-2.815.75-.74-.45-1.778-.9-2.222-1.649.593-1.498.148-2.697-.74-3.446 2.814-12.434 1.925-26.367 5.333-37.903 7.704-2.397 17.926-3.446 25.482-6.143.444-.15 1.63.45 2.074.6zm1.481 13.483c-.889-1.498-1.63-3.296-2.37-5.094-.593-1.797-.89-4.195-2.519-5.093-6.667 1.498-14.37 3.146-21.185 4.944-3.704 9.738-2.223 23.221-4.741 33.558.592.45.296 1.948.593 2.697 3.703.6 7.555.45 10.666.45.148-3.446.593-6.443 0-9.739.89-1.797 3.111-.898 4.741-1.048 2.667-.15 5.185-1.349 7.408-1.199.148.45.296.899.592 1.199-.296 2.247.89 3.296 1.926 5.543.445 1.049 1.037 3.296 2.074 3.596.297.15 2.222-.6 2.963-.75 2.963-.898 6.074-2.097 8.593-2.996-2.667-8.989-5.778-17.978-8.74-26.068zm30.964 3.446c2.074 2.697 3.851 6.592 3.555 10.787-.148 3.146-1.926 5.693-3.111 7.94.593 1.348 1.778 2.247 2.667 3.296 2.37.899 4.592 1.798 7.111 2.697 4.148.449 8 .599 10.519-1.948 1.037-1.049 2.074-3.446 2.814-5.393.741-2.098 1.186-4.495 1.334-6.742-1.926-.6-3.556-1.349-5.63-1.798-.741 1.648-.889 2.697-1.926 3.895-1.481 1.948-2.963 2.098-6.074 1.349-2.667-2.248-5.63-8.09-4.74-11.836 1.036-4.794 3.11-6.592 7.999-6.742.741.3 1.63.6 2.815.45.889-2.397.889-4.944.889-7.64-9.334-2.697-18.519 2.396-18.222 11.685zm-4.297 19.326c2.37-2.996 5.334-7.34 4.148-12.285-.148-.3-.444-1.498-.74-2.247-.741-1.648-1.63-2.397-2.667-3.596-4.74-5.393-14.963-6.891-21.482-2.097-.296-.15-.74-.3-1.185-.15 1.481 5.543 4.148 11.236 5.63 16.33.592 2.098 1.037 4.195 1.926 6.143.444 1.048 1.185 1.797.888 2.996-2.666 1.198-6.666 1.049-9.333 2.397-.74 6.891.148 15.281.445 21.574 1.185-.15 2.222.299 3.259.299 4.296.3 8.148-1.798 11.704-2.397 1.63-.3 3.555-.3 5.037-1.049 2.518-1.198 5.63-3.745 6.222-6.741.148-.3.74 0 .593-.6 3.852-7.34-2.519-12.434-7.704-14.831-.148-.3 0-1.05-.296-1.349 1.037-1.049 2.37-1.648 3.555-2.397zm1.926 2.547c.445 1.049 1.482 1.348 2.37 1.948a15.098 15.098 0 00-1.925-2.397l-.445.449zm-15.407 29.514c.444 0 1.333.15 1.333-.3-.593 0-1.037 0-1.334.3zm-8.593.599c2.074 1.049 5.037.899 7.111-.15-2.074 0-4.889 0-7.111-.449v.599z" fill="#1A1A1A"/><path d="M69.998 164L140 123V41L69.998 0 0 41v82l69.998 41z" fill="#FCAA23" fill-opacity=".95"/><path d="M35.698 66.544h1.96l3.654 9.94h-1.988l-.924-2.478h-3.472l-.91 2.478H32.03l3.668-9.94zm2.352 6.104l-1.372-4.102-1.428 4.102h2.8zm4.17 3.836v-7.336h1.877v2.8h2.968v-2.8h1.876v7.336h-1.876v-2.968h-2.968v2.968H42.22zm8.436 0v-7.336h4.858v1.638h-2.982v5.698h-1.876zm5.402.098v-1.666c.224-.01.424-.065.602-.168.177-.103.331-.275.462-.518.14-.252.247-.602.322-1.05.084-.448.14-1.022.168-1.722l.098-2.31h5.502v7.336h-1.876v-5.698h-1.974l-.028.854c-.038.961-.13 1.76-.28 2.394-.15.635-.36 1.139-.63 1.512a2.215 2.215 0 01-.98.784c-.392.159-.854.243-1.386.252zm8.858-.098v-7.336h1.876v7.336h-1.876zm0-8.358v-1.862h1.876v1.862h-1.876zm3.568 8.358v-7.322h1.876v4.816l3.29-4.83h1.708v7.336h-1.876V71.78l-3.248 4.704h-1.75zm3.444-8.022c-.718 0-1.283-.182-1.694-.546-.41-.373-.616-.85-.616-1.428h1.162c0 .28.094.513.28.7.187.187.476.28.868.28s.672-.089.84-.266c.178-.177.285-.415.322-.714h1.162c0 .579-.205 1.055-.616 1.428-.41.364-.98.546-1.708.546zm8.558 8.162a4.195 4.195 0 01-1.61-.294 3.641 3.641 0 01-1.218-.84 4.07 4.07 0 01-.784-1.232 3.954 3.954 0 01-.266-1.442c0-.69.154-1.32.462-1.89a3.614 3.614 0 011.344-1.386c.579-.345 1.265-.518 2.058-.518.794 0 1.475.173 2.044.518.57.345.994.798 1.274 1.358l-1.834.56a1.597 1.597 0 00-.63-.616 1.719 1.719 0 00-.868-.224 1.843 1.843 0 00-1.666 1.05c-.168.327-.252.71-.252 1.148 0 .43.084.812.252 1.148.177.327.41.588.7.784.29.187.611.28.966.28.224 0 .434-.037.63-.112a1.84 1.84 0 00.546-.308c.159-.13.275-.28.35-.448l1.834.56c-.168.364-.415.69-.742.98-.317.29-.695.518-1.134.686-.43.159-.914.238-1.456.238zm4.486-.14v-7.336h1.877v2.31h1.665c.878 0 1.55.224 2.017.672.466.448.7 1.04.7 1.778 0 .495-.099.938-.294 1.33a2.18 2.18 0 01-.868.924c-.383.215-.86.322-1.428.322h-3.669zm1.877-1.428h1.498c.252 0 .457-.051.616-.154a.897.897 0 00.364-.406c.084-.168.126-.36.126-.574 0-.205-.038-.387-.112-.546a.822.822 0 00-.364-.392c-.16-.103-.374-.154-.645-.154H86.85v2.226zm5.561 1.428v-7.336h1.876v2.772h.63l1.988-2.772h2.044l-2.604 3.542 2.884 3.794h-2.142l-2.198-2.912h-.602v2.912H92.41zm7.412-2.17c0-.476.13-.891.392-1.246.271-.364.644-.644 1.12-.84.476-.196 1.022-.294 1.638-.294.308 0 .621.023.938.07.317.047.593.121.826.224v-.392c0-.467-.14-.826-.42-1.078-.271-.252-.677-.378-1.218-.378-.401 0-.784.07-1.148.21-.364.14-.747.345-1.148.616l-.602-1.232c.485-.317.98-.555 1.484-.714a5.418 5.418 0 011.61-.238c1.045 0 1.857.261 2.436.784.588.523.882 1.27.882 2.24v2.338c0 .196.033.336.098.42.075.084.191.135.35.154v1.526c-.168.028-.322.051-.462.07a2.432 2.432 0 01-.336.028c-.373 0-.658-.084-.854-.252a1.085 1.085 0 01-.35-.616l-.042-.378c-.317.41-.714.728-1.19.952a3.385 3.385 0 01-1.456.336c-.485 0-.924-.098-1.316-.294a2.43 2.43 0 01-.91-.826 2.254 2.254 0 01-.322-1.19zm4.564.378c.103-.112.187-.224.252-.336a.625.625 0 00.098-.308v-.742a3.486 3.486 0 00-.728-.21 3.546 3.546 0 00-.742-.084c-.485 0-.887.107-1.204.322-.308.205-.462.48-.462.826 0 .187.051.364.154.532.103.168.252.303.448.406.196.103.429.154.7.154.28 0 .555-.051.826-.154.271-.112.49-.247.658-.406zm-51.14 17.792v-7.336h1.96l2.297 4.242 2.31-4.242h1.932v7.336h-1.778v-4.746l-1.876 3.444h-1.176l-1.89-3.444v4.746h-1.778zm13.616.14a4.195 4.195 0 01-1.61-.294 3.641 3.641 0 01-1.218-.84 3.818 3.818 0 01-.757-1.218 3.954 3.954 0 01-.266-1.442c0-.513.09-.999.267-1.456.177-.457.429-.863.756-1.218.335-.355.741-.63 1.217-.826a4.027 4.027 0 011.61-.308c.598 0 1.13.103 1.596.308a3.478 3.478 0 011.975 2.044c.177.457.266.943.266 1.456 0 .504-.09.985-.266 1.442-.169.457-.42.863-.757 1.218a3.492 3.492 0 01-1.203.84 4.195 4.195 0 01-1.61.294zm-1.918-3.794c0 .43.084.812.251 1.148.169.327.397.583.687.77.289.187.615.28.98.28.354 0 .676-.093.966-.28.289-.196.517-.457.685-.784.178-.336.266-.719.266-1.148 0-.42-.088-.798-.266-1.134a1.942 1.942 0 00-.686-.784 1.744 1.744 0 00-.965-.28c-.364 0-.691.098-.98.294-.29.187-.519.448-.687.784a2.446 2.446 0 00-.251 1.134zm7.02 3.654v-7.336h4.088c.504 0 .91.084 1.218.252.317.168.55.387.7.658.15.27.224.56.224.868 0 .41-.094.77-.28 1.078-.178.308-.458.546-.84.714.43.121.78.331 1.05.63.27.29.406.672.406 1.148 0 .457-.108.835-.322 1.134-.215.29-.523.504-.924.644-.402.14-.878.21-1.428.21h-3.892zm1.778-1.274H75.8a.881.881 0 00.784-.462.881.881 0 00.126-.462.915.915 0 00-.112-.462.765.765 0 00-.322-.322.835.835 0 00-.462-.126h-2.072v1.834zm0-3.01h1.834a.81.81 0 00.448-.126.788.788 0 00.294-.336.966.966 0 00.112-.462.816.816 0 00-.238-.602.765.765 0 00-.602-.252h-1.848V88.2zm5.647 2.114c0-.476.131-.891.392-1.246.271-.364.644-.644 1.12-.84.476-.196 1.022-.294 1.638-.294.308 0 .621.023.938.07.318.047.593.121.826.224v-.392c0-.467-.14-.826-.42-1.078-.27-.252-.676-.378-1.218-.378-.4 0-.784.07-1.148.21-.364.14-.746.345-1.148.616l-.602-1.232c.486-.317.98-.555 1.484-.714a5.42 5.42 0 011.61-.238c1.046 0 1.858.261 2.436.784.588.523.882 1.27.882 2.24v2.338c0 .196.033.336.098.42.075.084.192.135.35.154v1.526c-.168.028-.322.051-.462.07-.13.019-.242.028-.336.028-.373 0-.658-.084-.854-.252a1.085 1.085 0 01-.35-.616l-.042-.378c-.317.41-.714.728-1.19.952a3.386 3.386 0 01-1.456.336c-.485 0-.924-.098-1.316-.294a2.433 2.433 0 01-.91-.826 2.254 2.254 0 01-.322-1.19zm4.564.378c.103-.112.187-.224.252-.336a.62.62 0 00.098-.308v-.742a3.479 3.479 0 00-.728-.21 3.546 3.546 0 00-.742-.084c-.485 0-.886.107-1.204.322-.308.205-.462.48-.462.826 0 .187.052.364.154.532.103.168.252.303.448.406.196.103.43.154.7.154.28 0 .556-.051.826-.154.271-.112.49-.247.658-.406z" fill="#fff"/></symbol><symbol fill="none" viewBox="0 0 140 164" id="p2" xmlns="http://www.w3.org/2000/svg"><path d="M69.998 164L140 123V41L69.998 0 0 41v82l69.998 41z" fill="#5856D6" fill-opacity=".85"/><path d="M33.434 79.07v-1.596h.784c.242 0 .424-.051.546-.154.121-.103.228-.266.322-.49l.224-.49-3.948-7.28h2.128l2.674 5.32 2.324-5.32h2.03l-3.962 8.68c-.243.495-.518.84-.826 1.036-.308.196-.719.294-1.232.294h-1.064zm7.793-.07v-7.336h1.876v2.772h.63l1.988-2.772h2.044l-2.604 3.542L48.045 79h-2.142l-2.198-2.912h-.602V79h-1.876zm12.38.14c-.569 0-1.073-.126-1.512-.378a2.791 2.791 0 01-1.008-1.05v4.27h-1.876V71.664h1.638v1.26c.28-.43.635-.765 1.064-1.008a2.85 2.85 0 011.47-.378c.495 0 .948.098 1.358.294.42.196.784.471 1.092.826.308.345.546.747.714 1.204.178.448.266.933.266 1.456 0 .71-.14 1.353-.42 1.932a3.462 3.462 0 01-1.134 1.386c-.476.336-1.026.504-1.652.504zm-.63-1.596c.29 0 .551-.06.784-.182.234-.121.434-.285.602-.49a2.14 2.14 0 00.392-.714c.094-.27.14-.55.14-.84 0-.308-.05-.593-.154-.854a1.917 1.917 0 00-.42-.686 1.951 1.951 0 00-1.456-.644c-.177 0-.359.033-.546.098-.177.056-.35.14-.518.252a2.254 2.254 0 00-.448.392c-.12.15-.21.313-.266.49v1.722c.112.27.262.518.448.742.196.224.42.401.672.532.252.121.51.182.77.182zm4.604-.714c0-.476.13-.891.391-1.246.271-.364.645-.644 1.12-.84.477-.196 1.023-.294 1.639-.294.307 0 .62.023.938.07.317.047.592.121.826.224v-.392c0-.467-.14-.826-.42-1.078-.271-.252-.677-.378-1.219-.378-.4 0-.784.07-1.148.21-.364.14-.746.345-1.148.616l-.602-1.232a6.01 6.01 0 011.485-.714 5.42 5.42 0 011.61-.238c1.045 0 1.857.261 2.436.784.587.523.882 1.27.882 2.24V76.9c0 .196.032.336.098.42.074.084.19.135.35.154V79c-.169.028-.323.051-.463.07-.13.019-.242.028-.335.028-.374 0-.659-.084-.855-.252a1.084 1.084 0 01-.35-.616l-.041-.378c-.318.41-.715.728-1.19.952a3.387 3.387 0 01-1.456.336c-.486 0-.924-.098-1.316-.294a2.433 2.433 0 01-.91-.826 2.253 2.253 0 01-.322-1.19zm4.563.378c.103-.112.187-.224.253-.336a.622.622 0 00.098-.308v-.742a3.48 3.48 0 00-.728-.21 3.547 3.547 0 00-.742-.084c-.486 0-.887.107-1.204.322-.308.205-.462.48-.462.826 0 .187.05.364.154.532.102.168.252.303.448.406.196.103.429.154.7.154.28 0 .555-.051.825-.154.271-.112.49-.247.659-.406zM66.124 79v-7.336H68V79h-1.876zm-1.19-8.47v-1.666h1.553v1.666h-1.553zm2.688 0v-1.666h1.553v1.666h-1.553zm2.07 8.47v-7.336h1.876v2.8h2.968v-2.8h1.876V79h-1.876v-2.968h-2.968V79h-1.876zm11.851.14a4.195 4.195 0 01-1.61-.294 3.641 3.641 0 01-1.218-.84 4.07 4.07 0 01-.784-1.232 3.954 3.954 0 01-.266-1.442c0-.69.154-1.32.462-1.89a3.615 3.615 0 011.344-1.386c.58-.345 1.265-.518 2.058-.518.794 0 1.475.173 2.044.518.57.345.994.798 1.274 1.358l-1.834.56a1.596 1.596 0 00-.63-.616 1.719 1.719 0 00-.868-.224 1.843 1.843 0 00-1.666 1.05c-.168.327-.252.71-.252 1.148 0 .43.084.812.252 1.148.178.327.411.588.7.784.29.187.612.28.966.28.224 0 .434-.037.63-.112.206-.075.388-.177.546-.308.16-.13.276-.28.35-.448l1.834.56c-.168.364-.415.69-.742.98-.317.29-.695.518-1.134.686-.429.159-.914.238-1.456.238zM86.03 79v-7.336h1.876v2.31h1.666c.877 0 1.55.224 2.016.672.466.448.7 1.04.7 1.778 0 .495-.098.938-.294 1.33-.196.392-.486.7-.868.924-.383.215-.859.322-1.428.322H86.03zm1.876-1.428h1.498c.252 0 .457-.051.616-.154a.898.898 0 00.364-.406c.084-.168.126-.36.126-.574a1.27 1.27 0 00-.112-.546.822.822 0 00-.364-.392c-.159-.103-.374-.154-.644-.154h-1.484v2.226zM93.467 79v-7.336h1.876v2.772h.63l1.988-2.772h2.044l-2.604 3.542L100.285 79h-2.142l-2.198-2.912h-.602V79h-1.876zm7.412-2.17c0-.476.131-.891.392-1.246.271-.364.644-.644 1.12-.84.476-.196 1.022-.294 1.638-.294.308 0 .621.023.938.07.318.047.593.121.826.224v-.392c0-.467-.14-.826-.42-1.078-.27-.252-.676-.378-1.218-.378-.401 0-.784.07-1.148.21-.364.14-.746.345-1.148.616l-.602-1.232c.486-.317.98-.555 1.484-.714a5.423 5.423 0 011.61-.238c1.046 0 1.858.261 2.436.784.588.523.882 1.27.882 2.24V76.9c0 .196.033.336.098.42.075.084.192.135.35.154V79c-.168.028-.322.051-.462.07-.13.019-.242.028-.336.028-.373 0-.658-.084-.854-.252a1.09 1.09 0 01-.35-.616l-.042-.378c-.317.41-.714.728-1.19.952a3.385 3.385 0 01-1.456.336c-.485 0-.924-.098-1.316-.294a2.438 2.438 0 01-.91-.826 2.26 2.26 0 01-.322-1.19zm4.564.378c.103-.112.187-.224.252-.336a.615.615 0 00.098-.308v-.742a3.469 3.469 0 00-.728-.21 3.54 3.54 0 00-.742-.084c-.485 0-.886.107-1.204.322-.308.205-.462.48-.462.826 0 .187.052.364.154.532.103.168.252.303.448.406.196.103.43.154.7.154.28 0 .556-.051.826-.154.271-.112.49-.247.658-.406zM27.118 95v-7.336h1.96l2.296 4.242 2.31-4.242h1.932V95h-1.778v-4.746l-1.876 3.444h-1.176l-1.89-3.444V95h-1.778zm13.614.14a4.195 4.195 0 01-1.61-.294 3.641 3.641 0 01-1.218-.84 3.821 3.821 0 01-.756-1.218 3.954 3.954 0 01-.266-1.442c0-.513.089-.999.266-1.456.178-.457.43-.863.756-1.218.336-.355.742-.63 1.218-.826a4.027 4.027 0 011.61-.308c.598 0 1.13.103 1.596.308a3.478 3.478 0 011.974 2.044c.178.457.266.943.266 1.456 0 .504-.088.985-.266 1.442-.168.457-.42.863-.756 1.218a3.491 3.491 0 01-1.204.84 4.194 4.194 0 01-1.61.294zm-1.918-3.794c0 .43.084.812.252 1.148.168.327.397.583.686.77.29.187.616.28.98.28.355 0 .677-.093.966-.28.29-.196.518-.457.686-.784.178-.336.266-.719.266-1.148 0-.42-.088-.798-.266-1.134a1.942 1.942 0 00-.686-.784 1.744 1.744 0 00-.966-.28c-.364 0-.69.098-.98.294-.29.187-.518.448-.686.784a2.446 2.446 0 00-.252 1.134zM45.834 95v-7.336h4.088c.505 0 .91.084 1.219.252.317.168.55.387.7.658.149.27.224.56.224.868 0 .41-.094.77-.28 1.078-.178.308-.458.546-.84.714.429.121.779.331 1.05.63.27.29.406.672.406 1.148 0 .457-.108.835-.323 1.134-.214.29-.522.504-.924.644-.4.14-.877.21-1.428.21h-3.892zm1.778-1.274h2.058a.881.881 0 00.785-.462.881.881 0 00.126-.462.916.916 0 00-.113-.462.766.766 0 00-.322-.322.836.836 0 00-.462-.126h-2.072v1.834zm0-3.01h1.834a.81.81 0 00.449-.126.79.79 0 00.293-.336.967.967 0 00.112-.462.816.816 0 00-.237-.602.765.765 0 00-.602-.252h-1.849v1.778zm5.648 2.114c0-.476.13-.891.392-1.246.27-.364.644-.644 1.12-.84.476-.196 1.022-.294 1.638-.294.308 0 .62.023.938.07.318.047.593.121.826.224v-.392c0-.467-.14-.826-.42-1.078-.27-.252-.676-.378-1.218-.378-.401 0-.784.07-1.148.21-.364.14-.746.345-1.148.616l-.602-1.232a6.01 6.01 0 011.484-.714 5.42 5.42 0 011.61-.238c1.046 0 1.858.261 2.436.784.588.523.882 1.27.882 2.24V92.9c0 .196.033.336.098.42.075.084.191.135.35.154V95c-.168.028-.322.051-.462.07-.13.019-.242.028-.336.028-.373 0-.658-.084-.854-.252a1.084 1.084 0 01-.35-.616l-.042-.378c-.317.41-.714.728-1.19.952a3.387 3.387 0 01-1.456.336c-.485 0-.924-.098-1.316-.294a2.433 2.433 0 01-.91-.826 2.253 2.253 0 01-.322-1.19zm4.564.378c.103-.112.187-.224.252-.336a.622.622 0 00.098-.308v-.742a3.48 3.48 0 00-.728-.21 3.547 3.547 0 00-.742-.084c-.485 0-.886.107-1.204.322-.308.205-.462.48-.462.826 0 .187.052.364.154.532.103.168.252.303.448.406.196.103.43.154.7.154.28 0 .555-.051.826-.154.27-.112.49-.247.658-.406zM66.861 95v-5.698h-2.325v-1.638h6.538v1.638h-2.337V95H66.86zm4.733-2.17c0-.476.13-.891.392-1.246.27-.364.644-.644 1.12-.84.476-.196 1.022-.294 1.638-.294.308 0 .62.023.938.07.317.047.593.121.826.224v-.392c0-.467-.14-.826-.42-1.078-.27-.252-.676-.378-1.218-.378-.401 0-.784.07-1.148.21-.364.14-.746.345-1.148.616l-.602-1.232c.486-.317.98-.555 1.484-.714a5.42 5.42 0 011.61-.238c1.046 0 1.858.261 2.436.784.588.523.882 1.27.882 2.24V92.9c0 .196.033.336.098.42.075.084.192.135.35.154V95c-.168.028-.322.051-.462.07-.13.019-.243.028-.336.028-.373 0-.658-.084-.854-.252a1.085 1.085 0 01-.35-.616l-.042-.378c-.317.41-.714.728-1.19.952a3.386 3.386 0 01-1.456.336c-.485 0-.924-.098-1.316-.294a2.433 2.433 0 01-.91-.826 2.254 2.254 0 01-.322-1.19zm4.564.378c.103-.112.187-.224.252-.336a.62.62 0 00.098-.308v-.742a3.479 3.479 0 00-.728-.21 3.546 3.546 0 00-.742-.084c-.485 0-.886.107-1.204.322-.308.205-.462.48-.462.826 0 .187.052.364.154.532.103.168.252.303.448.406.196.103.43.154.7.154.28 0 .555-.051.826-.154.27-.112.49-.247.658-.406zm6.81 1.89v-1.666c.224-.01.425-.065.602-.168.178-.103.332-.275.463-.518.14-.252.247-.602.322-1.05.084-.448.14-1.022.167-1.722l.099-2.31h5.502V95h-1.877v-5.698h-1.974l-.028.854c-.037.961-.13 1.76-.28 2.394-.149.635-.359 1.139-.63 1.512a2.215 2.215 0 01-.98.784c-.391.159-.853.243-1.385.252zm8.817-3.094V90.31h4.242v1.694h-4.242zm10.289 3.136c-.569 0-1.073-.126-1.512-.378a2.793 2.793 0 01-1.008-1.05v4.27h-1.876V87.664h1.638v1.26c.28-.43.635-.765 1.064-1.008.43-.252.92-.378 1.47-.378.495 0 .948.098 1.358.294.42.196.784.471 1.092.826.308.345.546.747.714 1.204.178.448.266.933.266 1.456 0 .71-.14 1.353-.42 1.932a3.452 3.452 0 01-1.134 1.386c-.476.336-1.026.504-1.652.504zm-.63-1.596c.29 0 .551-.06.784-.182a1.9 1.9 0 00.602-.49 2.13 2.13 0 00.392-.714c.094-.27.14-.55.14-.84 0-.308-.051-.593-.154-.854a1.909 1.909 0 00-.42-.686 1.945 1.945 0 00-.658-.476 1.877 1.877 0 00-.798-.168c-.177 0-.359.033-.546.098-.177.056-.35.14-.518.252a2.253 2.253 0 00-.448.392c-.121.15-.21.313-.266.49v1.722c.112.27.262.518.448.742.196.224.42.401.672.532.252.121.509.182.77.182zm4.603-.714c0-.476.131-.891.392-1.246.271-.364.644-.644 1.12-.84.476-.196 1.022-.294 1.638-.294.308 0 .621.023.938.07.318.047.593.121.826.224v-.392c0-.467-.14-.826-.42-1.078-.27-.252-.676-.378-1.218-.378-.401 0-.784.07-1.148.21-.364.14-.746.345-1.148.616l-.602-1.232c.486-.317.98-.555 1.484-.714a5.423 5.423 0 011.61-.238c1.046 0 1.858.261 2.436.784.588.523.882 1.27.882 2.24V92.9c0 .196.033.336.098.42.075.084.192.135.35.154V95c-.168.028-.322.051-.462.07-.13.019-.242.028-.336.028-.373 0-.658-.084-.854-.252a1.09 1.09 0 01-.35-.616l-.042-.378c-.317.41-.714.728-1.19.952a3.385 3.385 0 01-1.456.336c-.485 0-.924-.098-1.316-.294a2.438 2.438 0 01-.91-.826 2.26 2.26 0 01-.322-1.19zm4.564.378c.103-.112.187-.224.252-.336a.615.615 0 00.098-.308v-.742a3.469 3.469 0 00-.728-.21 3.54 3.54 0 00-.742-.084c-.485 0-.886.107-1.204.322-.308.205-.462.48-.462.826 0 .187.052.364.154.532.103.168.252.303.448.406.196.103.43.154.7.154.28 0 .556-.051.826-.154.271-.112.49-.247.658-.406z" fill="#fff"/></symbol><symbol fill="none" viewBox="0 0 140 164" id="p3" xmlns="http://www.w3.org/2000/svg"><path fill-rule="evenodd" clip-rule="evenodd" d="M72.097 38.488c.455 1.9.455 4.593.91 6.494.605.158.756 0 1.514.158-.152.792-.91.792-1.212 1.267 0 1.742.606 3.167.909 4.593-.152.633-.758.792-.909 1.267-1.817-.159-2.726-1.9-4.09-2.693-.756-.475-1.817-.475-2.271-1.425.909-1.267 2.575-1.742 4.24-2.376-.15-2.058-.15-4.434-1.06-5.86-1.817 2.535-3.331 5.385-5.3 7.92-.455.95-.455 2.375-1.515 2.692-1.212-.95.152-2.376.606-3.326 1.666-3.168 4.09-6.177 5.604-9.344 0-.159.303-.159.303-.317 1.06-.158 1.363.475 2.271.95zm-.908 8.71c-.455.318-1.212.476-1.212 1.11.606.633 1.212 1.108 2.12 1.266-.302-.791-.151-2.058-.908-2.375zM116.776 53.217c0 .792-.454.95-.606 1.425-3.483.317-4.543 3.484-5.149 6.81 1.969.317 5.604-1.742 7.27 0-2.272 1.267-5.604 1.267-7.725 2.693-.454 2.692 2.272 5.701-.757 6.335-2.12-4.752-.454-11.878 1.666-15.363-1.514-.633-4.089-.158-5.149-1.108 0-.317.151-.634.303-.95 3.786-.159 6.967.316 10.147.158zM28.176 66.362c.455 1.584 2.272 1.742 2.726 3.167-.454.634-1.06.95-1.363 1.743-2.272.475-4.846 2.217-7.27 1.742 0-1.109 1.212-.95 1.97-1.267-.606-3.643 1.514-6.81 2.271-10.136.455 0 .606-.159.909 0 .454 1.425-.454 2.217-.454 3.642 1.968-.475 3.483-1.583 4.24-3.484-.454-1.267-2.12-1.267-2.726-2.217.303-2.534 4.695.633 4.695 1.584 0 .633-.757 1.742-1.06 2.217-.909 1.267-2.726 2.375-3.938 3.009zm-2.574 4.751c1.363-.158 2.423-.475 2.877-1.425-.606-.634-1.212-1.426-2.12-1.9-.303.95-1.06 2.058-.758 3.325zM63.313 62.561c.455.633 0 1.584-.151 2.534-.303 1.425.151 3.326-1.363 3.484 0-1.425.151-3.009.151-5.226.303-.317.606-.792 1.363-.792zM60.133 84.892c.605 1.267.302 3.8-.758 4.276-.908-.317-.151-3.01-.454-3.96.454-.316.757-.316 1.212-.316zM61.041 90.435c1.818.95 2.272 2.534 1.818 5.068-1.06 1.425-2.424-.159-3.787.475-.908-.792-1.817-.475-2.726-.792-.151-1.109.758-1.109 1.212-1.426.303-2.058 1.817-3.167 3.483-3.325zM67.403 95.186c-1.364 0-2.727.317-3.635-.475v-.95c.757-.634 3.786.316 3.635 1.425zM79.519 97.403c-1.364.475-3.484-.158-5.301-.633 0-1.9 2.423-.95 3.18-.475.909.316 2.12.158 2.12 1.108zM53.62 96.928c.152.475-.151.633-.151.95-1.363 0-2.423 1.742-3.787.95.606-1.425 2.272-1.583 3.938-1.9zM86.485 99.303c-1.06-.158-2.574 0-2.726-.95.606-.95 2.726-.158 2.726.95zM46.199 100.412c-.151 1.109-2.423 2.693-3.938 1.901.303-1.584 2.423-2.059 3.938-1.901zM110.112 101.362c-1.06 2.218-4.241.951-5.452 3.326-.303.634-.455 1.426-.909 2.217-1.06 2.376-2.726 6.652.757 7.444 2.575.475 4.695-.95 5.756-1.584-.303 4.118-8.936 4.593-9.693.475-.606-3.642 2.423-6.335 2.726-9.502-.152-.475-.455-.95-.455-1.584 1.363-1.108 4.847.159 6.21-1.108.454 0 1.06-.159 1.06.316z" fill="#1A1A1A"/><path fill-rule="evenodd" clip-rule="evenodd" d="M112.232 106.272c.152 0 .303.158.303.317-1.211 2.534-4.846 3.484-7.572 3.009-.152-.317-.303-.634-.303-1.109.454-.633 1.211-.317 1.969-.317 2.12 0 4.24-.791 5.603-1.9zM28.63 107.064c-.15 1.267-1.363.792-2.12.95-1.514.475-3.332 2.534-3.332 3.959 0 3.01 4.847 2.851 8.027 3.168-2.877 1.267-8.935 1.425-9.693-1.901-.757-3.325 3.787-8.393 7.119-6.176zM69.068 126.385c-.454.476.303 1.109 0 1.426-.302.158-1.211.158-1.363 0-.454-2.534.606-6.018.909-8.869.909-.158 1.363-.95 2.272-1.267 1.969.792 5.604 3.959 6.21 5.701 1.211 4.752-4.847 4.118-8.028 3.009zm0-1.267c1.666.792 5.604 1.426 6.513-.475-1.363-2.217-2.878-4.593-5.755-5.226-.152 1.9-.303 3.959-.758 5.701zM102.085 61.136c.454-.634.757-1.743 1.817-1.268 0 1.901-.757 4.277-1.211 6.177 0 .633.909.317.909.95-1.061 3.643-1.818 8.552-2.575 13.462-.757 4.751-1.515 9.82-1.212 13.937.152 1.425.303 4.593-1.363 4.751-.909.159-.757-.475-1.363-.792-.303.634-.303 1.109.454 1.109.152.633-.302.792-.302 1.425a130.727 130.727 0 00-14.388 5.543c-4.09 2.376-7.725 5.227-12.117 7.285-.757-.316-.757-1.108-1.514-1.108-.757-.159-1.06.475-1.666.633-1.515.159-3.787-.475-5.755-.95-7.422-1.425-13.783-3.801-21.355-5.068-1.97-.317-3.938-.158-5.755-1.267 0-1.108.908-1.425 1.514-1.742-.454-1.267-1.212-.158-2.272-.158-.605-1.901-.605-3.96-.454-5.86.454-8.236 2.726-15.837 3.029-23.598 0-1.742-.303-3.326.454-4.751.606 0 .91.317 1.363.475 8.027-4.91 14.843-11.244 24.081-14.887.303-.317.303-.95.606-1.267 1.97-1.109 3.787.317 5.907.475 5.755.317 11.662 1.584 16.66 3.326 3.786.158 8.481 1.267 12.267 1.742 1.818 0 3.332 0 4.241 1.425zm-12.57-1.11l-6.816-.95c-2.575-.474-5.15-.316-7.573-.95-3.483-.791-6.815-2.217-10.147-2.217-.909 1.742-.454 4.91-2.12 6.018-.303-.791.151-2.375 0-4.117-5.604 3.642-11.662 7.126-17.114 10.769-.758.475-1.818.95-2.272 1.9 2.575.317 5.604 1.267 8.33.95 1.666-.158 3.18.16 5.15.317 6.057.476 11.661 1.11 16.81 2.06.303.475-.303 1.108.303 1.425 3.938-.792 7.421-3.01 9.996-4.751 4.544-3.01 9.39-5.385 13.328-9.028-2.272-.792-5.15-1.108-7.876-1.425zm9.238 4.277c.757-.317 1.515 0 1.969.317.151-.634.454-1.109.454-1.9-1.363 0-1.817.791-2.423 1.583zm-3.635 1.9c-.606.317-1.666.317-1.817.95 1.817-.95 3.938-1.425 5.15-2.85-1.212-.158-2.424 1.109-3.333 1.9zm5.15.476c0-.159-.152-.159-.303-.159-.606.475-1.818.475-2.575.792-5.907 2.217-11.813 5.226-16.811 8.552-2.272 1.584-4.24 3.643-6.967 3.326-.151.792-.606 1.425-.606 2.534.454.317 1.06-.317 1.212.475-.303 2.692-1.515 5.543-1.818 8.869-.303 3.484-.757 7.444-.908 10.928-.303 3.326.151 6.968-1.818 8.394.454.633.909.95.909 1.9 1.363-.317 2.423-.792 3.18-1.742-1.211 0-2.574.95-2.877-.475.606-1.109 1.969-1.426 3.332-1.742 6.512-3.168 14.236-5.068 19.84-9.186-.303-.633-1.817-.158-1.666-1.267 1.363-1.109 3.332.634 4.998.317 1.06-10.453 1.06-21.539 2.878-31.516zm-59.673 6.334c-.151.159-.454.159-.454.634.303 1.267.151 2.85-.152 4.593-.302 1.742-.757 3.642-.908 5.543-.303 2.059-.152 4.276-.455 6.335-.454 4.593-1.666 11.244.152 14.729.606-.159.757-.476 1.514-.476 7.876 2.693 17.417 3.01 26.808 4.277.302-4.593.908-9.661 1.968-14.57 1.06-4.91 1.363-10.612 2.12-15.68-1.817-2.375-6.057-2.059-9.54-2.85-.455 1.583.15 3.959-1.212 4.75-.455-1.266 0-3.8-.455-5.067-6.664-.95-12.419-1.9-19.386-2.218zm-3.786 9.978c.303 0 .606-.95.151-.95.152.475-.151.475-.151.95zm-1.817 14.887c1.363-3.642 1.514-8.71 2.12-13.145 0-.158-.152-.158-.303-.317-1.06 4.118-1.817 9.028-1.817 13.462zm0 1.267c.15-.317.454-.792 0-.95-.152 0-.303.792 0 .95zm34.076 5.068c.152-1.425.606-3.326.455-4.751-.152 1.425-1.06 3.326-.455 4.751zm-6.512 5.543c-.303 0-1.818-.475-1.515-.158.455 0 1.212.475 1.515.158zm2.726.475c-.454 0-.909-.475-1.06-.158.151.158.757.475 1.06.158zm1.212.159c-.303 0-.91-.317-1.06 0 .15 0 .908.316 1.06 0zm1.06.158c-.303 0-.757-.317-.909 0 .152 0 .757.317.909 0z" fill="#1A1A1A"/><path d="M69.998 164L140 123V41L69.998 0 0 41v82l69.998 41z" fill="#FCAA23" fill-opacity=".95"/><path d="M36.636 87v-6.524l-2.548 4.858H33.01l-2.548-4.858V87H28.53v-9.94h2.072l2.94 5.656 2.968-5.656h2.058V87h-1.932zm3.24-2.17c0-.476.13-.891.391-1.246.271-.364.644-.644 1.12-.84.476-.196 1.022-.294 1.638-.294.308 0 .621.023.938.07.318.047.593.121.826.224v-.392c0-.467-.14-.826-.42-1.078-.27-.252-.676-.378-1.218-.378-.4 0-.784.07-1.148.21-.364.14-.746.345-1.148.616l-.602-1.232a6.01 6.01 0 011.484-.714 5.42 5.42 0 011.61-.238c1.046 0 1.858.261 2.436.784.588.523.882 1.27.882 2.24V84.9c0 .196.033.336.098.42.075.084.192.135.35.154V87c-.168.028-.322.051-.462.07-.13.019-.242.028-.336.028-.373 0-.658-.084-.854-.252a1.085 1.085 0 01-.35-.616l-.042-.378c-.317.41-.714.728-1.19.952a3.386 3.386 0 01-1.456.336c-.485 0-.924-.098-1.316-.294a2.433 2.433 0 01-.91-.826 2.253 2.253 0 01-.322-1.19zm4.563.378c.103-.112.187-.224.252-.336a.622.622 0 00.098-.308v-.742a3.48 3.48 0 00-.728-.21 3.546 3.546 0 00-.742-.084c-.485 0-.886.107-1.204.322-.308.205-.462.48-.462.826 0 .187.052.364.154.532.103.168.252.303.448.406.196.103.43.154.7.154.28 0 .556-.051.826-.154.271-.112.49-.247.658-.406zM50.03 87v-5.698h-2.324v-1.638h6.538v1.638h-2.338V87H50.03zm8.667.14c-.588 0-1.12-.098-1.596-.294a3.748 3.748 0 01-1.218-.826 3.942 3.942 0 01-.784-1.204 3.954 3.954 0 01-.266-1.442c0-.7.154-1.34.462-1.918a3.614 3.614 0 011.344-1.386c.588-.355 1.28-.532 2.072-.532.803 0 1.49.177 2.058.532.57.345 1.004.807 1.302 1.386.308.57.462 1.185.462 1.848 0 .112-.004.229-.014.35-.009.112-.018.205-.028.28h-5.67c.038.373.145.7.322.98.187.28.42.495.7.644a2.168 2.168 0 001.974-.056c.336-.187.565-.43.686-.728l1.61.448a3.011 3.011 0 01-.77.994c-.326.29-.714.518-1.162.686a4.419 4.419 0 01-1.484.238zm-1.918-4.396h3.836a2.12 2.12 0 00-.322-.966 1.712 1.712 0 00-.672-.644 1.869 1.869 0 00-.938-.238c-.336 0-.644.08-.924.238-.27.15-.494.364-.672.644-.168.27-.27.593-.308.966zM63.676 87v-7.336h1.96l2.296 4.242 2.31-4.242h1.932V87h-1.778v-4.746l-1.876 3.444h-1.176l-1.89-3.444V87h-1.778zm9.723-2.17c0-.476.13-.891.392-1.246.27-.364.644-.644 1.12-.84.476-.196 1.022-.294 1.638-.294.308 0 .62.023.938.07.317.047.593.121.826.224v-.392c0-.467-.14-.826-.42-1.078-.27-.252-.677-.378-1.218-.378-.401 0-.784.07-1.148.21-.364.14-.747.345-1.148.616l-.602-1.232c.485-.317.98-.555 1.484-.714a5.42 5.42 0 011.61-.238c1.045 0 1.857.261 2.436.784.588.523.882 1.27.882 2.24V84.9c0 .196.033.336.098.42.075.084.191.135.35.154V87c-.168.028-.322.051-.462.07-.13.019-.243.028-.336.028-.373 0-.658-.084-.854-.252a1.085 1.085 0 01-.35-.616l-.042-.378c-.318.41-.714.728-1.19.952a3.386 3.386 0 01-1.456.336c-.486 0-.924-.098-1.316-.294a2.433 2.433 0 01-.91-.826 2.254 2.254 0 01-.322-1.19zm4.564.378c.103-.112.187-.224.252-.336a.62.62 0 00.098-.308v-.742a3.479 3.479 0 00-.728-.21 3.546 3.546 0 00-.742-.084c-.486 0-.887.107-1.204.322-.308.205-.462.48-.462.826 0 .187.051.364.154.532.102.168.252.303.448.406.196.103.43.154.7.154.28 0 .555-.051.826-.154.27-.112.49-.247.658-.406zM83.553 87v-5.698H81.23v-1.638h6.538v1.638H85.43V87h-1.876zm5.266 0v-7.322h1.876v4.816l3.29-4.83h1.708V87h-1.876v-4.704L90.569 87h-1.75zm8.586 0v-7.336h1.876v2.772h.63l1.988-2.772h2.044l-2.604 3.542L104.223 87h-2.142l-2.198-2.912h-.602V87h-1.876zm7.412-2.17c0-.476.13-.891.392-1.246.27-.364.644-.644 1.12-.84.476-.196 1.022-.294 1.638-.294.308 0 .62.023.938.07.317.047.592.121.826.224v-.392c0-.467-.14-.826-.42-1.078-.271-.252-.677-.378-1.218-.378-.402 0-.784.07-1.148.21-.364.14-.747.345-1.148.616l-.602-1.232c.485-.317.98-.555 1.484-.714a5.418 5.418 0 011.61-.238c1.045 0 1.857.261 2.436.784.588.523.882 1.27.882 2.24V84.9c0 .196.032.336.098.42.074.084.191.135.35.154V87c-.168.028-.322.051-.462.07a2.432 2.432 0 01-.336.028c-.374 0-.658-.084-.854-.252a1.079 1.079 0 01-.35-.616l-.042-.378c-.318.41-.714.728-1.19.952a3.389 3.389 0 01-1.456.336 2.9 2.9 0 01-1.316-.294 2.43 2.43 0 01-.91-.826 2.25 2.25 0 01-.322-1.19zm4.564.378c.102-.112.186-.224.252-.336a.625.625 0 00.098-.308v-.742a3.486 3.486 0 00-.728-.21 3.554 3.554 0 00-.742-.084c-.486 0-.887.107-1.204.322-.308.205-.462.48-.462.826 0 .187.051.364.154.532.102.168.252.303.448.406.196.103.429.154.7.154.28 0 .555-.051.826-.154.27-.112.49-.247.658-.406z" fill="#fff"/></symbol><symbol fill="none" viewBox="0 0 140 164" id="p4" xmlns="http://www.w3.org/2000/svg"><path d="M69.998 164L140 123V41L69.998 0 0 41v82l69.998 41z" fill="#FCAA23" fill-opacity=".5"/><path d="M47.274 79v-9.94h1.932V79h-1.932zm7.117.14a4.195 4.195 0 01-1.61-.294 3.641 3.641 0 01-1.218-.84 4.07 4.07 0 01-.784-1.232 3.954 3.954 0 01-.266-1.442c0-.69.154-1.32.462-1.89a3.614 3.614 0 011.344-1.386c.579-.345 1.265-.518 2.058-.518.793 0 1.475.173 2.044.518.57.345.994.798 1.274 1.358l-1.834.56a1.597 1.597 0 00-.63-.616 1.719 1.719 0 00-.868-.224 1.843 1.843 0 00-1.666 1.05c-.168.327-.252.71-.252 1.148 0 .43.084.812.252 1.148.177.327.41.588.7.784.29.187.611.28.966.28.224 0 .434-.037.63-.112a1.84 1.84 0 00.546-.308c.159-.13.275-.28.35-.448l1.834.56c-.168.364-.415.69-.742.98-.317.29-.695.518-1.134.686-.43.159-.915.238-1.456.238zm6.18-.14v-5.698h-2.324v-1.638h6.538v1.638h-2.338V79h-1.876zm8.653.14a4.195 4.195 0 01-1.61-.294 3.641 3.641 0 01-1.218-.84 3.821 3.821 0 01-.756-1.218 3.954 3.954 0 01-.266-1.442c0-.513.09-.999.266-1.456.178-.457.43-.863.756-1.218.336-.355.742-.63 1.218-.826a4.027 4.027 0 011.61-.308c.598 0 1.13.103 1.596.308a3.478 3.478 0 011.974 2.044c.178.457.266.943.266 1.456 0 .504-.088.985-.266 1.442-.168.457-.42.863-.756 1.218a3.491 3.491 0 01-1.204.84 4.194 4.194 0 01-1.61.294zm-1.918-3.794c0 .43.084.812.252 1.148.168.327.397.583.686.77.29.187.616.28.98.28.355 0 .677-.093.966-.28.29-.196.518-.457.686-.784.178-.336.266-.719.266-1.148 0-.42-.088-.798-.266-1.134a1.942 1.942 0 00-.686-.784 1.744 1.744 0 00-.966-.28c-.364 0-.69.098-.98.294-.289.187-.518.448-.686.784a2.446 2.446 0 00-.252 1.134zm11.417 3.794c-.57 0-1.074-.126-1.512-.378a2.79 2.79 0 01-1.008-1.05v4.27h-1.876V71.664h1.638v1.26a3.05 3.05 0 011.064-1.008 2.85 2.85 0 011.47-.378c.494 0 .947.098 1.358.294.42.196.784.471 1.092.826.308.345.546.747.714 1.204.177.448.266.933.266 1.456 0 .71-.14 1.353-.42 1.932a3.463 3.463 0 01-1.134 1.386c-.476.336-1.027.504-1.652.504zm-.63-1.596c.289 0 .55-.06.784-.182.233-.121.434-.285.602-.49.177-.215.308-.453.392-.714.093-.27.14-.55.14-.84 0-.308-.052-.593-.154-.854a1.92 1.92 0 00-.42-.686 1.952 1.952 0 00-1.456-.644c-.178 0-.36.033-.546.098a2.04 2.04 0 00-.518.252 2.251 2.251 0 00-.448.392c-.122.15-.21.313-.266.49v1.722c.112.27.261.518.448.742.196.224.42.401.672.532.252.121.508.182.77.182zM83.2 79v-7.336h1.876V79H83.2zm0-8.358V68.78h1.876v1.862H83.2zM86.376 79l1.862-2.856a1.89 1.89 0 01-1.05-.714c-.252-.355-.378-.821-.378-1.4 0-.485.112-.905.336-1.26.224-.355.532-.63.924-.826.392-.205.845-.308 1.358-.308h3.486V79h-1.876v-2.534h-.994L88.434 79h-2.058zm3.276-3.878h1.386v-2.044h-1.316c-.336 0-.602.093-.798.28a.96.96 0 00-.294.728c0 .299.084.546.252.742.177.196.434.294.77.294zM44.788 95.07v-1.596h.784c.243 0 .425-.051.546-.154.121-.103.229-.266.322-.49l.224-.49-3.948-7.28h2.128l2.674 5.32 2.324-5.32h2.03l-3.962 8.68c-.242.495-.518.84-.826 1.036-.308.196-.719.294-1.232.294h-1.064zm7.794-.07v-7.336h1.876v2.772h.63l1.987-2.772h2.044l-2.603 3.542L59.4 95h-2.142l-2.199-2.912h-.601V95H52.58zm12.38.14c-.57 0-1.073-.126-1.512-.378a2.791 2.791 0 01-1.008-1.05v4.27h-1.876V87.664h1.638v1.26c.28-.43.635-.765 1.064-1.008a2.85 2.85 0 011.47-.378c.495 0 .947.098 1.358.294.42.196.784.471 1.092.826.308.345.546.747.714 1.204.177.448.266.933.266 1.456 0 .71-.14 1.353-.42 1.932a3.463 3.463 0 01-1.134 1.386c-.476.336-1.027.504-1.652.504zm-.63-1.596c.29 0 .55-.06.784-.182.233-.121.434-.285.602-.49.177-.215.308-.453.392-.714.093-.27.14-.55.14-.84 0-.308-.051-.593-.154-.854a1.917 1.917 0 00-.42-.686 1.952 1.952 0 00-1.456-.644c-.177 0-.36.033-.546.098-.177.056-.35.14-.518.252a2.254 2.254 0 00-.448.392c-.121.15-.21.313-.266.49v1.722c.112.27.261.518.448.742.196.224.42.401.672.532.252.121.509.182.77.182zm4.603-.714c0-.476.13-.891.392-1.246.27-.364.644-.644 1.12-.84.476-.196 1.022-.294 1.638-.294.308 0 .62.023.938.07.317.047.593.121.826.224v-.392c0-.467-.14-.826-.42-1.078-.27-.252-.677-.378-1.218-.378-.401 0-.784.07-1.148.21-.364.14-.747.345-1.148.616l-.602-1.232a6.01 6.01 0 011.484-.714 5.42 5.42 0 011.61-.238c1.045 0 1.857.261 2.436.784.588.523.882 1.27.882 2.24V92.9c0 .196.033.336.098.42.075.084.191.135.35.154V95c-.168.028-.322.051-.462.07-.13.019-.243.028-.336.028-.373 0-.658-.084-.854-.252a1.084 1.084 0 01-.35-.616l-.042-.378c-.317.41-.714.728-1.19.952a3.387 3.387 0 01-1.456.336c-.485 0-.924-.098-1.316-.294a2.433 2.433 0 01-.91-.826 2.253 2.253 0 01-.322-1.19zm4.564.378c.103-.112.187-.224.252-.336a.622.622 0 00.098-.308v-.742a3.48 3.48 0 00-.728-.21 3.547 3.547 0 00-.742-.084c-.485 0-.887.107-1.204.322-.308.205-.462.48-.462.826 0 .187.051.364.154.532.103.168.252.303.448.406.196.103.43.154.7.154.28 0 .555-.051.826-.154.27-.112.49-.247.658-.406zM77.478 95v-7.336h1.876V95h-1.876zm-1.19-8.47v-1.666h1.554v1.666h-1.554zm2.688 0v-1.666h1.554v1.666h-1.554zm2.07 8.47v-7.336h1.876v2.8h2.968v-2.8h1.876V95H85.89v-2.968h-2.968V95h-1.876zm8.436 0v-7.322h1.876v4.816l3.29-4.83h1.708V95H94.48v-4.704L91.232 95h-1.75z" fill="#fff"/></symbol><symbol fill="none" viewBox="0 0 140 164" id="p5" xmlns="http://www.w3.org/2000/svg"><path d="M69.998 164L140 123V41L69.998 0 0 41v82l69.998 41z" fill="#FCAA23" fill-opacity=".5"/><path d="M43.276 87v-9.94h7.168v1.666h-5.25v2.394h2.702c1.11 0 1.946.261 2.506.784.56.523.84 1.223.84 2.1 0 .588-.121 1.106-.364 1.554a2.632 2.632 0 01-1.078 1.064c-.476.252-1.078.378-1.806.378h-4.718zm1.918-1.666h2.534c.373 0 .672-.065.896-.196.224-.14.387-.313.49-.518a1.54 1.54 0 00.154-.672 1.48 1.48 0 00-.14-.644.976.976 0 00-.462-.49c-.224-.13-.546-.196-.966-.196h-2.506v2.716zM52.417 87v-7.336h1.877V87h-1.877zm0-8.358V76.78h1.877v1.862h-1.877zm6.957 8.498a4.195 4.195 0 01-1.61-.294 3.641 3.641 0 01-1.218-.84 3.821 3.821 0 01-.756-1.218 3.954 3.954 0 01-.266-1.442c0-.513.088-.999.266-1.456.177-.457.43-.863.756-1.218.336-.355.742-.63 1.218-.826a4.027 4.027 0 011.61-.308c.597 0 1.13.103 1.596.308a3.478 3.478 0 011.974 2.044c.177.457.266.943.266 1.456 0 .504-.089.985-.266 1.442-.168.457-.42.863-.756 1.218a3.491 3.491 0 01-1.204.84 4.194 4.194 0 01-1.61.294zm-1.918-3.794c0 .43.084.812.252 1.148.168.327.397.583.686.77.29.187.616.28.98.28.354 0 .676-.093.966-.28.29-.196.518-.457.686-.784.177-.336.266-.719.266-1.148 0-.42-.089-.798-.266-1.134a1.942 1.942 0 00-.686-.784 1.744 1.744 0 00-.966-.28c-.364 0-.69.098-.98.294-.29.187-.518.448-.686.784a2.446 2.446 0 00-.252 1.134zm6.488 3.752v-1.666c.224-.01.425-.065.602-.168.177-.103.331-.275.462-.518.14-.252.247-.602.322-1.05.084-.448.14-1.022.168-1.722l.098-2.31h5.502V87h-1.876v-5.698h-1.974l-.028.854c-.037.961-.13 1.76-.28 2.394-.15.635-.36 1.139-.63 1.512a2.215 2.215 0 01-.98.784c-.392.159-.854.243-1.386.252zm12.246.042a4.195 4.195 0 01-1.61-.294 3.641 3.641 0 01-1.218-.84 3.821 3.821 0 01-.756-1.218 3.954 3.954 0 01-.266-1.442c0-.513.089-.999.266-1.456.178-.457.43-.863.756-1.218.336-.355.742-.63 1.218-.826a4.027 4.027 0 011.61-.308c.598 0 1.13.103 1.596.308a3.478 3.478 0 011.974 2.044c.178.457.266.943.266 1.456 0 .504-.088.985-.266 1.442-.168.457-.42.863-.756 1.218a3.491 3.491 0 01-1.204.84 4.194 4.194 0 01-1.61.294zm-1.918-3.794c0 .43.084.812.252 1.148.168.327.397.583.686.77.29.187.616.28.98.28.355 0 .677-.093.966-.28.29-.196.518-.457.686-.784.178-.336.266-.719.266-1.148 0-.42-.088-.798-.266-1.134a1.942 1.942 0 00-.686-.784 1.744 1.744 0 00-.966-.28c-.364 0-.69.098-.98.294-.29.187-.518.448-.686.784a2.446 2.446 0 00-.252 1.134zM81.292 87v-7.336h4.858v1.638h-2.982V87h-1.876zm5.934 0v-7.336h1.876V87h-1.876zm0-8.358V76.78h1.876v1.862h-1.876zM90.402 87l1.862-2.856a1.891 1.891 0 01-1.05-.714c-.252-.355-.378-.821-.378-1.4 0-.485.112-.905.336-1.26.224-.355.532-.63.924-.826.392-.205.845-.308 1.358-.308h3.486V87h-1.876v-2.534h-.994L92.46 87h-2.058zm3.276-3.878h1.386v-2.044h-1.316c-.336 0-.602.093-.798.28a.96.96 0 00-.294.728c0 .299.084.546.252.742.178.196.434.294.77.294z" fill="#fff"/></symbol><symbol fill="none" viewBox="0 0 140 164" id="p6" xmlns="http://www.w3.org/2000/svg"><path fill-rule="evenodd" clip-rule="evenodd" d="M98.686 99.434c.312-.422.831-.633 1.246-1.055 1.35.527 2.907.527 4.776.95.727.105 2.596.527 2.388 1.477-.207.949-3.322.527-4.36.422-1.869-.211-3.115-.95-4.05-1.794zM94.949 105.238c-.208.527-.52.949-.623 1.477-.52-.105-.727.106-1.246.106-1.038-2.216-2.492-3.905-4.257-5.382-1.765 0-3.114 1.161-3.945 2.532-1.35 2.111-2.284 4.96-1.765 7.493-.415 1.055-1.972 1.055-2.595.105-.104-.527.103-.738.207-1.055.104-5.276 2.7-8.759 6.23-11.291 4.36-.633 6.229 3.166 7.994 6.015zM99.932 102.811c1.558-2.216 5.088.949 7.476.316.726.317 1.765 1.583.415 1.9-.519.105-1.35-.317-1.765-.317-.519 0-1.038.106-1.557.106-2.181 0-4.153-1.161-4.569-2.005zM70.654 112.519c-.83 0-1.245-.422-1.764-.739.103-1.794-1.558-5.171-3.011-5.382-1.35-.211-2.077 1.161-3.115 1.794-1.142 1.267-1.35 3.483-2.388 4.96-.727 0-.727-.633-1.557-.422-.312-.95.207-1.266.519-1.794.104-.317-.208-.317-.104-.739 1.35-2.743 4.464-7.07 8.513-5.381 1.039.422 2.284 2.005 2.907 3.376.52 1.478.831 2.849 0 4.327zM107.927 109.459c-1.039 2.005-7.164-.212-7.476-1.689 1.662-2.11 4.361.95 6.749.844.208.422.727.422.727.845zM108.861 113.468c-.208 1.267-1.973.845-3.322.528-1.661-.316-3.738-1.161-4.361-1.899.831-2.216 2.803-.422 4.776.105 1.35.422 2.596.211 2.907 1.266zM101.905 115.896c.934-1.794 2.18-.739 3.841.211.935.527 2.492 1.055 2.285 2.321-.104.422-.623.844-1.35.844-.519-.105-.623-.527-1.038-.844-1.142-.844-3.115-1.583-3.738-2.532zM105.954 122.333c-2.284.211-3.115-1.794-4.464-2.85.727-2.743 4.776.845 4.879 1.794-.103.528-.415.844-.415 1.056z" fill="#1A1A1A"/><path fill-rule="evenodd" clip-rule="evenodd" d="M73.25 79.384c-.934 1.267-1.038 4.327-1.142 6.543-.104 1.583 0 3.165.208 4.432-.208.21-.208.633-.416.844.52 1.266 1.454 2.321 1.039 3.904 4.672-3.165 8.825-7.914 15.365-9.286.312-.105.83.106 1.142 0 .935-.105 1.662-.739 2.492-.95 1.869-.422 3.945-.844 5.918-.738 2.18.105 5.087.844 6.852 1.9.831.527 1.765 1.477 2.596 2.215 1.661 1.478 2.595 2.744 3.737 4.854 1.973 3.588 1.765 8.337 2.181 13.507.519 6.121-1.038 12.874-3.946 18.151-1.557 1.582-3.426 2.743-5.191 4.115-3.426.95-6.125 3.166-9.655 4.115-3.323.845-7.995.95-12.251.528-.52 0-1.246-.105-1.765-.211-.935-.211-1.869-.95-2.907-.95-.727 0-1.558.528-2.388.528-1.038 0-2.077-.422-2.907-.422-.727 0-1.558.316-2.596.527-1.453.317-2.7.211-4.464.422-1.246.212-3.219.423-4.776.317-4.568-.316-7.683-2.849-9.863-6.331-.312-1.794-1.765-3.377-2.284-5.277-.312-1.266-.416-2.638-.727-4.009-.208-.845-.52-2.216-.52-3.483 0-.738.312-1.477.312-2.216.104-1.055-.103-2.216 0-3.06.312-2.638 1.142-5.065 1.765-7.176.623-1.582 1.765-2.638 2.077-4.537 1.765-1.689 3.322-3.482 5.399-4.854 3.426-.95 7.579-.95 10.901-.422-.52-1.161-1.869-1.372-2.7-2.11-1.868-1.584-3.218-3.694-4.464-5.805-.207-1.266-.727-2.11-1.142-3.06-.104-1.16-.104-2.427-.415-3.799.934-1.9 2.7-.633 3.945.211.52.317 1.246.74 1.558 1.056 2.699 2.532 4.464 7.07 6.333 9.497.415-1.689-.416-4.432.415-6.543-.104-.95-.208-1.477-.934-2.11.623-2.322 1.66-4.221 2.491-6.332.104-.21.52-.21.727-.316 0-.422-.208-.422 0-.844 2.7-4.855 13.6-6.332 14.328.105.103 1.16-.208 2.427-.727 3.06-1.142 1.689-3.011 2.533-5.295 3.166-.415.105-.727.422-1.142.528-1.246.422-2.596 0-4.05.105-1.349.528-2.283 1.266-3.114.211zm2.18-6.331c.104 0 .208 0 .312.105.104-.105.104-.422.104-.738-.208.105-.416.21-.416.633zm9.137.95c.104-.212.623-.74.104-.95-.104.21-.52.739-.104.95zm-3.842 3.06c.312 0 .52 0 .52-.211-.208 0-.104-.317-.416-.211 0 .105-.104.21-.104.422zm-2.284.95c.312 0 .623 0 .52-.423-.416-.105-.52.106-.52.422zm-2.388.105c.104 0 .104.106.104.211.312 0 .623 0 .83-.105 0-.528-.934-.634-.934-.106zM61 79.701c1.142-.106.934 1.16 1.869 1.266-.312-.95-1.038-1.477-1.869-1.794-.208.211 0 .211 0 .528zm4.672 6.437c.727.422 1.142 2.216 2.076 1.688-1.66-2.005-2.284-4.854-4.256-6.542 0-.106-.104-.106-.208-.106.208 2.11 1.765 3.06 2.388 4.96zm36.442 4.643c-.416-.211-.623-.844-1.038-1.055-4.569-2.85-12.563-2.11-17.131.21-4.153 2.217-8.41 5.277-10.383 9.392-.622.211-1.453.106-2.284 0a3.8 3.8 0 01-.83-1.266c-2.803-2.216-6.853-3.377-11.42-2.533-2.7 1.161-4.984 2.955-6.645 5.277-.83 1.266-1.142 2.321-1.558 3.904-.415 1.583-1.038 2.955-1.142 4.432-.104 1.688-.207 3.799 0 5.593.416 3.588 2.284 8.442 3.842 10.974 1.038 1.794 3.322 3.694 5.295 4.116.726.211 1.66 0 2.491.105 1.142.106 2.18.633 3.427.739 2.699.211 5.398-.739 8.202-1.161.207-.211 0-.739.207-.95 2.284 0 4.05 2.322 6.541 1.689 2.7.105 5.399 1.055 7.89.844 1.87-.106 3.842-.739 5.71-1.161 1.35-.316 2.596-.95 3.842-1.266 2.284-.633 3.946-.844 5.191-2.427-.726-.633-1.349-1.161-1.765-2.111 1.142-2.216 2.492.845 3.738.739.727-.105 2.803-3.271 3.011-3.799.83-1.477 1.765-5.276 1.869-7.175 0-.211-.208-.528-.208-.739 0-1.161.415-2.322.311-3.693-.415-4.749-.83-9.498-2.595-12.663-.415.105-.208.95-.831.95-2.18.422-5.71-.106-7.06-1.689 0-.422.416-.317.312-.844-.52-.317-1.246-.317-1.557-.844.311-2.533 5.087-1.478 7.267-.95-.311-1.16-1.661-1.9-2.699-2.638zm2.076 4.748c-.83 0-1.038-.105-1.765 0 .312.634 1.661.211 1.869.95 1.142-.317 1.35.528 2.388.422-.208-1.055-.623-1.9-1.35-2.427 0 .739-.934.422-1.142 1.055z" fill="#1A1A1A"/><path fill-rule="evenodd" clip-rule="evenodd" d="M84.67 118.112c.623.527.52 1.477.208 2.321-2.595 1.161-5.399 2.955-8.825 3.377-2.284.211-4.88-.317-6.852-.844-1.35-.317-2.596-1.056-3.634-1.794 0-.739.934-1.266 1.869-1.266.934.105 1.661.949 2.492 1.16 4.256 1.267 8.098.633 11.628-1.266 1.038-.633 1.869-1.899 3.115-1.688zM79.507 23.054c.738-.28.898-.527 1.412-.676.065.114.242.162.242.162.246 1.225-.73 2.406-1.463 3.749-.367.671-1.208 3.143-2.17 3.556-.74.28-2.173-.4-2.018-1.707 1.218-1.019 1.372-2.327 1.528-3.635-2.207-.986-4.54-1.14-6.936-1.406-1.593-.434-.894-2.365.73-2.405 2.703.543 5.453.906 8.11 1.63.194.342.436.504.565.732zM58.81 36.416c5.702 6.086 9.777 15.104 14.296 22.796-.142.54-.816.935-1.394.97-1.888-1.478-3.089-4.12-4.467-6.81-2.174-4.353-5.055-8.899-7.708-12.514-.699 1.931.952 4.31 1.026 6.548.324.57.695.96.682 1.729.083.408.355.096.437.504 1.789 4.73 3.992 8.61 5.09 13.442-2.145 2.02-2.785-.952-3.71-2.843l-1.036-1.825c-.324-.571-.424-1.273-.571-1.795-1.996-4.305-4.636-8.689-7.172-11.308-.427 1.62.628 3.739.732 5.503.99 2.006 1.612 4.683 2.507 7.048.553 1.5 1.218 2.936 1.66 4.502.375 1.453 1.04 2.888.773 4.262-.833.64-1.429.382-2.025.123-2.838-5.788-5.185-13.081-9.017-17.982-.195-.343-1.162-.992-1.132-1.466-.035-.588.846-1.409 1.666-1.282.644.079 1.486 1.562 2.182 2.523.518.913 1.054 2.12 1.668 2.672-.07-1.176-.618-1.615-.446-2.629-.907-1.597-.87-3.901-1.215-5.828 2.058-3.49 5.346 2.035 7.091 4.053-.004-1.062-.186-2.172-.882-3.133.208-.426-.117-.996-.28-1.813-.083-.408.124-.833.042-1.242-.017-.294-.26-.456-.277-.75-.117-.996-.044-2.712.34-3.09.272-.312.739-.281 1.14-.364zM23.98 60.202c.146.523.099.703.582 1.027.083.408-.302.786-.284 1.08-3.061 2.252-5.172 4.86-7.637 7.371 3.353 5.639 5.57 12.704 9.307 17.965 2.677-1.875 4.61-4.53 7.158-6.634.142-.54.06-.948.314-1.553.803-.167 1.352.271 2.06.464-.367.672.808.895.506 1.681-3.238 2.204-6.16 6.81-9.415 8.72-.45.263-.98.118-1.512-.026-.483-.325-.678-.667-.954-1.418-.713-1.255-1.668-2.672-2.139-3.765-2.126-4.533-4.623-9.456-6.861-13.923-.691.1-1.447.088-1.948-.53-.117-.997.686-1.164 1.183-1.608.72-.575 1.247-1.492 1.968-2.067.656-.69 1.425-1.445 2.08-2.134 1.313-1.379 2.608-3.051 4.114-4.087.273-.312.834-.642 1.477-.563zM75.767 35.441c-1.053 1.835-2.107-.285-3.07.128-.85.347-1.39 2.033-1.45 2.98-.452 3.157.072 9.086 2.435 12.719 2.298 3.52 6.81 2.24 9.064-.907.75-1.05 1-2.717 2.43-3.1.433 3.397-1.596 6.413-5.27 8.113-3.225 1.436-6.512-.134-8.132-2.986-2.705-4.498-3.182-10.607-2.54-14.483.173-1.014.268-1.373.617-2.34 1.166-1.9 3.622-2.581 5.25-1.559-.03.474.631.847.666 1.435zM45.777 59.58c-.108 1.129-1.317.317-2.168.664-1.364.497-3.09 2.727-4.472 2.929-1.205.25-2.255-.807-1.279-1.988 2.068-1.365 3.847-2.713 5.902-3.31.725.486 1.77.481 2.017 1.706z" fill="#1A1A1A"/><path fill-rule="evenodd" clip-rule="evenodd" d="M32.489 68.596c.583 1.026-.475 1.8-1.338 2.914-.544.624-1.07 1.541-1.55 2.278-.815.936-2.033 1.954-2.96 2.955-.77.755-1.822 2.59-2.673 2.937-.738.281-2.396-.267-1.823-1.364.255-.606 1.088-1.247 1.744-1.936 1.52-1.804 3.618-3.644 5.137-5.448.751-1.05 1.692-2.819 3.463-2.337zM49.976 63.81c.306.277.371.39.695.961-1.791 2.116-5.543 4.47-7.511 6.538-1.075.478-1.736.106-2.142-.873.668-1.457 2.352-2.445 4.308-3.745 1.442-1.15 2.819-2.415 4.65-2.88z" fill="#1A1A1A"/><path d="M70 164L0 123V41L70 0l70 41v82l-70 41z" fill="#5856D6" fill-opacity=".85"/><path d="M52.068 87v-.896a5.394 5.394 0 01-1.694-.378 4.555 4.555 0 01-1.414-.896 4.326 4.326 0 01-.98-1.358 4.31 4.31 0 01-.35-1.75c0-.672.122-1.27.364-1.792a4.197 4.197 0 011.008-1.358c.42-.383.892-.677 1.414-.882a5.575 5.575 0 011.652-.364v-.756h1.834v.756c.57.037 1.12.163 1.652.378.532.205 1.004.5 1.414.882.42.373.752.826.994 1.358.243.523.364 1.115.364 1.778 0 .653-.121 1.241-.364 1.764a4.05 4.05 0 01-.98 1.358c-.41.383-.882.681-1.414.896a5.6 5.6 0 01-1.666.364V87h-1.834zm.056-2.45v-5.67a2.81 2.81 0 00-1.288.392 2.59 2.59 0 00-.938.966c-.224.401-.336.896-.336 1.484 0 .439.07.83.21 1.176.14.336.327.625.56.868.243.233.518.42.826.56.308.13.63.205.966.224zm1.722 0a3.033 3.033 0 001.274-.392c.392-.233.705-.55.938-.952.234-.41.35-.905.35-1.484 0-.439-.07-.826-.21-1.162a2.485 2.485 0 00-.56-.868 2.62 2.62 0 00-.812-.574 2.7 2.7 0 00-.98-.238v5.67zM59.603 87v-7.336h1.876V87h-1.876zm0-8.358V76.78h1.876v1.862h-1.876zm6.186 8.47c-.784 0-1.437-.14-1.96-.42a3.142 3.142 0 01-1.232-1.162l1.512-.686c.159.243.364.434.616.574.262.13.584.196.966.196.439 0 .775-.084 1.008-.252.243-.177.364-.406.364-.686a.77.77 0 00-.294-.63c-.196-.159-.485-.238-.868-.238h-.756v-1.162h.77a.936.936 0 00.448-.098.743.743 0 00.294-.294.785.785 0 00.112-.42.703.703 0 00-.28-.574c-.177-.15-.462-.224-.854-.224-.326 0-.597.06-.812.182a1.463 1.463 0 00-.518.546l-1.414-.756a2.77 2.77 0 011.12-1.078c.495-.261 1.069-.392 1.722-.392.514 0 .971.08 1.372.238.411.159.733.387.966.686.234.299.35.672.35 1.12 0 .317-.079.625-.238.924-.149.299-.396.518-.742.658.448.13.784.355 1.008.672.234.317.35.69.35 1.12 0 .467-.13.863-.392 1.19-.261.317-.616.56-1.064.728-.448.159-.966.238-1.554.238zM70.117 87v-7.322h1.876v4.816l3.29-4.83h1.708V87h-1.876v-4.704L71.867 87h-1.75zm8.586 0v-7.336h1.876v2.772h.63l1.988-2.772h2.044l-2.604 3.542L85.52 87h-2.142l-2.198-2.912h-.602V87h-1.876zm7.412-2.17c0-.476.13-.891.392-1.246.27-.364.644-.644 1.12-.84.476-.196 1.022-.294 1.638-.294.308 0 .62.023.938.07.317.047.592.121.826.224v-.392c0-.467-.14-.826-.42-1.078-.271-.252-.677-.378-1.218-.378-.402 0-.784.07-1.148.21-.364.14-.747.345-1.148.616l-.602-1.232c.485-.317.98-.555 1.484-.714a5.42 5.42 0 011.61-.238c1.045 0 1.857.261 2.436.784.588.523.882 1.27.882 2.24V84.9c0 .196.032.336.098.42.074.084.191.135.35.154V87c-.168.028-.322.051-.462.07-.131.019-.243.028-.336.028-.374 0-.658-.084-.854-.252a1.085 1.085 0 01-.35-.616l-.042-.378c-.318.41-.714.728-1.19.952a3.386 3.386 0 01-1.456.336c-.486 0-.924-.098-1.316-.294a2.433 2.433 0 01-.91-.826 2.254 2.254 0 01-.322-1.19zm4.564.378c.102-.112.186-.224.252-.336a.62.62 0 00.098-.308v-.742a3.479 3.479 0 00-.728-.21 3.546 3.546 0 00-.742-.084c-.486 0-.887.107-1.204.322-.308.205-.462.48-.462.826 0 .187.051.364.154.532.102.168.252.303.448.406.196.103.429.154.7.154.28 0 .555-.051.826-.154.27-.112.49-.247.658-.406z" fill="#fff"/></symbol><symbol fill="none" viewBox="0 0 140 164" id="p7" xmlns="http://www.w3.org/2000/svg"><path d="M69.998 164L140 123V41L69.998 0 0 41v82l69.998 41z" fill="#FCAA23" fill-opacity=".5"/><path d="M36.522 87v-9.94h6.104v1.694H38.44V87h-1.918zm10.712.14c-.589 0-1.12-.098-1.596-.294a3.746 3.746 0 01-1.218-.826 3.94 3.94 0 01-.785-1.204 3.954 3.954 0 01-.265-1.442c0-.7.154-1.34.462-1.918a3.617 3.617 0 011.343-1.386c.589-.354 1.28-.532 2.073-.532.802 0 1.488.178 2.058.532.569.346 1.003.808 1.302 1.386.308.57.462 1.185.462 1.848 0 .112-.005.229-.014.35a6.84 6.84 0 01-.028.28h-5.67c.037.374.144.7.322.98.186.28.42.495.7.644a2.166 2.166 0 001.974-.056c.336-.186.564-.43.685-.728l1.61.448a3.01 3.01 0 01-.77.994 3.68 3.68 0 01-1.161.686 4.418 4.418 0 01-1.485.238zm-1.919-4.396h3.837a2.118 2.118 0 00-.322-.966 1.713 1.713 0 00-.672-.644 1.87 1.87 0 00-.939-.238c-.336 0-.644.08-.924.238-.27.15-.494.364-.672.644-.167.27-.27.593-.307.966zM55.6 87.14a4.195 4.195 0 01-1.61-.294 3.641 3.641 0 01-1.218-.84 3.815 3.815 0 01-.756-1.218 3.954 3.954 0 01-.266-1.442c0-.513.09-.999.266-1.456.178-.457.43-.863.756-1.218a3.48 3.48 0 011.218-.826 4.027 4.027 0 011.61-.308c.598 0 1.13.103 1.596.308a3.48 3.48 0 011.974 2.044c.178.457.266.943.266 1.456 0 .504-.088.985-.266 1.442-.168.458-.42.864-.756 1.218a3.492 3.492 0 01-1.204.84 4.195 4.195 0 01-1.61.294zm-1.918-3.794c0 .43.084.812.252 1.148.168.327.397.584.686.77.29.187.616.28.98.28.355 0 .677-.093.966-.28.29-.196.518-.457.686-.784.178-.336.266-.719.266-1.148 0-.42-.088-.798-.266-1.134a1.942 1.942 0 00-.686-.784 1.745 1.745 0 00-.966-.28c-.364 0-.69.098-.98.294-.289.187-.518.448-.686.784a2.446 2.446 0 00-.252 1.134zM60.702 87v-7.336h4.859v1.638h-2.982V87h-1.876zm10.33.14c-.57 0-1.073-.126-1.512-.378a2.791 2.791 0 01-1.008-1.05v4.27h-1.876V79.664h1.638v1.26c.28-.43.635-.765 1.064-1.008a2.85 2.85 0 011.47-.378c.495 0 .948.098 1.358.294.42.196.784.472 1.092.826.308.346.546.747.714 1.204.178.448.266.934.266 1.456 0 .71-.14 1.353-.42 1.932a3.462 3.462 0 01-1.134 1.386c-.476.336-1.026.504-1.652.504zm-.63-1.596c.29 0 .55-.06.784-.182.234-.121.434-.284.602-.49.178-.215.308-.453.392-.714.094-.27.14-.55.14-.84 0-.308-.051-.593-.154-.854a1.917 1.917 0 00-.42-.686 1.951 1.951 0 00-1.456-.644c-.177 0-.36.033-.546.098-.177.056-.35.14-.518.252a2.254 2.254 0 00-.448.392c-.121.15-.21.313-.266.49v1.722c.112.27.262.518.448.742.196.224.42.401.672.532.252.122.509.182.77.182zm4.603-.714c0-.476.13-.891.392-1.246.27-.364.644-.644 1.12-.84.476-.196 1.022-.294 1.638-.294.308 0 .62.023.938.07.318.047.593.121.826.224v-.392c0-.467-.14-.826-.42-1.078-.27-.252-.676-.378-1.218-.378-.401 0-.784.07-1.148.21-.364.14-.746.346-1.148.616l-.602-1.232a6.01 6.01 0 011.484-.714 5.423 5.423 0 011.61-.238c1.046 0 1.858.261 2.436.784.588.523.882 1.27.882 2.24V84.9c0 .196.033.336.098.42.075.084.192.136.35.154V87c-.168.028-.322.052-.462.07-.13.019-.242.028-.336.028-.373 0-.658-.084-.854-.252a1.084 1.084 0 01-.35-.616l-.042-.378c-.317.41-.714.728-1.19.952a3.387 3.387 0 01-1.456.336c-.485 0-.924-.098-1.316-.294a2.432 2.432 0 01-.91-.826 2.253 2.253 0 01-.322-1.19zm4.564.378c.103-.112.187-.224.252-.336a.621.621 0 00.098-.308v-.742a3.48 3.48 0 00-.728-.21 3.547 3.547 0 00-.742-.084c-.485 0-.886.107-1.204.322-.308.206-.462.48-.462.826 0 .187.052.364.154.532.103.168.252.303.448.406.196.103.43.154.7.154.28 0 .556-.051.826-.154.27-.112.49-.247.658-.406zm7.395 4.774V87h-.21c-.774 0-1.437-.168-1.988-.504a3.512 3.512 0 01-1.246-1.344 3.878 3.878 0 01-.434-1.806c0-.663.145-1.27.434-1.82a3.488 3.488 0 011.26-1.344c.551-.336 1.209-.504 1.974-.504h.21V76.78h1.876v2.898h.224c.766 0 1.424.168 1.974.504.551.336.971.784 1.26 1.344.29.55.434 1.157.434 1.82 0 .644-.144 1.246-.434 1.806-.289.55-.709.999-1.26 1.344-.541.336-1.199.504-1.974.504h-.224v2.982h-1.876zm-.21-4.48h.308v-4.326h-.308c-.354 0-.672.093-.952.28-.27.187-.485.444-.644.77-.158.327-.238.7-.238 1.12 0 .42.08.793.238 1.12.159.327.374.584.644.77.271.177.588.266.952.266zm2.002 0h.308c.364 0 .682-.088.952-.266.28-.187.495-.443.644-.77.159-.326.238-.7.238-1.12 0-.42-.079-.793-.238-1.12a1.943 1.943 0 00-.644-.77 1.636 1.636 0 00-.952-.28h-.308v4.326zM93.98 87v-7.336h1.876V87H93.98zm0-8.358V76.78h1.876v1.862H93.98zM97.156 87l1.862-2.856a1.891 1.891 0 01-1.05-.714c-.252-.355-.378-.821-.378-1.4 0-.485.112-.905.336-1.26.224-.355.532-.63.924-.826.392-.205.845-.308 1.358-.308h3.486V87h-1.876v-2.534h-.994L99.214 87h-2.058zm3.276-3.878h1.386v-2.044h-1.316c-.336 0-.602.093-.798.28a.96.96 0 00-.294.728c0 .299.084.546.252.742.178.196.434.294.77.294z" fill="#fff"/></symbol><symbol fill="none" viewBox="0 0 140 164" id="p8" xmlns="http://www.w3.org/2000/svg"><path fill-rule="evenodd" clip-rule="evenodd" d="M65.382 43.031c.322.812-.16 1.624-.16 2.436-1.448.325-2.412.974-3.538 1.624-.643 5.52-.482 12.99-1.125 19.81-.322 2.76 0 6.17 0 9.418 0 1.949-.483 4.709.16 6.333.161.65 1.769 1.786 2.573 2.11 2.572 1.137 6.913.813 9.486 2.274.482-.162.643-.974.964-1.299-.16-.487-.964.162-.964-.162 1.286-2.436 2.894-4.547 4.662-7.307 1.447-2.274 1.93-4.71 4.502-5.684-1.125-4.222.16-11.042 0-16.562-.643-.488-1.769-.488-2.251-.975-.482-1.623-.322-3.572-.482-5.683.804-.974 2.411-1.3 3.698-1.461 7.234-.812 16.077 0 21.544 2.598.16 2.11 1.607 6.332-2.251 5.845-.161 5.034-.643 8.606-.483 12.99.161 2.924 1.608 4.71 2.894 6.983.644 1.3 1.287 2.76 1.93 3.735 1.125 2.11 3.215 4.222 4.341 6.333.321.65.482 1.299.804 1.948.643 1.137 1.447 2.111 1.929 3.248.482.974.643 2.273 1.125 3.247.322.65.804.975 1.126 1.787 1.286 2.76 2.733 6.657 3.698 10.067.804 2.598 2.251 5.521 1.768 9.58-.321 2.111-1.608 2.923-2.733 4.547-7.235 1.786-16.078 1.462-24.76 1.949-8.038.324-14.47-.488-21.704-1.299-2.09-.163-2.251-.325-4.18.811-2.573 1.462-4.18 2.599-7.557 3.41-4.984 1.462-10.933 2.761-16.882 2.111-4.823-.649-9.646-1.461-13.183-3.572-2.412-1.461-4.02-3.735-6.592-4.871-2.894-4.709-6.27-8.769-4.824-16.563 1.447-8.769 6.592-17.212 15.274-18.349 1.447-10.717 2.09-22.57 2.412-33.45 0-.65.321-.974.804-1.137-1.447-.65-3.537-.65-4.502-1.786-.643-5.034 3.537-6.82 8.682-6.658 7.556-.162 17.846-1.786 23.795 1.624zm-16.72.163c-5.628.324-12.702-1.137-13.988 3.247 4.501 2.273 10.932.487 16.56.325 4.18-.163 8.842.65 10.61-2.436-3.215-1.136-8.52-1.299-13.183-1.136zm-9.808 6.332c.804 1.949.16 3.735 0 5.684-.322 4.384-.322 8.93-.643 13.315 0 .812-.483 1.624-.483 2.598-.321 5.196 0 10.392-.643 15.426-5.145 0-8.2 1.461-10.45 4.222-.965 1.136-2.412 2.436-3.055 3.572-1.447 2.76-2.733 6.983-3.055 10.392-.482 5.034 1.93 8.119 3.859 10.718.965 1.299 2.09 2.922 3.215 3.572.483.325 1.447.487 2.412.812.804.325 1.447.812 2.25 1.136 6.914 2.923 19.133 4.385 27.172 2.274 3.216-.812 6.27-2.923 8.843-4.384 1.286-.812 2.733-1.624 3.537-2.436 2.25-2.111 5.788-6.983 6.913-10.068 2.251-6.17-.16-12.016-4.019-14.451-1.769-1.137-3.537-1.624-5.949-2.599-1.608-.65-3.054-1.623-3.858-1.948-2.412-.65-4.985.325-6.592-1.624.964-4.871-.322-10.717 0-16.563.321-6.982 1.286-14.127.804-20.784-6.914.325-13.184.812-20.258 1.136zm42.606.975c-.483.65 0 1.786 0 2.598 5.144 1.948 12.54 2.11 18.489.974.965.487 1.929.487 2.733-.162.161-.812-.161-1.3-.321-1.949-5.788-2.436-14.47-2.923-20.901-1.461zm4.662 6.333c-.804 4.384.16 9.255.482 13.64-2.411 1.785-3.697 5.195-5.305 8.28-1.447 2.761-2.412 5.197-3.698 7.47-.482.65-1.286 1.462-1.286 2.273.16.812 1.929 1.624 3.055 2.599 1.929 1.623 4.019 4.384 4.501 7.307 4.824.487 9.968 0 14.31-.163 1.286 0 3.536-.325 4.662.163 1.286.487 3.055 3.734 4.18 5.521.643.974 1.286 1.948 1.929 3.085.483.812 1.769 2.435 1.769 3.247 0 1.624-4.019 2.274-5.627 2.761-2.251.487-4.663.974-6.431.487-6.27 1.137-13.988-.162-19.615-1.299-1.769 2.76-4.18 4.709-6.27 7.145 4.662.162 9.485 1.299 13.666 1.461 2.411.162 5.305-.162 8.038-.162 1.287 0 2.573 0 3.698-.163 1.126-.162 2.251 0 3.216 0 2.251 0 4.502-.487 6.431-.649 3.859-.325 8.2.162 10.45-1.462 2.573-4.709-1.286-9.905-1.768-14.939-1.929-2.922-2.894-6.495-4.663-9.58-1.447-4.06-3.215-7.145-5.466-10.555-.965-1.461-1.929-3.085-2.894-4.06-1.608-1.948-3.698-3.247-3.859-5.52-.482-5.521.804-11.367-.16-16.888-4.663.325-9.326-.324-13.345 0zm-2.412 43.68c-.321 3.085-1.286 5.358-2.09 7.956 1.93-2.273 4.02-4.384 4.663-7.794-.643-.162-2.09-.325-2.573-.162zm4.663 0c1.93 2.76-2.412 6.82-3.216 9.742-.16 0-.16.163-.321.163-.965.162-.965-.65-1.769-.65-.16.325-.643.487-.643.975 1.286.487 3.216.324 4.663.649 1.447-3.572 3.698-6.495 4.823-10.392-1.125-.975-2.25-.163-3.537-.487zm5.466 0c-1.125 3.897-4.18 7.469-4.662 10.879 1.608.325 4.18.325 6.11 0-1.77-.649-.644-1.786 0-2.923 1.125-2.273 2.411-6.008 3.376-8.444-1.287 1.137-2.251 2.923-3.377 5.197-.482.974-2.09 5.196-3.376 5.196-2.09 0 0-2.598.322-3.248 1.607-2.436 3.054-4.709 3.858-7.307-.964.325-1.286.974-2.25.65zm1.769 11.041c.482 0 1.768.488 2.09-.162-.643.162-.643-.325-.643-.974 2.25-2.761 3.215-6.82 5.145-9.743-.643-.162-1.286-.325-2.09-.325-.643 4.547-2.734 7.632-4.502 11.204zm3.376 0c3.698 0 6.592-.811 9.325-1.786-.16-.649-.482-1.299-1.125-1.624-.482.488-.804.975-1.769 1.137 0-.325-.482-.162-.321-.649.643-.488 1.125-1.137 1.768-1.787-1.125-1.623-1.929-3.41-3.376-4.546-1.608 3.085-3.376 5.845-4.502 9.255zm-18.49-1.623c.162.162.805.649.966.162-.322-.162 0-.974-.643-.812.16.487-.322.325-.322.65z" fill="#1A1A1A"/><path fill-rule="evenodd" clip-rule="evenodd" d="M57.021 54.235c-.643 1.3-4.019 2.76-4.662.65.643-1.3 4.02-2.111 4.662-.65zM56.86 59.431c-.482 1.3-3.376 1.462-4.019.325 0-1.624 3.698-1.948 4.02-.325zM92.392 60.243c-.321 1.462-1.929.65-3.215.975-.322-.325-.483-.812-.643-1.462.964-.812 2.894-.324 3.858.487zM90.624 63.816c.804 1.623-1.447 2.435-2.251 1.299-.161-1.3 1.125-1.786 2.25-1.3zM55.253 64.952c0 .65.643.65.643 1.462-2.412 1.786-4.823-2.273-.643-1.462zM90.624 69.986c-.643.812-2.573.65-2.894-.325.16-1.948 2.894-1.299 2.894.325zM55.092 73.234c-.482.65-2.09.487-2.733 0-.804-2.274 2.894-1.624 2.733 0zM90.463 74.533c-.964.487-3.376 1.136-3.376-.487.804-.812 3.055-.812 3.376.487zM56.379 77.618c-.644.65-2.412 1.3-3.377.487 0-.325-.321-.65-.16-1.136.803-.487 3.537-.65 3.537.65zM87.73 78.43c.322.325.482.974.322 1.461-1.287.487-3.055.325-3.055-1.299.804-.65 1.608 0 2.733-.162zM51.073 83.464c.804-.65 4.18-.812 4.02.487-.162 1.137-4.181 1.948-4.02-.487zM86.283 84.113c0 1.137-2.573 1.3-3.216.487-.804-1.461 2.734-1.461 3.216-.487zM82.585 89.31c0 .649.16.811 0 1.299-1.286.324-2.572.162-2.894-.975.483-1.461 1.608-.162 2.894-.325zM72.617 97.59c-.804 2.274.482 2.761.643 4.06.322 2.111-1.447 5.684-2.412 7.145-3.054 4.709-9.646 10.555-17.846 10.717-3.376.162-6.27.65-9.968.325-2.412-.325-7.235-2.274-8.682-3.248-4.02-2.923-6.753-9.093-5.788-15.588.16-1.462.322-3.086 2.733-3.086.322-.487.161-1.46.804-1.623 3.216-.487 6.592-.975 10.29-.975 5.627 0 11.737-.324 17.203.325 1.768.163 3.376.65 4.984.812 2.733.325 5.627-.162 8.039 1.137zm-29.1.325c.16 1.949-1.608 3.248-2.252 5.034 4.18 1.624 5.467-2.273 6.431-5.034-1.447.163-2.893-.324-4.18 0zm6.27 0c-.804 1.787-1.93 3.086-2.573 5.034.965 0 1.769-.325 2.894-.162 1.126-1.462 1.769-3.573 3.216-4.71 0 .326.804 0 .804.488 0 1.786-1.447 2.273-1.608 3.897 1.447 0 2.572 0 4.02-.162.964-1.299 1.285-3.085 3.054-3.573 0 .487.643.163.643.65-.16 1.137-1.125 1.624-1.447 2.923 1.126.162 1.769-.325 2.894-.163.482-.487.482-1.461 1.447-1.461.804 0 .482.974 1.126 1.137 2.572-.163 4.662-.812 5.787-2.436-6.913-.65-13.987-1.786-20.257-1.462zm-17.364.812c-.643.163-.483-.487-1.126-.487.483.812.161 1.462-.16 2.274.964.811 2.09 1.623 3.858 1.623.804-1.136.965-2.76 2.251-3.41 1.769.812-.322 2.598-.482 3.735.804.163 1.768.162 2.733.325.804-1.624 2.09-2.761 2.572-4.71-3.858-.162-6.752-.162-9.646.65zm38.265 2.761c-5.145 2.273-6.11 8.768-9.326 13.153.644.162 1.287-.488 1.93-.975 1.447-.974 2.572-1.786 3.537-2.923 2.09-2.435 4.34-5.358 4.18-9.255 0 .162-.16 0-.321 0zm-39.712 6.495c1.286-.974 1.93-2.436 2.733-3.735-.965-.487-1.93-.974-3.376-1.136-.483 1.623.321 3.572.643 4.871zm31.351-4.059c-1.286 2.435-3.055 4.871-4.18 7.144-.482.812-1.125 1.786-1.447 2.598-.322.812 0 2.274-1.286 2.598-.804-.649-.483-2.273-.322-2.922.804-3.248 4.18-6.008 4.984-9.256-1.447.162-1.929.325-3.215.325-1.126 3.41-4.502 5.521-4.823 9.255-.965.487-.965 1.786-2.251 1.949-1.447-1.949.803-3.897 1.768-5.359 1.126-1.786 2.412-3.572 3.216-5.358-1.126-.325-2.412 0-3.537.162-2.251 4.06-5.628 6.983-7.075 11.854-.482.487-1.286.162-1.768-.325 1.447-4.384 4.662-6.982 6.27-11.204-.965 0-2.09 0-2.894.162-.965 1.949-4.502 5.034-5.466 7.47-.483 1.136-.483 3.085-1.93 1.624.483-3.573 3.86-5.521 5.145-8.931-1.125-.325-2.411-.163-3.537-.325-2.09 1.948-3.537 4.547-5.305 6.82-.322-.325-.804-.487-.804-.974 1.125-2.274 2.894-3.897 3.858-6.333-.643-.163-1.286-.325-2.25-.325-.804.812-1.126 1.624-1.93 2.761-.643.811-1.93 1.786-1.93 2.922 0 .812 1.609 3.086 2.413 3.573 1.768 1.624 5.305 3.41 8.038 3.734 4.02.65 8.843 0 12.54-.324 1.77-.163 3.538-.65 4.663-1.299.161-.488-.16-.65-.16-1.137 2.411-3.41 4.501-6.982 6.11-11.042-.965-.162-1.93 0-2.895.163zM104.29 106.035c-.804 1.623-.643 3.247-1.447 4.709-2.894-.163-.322-6.983 1.447-4.709z" fill="#1A1A1A"/><path d="M69.998 164L140 123V41L69.998 0 0 41v82l69.998 41z" fill="#FCAA23" fill-opacity=".95"/><path d="M55.441 77.06l2.464 3.668 2.45-3.668h2.1l-3.444 5.04 3.332 4.9h-2.1l-2.338-3.528L55.553 87H53.44l3.332-4.9-3.444-5.04h2.114zM63.274 87v-7.336h1.876V87h-1.876zm0-8.358V76.78h1.876v1.862h-1.876zM66.842 87v-7.336h1.96l2.296 4.242 2.31-4.242h1.932V87h-1.778v-4.746l-1.876 3.444H70.51l-1.89-3.444V87h-1.778zm10.227 0v-7.336h1.876V87h-1.876zm0-8.358V76.78h1.876v1.862h-1.876zM80.245 87l1.862-2.856a1.89 1.89 0 01-1.05-.714c-.252-.355-.378-.821-.378-1.4 0-.485.112-.905.336-1.26.224-.355.532-.63.924-.826.392-.205.845-.308 1.358-.308h3.486V87h-1.876v-2.534h-.994L82.303 87h-2.058zm3.276-3.878h1.386v-2.044h-1.316c-.336 0-.602.093-.798.28a.96.96 0 00-.294.728c0 .299.084.546.252.742.177.196.434.294.77.294z" fill="#fff"/></symbol><symbol fill="none" viewBox="0 0 140 165" id="p9" xmlns="http://www.w3.org/2000/svg"><path fill-rule="evenodd" clip-rule="evenodd" d="M64.22 110.826c-.146 2.076-1.752 2.67-3.211 3.56-1.314.741-3.066 1.928-4.963 1.928-1.606 0-3.941-1.484-5.11-2.225-3.21-2.373-3.065-4.598-7.881-3.263-2.336.593-5.84 2.225-7.007 2.966-1.168.742-2.627 3.412-4.233 3.263-.584 0-1.898-.445-2.044-1.631-.145-1.78 6.131-6.675 7.883-7.713 1.751-.89 3.795-1.187 5.109-2.225 6.422-1.631 8.466 6.23 13.283 6.675 3.065-.149 5.255-2.967 8.174-1.335zM111.222 50.014c0 .89-.876 1.038-.876 2.076.438.89 1.167.148 1.605.89-1.313 1.632-2.919 3.56-4.963 4.005-4.379.593-4.525-4.45-7.298-6.23-3.065.594-4.67 2.818-6.569 4.598-1.46-.741-1.46.742-2.481 1.038-2.043-1.928 2.19-4.45.146-6.377.584-2.522 2.773-2.967 5.255-4.153 1.314-.594 2.043-1.929 3.649-1.187.584.297 2.336 1.335 3.211 2.225 1.314 1.187 2.19 3.411 4.233 3.56 1.606 0 3.066-1.484 4.088-.445zM82.174 37.258h.438c.438 13.942-1.898 28.181-3.065 42.123-.438 4.747-1.168 9.493-1.022 13.943 0 .741 0 2.67.146 3.263.292.89.876.593.876 1.631-.146 2.077-2.92 3.857-4.671 4.153-4.525.594-11.824-1.186-14.013-3.56-1.168-1.186-2.19-3.707-2.19-5.636-.146-5.636 5.255-8.75 12.261-8.306 1.752-5.19 1.46-10.975 1.898-16.167.146-1.038.73-1.928.876-2.966 0-.593-.438-1.483-.438-2.077 0-.89.876-1.78 1.022-2.67.438-2.373.146-4.746.438-7.119-4.087-.296-8.466.742-12.845 1.187-4.525.593-8.904 1.928-13.283 2.076.875 10.828-.292 20.914-.438 31.741-.438.593-1.46.593-1.022 2.077-.584.148-1.022.296-1.606.445-2.19 4.598-9.634 8.306-15.764 5.784-5.839-2.373-2.482-14.98 2.19-17.057 2.773-1.187 5.546.297 7.735 1.187-.146-6.675.876-12.608.876-19.876 0-.89-1.46-.444-1.897-1.038 2.627-4.301 1.751-11.717 1.167-17.798 1.314-.89 1.022-1.928 1.898-3.263 3.795.593 8.174-.594 12.7-.594 4.962 0 9.633 1.335 14.304 1.038 4.233-.148 9.196-1.631 13.43-2.52zm-7.298 7.861c.146-.742 1.605-1.038 1.021-1.928-.437.445-1.46 1.335-1.021 1.928zm-16.933 3.56c2.628-.445 3.212-3.115 4.525-5.043-2.043.296-3.065 3.411-4.525 5.043zm4.671-.742c1.46-.445 2.482-2.373 2.628-3.56-.584 1.484-2.19 1.929-2.628 3.56zm9.196 3.412c1.168.593 1.46-1.335 1.898-2.077-1.022.297-1.606 1.038-1.898 2.077zm-23.5 3.56h1.605c.292-.594-.584-1.187-1.022-1.632-.145.445-.73.593-.584 1.631zm31.237 3.41c0-.444.584-1.334 0-1.63 0 .444-.438 1.334 0 1.63zm-2.482 15.426c1.752-.593 1.606-4.301 1.46-6.23-.73 1.632-1.314 4.45-1.46 6.23zm-43.352 9.641c.584-.148 1.022-.445 1.168-.89-.292-.296-1.022-.148-1.606-.148-.146.742.292.742.438 1.038zm4.525 1.632c.146-.297.292-.445.438-.594-.292-.89-1.46-2.076-2.628-1.483.146 1.187 1.752 1.187 2.19 2.077zm6.422 3.411c.146-.445.438-.593.438-1.038-.438-.148-.584-.445-1.021-.445 0 .742.145 1.186.583 1.483zm18.976.445c.73.297 1.752-.445 1.168-.89 0 .594-1.022.148-1.168.89zm2.628 3.708c.292-1.631 2.627-3.263 1.897-4.598-.438 1.483-2.19 2.967-1.897 4.598zm-25.107.594c.73-.445 1.898-.445 1.898-1.632-1.168-.148-1.46.89-1.898 1.632zm33.865 2.67c1.313 0 1.751-1.929 1.167-3.115-.583.741-1.021 1.78-1.167 3.114zm-9.78 2.52c.292.297 1.605.742 1.897 0-.438-.74-1.313-.74-1.897 0z" fill="#1A1A1A"/><path fill-rule="evenodd" clip-rule="evenodd" d="M97.938 72.262c.73.148.584 1.187 1.022 1.632 5.109 2.521 9.926 8.75 10.364 16.315.146 2.522.584 6.081-.876 7.416-1.314 0-1.46-1.335-2.481-2.076-2.774-2.077-7.007-3.115-10.656-2.967-2.044 6.971-3.357 15.722-3.65 23.88-.437.742-1.021 1.187-1.021 2.225-.73.445-1.168 0-1.897-.148-.584 5.933-12.262 11.42-18.538 7.267-3.796-2.521-3.066-9.937-.584-13.2 3.065-4.153 10.364-3.263 14.889-1.038 2.043-12.46 4.233-25.808 4.962-39.01 2.628-1.482 5.985.297 8.466-.296zM95.895 90.21c.438 0 .73-.297 1.46-.148 0-.742-.876-.594-1.46-.89-.292.296-.292.89 0 1.038zm11.677 3.115v-1.038c-1.313-.149-1.313 1.186 0 1.038zM85.677 120.17c1.022-.593 1.606-1.78 1.898-3.263-1.022.593-1.314 2.077-1.898 3.263zm-2.481 2.373c1.022-.445 1.897-1.038 2.19-2.076-1.606-.148-1.752 1.038-2.19 2.076zM114.433 117.352c1.022 0 2.627-1.038 3.065.148 1.168-.296 1.022-1.928 2.044-2.224 1.313 1.334-1.168 5.487-2.628 6.081-3.065 1.038-5.984-1.928-7.736-3.708-1.168-1.187-2.044-3.412-3.065-3.56-1.168-.148-2.628 1.038-3.212 1.928-1.459 1.78-3.211 8.158-4.963 4.005-.438.741-1.313.741-2.043.148-.146-1.335.292-2.076.584-2.966-.146-.89-1.168-.742-1.168-1.632.438-2.225 2.481-2.373 3.65-3.56 1.459-1.334 1.897-3.263 3.648-4.004 6.861-2.373 7.299 6.823 11.824 9.344zm-14.743-1.335c0-.296.876-.741.146-1.038-.146 0-.584.742-.146 1.038z" fill="#1A1A1A"/><path d="M69.998 165L140 123.75v-82.5L69.998 0 0 41.25v82.5L69.998 165z" fill="#FCAA23" fill-opacity=".95"/><path d="M53.494 87v-6.524l-2.548 4.858h-1.078l-2.548-4.858V87h-1.932v-9.94h2.072l2.94 5.656 2.968-5.656h2.058V87h-1.932zm4.917 3.164a2.71 2.71 0 01-.602-.07 6.712 6.712 0 01-.686-.21l.364-1.484a1.691 1.691 0 00.742.182.868.868 0 00.616-.252c.187-.168.336-.425.448-.77l.224-.602-2.968-7.294h1.946l1.974 5.418 1.736-5.418h1.792L61 88.05a3.577 3.577 0 01-.63 1.134c-.262.317-.56.56-.896.728-.336.168-.69.252-1.064.252zm9.223-3.052c-.784 0-1.437-.14-1.96-.42a3.143 3.143 0 01-1.232-1.162l1.512-.686c.159.243.364.434.616.574.261.13.583.196.966.196.439 0 .775-.084 1.008-.252.243-.177.364-.406.364-.686a.77.77 0 00-.294-.63c-.196-.159-.485-.238-.868-.238h-.756v-1.162h.77a.936.936 0 00.448-.098.742.742 0 00.294-.294.785.785 0 00.112-.42.703.703 0 00-.28-.574c-.177-.15-.462-.224-.854-.224-.327 0-.597.06-.812.182a1.464 1.464 0 00-.518.546l-1.414-.756a2.771 2.771 0 011.12-1.078c.495-.261 1.069-.392 1.722-.392.513 0 .97.08 1.372.238.41.159.733.387.966.686.233.299.35.672.35 1.12 0 .317-.08.625-.238.924-.15.299-.397.518-.742.658.448.13.784.355 1.008.672.233.317.35.69.35 1.12 0 .467-.13.863-.392 1.19-.261.317-.616.56-1.064.728-.448.159-.966.238-1.554.238zM71.961 87v-7.322h1.876v4.816l3.29-4.83h1.708V87H76.96v-4.704L73.711 87h-1.75zm8.586 0v-7.336h1.876v2.772h.63l1.988-2.772h2.044l-2.604 3.542L87.365 87h-2.142l-2.198-2.912h-.602V87h-1.876zm7.412-2.17c0-.476.131-.891.392-1.246.271-.364.644-.644 1.12-.84.476-.196 1.022-.294 1.638-.294.308 0 .621.023.938.07.318.047.593.121.826.224v-.392c0-.467-.14-.826-.42-1.078-.27-.252-.676-.378-1.218-.378-.401 0-.784.07-1.148.21-.364.14-.746.345-1.148.616l-.602-1.232a6.01 6.01 0 011.484-.714 5.42 5.42 0 011.61-.238c1.046 0 1.858.261 2.436.784.588.523.882 1.27.882 2.24V84.9c0 .196.033.336.098.42.075.084.192.135.35.154V87c-.168.028-.322.051-.462.07-.13.019-.242.028-.336.028-.373 0-.658-.084-.854-.252a1.084 1.084 0 01-.35-.616l-.042-.378c-.317.41-.714.728-1.19.952a3.387 3.387 0 01-1.456.336c-.485 0-.924-.098-1.316-.294a2.433 2.433 0 01-.91-.826 2.253 2.253 0 01-.322-1.19zm4.564.378c.103-.112.187-.224.252-.336a.622.622 0 00.098-.308v-.742a3.48 3.48 0 00-.728-.21 3.547 3.547 0 00-.742-.084c-.485 0-.886.107-1.204.322-.308.205-.462.48-.462.826 0 .187.052.364.154.532.103.168.252.303.448.406.196.103.43.154.7.154.28 0 .556-.051.826-.154.271-.112.49-.247.658-.406z" fill="#fff"/></symbol></svg>